/* XPM */
static char *a6987116205d4f19f5500c4f93538d59F0eoJV8FNX7iOGTu[] = {
/* columns rows colors chars-per-pixel */
"80 80 205 2 ",
"   c #170809",
".  c #120B10",
"X  c #27191C",
"o  c #3A312E",
"O  c #322F31",
"+  c #791B15",
"@  c #6A1413",
"#  c #4D1E20",
"$  c #4D2F33",
"%  c #403C3D",
"&  c #563031",
"*  c #6E2A2B",
"=  c #782626",
"-  c #713638",
";  c #005E00",
":  c #006402",
">  c #006B05",
",  c #046A0D",
"<  c #03740A",
"1  c #0E711B",
"2  c #077715",
"3  c #14781C",
"4  c #1A7926",
"5  c #1C6B25",
"6  c #237A2A",
"7  c #2A7D32",
"8  c #3C4243",
"9  c #454746",
"0  c #5C5757",
"q  c #644B4B",
"w  c #5B615E",
"e  c #5E6161",
"r  c #747875",
"t  c #676868",
"y  c #821B17",
"u  c #913232",
"i  c #8F4647",
"p  c #A75653",
"a  c #AD6056",
"s  c #93776D",
"d  c #1A8227",
"f  c #21842C",
"g  c #258B2E",
"h  c #2C8A35",
"j  c #2A8734",
"k  c #318937",
"l  c #2C9137",
"z  c #3E8943",
"x  c #428C49",
"c  c #49944E",
"v  c #4C9252",
"b  c #4F9957",
"n  c #569A5B",
"m  c #5A9D61",
"M  c #649D68",
"N  c #68A76C",
"B  c #76A977",
"V  c #6EB076",
"C  c #6BA671",
"Z  c #8C8063",
"A  c #B1996F",
"S  c #AE9573",
"D  c #CBD57D",
"F  c #CFD97F",
"G  c #D0D97F",
"H  c #C6CF7B",
"J  c #7C9597",
"K  c #7EB284",
"L  c #7794AA",
"P  c #7FA0AE",
"I  c #8A8885",
"U  c #889C80",
"Y  c #939A94",
"T  c #958C84",
"R  c #84B789",
"E  c #9BAD96",
"W  c #8DB994",
"Q  c #9DB49B",
"!  c #96BB9A",
"~  c #95BA98",
"^  c #92A489",
"/  c #A4AB9E",
"(  c #ABAD9C",
")  c #A4B89E",
"_  c #B4B996",
"`  c #B1B784",
"'  c #839EAC",
"]  c #94ACAB",
"[  c #94A9A3",
"{  c #9FBEA1",
"}  c #8FAAB3",
"|  c #97B0B1",
" . c #8EA5AA",
".. c #ADAEA3",
"X. c #ADADAC",
"o. c #A4A7A3",
"O. c #A6BDA3",
"+. c #ABBCA4",
"@. c #ACBCA9",
"#. c #A9B8AC",
"$. c #B2B5AD",
"%. c #B4B8AC",
"&. c #BABCAD",
"*. c #B6B8A4",
"=. c #AABEB1",
"-. c #B4B4B4",
";. c #B9BCB4",
":. c #B6B6B9",
">. c #BBBDBC",
",. c #B1BBB4",
"<. c #96C29B",
"1. c #BEC48D",
"2. c #BEC39B",
"3. c #BAC094",
"4. c #9EC6A4",
"5. c #ACC4AE",
"6. c #A7C9AA",
"7. c #ABCBAD",
"8. c #A2C8A5",
"9. c #BEC3A2",
"0. c #B1C5AD",
"q. c #BFC1AE",
"w. c #ACC3B6",
"e. c #B3CBB4",
"r. c #BDC2BD",
"t. c #B6CDBD",
"y. c #BBCDBD",
"u. c #B7C6B5",
"i. c #BCD2BD",
"p. c #B5D1B7",
"a. c #C5CD83",
"s. c #C1C78B",
"d. c #C5CC8B",
"f. c #C8CF8D",
"g. c #CBD484",
"h. c #CCD48B",
"j. c #CFD884",
"k. c #D3DD81",
"l. c #D2DB8A",
"z. c #C5CB92",
"x. c #C6CB97",
"c. c #CCD394",
"v. c #CFD69F",
"b. c #D2DA97",
"n. c #D7E084",
"m. c #DCE687",
"M. c #C3C7A5",
"N. c #CDD2AE",
"B. c #C4C5BB",
"V. c #C7CABC",
"C. c #C4C6B4",
"Z. c #CED1BD",
"A. c #C7D1B9",
"S. c #D2D8A7",
"D. c #DDE2BF",
"F. c #DCE2B5",
"G. c #BEBEC0",
"H. c #BDCDC1",
"J. c #BCC6C1",
"K. c #BED2C1",
"L. c #BBD8C2",
"P. c #C3C4C4",
"I. c #C3CDC4",
"U. c #C9CBC6",
"Y. c #C5C6C8",
"T. c #C6CDC9",
"R. c #CBCCCC",
"E. c #C3D2C5",
"W. c #C2DAC5",
"Q. c #C4D4CA",
"!. c #CCD2CC",
"~. c #C4D9C9",
"^. c #CCDACE",
"/. c #CFD2C0",
"(. c #D1D3CE",
"). c #D4D9C8",
"_. c #CFCFD0",
"`. c #D0CFD1",
"'. c #CED2D1",
"]. c #CDDBD2",
"[. c #D3D3D4",
"{. c #D4DCD4",
"}. c #DADCD5",
"|. c #D4DCD8",
" X c #DADBDB",
".X c #E0DDDE",
"XX c #CDE1D2",
"oX c #D5E3D5",
"OX c #DAE4DC",
"+X c #D9E5D9",
"@X c #E1E5C1",
"#X c #E2E4DD",
"$X c #E7E9D1",
"%X c #DEDDE0",
"&X c #DDE2E1",
"*X c #DFE9E1",
"=X c #E4E4E4",
"-X c #ECECEB",
";X c #E5EBE5",
":X c #EDF2EB",
">X c #E6F1E8",
",X c #F0F1EB",
"<X c #F4F5F4",
"1X c #FCFCFC",
"2X c #F8F7F7",
/* pixels */
"m.m.m.m.m.m.m.m.m.m.m.m.m.m.m.m.m.m.m.m.m.m.m.m.m.m.m.m.m.m.m.m.m.m.m.m.m.m.m.m.m.m.m.m.m.m.m.m.m.m.m.m.m.m.m.m.m.m.m.m.m.m.m.m.m.m.m.m.m.m.m.m.m.m.m.m.m.m.m.m.",
"m.m.m.m.m.m.m.m.m.m.m.m.m.m.m.m.m.m.m.m.m.m.m.m.m.m.m.m.m.m.m.m.m.m.m.m.m.m.m.m.m.m.m.m.m.m.m.m.m.m.m.m.m.m.m.m.m.m.m.m.m.m.m.m.m.m.m.m.m.m.m.m.m.m.m.m.m.m.m.m.",
"m.m.m.m.m.m.m.m.m.m.m.m.m.m.m.m.m.m.m.m.m.m.m.m.m.m.m.m.m.m.m.m.m.m.m.m.m.m.m.m.m.m.m.m.m.m.m.m.m.m.m.m.m.m.m.m.m.m.m.m.m.m.m.m.m.m.m.m.m.m.m.m.m.m.m.m.m.m.m.m.",
"m.m.m.m.m.m.m.m.m.m.m.m.m.m.m.m.m.m.m.m.m.m.m.m.m.m.m.m.m.m.m.m.m.m.m.m.m.m.m.m.m.m.m.m.m.m.m.m.m.m.m.m.m.m.m.m.m.m.m.m.m.m.m.m.m.m.m.m.m.m.m.m.m.m.m.m.m.m.m.m.",
"m.m.m.m.m.m.m.m.m.m.m.m.m.m.m.m.m.m.m.m.m.m.m.m.m.m.m.m.m.m.m.m.m.m.m.m.m.m.m.m.m.m.m.m.m.m.m.m.m.m.m.m.m.m.m.m.m.m.m.m.m.m.m.m.m.m.m.m.m.m.m.m.m.m.m.m.m.m.m.m.",
"m.m.m.m.m.m.m.m.m.m.m.m.m.m.m.m.m.m.m.m.m.m.m.m.m.m.m.m.m.m.m.m.m.m.m.m.m.m.m.m.m.m.m.m.m.m.m.m.m.m.m.m.m.m.m.m.m.m.m.m.m.m.m.m.m.m.m.m.m.m.m.m.m.m.m.m.m.m.m.m.",
"m.m.m.m.m.m.m.m.m.m.m.m.m.m.m.m.m.m.m.m.m.m.m.m.m.m.m.m.m.m.m.m.m.m.m.m.m.m.m.m.m.m.m.m.m.m.m.m.m.m.m.m.m.m.m.m.m.m.m.m.m.m.m.m.m.m.m.m.m.m.m.m.m.m.m.m.m.m.m.m.",
"m.m.m.m.m.m.m.m.m.m.m.m.m.m.m.m.m.m.m.m.m.m.m.m.m.m.m.m.m.m.m.m.m.m.m.m.m.m.m.m.m.m.m.n.m.m.m.m.m.m.m.m.m.m.m.m.m.m.m.m.m.m.m.m.m.m.m.m.m.m.m.m.m.m.m.m.m.m.m.m.",
"m.m.m.m.m.m.m.m.m.m.m.m.m.m.m.m.m.m.m.m.m.m.m.m.m.m.m.m.m.m.m.m.m.m.m.m.m.m.m.m.m.m.m.m.k.n.n.n.n.m.m.m.m.m.m.m.m.m.m.m.m.m.m.m.m.m.m.m.m.m.m.m.m.m.m.m.m.m.m.m.",
"m.m.m.m.m.m.m.m.m.m.m.m.m.m.m.m.m.m.m.m.m.m.m.m.m.m.m.m.m.m.m.m.m.m.m.m.m.m.m.m.m.m.m.k.k.k.k.n.k.n.k.m.m.m.m.m.m.m.m.m.m.m.m.m.m.F.m.m.m.m.m.m.m.m.m.m.m.m.m.m.",
"m.m.m.m.m.m.m.m.m.m.m.m.m.m.m.m.m.m.m.m.m.m.m.m.m.m.m.m.m.m.m.m.m.m.m.m.m.m.m.m.m.k.k.k.k.j.F F k.k.n.m.m.m.m.m.m.m.m.m.m.m.m.m.m.m.m.m.m.m.m.m.m.m.m.m.m.m.m.m.",
"m.m.m.m.m.m.m.m.m.m.m.m.m.m.m.m.m.m.m.m.m.m.m.m.m.m.m.m.m.m.m.m.m.m.m.m.m.m.m.m.k.j.@XM.).N.h.j.k.k.k.n.n.l.m.m.m.m.m.m.m.m.m.m.m.m.m.m.m.m.m.m.m.m.m.m.m.m.m.m.",
"m.m.m.m.m.m.m.m.m.m.m.m.m.m.m.m.m.m.m.m.m.m.m.m.m.m.m.m.m.m.m.m.m.m.m.m.m.m.m.m.k.b.B.(.B.!.#XC.S.j.k.k.n.m.m.m.m.m.m.m.m.m.m.m.m.m.m.m.m.m.m.m.m.m.m.m.m.m.m.m.",
"m.m.m.m.m.m.m.m.m.m.m.m.m.m.m.m.m.m.m.m.m.m.m.m.m.m.m.m.m.m.m.m.m.m.m.m.m.m.m.m.k.x.>./ ;.}.!.|.$.b.G k.m.m.m.m.m.m.m.m.m.m.m.m.m.m.m.m.m.m.m.m.m.m.m.m.m.m.m.m.",
"m.m.m.m.m.m.m.m.m.m.m.m.m.m.m.m.m.m.m.m.m.m.m.m.m.m.m.m.m.m.m.m.m.m.m.m.m.m.m.m.k.9.P...%.r.U...[.h.G k.m.m.m.m.m.m.m.m.m.m.m.m.m.m.m.m.m.m.m.m.m.m.m.m.m.m.m.m.",
"m.m.m.m.m.m.m.m.m.m.m.m.m.m.m.m.m.m.m.m.m.m.m.m.m.m.m.m.m.m.m.m.m.m.m.m.m.m.m.m.k.).`.`...[.C.>.&.D D k.m.m.m.m.m.m.m.m.m.m.m.m.m.m.m.m.m.m.m.m.m.m.m.m.m.m.m.m.",
"m.m.m.m.m.m.m.m.m.m.m.m.m.m.m.m.m.m.m.m.m.m.m.m.m.m.m.m.m.m.m.m.m.m.m.m.m.m.m.n.l.Z._.,.}.%.V.r.F.D D k.n.m.m.m.m.m.m.m.m.m.m.m.m.m.m.m.m.m.m.m.m.m.m.m.m.m.m.m.",
"m.m.m.m.m.m.m.m.m.m.m.m.m.m.m.m.m.m.m.m.m.m.m.m.m.m.m.m.m.m.m.m.m.m.m.m.m.m.n.k.b.U.J.r.{.U.B.P.b.D k.k.n.n.m.m.m.m.m.m.m.m.m.m.m.m.m.m.m.m.m.m.m.m.m.m.m.m.m.m.",
"m.m.m.m.m.m.m.m.m.m.m.m.m.m.m.m.m.m.m.m.m.m.m.m.m.m.m.m.m.m.m.m.m.m.m.m.m.m.m.k.h.R.J.|./ &X%./.h.D F k.m.m.m.m.m.m.m.m.m.m.m.m.m.m.m.m.m.m.m.m.m.m.m.m.m.m.m.m.",
"m.m.m.m.m.m.m.m.m.m.m.m.m.m.m.m.m.m.m.m.m.m.m.m.m.m.m.m.m.m.m.m.m.m.m.m.m.n.k.k.A u @ - s T !.}.g.D k.n.n.m.m.m.m.m.m.m.m.m.m.m.m.m.m.m.m.m.m.m.m.m.m.m.m.m.m.m.",
"m.m.m.m.m.m.m.m.m.m.m.m.m.m.m.m.m.m.m.m.m.m.m.m.m.m.m.m.m.m.m.m.m.m.m.m.m.n.k.k.Z q - i p i @ s D D k.n.m.m.m.m.m.m.m.m.m.m.m.m.m.m.m.m.m.m.m.m.m.m.m.m.m.m.m.m.",
"m.m.m.m.m.m.m.m.m.m.m.m.m.m.m.m.m.m.m.m.m.m.m.m.m.m.m.m.m.m.m.m.m.m.m.n.m.n.G k.W.,.(./ T q & S D F G m.n.m.m.m.m.m.m.m.m.m.m.m.m.m.m.m.m.m.m.m.m.m.m.m.m.m.m.m.",
"m.m.m.m.m.m.m.m.m.m.m.m.m.m.m.m.m.m.m.m.m.m.m.m.m.m.m.m.m.m.m.m.m.m.m.k.n.G G c.R.R.;.`.(.(.|.v.D F k.n.m.m.m.m.m.m.m.m.m.m.m.m.m.m.m.m.m.m.m.m.m.m.m.m.m.m.m.m.",
"m.m.m.m.m.m.m.m.m.m.m.m.m.m.m.m.m.m.m.m.m.m.m.m.m.m.m.m.m.m.m.m.n.m.k.k.G G D Z.=X[.[. X[.R.U.h.D D G n.n.m.m.m.m.m.m.m.m.m.m.m.m.m.m.m.m.m.m.m.m.m.m.m.m.m.m.m.",
"m.m.m.m.m.m.m.m.m.m.m.m.m.m.m.m.m.m.m.m.m.m.m.m.m.m.m.m.m.m.m.k.n.k.k.G a._ ( X. X X[._.[.[.=XH D D k.n.n.m.m.m.m.m.m.m.m.m.m.m.m.m.m.m.m.m.m.m.m.m.m.m.m.m.m.m.",
"m.m.m.m.m.m.m.m.m.m.m.m.m.m.m.m.m.m.m.m.m.m.m.m.m.m.m.m.m.m.k.m.k.l.s.C. X=X.X}.[. X X=X X=X<Xg.H F G k.n.n.m.m.m.m.m.m.m.m.m.m.m.m.m.m.m.m.m.m.m.m.m.m.m.m.m.m.",
"m.m.m.m.m.m.m.m.m.m.m.m.m.m.m.m.m.m.m.m.m.m.m.m.m.m.m.m.m.m.k.k.l.V.=X2X,X;X&X|.^.^.+X X=X-X<X#Xc.D F G k.n.n.m.m.m.m.m.m.m.m.m.m.m.m.m.m.m.m.m.m.m.m.m.m.m.m.m.",
"m.m.m.m.m.m.m.m.m.m.m.m.m.m.m.m.m.m.m.m.m.m.m.m.m.m.m.m.m.m.k.k.M.-X2X<X-X;X}.^.~.~.W.W.~.+X-X2X2XD.D F G n.n.m.m.m.m.m.m.m.m.m.m.m.m.m.m.m.m.m.m.m.m.m.m.m.m.m.",
"m.m.m.m.m.m.m.m.m.m.m.m.m.m.m.m.m.m.m.m.m.m.m.m.m.m.m.m.m.m.k.1. X-X-X-X=X|.^.^.oXoXoXoXXX^.+X:X1X1X@XD F k.n.m.m.m.m.m.m.m.m.m.m.m.m.m.m.m.m.m.m.m.m.m.m.m.m.m.",
"m.m.m.m.m.m.m.m.m.m.m.m.m.m.m.m.m.m.m.m.m.m.m.m.m.m.m.m.m.m.g.q.=X=X=X|.].E.~.{.OX>X:X>X:X,.K.>X<X1X2Xb.D G n.n.m.m.m.m.m.m.m.m.m.m.m.m.m.m.m.m.m.m.m.m.m.m.m.m.",
"m.m.m.m.m.m.m.m.m.m.m.m.m.m.m.m.m.m.m.m.m.m.m.m.m.m.m.m.m.m.x.Y. X X[.Q.K.K.E.{.*X:X<X[.t t 8 e ;X2X1X$XD F k.m.m.m.m.m.m.m.m.m.m.m.m.m.m.m.m.m.m.m.m.m.m.m.m.m.",
"m.m.m.m.m.m.m.m.m.m.m.m.m.m.m.m.m.m.m.m.m.m.m.m.m.m.m.m.m.m.X.`.[.[.Q.H.y.y.E.).+X;X+Xt 0 * = $ 9 :X1X,Xj.D k.n.m.m.m.m.m.m.m.m.m.m.m.m.m.m.m.m.m.m.m.m.m.m.m.m.",
"m.m.m.m.m.m.m.m.m.m.m.m.m.m.m.m.m.m.m.m.m.m.m.m.m.m.m.m.k.k.X.[.[.^.I.y.t.t.H.!.|.&X,.O * y p @ X G.<X1XD D k.k.m.m.m.m.m.m.m.m.m.m.m.m.m.m.m.m.m.m.m.m.m.m.m.m.",
"m.m.m.m.m.m.m.m.m.m.m.m.m.m.m.m.m.m.m.m.m.m.m.m.m.m.m.n.k.h.:.[.[.T.I.y.t.y.H.Q.].|.X.. = y a y   Z =X-Xg.D k.k.n.m.m.m.m.m.m.m.m.m.m.m.m.m.m.m.m.m.m.m.m.m.m.m.",
"m.m.m.m.m.m.m.m.m.m.m.m.m.m.m.m.m.m.m.m.m.m.m.m.m.m.m.k.k.z.G.[.!.T.y.y.t.t.H.^.].oX|.o # u + + . o.%X}.g.D G n.n.m.m.m.m.m.m.m.m.m.m.m.m.m.m.m.m.m.m.m.m.m.m.m.",
"m.m.m.m.m.m.m.m.m.m.m.m.m.m.m.m.m.m.m.m.m.m.m.m.m.m.m.m.k._ P.[.'.I.y.H.H.y.K.Q.].].&XY t o & o r R. X(.D G k.n.m.m.m.m.m.m.m.m.m.m.m.m.m.m.m.m.m.m.m.m.m.m.m.m.",
"m.m.m.m.m.m.m.m.m.m.m.m.m.m.m.m.m.m.m.m.m.m.m.m.m.n.n.n.k.X.Y.[.!.H.y.y.t.t.K.Q.].6.|.].o.0 9 r u._. XZ.D D k.n.m.m.m.m.m.m.m.m.m.m.m.m.m.m.m.m.m.m.m.m.m.m.m.m.",
"m.m.m.m.m.m.m.m.m.m.m.m.m.m.m.m.m.m.m.m.m.m.m.m.m.m.m.k.k.-._.`.Q.V.y.t.t.H.K.].p.4.XX].L.i.E.E.H.'. XN.D D k.n.m.m.m.m.m.m.m.m.m.m.m.m.m.m.m.m.m.m.m.m.m.m.m.m.",
"m.m.m.m.m.m.m.m.m.m.m.m.m.m.m.m.m.m.m.m.m.m.m.m.m.m.n.k.h.:.`.!.I.y.t.t.y.K.Q.~.N 7.].'.~.K.y.i.Q.[.[.c.D G k.n.n.m.m.m.m.m.m.m.m.m.m.m.m.m.m.m.m.m.m.m.m.m.m.m.",
"m.m.m.m.m.m.m.m.m.m.m.m.m.m.m.m.m.m.m.m.m.m.m.m.m.m.m.k.z.G.R.!.Q.! y.t.y.K.~.! l 6.|.].L.K.y.y.T. X[.g.D G n.n.m.m.m.m.m.m.m.m.m.m.m.m.m.m.m.m.m.m.m.m.m.m.m.m.",
"m.m.m.m.m.m.m.m.m.m.m.m.m.m.m.m.m.m.m.m.m.m.m.m.m.n.n.n._ Y.'.R.I.R ~ y.y.i.E.b l ! {.Q.E.y.y.y.R.[.U.D D k.n.n.m.m.m.m.m.m.m.m.m.m.m.m.m.m.m.m.m.m.m.m.m.m.m.m.",
"m.m.m.m.m.m.m.m.m.m.m.m.m.m.m.m.m.m.m.m.m.m.m.m.m.m.n.G X.R.'.T.H.L.7 K.y.~.W g h 7.].Q.E.y.K.K.(. XN.D F k.n.m.m.m.m.m.m.m.m.m.m.m.m.m.m.m.m.m.m.m.m.m.m.m.m.m.",
"m.m.m.m.m.m.m.m.m.m.m.m.m.m.m.m.m.m.m.m.m.m.m.m.m.n.n.j.:._.R.H.K.0., B K.].c g f K.].Q.W.i.W E.(. XM.D k.k.n.n.m.m.m.m.m.m.m.m.m.m.m.m.m.m.m.m.m.m.m.m.m.m.m.m.",
"m.m.m.m.m.m.m.m.m.m.m.m.m.m.m.m.m.m.m.m.m.m.m.m.m.n.G h.:._.!.H.y.e.< : t.Q.j g k L.].K.W.n i.T.'.[.d.D k.k.n.m.m.m.m.m.m.m.m.m.m.m.m.m.m.m.m.m.m.m.m.m.m.m.m.m.",
"m.m.m.m.m.m.m.m.m.m.m.m.m.m.m.m.m.m.m.m.m.m.m.m.m.n.k.2.G._.T.H.y.~.: : B 5.f h m ~.^.6.6 K Q.Q.[.U.D D k.n.n.m.m.m.m.m.m.m.m.m.m.m.m.m.m.m.m.m.m.m.m.m.m.m.m.m.",
"m.m.m.m.m.m.m.m.m.m.m.m.m.m.m.m.m.m.m.m.m.m.m.m.n.n.k.*.J.'.H.! e.t.v : 6 W f g K ].<.d 3 i.y.!.[.C.H j.k.n.m.m.m.m.m.m.m.m.m.m.m.m.m.m.m.m.m.m.m.m.m.m.m.m.m.m.",
"m.m.m.m.m.m.m.m.m.m.m.m.m.m.m.m.m.m.m.m.m.m.m.m.m.n.j.-.Y.R.I.K.x p.! ; 1 C d d i.<.4 > B A.i.!.[.M.D D k.n.m.m.m.m.m.m.m.m.m.m.m.m.m.m.m.m.m.m.m.m.m.m.m.m.m.m.",
"m.m.m.m.m.m.m.m.m.m.m.m.m.m.m.m.m.m.m.m.m.m.m.m.n.k.j.:.Y.U.H.I.B 6 e.4 : V 2 n <.4 < c i.i.i.!.[.z.D G k.n.m.m.m.m.m.m.m.m.m.m.m.m.m.m.m.m.m.m.m.m.m.m.m.m.m.m.",
"m.m.m.m.m.m.m.m.m.m.m.m.m.m.m.m.m.m.m.m.m.m.m.m.k.k.c.G.R.T.H.H.H.6 1 B 3 z 4 K f < n K.p.5.I.!.U.a.D G n.n.m.m.m.m.m.m.m.m.m.m.m.m.m.m.m.m.m.m.m.m.m.m.m.m.m.m.",
"m.m.m.m.m.m.m.m.m.m.m.m.m.m.m.m.m.m.m.m.m.m.m.m.k.k.2.G.R.E.V.i.B.0.6 1 v z m v k N W b B i.T.[.V.D G G n.n.m.m.m.m.m.m.m.m.m.m.m.m.m.m.m.m.m.m.m.m.m.m.F.m.m.m.",
"m.m.m.m.m.m.m.m.m.m.m.m.m.m.m.m.m.m.m.m.m.m.m.m.m.G *.>.&.#.0.e.y.i.~ 7 j M C b 5 4 7 e.W.t.!.[.M.D G G n.m.m.m.m.m.m.m.m.m.m.m.m.m.m.m.m.m.m.m.m.m.m.m.m.m.m.m.",
"m.m.m.m.m.m.m.m.m.m.m.m.m.m.m.m.m.m.m.m.m.m.m.l.k.G -.U.U.@.E +.Q Q { 8.K K M j n 6.A.I.i.V.R.[.x.D G k.n.n.m.m.m.m.m.m.m.m.m.m.m.m.m.m.m.m.m.m.m.m.m.m.m.m.m.m.",
"m.m.m.m.m.m.m.m.m.m.m.m.m.m.m.m.m.m.m.m.m.m.m.m.k.j.:.U.U.I.t.) 0.E E Z O.#.!.A.4.{ K.y.y.I.!.R.d.D k.k.n.m.m.m.m.m.m.m.m.m.m.m.m.m.m.m.m.m.m.m.m.m.m.m.m.m.m.m.",
"m.m.m.m.m.m.m.m.m.m.m.m.m.m.m.m.m.m.m.m.m.m.m.m.k.c.:.U.Y.H.t.e.#.5.w.w.#.+.0.+.^ e.5.O.O.t.R.V.D D k.n.n.m.m.m.m.m.m.m.m.m.m.m.m.m.m.m.m.m.m.m.m.m.m.m.m.m.m.m.",
"m.m.m.m.m.m.m.m.m.m.m.m.m.m.m.m.m.m.m.m.m.m.m.k.k.M.G.U.P.H.w.,.| w.] w.E.y.I.e.+.) e.) O.#.P.&.D D k.n.n.m.m.m.m.m.m.m.m.m.m.m.m.m.m.m.m.m.m.m.m.m.m.m.m.m.m.m.",
"m.m.m.m.m.m.m.m.m.m.m.m.m.m.m.m.m.m.m.m.m.m.k.m.k.&.G.Y.r.>.>.J.K.J L L P } | ] y.u.@.K.H.!.[.x.D D k.n.m.m.m.m.m.m.m.m.m.m.m.m.m.m.m.m.m.m.m.m.m.m.m.m.m.m.m.m.",
"m.m.m.m.m.m.m.m.m.m.m.m.m.m.m.m.m.m.m.m.m.m.m.k.k.:.G.R.R.U.G.r.,.o.E Y [ ]  .' w.w.=.H.K.T.R.s.D F k.n.m.m.m.m.m.m.m.m.m.m.m.m.m.m.m.m.m.m.m.m.m.m.m.m.m.m.m.m.",
"m.m.m.m.m.m.m.m.m.m.m.m.m.m.m.m.m.m.m.m.m.m.m.k.h.>._._.`.`.`.`.U.J.>.:.r.r.%.#.I.H.I.H.I.!.P.a.D k.n.n.m.m.m.m.m.m.m.m.m.m.m.m.m.m.m.m.m.m.m.m.m.m.m.m.m.m.m.m.",
"m.m.m.m.m.m.m.m.m.m.m.m.m.m.m.m.m.m.m.m.m.m.m.m.k.o.Y.R.R.`.`.[.[. X[.B.B.U.r.>.:.J.>.G.P.`.q.D D k.m.m.m.m.m.m.m.m.m.m.m.m.m.m.m.m.m.m.m.m.m.m.m.m.m.m.m.m.m.m.",
"m.m.m.m.m.m.m.m.m.m.m.m.m.m.m.m.m.m.m.m.m.m.m.k.k.h.o.`.G.G.Y.R._.[.[.[.`.{.[. X[._._._._.Y.2.D F k.m.m.m.m.m.m.m.m.m.m.m.m.m.m.m.m.m.m.m.m.m.m.m.m.m.m.m.m.m.m.",
"m.m.m.m.m.m.m.m.m.m.m.m.m.m.m.m.m.m.m.m.m.m.m.k.k.k.k.` &.P.r.P.P.U.U.`.R.`.`.R.Y.Y.[._.R.R.s.D G k.n.m.m.m.m.m.m.m.m.m.m.m.m.m.m.m.m.m.m.m.m.m.m.m.m.m.m.m.m.m.",
"m.m.m.m.m.m.m.m.m.m.m.m.m.m.m.m.m.m.m.m.m.m.m.m.m.k.k.k.k.a._ C.U.`.U.R.I.Y.Y.P.Y.Y.Y.Y.R.R.a.D G n.n.m.m.m.m.m.m.m.m.m.m.m.m.m.m.m.m.m.m.m.m.m.m.m.m.m.m.m.m.m.",
"m.m.m.m.m.m.m.m.m.m.m.m.m.m.m.m.m.m.m.m.m.m.m.m.k.m.m.k.k.k.k.D a.` ..;.U.`.`._.P.`.P.Y.R._ D k.k.n.m.m.m.m.m.m.m.m.m.m.m.m.m.m.m.m.m.m.m.m.m.m.m.m.m.m.m.m.m.m.",
"m.m.m.m.m.m.m.m.m.m.m.m.m.m.m.m.m.m.m.m.m.m.m.m.m.m.m.m.n.k.k.k.G j.D D 1._ ..$.%.X.X._ a.j.G G n.n.m.m.m.m.m.m.m.m.m.m.m.m.m.m.m.m.m.m.m.m.m.m.m.m.m.m.m.m.m.m.",
"m.m.m.m.m.m.m.m.m.m.m.m.m.m.m.m.m.m.m.m.m.m.m.m.m.m.m.m.m.m.m.m.m.m.m.k.k.k.k.G g.D G G k.k.k.k.m.m.k.m.m.m.m.m.m.m.m.m.m.m.m.m.m.m.m.m.m.m.m.m.m.m.m.m.m.m.m.m.",
"m.m.m.m.m.m.m.m.m.m.m.m.m.m.m.m.m.m.m.m.m.m.m.m.m.m.m.m.m.m.m.m.m.m.m.m.k.k.k.k.k.k.k.k.k.k.k.m.m.m.m.m.m.m.m.m.m.m.m.m.m.m.m.m.m.m.m.m.m.m.m.m.m.m.m.m.m.m.m.m.",
"m.m.m.m.m.m.m.m.m.m.m.m.m.m.m.m.m.m.m.m.m.m.m.m.m.m.m.m.m.m.m.m.m.m.m.m.m.k.m.m.m.k.k.k.m.k.m.m.m.m.m.m.m.m.m.m.m.m.m.m.m.m.m.m.m.m.m.m.m.m.m.m.m.m.m.m.m.m.m.m.",
"m.m.m.m.m.m.m.m.m.m.m.m.m.m.m.m.m.m.m.m.m.m.m.m.m.m.m.m.m.m.m.m.m.m.m.m.m.m.m.k.k.m.m.k.l.m.m.m.m.m.m.m.m.m.m.m.m.m.m.m.m.m.m.m.m.m.m.m.m.m.m.m.m.m.m.m.m.m.m.m.",
"m.m.m.m.m.m.m.m.m.m.m.m.m.m.m.m.m.m.m.m.m.m.m.m.m.m.m.m.m.m.m.m.m.m.m.m.m.m.m.m.m.m.m.m.m.m.m.m.m.m.m.m.m.m.m.m.m.m.m.m.m.m.m.m.m.m.m.m.m.m.m.m.m.m.m.m.m.m.m.m.",
"m.m.m.m.m.m.m.m.m.m.m.m.m.m.m.m.m.m.m.m.m.m.m.m.m.m.m.m.m.m.m.m.m.m.m.m.m.m.m.m.m.m.m.m.m.m.m.m.m.m.m.m.m.m.m.m.m.m.m.m.m.m.m.m.m.m.m.m.m.m.m.m.m.m.m.m.m.m.m.m.",
"m.m.m.m.m.m.m.m.m.m.m.m.m.m.m.m.m.m.m.m.m.m.m.m.m.m.m.m.m.m.m.m.m.m.m.m.m.m.m.m.m.m.m.m.m.m.m.m.m.m.m.m.m.m.m.m.m.m.m.m.m.m.m.m.m.m.m.m.m.m.m.m.m.m.m.m.m.m.m.m.",
"m.m.m.m.m.m.m.m.m.m.m.m.m.m.m.m.m.m.m.m.m.m.m.m.m.m.m.m.m.m.m.m.m.m.m.m.m.m.m.m.m.m.m.m.m.m.m.m.m.m.m.m.m.m.m.m.m.m.m.m.m.m.m.m.m.m.m.m.m.m.m.m.m.m.m.m.m.m.m.m.",
"m.m.m.m.m.m.m.m.m.m.m.m.m.m.m.m.m.m.m.m.m.m.m.m.m.m.m.m.m.m.m.m.m.m.m.m.m.m.m.m.m.m.m.m.m.m.m.m.m.m.m.m.m.m.m.m.m.m.m.m.m.m.m.m.m.m.m.m.m.m.m.m.m.m.m.m.m.m.m.m.",
"m.m.m.m.m.m.m.m.m.m.m.m.m.m.m.m.m.m.m.m.m.m.m.m.m.m.m.m.m.m.m.m.m.m.m.m.m.m.m.m.m.m.m.m.m.m.m.m.m.m.m.m.m.m.m.m.m.m.m.m.m.m.m.m.m.m.m.m.m.m.m.m.m.m.m.m.m.m.m.m.",
"m.m.m.m.m.m.m.m.m.m.m.m.m.m.m.m.m.m.m.m.m.m.m.m.m.m.m.m.m.m.m.m.m.m.m.m.m.m.m.m.m.m.m.m.m.m.m.m.m.m.m.m.m.m.m.m.m.m.m.m.m.m.m.m.m.m.m.m.m.m.m.m.m.m.m.m.m.m.m.m.",
"m.m.m.m.m.m.m.m.m.m.m.m.m.m.m.m.m.m.m.m.m.m.m.m.m.m.m.m.m.m.m.m.m.m.m.m.m.m.m.m.m.m.m.m.m.m.m.m.m.m.m.m.m.m.m.m.m.m.m.m.m.m.m.m.m.m.m.m.m.m.m.m.m.m.m.m.m.m.m.m.",
"m.m.m.m.m.m.m.m.m.m.m.m.m.m.m.m.m.m.m.m.m.m.m.m.m.m.m.m.m.m.m.m.m.m.m.m.m.m.m.m.m.m.m.m.m.m.m.m.m.m.m.m.m.m.m.m.m.m.m.m.m.m.m.m.m.m.m.m.m.m.m.m.m.m.m.m.m.m.m.m.",
"m.F.m.m.m.m.m.m.m.m.m.m.m.m.m.m.m.m.m.m.m.m.m.m.m.m.m.m.m.m.m.m.m.m.m.m.m.m.m.m.m.m.m.m.m.m.m.m.m.m.m.m.m.m.m.m.m.m.m.m.m.m.m.m.m.m.m.m.m.m.m.m.m.m.m.m.m.m.m.m.",
"m.m.m.m.m.m.m.m.m.m.m.m.m.m.m.m.m.m.m.m.m.m.m.m.m.m.m.m.m.m.m.m.m.m.m.m.m.m.m.m.m.m.m.m.m.m.m.m.m.m.m.m.m.m.m.m.m.m.m.m.m.m.m.m.m.m.m.m.m.m.m.m.m.m.m.m.m.m.m.m.",
"m.m.m.m.m.m.m.m.m.m.m.m.m.m.m.m.m.m.m.m.m.m.m.m.m.m.m.m.m.m.m.m.m.m.m.m.m.m.m.m.m.m.m.m.m.m.m.m.m.m.m.m.m.m.m.m.m.m.m.m.m.m.m.m.m.m.m.m.m.m.m.m.m.m.m.m.m.m.m.m."
};
