/* XPM */
static char *result[] = {
/* columns rows colors chars-per-pixel */
"80 80 253 2 ",
"   c #3B150F",
".  c #00083E",
"X  c #332C2C",
"o  c #5B0804",
"O  c #50110F",
"+  c #680804",
"@  c #681B17",
"#  c #73100A",
"$  c #6A281E",
"%  c #513432",
"&  c #70362F",
"*  c #774C3C",
"=  c #664337",
"-  c #3C3E40",
";  c #593F42",
":  c #535354",
">  c #635B5B",
",  c #74524E",
"<  c #746A5E",
"1  c #686866",
"2  c #797877",
"3  c #756E6B",
"4  c #4F5D63",
"5  c #970C03",
"6  c #8B1A16",
"7  c #9B1A15",
"8  c #901008",
"9  c #A61816",
"0  c #A61207",
"q  c #862726",
"w  c #992929",
"e  c #9B2A32",
"r  c #8E3531",
"t  c #A72729",
"y  c #B42A29",
"u  c #A6312C",
"i  c #AA2B34",
"p  c #B82D36",
"a  c #BD323C",
"s  c #B5323B",
"d  c #AB3438",
"f  c #9A211C",
"g  c #CD1A04",
"h  c #CC1602",
"j  c #D21A04",
"k  c #D31D0A",
"l  c #D31805",
"z  c #CB0F00",
"x  c #D22615",
"c  c #C72E38",
"v  c #C4333C",
"b  c #CC333B",
"n  c #C33B38",
"m  c #D4343D",
"M  c #DB353D",
"N  c #D3312A",
"B  c #EC363E",
"V  c #AB4D3A",
"C  c #9B4738",
"Z  c #D44E38",
"A  c #B93941",
"S  c #A93A45",
"D  c #953741",
"F  c #CE1542",
"G  c #CD1B44",
"H  c #CD2849",
"J  c #D2274E",
"K  c #C43B44",
"L  c #CB3B44",
"P  c #C83643",
"I  c #D43B44",
"U  c #DC3B44",
"Y  c #DA3A44",
"T  c #D13A55",
"R  c #E33C44",
"E  c #E73D46",
"W  c #F03B41",
"Q  c #8B5645",
"!  c #955C47",
"~  c #8E5451",
"^  c #A9454A",
"/  c #B2514F",
"(  c #9A624A",
")  c #886459",
"_  c #976755",
"`  c #A86B55",
"'  c #B76B56",
"]  c #B7735C",
"[  c #AA6B54",
"{  c #AE5C64",
"}  c #866A68",
"|  c #8D7570",
" . c #B97A64",
".. c #AB746F",
"X. c #CB434B",
"o. c #D8434B",
"O. c #CA4852",
"+. c #D54953",
"@. c #D9555A",
"#. c #CB5953",
"$. c #E5434B",
"%. c #EA424A",
"&. c #ED484E",
"*. c #EB4952",
"=. c #E64C57",
"-. c #F24C54",
";. c #F5525A",
":. c #F6464F",
">. c #CF6F57",
",. c #DB506F",
"<. c #DE5C78",
"1. c #D84465",
"2. c #EC5A62",
"3. c #C47D66",
"4. c #D67866",
"5. c #DA7575",
"6. c #D16A66",
"7. c #E87776",
"8. c #F26D73",
"9. c #E4635F",
"0. c #908D5A",
"q. c #8F8C7C",
"w. c #BB826A",
"e. c #BB8977",
"r. c #AE9375",
"t. c #9DA36E",
"y. c #B3BC6E",
"u. c #B5BE70",
"i. c #B8B978",
"p. c #B2AD72",
"a. c #B18452",
"s. c #DA865E",
"d. c #C88469",
"f. c #D5876A",
"g. c #CC8B73",
"h. c #D58D72",
"j. c #DA9579",
"k. c #D39670",
"l. c #E4977A",
"z. c #F09979",
"x. c #DBAB77",
"c. c #D0B378",
"v. c #ECA27C",
"b. c #B7C070",
"n. c #BBC373",
"m. c #BFC876",
"M. c #C1CA77",
"N. c #C4CD79",
"B. c #C8C377",
"V. c #D8C87C",
"C. c #C7D07B",
"Z. c #CBD47C",
"A. c #CED87E",
"S. c #D0D97F",
"D. c #4972B0",
"F. c #857F80",
"G. c #E26781",
"H. c #EC788C",
"J. c #C17681",
"K. c #7C8D8C",
"L. c #6A8EA7",
"P. c #5DA4D4",
"I. c #40ACEF",
"U. c #2C88D2",
"Y. c #87888A",
"T. c #968C89",
"R. c #99968C",
"E. c #899797",
"W. c #999797",
"Q. c #878E90",
"!. c #AA8A86",
"~. c #B69688",
"^. c #A69996",
"/. c #B29B9B",
"(. c #9CA096",
"). c #B5BA85",
"_. c #A5A49D",
"`. c #B5BA9A",
"'. c #A9AE89",
"]. c #96A6A5",
"[. c #A5A5A6",
"{. c #B5B9A6",
"}. c #B8B8B7",
"|. c #AFAFAD",
" X c #BF9CA3",
".X c #CF948A",
"XX c #E99C82",
"oX c #ED8A93",
"OX c #CAA685",
"+X c #C6B782",
"@X c #D7A88B",
"#X c #EBA488",
"$X c #F6A789",
"%X c #FCAD92",
"&X c #EBB79A",
"*X c #FEB394",
"=X c #FDB99C",
"-X c #E9AB94",
";X c #EF8CA3",
":X c #F69DB2",
">X c #F097A8",
",X c #C6BCBB",
"<X c #D0B0AE",
"1X c #FCBBA2",
"2X c #F0AFB2",
"3X c #D29EA5",
"4X c #BBC290",
"5X c #BDC1BB",
"6X c #BECCAA",
"7X c #D3DD81",
"8X c #DBDA87",
"9X c #DCDB92",
"0X c #D1CD87",
"qX c #E9C794",
"wX c #D7E084",
"eX c #DCE687",
"rX c #DCE48A",
"tX c #DCE594",
"yX c #CED1B4",
"uX c #FCCAB3",
"iX c #DDE5B1",
"pX c #E3EBAE",
"aX c #B2BFC0",
"sX c #FBACC1",
"dX c #FFBBCE",
"fX c #FEB4C8",
"gX c #ECBFC3",
"hX c #B9C7C6",
"jX c #CCCCCC",
"kX c #C5C6C6",
"lX c #D3D3D3",
"zX c #DCDDDC",
"xX c #D6D9D7",
"cX c #D3D1C7",
"vX c #F9D6C6",
"bX c #E9DBD8",
"nX c #EFD1CD",
"mX c #DDE4D3",
"MX c #E3E6D8",
"NX c #EEEBCE",
"BX c #D9DFE1",
"VX c #F9DFE3",
"CX c #DBE5E5",
"ZX c #D7F0F1",
"AX c #E4E4E4",
"SX c #EBECEB",
"DX c #E7E8E8",
"FX c #F9E9E7",
"GX c #EBF7F7",
"HX c #F3F3F3",
"JX c #FEFEFE",
"KX c #FAF7F6",
"LX c #F0EFF0",
/* pixels */
"eXeXeXeXeXeXeXeXeXeXeXeXeXeXeXeXeXeXeXeXeXeXeXeXeXeXeXeXeXeXeXeXeXeXeXeXeXeXeXeXeXwXwXwX7XwXwXwXeXeXeXeXeXeXeXeXeXeXeXeXeXeXeXeXeXeXeXeXeXeXeXeXeXeXeXeXeXeXeXeX",
"eXeXeXeXeXeXeXeXeXeXeXeXeXeXeXeXeXeXeXeXeXeXeXeXeXeXeXeXeXeXeXeXeXeXeXeXeXeXpXNXcXcXyX7XA.A.7X7XwXrXeXeXeXeXeXeXeXeXeXeXeXeXeXeXeXeXeXeXeXeXeXeXeXeXeXeXeXeXeXeX",
"eXeXeXeXeXeXeXeXeXeXeXeXeXeXeXeXeXeXeXeXeXeXeXeXeXeXeXeXeXeXeXeXeXeXeXeXeXNXmXR.q.T._.,X7XC.7X7XwXwXwXeXeXeXeXeXeXeXeXeXeXeXeXeXeXeXeXeXeXeXeXeXeXeXeXeXeXeXeXeX",
"eXeXeXeXeXeXeXeXeXeXeXeXeXeXeXeXeXeXeXeXeXeXeXeXeXeXeXeXeXeXeXeXeXeXeXeXNX}.} _ ` ` ..^.hXm.m.C.7XwXwXeXeXeXeXeXeXeXeXeXeXeXeXeXeXeXeXeXeXeXeXeXeXeXeXeXeXeXeXeX",
"eXeXeXeXeXeXeXeXeXeXeXeXeXeXeXeXeXeXeXeXeXeXeXeXeXeXeXeXeXeXeXeXeXeXeXpX5X3 ( [ ] ] ' ~.}.4Xm.C.Z.7XwXeXeXeXeXeXeXeXeXeXeXeXeXeXeXeXeXeXeXeXeXeXeXeXeXeXeXeXeXeX",
"eXeXeXeXeXeXeXeXeXeXeXeXeXeXeXeXeXeXeXeXeXeXeXeXeXeXeXeXeXeXeXeXeXeXeXMXq._ [ ]  . .3.w.}.4Xn.m.C.7XwXwXeXeXeXrXeXeXeXeXeXeXeXeXeXeXeXeXeXeXeXeXeXeXeXeXeXeXeXeX",
"eXeXeXeXeXeXeXeXeXeXeXeXeXeXeXeXeXeXeXeXeXeXeXeXeXeXeXeXeXeXeXeXeXeXpX5X| [ ] d.d.d.3.g.kX{.b.n.N.A.wXeXeXeXeXeXeXeXeXeXeXeXeXeXeXeXeXeXeXeXeXeXeXeXeXeXeXeXeXeX",
"eXeXeXeXeXeXeXeXeXeXeXeXeXeXeXeXeXeXeXeXeXeXeXeXeXeXeXeXeXeXeXeXeXeXiX(.] ' d.d.g.f.f.@XxX`.b.m.C.Z.7XwXeXeXeXeXeXeXeXeXeXeXeXeXeXeXeXeXeXeXeXeXeXeXeXeXeXeXeXeX",
"eXeXeXeXeXeXeXeXeXeXeXeXeXeXeXeXeXeXeXeXeXeXeXeXeXeXeXeXeXeXeXeXeXeXcXR. . .d.h.j.j.f.<XCX'.b.n.C.Z.wXeXeXeXeXeXeXeXeXeXwXwXwXwXwXeXwXeXeXeXeXeXeXeXeXeXeXeXeXeX",
"eXeXeXeXeXeXeXeXeXeXeXeXeXeXeXeXeXeXeXeXeXeXeXeXeXeXeXeXeXeXeXeXeXeXjXr.3.d.h.l.l.l.j.uXlXy.b.n.C.A.wXwXeXeXeXeXeXeXwXtXtX7X7X7X7X7XwXwXeXeXeXeXeXeXeXeXeXeXeXeX",
"eXeXeXeXeXeXeXeXeXeXeXeXeXeXeXeXeXeXeXeXeXeXeXeXeXeXeXeXeXeXeXeXeXeXjX!. .h.l.XX#Xl.#XcXyXy.n.M.C.A.wXwXeXeXeXwXtXNXxXkX}.hXyX9XA.A.S.wXwXeXeXeXeXeXeXeXeXeXeXeX",
"eXeXeXeXeXeXeXeXeXeXeXeXeXeXeXeXeXeXeXS.eXeXeXeXeXeXeXeXeXeXeXeXeXtXjX~.4.h.XX#X$XXX1XzX4Xb.n.N.A.S.wXeXeXeXeXNXkXQ.< < ) | W.5XZ.C.A.S.7XeXwXeXeXeXeXeXeXeXeXeX",
"eXeXeXeXeXeXeXeXeXeXeXeXeXs.s.x.rXeX8X9.k x s.V.eXeXeXeXeXeXeXeXeXtXlX~.h.j.#X$X$X$XnXxXy.b.m.N.A.wXwXeXeXtXmXY., , Q ! ( ` ..].{.m.C.Z.S.wXeXeXeXeXeXeXeXeXeXeX",
"eXeXeXeXeXeXeXeXeXeXeXV.x j h l s.rXx l k 7.2.N V.eXeXeXeXeXeXeXeXeXmX Xh.v.$X%X%X1XDXyXy.b.m.Z.A.wXwXeXtXzX> = Q ! ( ( ` [ [ ~.{.n.m.C.S.eXeXeXeXeXeXeXeXeXeXeX",
"eXeXeXeXeXeXeXeXeXeXeXx h h j h h Z j k k %.JX@.>.eXeXeXeXeXeXeXeXeXmX Xl.#X$X*X%XvXLXi.b.n.N.Z.S.wXeXeXmX< * ! ( ` [  .] ] ' ~.|.b.m.C.S.S.eXeXeXeXeXeXeXeXeXeX",
"eXeXeXeXeXeXeXeXeXeX8Xh g j h h h j j j j j 1X7.Z eXeXeXeXeXeXeXeXeXNXyXj.$X*X*X1XKXDXp.y.n.N.Z.S.wXS.NX2 * ! ` ` ]  . . .] w.}.`.n.m.C.S.wXeXeXeXeXeXeXeXeXeXeX",
"eXeXeXeXeXeXeXeXeXeXqXj g h h j j j j k l l 2XN x eXeXeXeXeXeXrXeXeXiXlX-XXX%X%XuXJXyXy.u.n.m.0XS.wXtX|., ( ( ]  . .d.3.>.e.,X{.b.n.m.C.S.S.eXeXeXeXeXeXeXeXeXeX",
"eXeXeXeXeXeXeXeXeXeXV.x k j x k k k k k k l k k 4.eXeXeXeXeXwX7X8X@X5..X3X$X%X1XFXJX`.OX.Xn.m.M.S.S.iX2 _ ` ]  .d.g.d.3.OXkX`.y.n.m.N.Z.S.wXeXeXeXeXeXeXeXeXeXeX",
"eXeXeXeXeXeXeXeXeXeXS.x g k x k k k k k l k k l eXeXeXeXeXeX8XXXK A A O.3XvXnXFXKXyX/ s s / .X0XN.7X|.) ` ] d.h.h.d.g.<XcX`.u.u.m.N.S.S.wXS.eXeXeXeXeXeXeXeXeXeX",
"eXeXeXeXeXeXeXeXeXeXeXx.x g k g j k k k k k x V.eXeXeXeXeXqX9.a s X.+.L 6.nXJXFX>XA i i e i i { OXmXW._ ] d.h.f.f.k.,X,Xp.u.n.M.C.A.S.S.eXeXeXeXeXeXeXeXeXeXeXeX",
"eXeXeXeXeXeXeXeXeXeXeXeXs.N j j k j l k k j V.eXeXeXeXeXqXY v L I L I v P 5.2X.XS e e e e & e e D 6.F.] 3.g.f.h.@X,X`.y.u.n.M.C.S.S.S.eXeXeXeXeXeXeXeXeXeXeXeXeX",
"eXeXeXeXeXeXeXeXeXeXeXeXS.V.j j k k k k k qXeXeXeXeXeXrX=.L $.I L Y L v v A / A p i t w q e i i S { | ] 4.f..X<XkX4Xy.n.m.N.C.7XS.S.eXeXeXeXeXeXeXeXeXeXeXeXeXeX",
"eXeXeXeXeXeXeXeXeXeXeXeXeXeXqXZ j j k k Z eXeXeXeXeXeX8.m *.o.L U I m b m v P b p p i e t t t w e { [.e.3.5.<X}.).u.u.n.N.C.7X7XeXwXeXeXeXeXeXeXeXeXeXeXeXeXeXeX",
"eXeXeXeXeXeXeXeXeXeXeXeXeXeXeXtXZ x k k 8XeXeXeXeXeX#Xo.$.&.U E $.I o.M m b m b p p p p p y i t e ^ _.<X.XS T OXy.u.n.M.C.A.7X7XeXeXeXeXeXeXeXeXeXeXeXeXeXeXeXeX",
"eXeXeXeXeXeXeXeXeXeXeXeXeXeXeXeXeXc.Z z 9XeXeXeXeXrX2.$.*.-.R I Y $.$.U m M M b c c c c c c p t t i ^ S s i s +.i.u.n.M.Z.7X7XwXeXeXeXeXeXeXeXeXeXeXeXeXeXeXeXeX",
"eXeXeXeXeXeXeXeXeXeXeXeXeXeXeXeXeXeX8X>.rXeXeXeX9X8.o.*.*.E Y Y R R R R %.E M m m M m c c c p p p i w e a v i K 2.u.n.M.Z.7XwXwXeXeXeXeXeXeXeXeXeXeXeXeXeXeXeXeX",
"eXeXeXeXeXeXeXeXeXeXeXeXeXeXeXeXeXeXeXeXeXeXeX9X9.&.$.&.E R R R R R R R %.%.o.R R M M M m c c c p i i i i L K K +.XXb.m.N.7XwXwXeXeXeXeXeXeXeXeXeXeXeXeXeXeXeXeX",
"eXeXeXeXeXeXeXeXeXeXeXeXeXeXeXeXeXeXeXeXeXeXrX&X7.*.*.&.$.E U R R R M W %.E E E R R R R H m N c p c A c p I L K o.,.u.m.N.A.7XwXeXeXeXeXeXeXeXeXeXeXeXeXeXeXeXeX",
"eXeXeXeXeXeXeXeXeXeXeXeXeXeXeXeXeXeXeXeXeXeXeXeX-X;.$.-.U E M M M R U %.W W W :.:.;.-.Y R R Y c Y I 5.A b b I A X.=.+Xn.M.C.S.wXeXeXeXeXeXeXeXeXeXeXeXeXeXeXeXeX",
"eXeXeXeXeXeXeXeXeXeXeXeXeXeXeXeXeXeXeXeXeXeXeXeX&X;.U *.E E M P M =.=.-.%XnXVXFXdX8.E W E U M M 1.3X}.X.M b $.K K +.5.b.m.N.A.7XeXeXeXeXeXeXeXeXeXeXeXeXeXeXeXeX",
"eXeXeXeXeXeXeXeXeXeXeXeXeXeXeXeXeXeXeXeXeXeXeXeX-X;.Y %.E E T U H.VX:XFXJXJXVX;X;.8.H.H.2.%.E 2.3XjX}.O.%.I I X.s +.+.i.n.N.Z.7XeXeXeXeXeXeXeXeXeXeXeXeXeXeXeXeX",
"eXeXeXeXtXeXeXeXeXeXeXeXeXeXeXeXeXeXeXeXeXeXeXeX-X;.U *.$.E { VXJXVXuXnXFXJXKXVXKXVXvX8.;.:.H.gXlXkX}.+.E Y m L a o.L OXb.M.C.S.eXeXeXeXeXeXeXeXeXeXeXeXeXeXeXeX",
"eXeXeXeXeXeXeXeXeXeXeXeXeXeXeXeXeXeXeXeXeXeXeXeX&X;.U U E E ..JXvXuXvXvX-XnXJXJXKXVXoXH.8.2XzXlXjXkX|.I R m b P a I K OXu.M.C.S.eXeXeXeXeXeXeXeXeXeXeXeXeXeXeXeX",
"eXeXeXeXeXeXeXeXeXeXeXeXeXeXeXeXeXeXeXeXeXeXeXeXqX;.U I I @.3XKXNXZXP.P.jXe.xXJXJXHXFXVXSXDXAXxXjXkX XL M M c v A o.O.i.u.B.C.S.S.eXeXeXeXeXeXeXeXeXeXeXeXeXeXeX",
"eXeXeXeXeXeXeXeXeXeXeXeXeXeXeXeXeXeXeXeXeXeXeXeX9X2.$.P +.oXSXvXuXkXX . I.OX) HXJXKXHXHXSXAXAXlXjX}.!.T m c c s P L .Xu.b.M.Z.S.S.eXeXeXeXeXeXeXeXeXeXeXeXeXeXeX",
"eXeXeXeXeXeXeXeXeXeXeXeXeXeXeXeXeXeXeXeXeXeXeXeXeX7.=.O.O.2XJXVXv.=X#X} L.| & CXJXKXHXLXSXAXxXjXkX|...L c c P p L K x.p.n.N.Z.S.eXeXeXeXeXeXeXeXeXeXeXeXeXeXeXeX",
"eXeXeXeXeXeXeXeXeXeXeXeXeXeXeXeXeXeXeXeXeXeXeXeXeXqX:.@.#.gXJXJX@X>.z.k.' = < JXJXKXHXHXSXBXxXjX}.^.e.6./ c A P K b i.b.n.N.Z.S.eXeXeXeXeXeXeXeXeXeXeXeXeXeXeXeX",
"eXeXeXeXeXeXeXeXeXeXeXeXeXeXeXeXeXeXeXeXeXeXeXeXeXrX2.7.<.nXJXJXHX.X! Q ,   Y.JXJXJXHXSXAXzXjX|.!.l.uXvX5.p P I L @.i.b.M.N.S.wXeXeXeXeXeXeXeXeXeXeXeXeXeXeXeXeX",
"eXeXeXeXeXeXeXeXeXeXeXeXeXeXeXeXeXeXeXeXeXeXeXeXeXeX-XoX.XbXJXJXJXJXT.= % 1 jXJXJXKXHXDXAXlXhX^.j.nXP.U.<XA L o.+.@Xy.n.N.Z.S.wXeXeXeXeXeXeXeXeXeXeXeXeXeXeXeXeX",
"eXeXeXeXeXeXeXeXeXeXeXeXeXeXeXeXeXeXeXeXeXeXeXeXeXeXtX7.oXDXHXJXJXJXHX}.[.AXJXJXJXJXHXAXlXkX|.J.%XlX4 . D.1.o.L 5.+Xb.m.N.S.S.wXeXtXeXeXeXeXeXeXeXeXeXeXeXeXeXeX",
"eXeXeXeXeXeXeXeXeXeXeXeXeXtXeXeXeXeXeXeXeXeXeXeXeXeXeX9X2XAXHXKXJXJXJXJXJXKXFXFXFXFXFXzXjX}.[.} g.=X%Xg.../ P 5.u.0Xn.N.C.S.wXeXeXeXeXeXeXeXeXeXeXeXeXeXeXeXeXeX",
"eXeXeXeXeXeXeXeXeXeXeXeXeXeXeXeXeXeXeXeXeXeXeXeXeXeXeX8XzXDXSXFXKXJXJXFXvXuXuX=XqX=X1X,X5X[.T.< ~ >.l.g.V v +.c.u.u.m.C.A.S.wXeXeXeXeXeXeXeXeXeXeXeXeXeXeXeXeXeX",
"tXeXeXeXeXeXeXeXeXeXeXeXeXeXeXeXeXeXeXeXeXeXeXeXeXeXwX9XzXAXDXSXbXHXnX1X*XqXuX=X%Xv.l.3.e.T.F.) { #./ / X.+.@Xy.n.M.N.A.S.wXwXeXeXeXeXeXeXeXeXeXeXeXeXeXeXeXeXeX",
"eXeXeXeXeXeXeXeXeXeXeXeXeXeXeXeXeXeXeXeXeXeXeXeXeXeXeXiXzXDXDXSXHXLXuX%X$X$X*XqX%XXXh.4.' | F.T.!..Xg.4.G.XXn.n.M.N.0XA.wXwXeXeXeXeXeXeXeXeXeXeXeXeXeXeXeXeXeXeX",
"eXeXeXeXeXeXeXeXeXeXeXeXeXeXeXeXeXeXeXeXeXeXeXeXeXeXeXiXzXDXDXDXLXAX1X*X%X] d.*X*Xv.j.w.[ _ q.W.E.i.+X+X+XM.M.C.C.Z.A.wXeXwXeXeXeXeXeXeXeXeXeXeXeXeXeXeXeXeXeXeX",
"eXeXeXeXeXeXeXeXeXeXeXeXeXeXeXeXeXeXeXeXeXeXeXeXeXeXeXmXxXAXAXDXDXbX*Xz.#XnXkX..' d.` ! ( _ q.W.R.u.i.u.m.C.C.Z.A.A.wXwXeXeXeXeXeXeXeXeXeXeXeXeXeXeXeXeXeXeXeXeX",
"eXeXeXeXeXeXeXeXeXeXeXeXeXeXeXeXeXeXeXeXeXeXeXeXeXeXrXbXzXAXAXAXDXbX.Xf.bXJXJX| & ( Q ( ( _ Y.E.p.u.m.M.C.Z.S.S.wXwXeXeXeXeXeXeXeXeXeXeXeXeXeXeXeXeXeXeXeXeXeXeX",
"eXeXeXeXeXeXeXeXeXeXeXeXeXeXeXeXeXeXeXeXeXeXeXeXeXwXtXAXzXzXAXBXBXlX<XbXJXJXHX[.] j.g.] ! } Q.'.b.n.M.C.A.S.wXwXwXwXeXeXeXeXeXeXeXeXeXeXeXeXeXeXeXeXeXeXeXeXeXeX",
"eXeXeXeXeXeXeXeXeXeXeXeXeXeXeXeXeXeXeXeXeXeXeXeXeXeXpXGXBXzXzXjXjXHXJXJXJXJXJXkXQ ( ! * ) Y.(.y.b.m.N.Z.S.wXeXeXwXeXeXeXeXeXeXeXeXeXeXeXeXeXeXeXeXeXeXeXeXeXeXeX",
"eXeXeXeXeXeXeXeXeXeXeXeXeXeXeXeXeXeXeXeXeXeXeXeXtXeXw.2XZXBX,XkXSXJXJXJXJXJXKXCX< $ Q ) Q.Q.y.y.b.m.N.A.7XeXeXf.o.6.k.8XeXeXeXeXeXeXeXeXeXeXeXeXeXeXeXeXeXeXeXeX",
"eXeXeXeXeXeXeXeXeXeXeXeXeXeXeXeXeXeXeXeXeXeXeXeXeXB.7 9 ^ |.hXHXJXJXJXJXJXKXSXHXT.& 3 Y.K.q.p.b.n.M.Z.A.wXwXeX@.F F F F H @.k.V.rXeXeXrXeXeXeXeXeXeXeXeXeXeXeXeX",
"eXeXeXeXeXeXeXeXeXtXeXeXeXeXeXeXeXeXeXeXeXeXeXeXeXiXGXlX.X,XJXJXJXJXJXKXLXAXAXkXF.3 2 2 Q.Y.| ).n.M.Z.A.7XeXeXH F F F F F F F F H O.f.x.rXeXeXeXeXeXeXeXeXeXeXeX",
"eXeXeXeXeXeXeXeXeXeXeXeXeXeXeXeXeXeXeXeXeXeXeXeXeXNXGXJXJXJXJXJXJXKXHXDXAXxX}.3 : > 1 Q.].].E.2 0Xn.C.7X7XwX0XF :X;XG.J F F F F F F F F G X.4.x.eXeXeXeXeXeXeXeX",
"eXeXeXeXeXeXeXeXeXeXeXeXeXeXeXeXeXeXeXeXeXeXeXeXeXMXLXHXJXJXJXJXKXSXAXzXjX[.> : : 1 2 3 ) } } $ p.n.m.Z.7XwXk.,.dX:XdXH.2XT J 1.F F F F F F F H N.A.7XeXeXeXeXeX",
"eXeXeXeXeXeXeXeXeXeXeXeXeXeXeXeXeXeXeXeXeXeXeXeXrXMXSXHXKXKXKXSXDXBXlXhXY.: : > 1 , % O # # ~ W.'.b.m.C.7X7X6.H.dXH.,.F sXH.sXfX<.:XG.,.F F F #.n.y.M.eXeXeXeXeX",
"eXeXeXeXeXeXeXeXeXeXeXeXeXeXeXeXeXeXeXeXeXeXeXeXeXyXDXSXHXSXSXAXBXjX|.< % : : : -   o q w 6 r ].].i.n.N.C.7XH >XfX:X:XG H.dXfX1.G.dX;XdXdXoXF 3.n.n.N.eXeXeXeXeX",
"eXeXeXeXeXeXeXeXeXeXeXeXeXeXeXeXeXeXeXeXeXeXeXeXeX9XlXDXDXDXBXlXaXE., o o $ % X O @ $ w u t 8 ) ].).n.M.Z.0XF dX;XJ F J :XdXG.F ;X:XG sX>X,.F p.n.M.eXeXeXeXeXeX",
"eXeXeXeXeXeXeXeXeXeXeXeXeXeXeXeXeXeXeXeXeXeXeXeXrXwX6XhXBXlXhX|.2 @ o @ @ O   X @ 6 9 t u u 6 & K.'.b.m.C.k.T :XdXdXG.sXsX:XH.F sXH.T dX,.F H u.b.M.eXeXeXeXeXeX",
"eXeXeXeXeXeXeXeXeXeXeXeXeXeXeXeXeXeXeXeXeXeXeXeXeXwX8Xr.W.].Q.< @ o @ @ @ # # + t y 7 y t y 8 ; 1 '.b.n.N.>.F F F ,.G.:XJ G.dXJ dX<.<.dXF F O.n.n.n.eXeXeXeXeXeX",
"eXeXeXeXeXeXeXeXeXeXeXeXeXeXeXeXeXeXeXeXeXeXeXeXeXeXeXV + O o o O @ $ q # 0 5 q n 0 8 9 t 8 & 1 4 (.b.n.N.T F F F F F F F J G.G.fXJ >X>XF F 3.u.n.N.eXeXeXeXeXeX",
"eXeXeXeXeXeXeXeXeXeXeXeXeXeXeXeXeXeXeXeXeXeXeXeXeXeXwXOX{ } * + # 6 7 5 5 t V @XXXC q w w ~ [.2 - t.b.n.m.3.o.G F G F F F F F F F F <.<.F F p.n.n.A.eXeXeXeXeXeX",
"eXeXeXeXeXeXeXeXeXeXeXeXeXeXeXeXeXeXeXeXeXeXeXeXeXeXeXmXGXZXhX/.V e u V l.1X1X*X#X@Xk.w.w.~.aX2 > R.b.n.m.A.7X7Xk.6.X.G F F F F F F F F F c c.b.b.S.eXeXeXeXeXeX",
"eXeXeXeXeXtXeXeXeXeXeXeXeXeXeXeXeXeXeXeXeXeXeXeXeXeXeXyXbXAXMXZXCX<X#XuXuXuX1X-XXXj.j.j.g.w._.R.2 _.y.n.C.A.7XwXwXeX8X#.F F F J F F F F F K b.n.M.eXeXeXeXeXeXeX",
"eXeXeXeXeXeXeXeXeXeXeXeXeXeXeXeXeXeXeXeXeXeXeXeXeXeXeXcXxXAXSXDXDXuX=XqX=X*X%X#X@Xg.g.g.w.` R.E.1 ).b.n.m.A.7XwXeXeXrX6.F G T r.p.w.#.H F >.n.b.N.eXeXeXeXeXeXeX",
"eXeXeXeXeXeXeXeXeXeXeXeXeXeXeXeXeXeXeXeXeXeXeXeXeXeXwXlXzXzXCXDXAX2X$X*X*X%X#Xl.h.g.d.w.a.` ].3 @ b.b.m.C.A.wXwXeXeXeX6.F F d.n.b.M.S.eXS.V.M.b.eXeXeXeXeXeXeXeX",
"eXeXeXeXeXeXeXeXeXeXeXeXeXeXeXeXeXeXeXeXeXeXeXeXeXeXA.}.GXxXzXAXBX&XXX$X$X$X#Xj.h.d.w...` ..2 O + ).n.m.C.A.wXwXeXeXeX9.F T c.b.n.A.eXeXeXeXeXS.eXeXeXeXeXeXeXeX",
"eXeXeXeXeXeXeXeXeXeXeXeXeXeXeXeXeXeXeXeXeXeXeXeXeXeXk.8 ^.ZXGXCXMX&Xl.z.XXXXl.j.g.g.w.` ) Q + o _ b.b.m.C.A.wXeXeXeXeXs.H x.N.u.M.eXeXeXeXeXeXeXeXeXeXeXeXeXeXeX",
"eXeXeXeXeXeXeXeXeXeXeXeXeXeXeXeXeXeXeXeXeXeXeXeXeXeX8X5 o ,  XBXZXcXj.x.#Xx.j.g.w._ Q r q 8 q ~.b.n.m.C.A.wXwXeXeXeXeXk.4.eXZ.M.S.S.eXeXeXeXeXeXeXeXeXeXeXeXeXeX",
"eXeXeXeXeXeXeXeXeXeXeXeXtXeXeXeXeXeXeXeXeXeXeXeXeXeXS.yX$ + d 6 ^ ..] #.>.' / C q 6 6 6 5 r _.y.b.n.N.Z.A.wXwXeXeXeXeXx.c.eXS.A.eXeXeXeXeXeXeXeXeXeXeXeXeXeXeXeX",
"eXeXeXeXeXeXeXeXeXeXeXeXeXeXeXeXeXeXeXeXeXeXeXeXeXeXeXpX<X,XAX..5 5 9 c y y 9 0 9 f 5 8 _ ]._.y.b.m.N.A.wXwXeXeXeXeXeXS.eXeXS.wXeXeXeXeXeXeXeXeXeXeXeXeXeXeXeXeX",
"eXeXeXeXeXeXeXeXeXeXeXeXeXeXeXeXeXeXeXeXeXeXeXeXeXeXeXyXZXSXBXCXhX..u 9 y y y u 7 5 w q.].].'.y.b.m.C.S.wXwXeXeXeXeXeXeXeXeXeXeXeXeXeXeXeXeXeXeXeXeXeXeXeXeXeXeX",
"eXeXeXeXeXeXeXeXeXeXeXeXeXeXeXeXeXeXeXeXeXeXeXeXeXeXrXyXAXSXAXlXhXhX(.! f t 9 7 f ~ E.E.Q.[.'.y.n.N.A.S.wXeXeXeXeXeXeXeXeXeXeXeXeXeXeXeXeXeXeXeXeXeXeXeXeXeXeXeX",
"eXeXeXeXeXeXeXeXeXeXeXeXeXeXeXeXeXeXeXeXeXeXeXeXeXeXeXyXAXSXHXSXxX5X|.E.2 r $ * 3 K.K.2 Q.[.i.b.n.C.A.S.eXeXeXeXeXeXeXeXeXeXeXeXeXeXeXeXeXeXeXeXeXeXeXeXeXeXeXeX",
"eXeXeXeXeXeXeXeXeXeXeXeXeXeXeXeXeXeXeXeXeXeXeXeXeXeXwXlXAXSXLXSXCXkXW.1 b.0.- 2 K.Y.T.W.[.].i.n.N.C.S.wXwXeXeXeXeXeXeXeXeXeXeXeXeXeXeXeXeXeXeXeXeXeXeXeXeXeXeXeX",
"eXeXeXtXeXeXeXeXeXeXeXeXeXeXeXeXeXeXeXeXeXeXeXeXeXeXeXyXlXBXAXbXcX(.3 t.b.b.0.< | W.].Q.q.t.n.m.C.A.S.eXeXeXeXeXeXeXeXeXeXeXeXeXeXeXeXeXeXeXeXeXeXeXeXeXeXeXeXeX",
"eXeXeXeXeXeXeXeXeXeXeXeXeXeXeXeXeXeXeXeXeXeXeXeXeXeXeXS.0X4X`._.(.2 < n.m.m.m.Z.n.t.p.n.m.m.m.C.Z.S.wXwXeXeXeXeXeXeXeXeXeXeXeXeXeXeXeXeXeXeXeXeXeXeXeXeXeXeXeXeX",
"eXeXeXeXeXeXeXeXeXeXeXeXeXeXeXeXeXeXeXeXeXeXeXeXeXeXrXeX7X7X7X7XC.C.N.N.C.C.Z.A.7X7XZ.Z.C.C.Z.A.S.wXwXeXeXeXeXeXeXeXeXeXeXeXeXeXeXeXeXeXeXeXeXeXeXeXeXeXeXeXeXeX",
"eXeXeXeXeXeXeXeXeXeXeXeXeXeXeXeXeXeXeXeXeXeXeXeXeXeXeXwXwXwX7X7XA.Z.Z.Z.A.A.7X7X7X7X7X7X7X7XS.wXwXwXwXeXeXeXeXeXeXeXeXeXeXeXeXeXeXeXeXeXeXeXeXeXeXeXeXeXeXeXeXeX",
"eXeXeXeXeXeXeXeXeXeXeXeXeXeXeXeXeXeXeXeXeXeXeXeXeXeXeXeXeXeX7X7X7X7X7X7X7XwXwXwXwXwXwXwXwXwXeXeXwXeXeXeXeXeXeXeXeXeXeXeXeXeXeXeXeXeXeXeXeXeXeXeXeXeXeXeXeXeXeXeX",
"eXeXeXeXeXeXeXeXeXeXeXeXeXeXeXeXeXeXeXeXeXeXeXeXeXeXeXeXeXeXwXrXeXwXwXwXeXwXeXeXeXeXeXrXwXeXeXeXeXeXwXeXeXeXeXeXeXeXeXeXeXeXeXeXeXeXeXeXeXeXeXeXeXeXeXeXeXeXeXeX"
};
