/* XPM */
static char *result[] = {
/* columns rows colors chars-per-pixel */
"80 80 203 2 ",
"   c #000000",
".  c #090C0B",
"X  c #080800",
"o  c #1A1401",
"O  c #2F0D00",
"+  c #211200",
"@  c #371E00",
"#  c #342303",
"$  c #2A2716",
"%  c #262423",
"&  c #373120",
"*  c #5C0200",
"=  c #5A0E00",
"-  c #5C1900",
";  c #640300",
":  c #6B0300",
">  c #720400",
",  c #631900",
"<  c #483501",
"1  c #593B00",
"2  c #5A2500",
"3  c #623F00",
"4  c #5B4400",
"5  c #594602",
"6  c #5F5211",
"7  c #654B00",
"8  c #6B4E00",
"9  c #644500",
"0  c #784D04",
"q  c #665100",
"w  c #6C5200",
"e  c #6A5908",
"r  c #735400",
"t  c #7A5600",
"y  c #745A00",
"u  c #7B5B00",
"i  c #645915",
"p  c #6C5E18",
"a  c #6C5B16",
"s  c #7E6202",
"d  c #776707",
"f  c #6B611A",
"g  c #726417",
"h  c #474A2C",
"j  c #615E24",
"k  c #696227",
"l  c #716B3A",
"z  c #77763B",
"x  c #716E32",
"c  c #3C4555",
"v  c #50555F",
"b  c #7A7C45",
"n  c #6C7142",
"m  c #8A0600",
"M  c #AF0C00",
"N  c #963300",
"B  c #A72400",
"V  c #CA0D00",
"C  c #D80E00",
"Z  c #D91100",
"A  c #E30F00",
"S  c #ED1100",
"D  c #E41000",
"F  c #C22E00",
"G  c #FF2000",
"H  c #E73600",
"J  c #874C00",
"K  c #835E00",
"L  c #8A5E00",
"P  c #865400",
"I  c #995F00",
"U  c #814F17",
"Y  c #AD4E00",
"T  c #846200",
"R  c #8C6400",
"E  c #8D6A00",
"W  c #826900",
"Q  c #926500",
"!  c #936B00",
"~  c #9A6D00",
"^  c #9A6100",
"/  c #957300",
"(  c #9C7200",
")  c #947902",
"_  c #9C7A00",
"`  c #917A0D",
"'  c #8B7B1D",
"]  c #856F0E",
"[  c #A06F00",
"{  c #A17400",
"}  c #A37B00",
"|  c #A97D00",
" . c #AD7100",
".. c #85782A",
"X. c #937E21",
"o. c #857F38",
"O. c #D14C00",
"+. c #C57E00",
"@. c #D37D00",
"#. c #FC6300",
"$. c #947F4C",
"%. c #7E8047",
"&. c #9B8000",
"*. c #9E871B",
"=. c #A58300",
"-. c #AB8400",
";. c #AD8B00",
":. c #A5890A",
">. c #B28500",
",. c #B48C00",
"<. c #B98E00",
"1. c #AE9206",
"2. c #B39200",
"3. c #BC9300",
"4. c #B79C03",
"5. c #A99313",
"6. c #A28F1B",
"7. c #BAA207",
"8. c #958725",
"9. c #99933A",
"0. c #908A3D",
"q. c #A28D24",
"w. c #A7942A",
"e. c #A29434",
"r. c #A0973F",
"t. c #A4993B",
"y. c #B39D22",
"u. c #C08E00",
"i. c #C39600",
"p. c #C59B00",
"a. c #CB9D00",
"s. c #CC9500",
"d. c #D29D00",
"f. c #DE9700",
"g. c #EA9D00",
"h. c #C1A300",
"j. c #CDA200",
"k. c #CDA800",
"l. c #D3A300",
"z. c #D9A500",
"x. c #D4A900",
"c. c #DBAB00",
"v. c #C7B000",
"b. c #D4B900",
"n. c #D8B200",
"m. c #E2AD00",
"M. c #E8AE00",
"N. c #FDAF00",
"B. c #E4B300",
"V. c #EBB500",
"C. c #E6BA00",
"Z. c #EDBB00",
"A. c #F2BC00",
"S. c #F9BE00",
"D. c #F2B600",
"F. c #E3C000",
"G. c #EEC700",
"H. c #F5C200",
"J. c #FCC400",
"K. c #F7CA00",
"L. c #FFCB00",
"P. c #FFD200",
"I. c #FFDC00",
"U. c #FFE400",
"Y. c #FFEA00",
"T. c #FFF500",
"R. c #838343",
"E. c #868D4F",
"W. c #938E40",
"Q. c #9B9B4C",
"!. c #9B9646",
"~. c #9C9E55",
"^. c #949B59",
"/. c #949954",
"(. c #8A8D52",
"). c #A29E46",
"_. c #9DA35C",
"`. c #ABA349",
"'. c #A5A659",
"]. c #B5B55C",
"[. c #A4AC64",
"{. c #A3A661",
"}. c #ABB165",
"|. c #ACB469",
" X c #B3BB6C",
".X c #B6BA66",
"XX c #BAC06B",
"oX c #BBC473",
"OX c #BBC473",
"+X c #C8CB6B",
"@X c #C1C771",
"#X c #C1CA76",
"$X c #C4CD79",
"%X c #C8CE72",
"&X c #CBD47C",
"*X c #CFD97F",
"=X c #C8D078",
"-X c #D0D97D",
";X c #6A7090",
":X c #D3DD81",
">X c #D7E084",
",X c #DCE687",
"<X c #AEBDDC",
/* pixels */
",X,X,X,X,X,X,X,X,X,X,X,X,X,X,X,X,X,X,X,X,X,X,X,X,X,X,X,X,X,X,X,X,X,X,X,X,X,X,X,X,X,X,X,X,X,X,X,X,X,X,X,X,X,X,X,X,X,X,X,X,X,X,X,X,X,X,X,X,X,X,X,X,X,X,X,X,X,X,X,X",
",X,X,X,X,X,X,X,X,X,X,X,X,X,X,X,X,X,X,X,X,X,X,X,X,X,X,X,X,X,X,X,X,X,X,X,X,X,X,X,X,X,X,X,X,X,X,X,X,X,X,X,X,X,X,X,X,X,X,X,X,X,X,X,X,X,X,X,X,X,X,X,X,X,X,X,X,X,X,X,X",
",X,X,X,X,X,X,X,X,X,X,X,X,X,X,X,X,X,X,X,X,X,X,X,X,X,X,X,X,X,X,X,X,X,X,X,X,X,X,X,X,X,X,X,X,X,X,X,X,X,X,X,X,X,X,X,X,X,X,X,X,X,X,X,X,X,X,X,X,X,X,X,X,X,X,X,X,X,X,X,X",
",X,X,X,X,X,X,X,X,X,X,X,X,X,X,X,X,X,X,X,X,X,X,X,X,X,X,X,X,X,X,X,X,X,X,X,X,X,X,X,X,X,X,X,X,X,X,X,X,X,X,X,X,X,X,X,X,X,X,X,X,X,X,X,X,X,X,X,X,X,X,X,X,X,X,X,X,X,X,X,X",
",X,X,X,X,X,X,X,X,X,X,X,X,X,X,X,X,X,X,X,X,X,X,X,X,X,X,X,X,X,X,X,X,X,X,X,X,X,X,X,X,X,X,X,X,X,X,X,X,X,X,X,X,X,X,X,X,X,X,X,X,X,X,X,X,X,X,X,X,X,X,X,X,X,X,X,X,X,X,X,X",
",X,X,X,X,X,X,X,X,X,X,X,X,X,X,X,X,X,X,X,X,X,X,X,X,X,X,X,X,X,X,X,X,X,X,X,X,X,X,X,X,X,X,X,X,X,X,X,X,X,X,X,X,X,X,X,X,X,X,X,X,X,X,X,X,X,X,X,X,X,X,X,X,X,X,X,X,X,X,X,X",
",X,X,X,X,X,X,X,X,X,X,X,X,X,X,X,X,X,X,X,X,X,X,X,X,X,X,X,X,X,X,X,X,X,X,X,X,X,X,X,X,X,X,X,X,X,X,X,X,X,X,X,X,X,X,X,X,X,X,X,X,X,X,X,X,X,X,X,X,X,X,X,X,X,X,X,X,X,X,X,X",
",X,X,X,X,X,X,X,X,X,X,X,X,X,X,X,X,X,X,X,X,X,X,X,X,X,X,X,X,X,X,X,X,X,X,X,X,X,X,X,X,X,X,X,X,X,X,X,X,X,X,X,X,X,X,X,X,X,X,X,X,X,X,X,X,X,X,X,X,X,X,X,X,X,X,X,X,X,X,X,X",
",X,X,X,X,X,X,X,X,X,X,X,X,X,X,X,X,X,X,X,X,X,X,X,X,X,X,X,X,X,X,X,X,X,X,X,X,X,X,X,X,X,X,X,X,X,X,X,X,X,X,X,X,X,X,X,X,X,X,X,X,X,X,X,X,X,X,X,X,X,X,X,X,X,X,X,X,X,X,X,X",
",X,X,X,X,X,X,X,X,X,X,X,X,X,X,X,X,X,X,X,X,X,X,X,X,X,X,X,X,X,X,X,X,X,X,X,X,X,X,X,X,X,X,X,X,X,X,X,X,X,X,X,X,X,X,X,X,X,X,X,X,X,X,X,X,X,X,X,X,X,X,X,X,X,X,X,X,X,X,X,X",
",X,X,X,X,X,X,X,X,X,X,X,X,X,X,X,X,X,X,X,X,X,X,X,X,X,X,X,X,X,X,X,X,X,X,X,X,X,X,X,X,X,X,X,X,X,X,X,X,X,X,X,X,X,X,X,X,X,X,X,X,X,X,X,X,X,X,X,X,X,X,X,X,X,X,X,X,X,X,X,X",
",X,X,X,X,X,X,X,X,X,X,X,X,X,X,X,X,X,X,X,X,X,X,X,X,X,X,X,X,X,X,X,X,X,X,X,X,X,X,X,X,X,X,X,X,X,X,X,X,X,X,X,X,X,X,X,X,X,X,X,X,X,X,X,X,X,X,X,X,X,X,X,X,X,X,X,X,X,X,X,X",
",X,X,X,X,X,X,X,X,X,X,X,X,X,X,X,X,X,X,X,X,X,X,X,X,X,X,X,X,X,X,X,X,X,X,X,X,X,X,X,X,X,X,X,X,X,X,X,X,X,X,X,X,X,X,X,X,X,X,X,X,X,X,X,X,X,X,X,X,X,X,X,X,X,X,X,X,X,X,X,X",
",X,X,X,X,X,X,X,X,X,X,X,X,X,X,X,X,X,X,Xh n -X,X,X,X,X,X,X,X,X,X,X,X,X,X,X,X,X,X,X,X,X,X,X,X,X,X,X,X,X,X,X,X,X,X,X,X,X,X,X,X,X,X,X,X,X,X,X,X,X,X,X,X,X,X,X,X,X,X,X",
",X,X,X,X,X,X,X,X,X,X,X,X,X,X,X,X,X,X,X& X _ !.&X,X,X,X,X,X,X,X,X,X,X,X,X,X,X,X,X,X,X,X,X,X,X,X,X,X,X,X,X,X,X,X,X,X&X X,X,X,X,X,X,X,X,X,X,X,X,X,X,X,X,X,X,X,X,X,X",
",X,X,X,X,X,X,X,X,X,X,X,X,X,X,X,X,X,X,X&Xo l.K.n.8. X,X,X,X,X,X,X,X,X,X,X,X,X,X,X,X,X,X,X,X,X,X,X,X,X,X,X,X,XOX].e.$   ,X,X,X,X,X,X,X,X,X,X,X,X,X,X,X,X,X,X,X,X,X",
",X,X,X,X,X,X,X,X,X,X,X,X,X,X,X,X,X,X,X,Xl u -.Z.I.C.5.oX,X,X,X,X,X,X,X,X,X,X,X,X,X,X,X,X,X,X,X,X,X,X,XoX!.j.b.G.T.4 $ oXOX,X,X,X,X,X,X,X,X,X,X,X,X,X,X,X,X,X,X,X",
",X,X,X,X,X,X,X,X,X,X,X,X,X,X,X,X,X,X,X,X&X7 Q | l.L.I.b.t.,X,X,X,X,X,X,X,X,X,X,X,X,X,X,X,X,X,X,X,X+Xw.h.I.I.I.I.I.< {.oX#X,X,X,X,X,X,X,X,X,X,X,X,X,X,X,X,X,X,X,X",
",X,X,X,X,X,X,X,X,X,X,X,X,X,X,X,X,X,X,X,X>X$.t K | d.D.I.I.5._.,X,X,X,X-X@X@X@X@X%X@X-X,X,X,X,X{.8.c.I.U.L.J.L.P.a.b OXoX>X,X,X,X,X,X,X,X,X,X,X,X,X,X,X,X,X,X,X,X",
",X,X,X,X,X,X,X,X,X,X,X,X,X,X,X,X,X,X,X,X>X:X6 u K | l.V.L.Y.K.5.Q.e.7.4.k.x.k.x.x.k.h.7.9._.4.Z.U.P.L.L.L.L.S.V.k oXOX-X,X,X,X,X,X,X,X,X,X,X,X,X,X,X,X,X,X,X,X,X",
",X,X,X,X,X,X,X,X,X,X,X,X,X,X,X,X,X,X,X,X,X,X|.q t R | a.m.D.J.L.D.H.P.I.I.I.I.U.U.U.Y.Y.P.K.U.I.L.P.L.L.J.S.D.g }.OX$X,X,X,X,X,X,X,X,X,X,X,X,X,X,X,X,X,X,X,X,X,X",
",X,X,X,X,X,X,X,X,X,X,X,X,X,X,X,X,X,X,X,X,X,X,X%.t w u { <.p.j.c.D.H.A.A.A.J.L.L.L.L.L.P.P.P.P.P.P.L.J.D.M.M.s  XOX#X,X,X,X,X,X,X,X,X,X,X,X,X,X,X,X,X,X,X,X,X,X,X",
",X,X,X,X,X,X,X,X,X,X,X,X,X,X,X,X,X,X,X,X,X,X,X,Xx t 9 K } 3.j.c.m.B.C.V.A.J.J.L.L.J.P.P.L.P.P.P.L.L.J.c.d.s _.oXoX,X,X,X,X,X,X,X,X,X,X,X,X,X,X,X,X,X,X,X,X,X,X,X",
",X,X,X,X,X,X,X,X,X,X,X,X,X,X,X,X,X,X,X,X,X,X,X,X>X6 t r / 3.p.l.c.c.B.V.Z.A.S.J.L.L.J.L.P.P.L.P.P.L.D.c.t ^.OXoX>X,X,X,X,X,X,X,X,X,X,X,X,X,X,X,X,X,X,X,X,X,X,X,X",
",X,X,X,X,X,X,X,X,X,X,X,X,X,X,X,X,X,X,X,X,X,X,X,X,X*Xa R / ,.i.x.c.l.c.m.B.V.Z.H.J.J.L.J.L.P.P.L.L.L.J.g }.oXoX:X,X,X,X,X,X,X,X,X,X,X,X,X,X,X,X,X,X,X,X,X,X,X,X,X",
",X,X,X,X,X,X,X,X,X,X,X,X,X,X,X,X,X,X,X,X,X,X,X,X,X,X[.u ! <.3.{ <.m.l.c.B.B.V.A.A.S.H.L.P.V.C.P.P.P.J.^.oX$X>X,X,X,X,X,X,X,X,X,X,X,X,X,X,X,X,X,X,X,X,X,X,X,X,X,X",
",X,X,X,X,X,X,X,X,X,X,X,X,X,X,X,X,X,X,X,X,X,X,X,X,X,XR.y { ~ # % l | z.j.c.c.C.V.Z.H.S.J.l.$.& y P.P.J.!.oX:X,X,X,X,X,X,X,X,X,X,X,X,X,X,X,X,X,X,X,X,X,X,X,X,X,X,X",
",X,X,X,X,X,X,X,X,X,X,X,X,X,X,X,X,X,X,X,X,X,X,X,X,X>Xi W ! +   v ;Xo i.l.l.c.c.B.Z.A.L.z.& <Xc   q U.J.e.OX:X,X,X,X,X,X,X,X,X,X,X,X,X,X,X,X,X,X,X,X,X,X,X,X,X,X,X",
",X,X,X,X,X,X,X,X,X,X,X,X,X,X,X,X,X,X,X,X,X,X,X,X,X%X5 E t     . .   ,.m.x.c.C.V.D.D.I.<.  % .   o P.U.*.OX&X,X,X,X,X,X,X,X,X,X,X,X,X,X,X,X,X,X,X,X,X,X,X,X,X,X,X",
",X,X,X,X,X,X,X,X,X,X,X,X,X,X,X,X,X,X,X,X,X,X,X,X,X}.w T { +       < C.B.V.A.P.L.J.J.P.K.@       4 I.I.z.}.$X,X,X,X,X,X,X,X,X,X,X,X,X,X,X,X,X,X,X,X,X,X,X,X,X,X,X",
",X,X,X,X,X,X,X,X,X,X,X,X,X,X,X,X,X,X,X,X,X,X,X,X,Xx ! E ,._ # + 1 l.H.V.J.J.B.G.P.P.L.U.l.< O 1 C.I.L.U.9.OX,X,X,X,X,X,X,X,X,X,X,X,X,X,X,X,X,X,X,X,X,X,X,X,X,X,X",
",X,X,X,X,X,X,X,X,X,X,X,X,X,X,X,X,X,X,X,X,X,X,X,X&Xy } =.2.j.a.i.B.B.B.Z.A.l.# e P.P.P.P.U.P.Z.P.I.I.U.T.5.OX:X,X,X,X,X,X,X,X,X,X,X,X,X,X,X,X,X,X,X,X,X,X,X,X,X,X",
",X,X,X,X,X,X,X,X,X,X,X,X,X,X,X,X,X,X,X,X,X,X,X,X}.y J N  .4.p.j.p.3.i.p.h.p._ ,.A.Z.A.H.J.L.I.L.P.N.#.N.b. X$X,X,X,X,X,X,X,X,X,X,X,X,X,X,X,X,X,X,X,X,X,X,X,X,X,X",
",X,X,X,X,X,X,X,X,X,X,X,X,X,X,X,X,X,X,X,X,X,X,X,X'.1 : m B =.=.-.} ( { } =.>.>.,.3.j.x.c.c.B.Z.K.K.H S G g.'.oX,X,X,X,X,X,X,X,X,X,X,X,X,X,X,X,X,X,X,X,X,X,X,X,X,X",
",X,X,X,X,X,X,X,X,X,X,X,X,X,X,X,X,X,X,X,X,X,X,X,X_.- ; > m I / ! ~ R u w K Q { _ ! ~ } ,.p.l.x.b.f.C A S O.`.OX:X,X,X,X,X,X,X,X,X,X,X,X,X,X,X,X,X,X,X,X,X,X,X,X,X",
",X,X,X,X,X,X,X,X,X,X,X,X,X,X,X,X,X,X,X,X,X,X,X,X/.= ; ; > J E R ! ! R u Q } ,.3.>.| _ ,.3.p.j.b.@.C Z A B _.OX:X,X,X,X,X,X,X,X,X,X,X,X,X,X,X,X,X,X,X,X,X,X,X,X,X",
",X,X,X,X,X,X,X,X,X,X,X,X,X,X,X,X,X,X,X,X,X,X,X,X#X2 * * ; J s T Q ! ! / { } } ;.,.3.,.,.<.i.p.v.+.V V Z Y [.oX>X,X,X,X,X,X,X,X,X,X,X,X,X,X,X,X,X,X,X,X,X,X,X,X,X",
",X,X,X,X,X,X,X,X,X,X,X,X,X,X,X,X,X,X,X,X,X,X,X,X,X8.- * , q y t K R Q Q ! ~ ( } -.;.-.,.,.2.3.3.,.B M O.d OXoX,X,X,X,X,X,X,X,X,X,X,X,X,X,X,X,X,X,X,X,X,X,X,X,X,X",
",X,X,X,X,X,X,X,X,X,X,X,X,X,X,X,X,X,X,X,X,X,X,X,X,X%Xu 9 7 7 7 8 w t K T T Q ! ~ ( { | -.=.=.-.| | / I W E.oXoX,X,X,X,X,X,X,X,X,X,X,X,X,X,X,X,X,X,X,X,X,X,X,X,X,X",
",X,X,X,X,X,X,X,X,X,X,X,X,X,X,X,X,X,X,X,X,X,X,X,X,X,X..w w w 7 9 8 w e r r u R Q Q ! ~ ~ ~ ! Q R K y s l oXoX>X,X,X,X,X,X,X,X,X,X,X,X,X,X,X,X,X,X,X,X,X,X,X,X,X,X",
",X,X,X,X,X,X,X,X,X,X,X,X,X,X,X,X,X,X,X,X,X,X,X,X,X,Xz T y 8 r e w w w w w w t u u T T R T T t 8 4 T ,.9.oX&X,X,X,X,X,X,X,X,X,X,X,X,X,X,X,X,X,X,X,X,X,X,X,X,X,X,X",
",X,X,X,X,X,X,X,X,X,Xq.].,X,X,X,X,X,X,X,X,X,X,X,X,X,Xg R ( u 9 w t w w w w 8 w w q q r r q q 4 r 3.L.L.9.oX-X,X,X,X,X,X,X,X,X,X,X,X,X,X,X,X,X,X,X,X,X,X,X,X,X,X,X",
",X,X,X,X,X,X,X,X,X,X2.D.:.'.,X,X,X,X,X,X,X,X,X,X,X,Xg y _ j./ 7 r r r r r w w w 8 8 7 7 7 q / B.I.P.J.y.oX&X,X,X,X,X,X,X,X,X,X,X,X,X,X,X,X,X,X,X,X,X,X,X,X,X,X,X",
",X,X,X,X,X,X,X,X,X,X!.A.V.m.=.).>X,X,X,X,X,X,X,X,X,Xg y R c.L.<.9 r r r 8 0 r 8 r y T Q _ 3.H.P.P.L.K.4.OX&X,X,X,X,X,X,X,X,X,X,X,X,X,X,X,X,X,X,X,X,X,X,X,X,X,X,X",
",X,X,X,X,X,X,X,X,X,X.Xl.d.l.V.M.;.W.$X,X,X,X,X,X,X>Xd 8 K i.L.L.Q K } -.-.-.| -.,.i.j.l.c.l.H.L.L.L.L.` oX$X,X,X,X,X,X,X,X,X,X,X,X,X,X,X,X,X,X,X,X,X,X,X,X,X,X,X",
",X,X,X,X,X,X,X,X,X,X:X2.M.a.a.d.M.V.,.e.@X,X,X,X,X%Xr 7 r -.B.I.C.Q =.3.a.l.l.l.c.m.c.B.l.p.A.L.L.J.C._ |.$X,X,X,X,X,X,X,X,X,X,X,X,X,X,X,X,X,X,X,X,X,X,X,X,X,X,X",
",X,X,X,X,X,X,X,X,X,X,Xw.S.f.d.d.a.d.M.c.,.q..X,X,XXXt 7 3 ~ l.J.I.d.Q ;.3.a.j.l.l.x.z.z.p.c.L.L.L.V.a._ .XoX>X,X,X,X,X,X,X,X,X,X,X,X,X,X,X,X,X,X,X,X,X,X,X,X,X,X",
",X,X,X,X,X,X,X,X,X,X,X`.Z.z.z.z.d.d.d.a.m.m.s.8..X].y w 4 K <.C.P.P.-.( 2.3.p.a.a.l.c.p.j.H.L.L.J.l.,.3._.oX,X,X,X,X,X,X,X,X,X,X,X,X,X,X,X,X,X,X,X,X,X,X,X,X,X,X",
",X,X,X,X,X,X,X,X,X,X,X&XM.L.B.m.c.l.l.d.d.d.z.D.p.`.w u 7 w / p.Z.I.Z.) -.<.3.i.a.l.a.2.C.J.H.Z.C.>.( Z.0.OX:X,X,X,X,X,X,X,X,X,X,X,X,X,X,X,X,X,X,X,X,X,X,X,X,X,X",
",X,X,X,X,X,X,X,X,X,X,X,Xt.p.l.z.D.A.A.m.d.d.d.V.o.`.4 7 q 4 t ( j.H.P.3.} ,.3.p.i.a.,.a.J.H.B.c.,.E i.H.8.OX&X,X,X,X,X,X,X,X,X,X,X,X,X,X,X,X,X,X,X,X,X,X,X,X,X,X",
",X,X,X,X,X,X,X,X,X,X,X,X,X>X X'.9.q.;.a.m.s.D.=.OX!.7 5 7 8 5 t | l.L.D.} ;.<.3.a.3.| j.V.V.x.>.! <.B.L.:.OX$X,X,X,X,X,X,X,X,X,X,X,X,X,X,X,X,X,X,X,X,X,X,X,X,X,X",
",X,X,X,X,X,X,X,X,X,X,X,X,X,X,X,X>X:X*X;.V.m.z.{.OX8.8 7 7 y w 4 u | x.V.,.=.3.3.a.-.-.j.l.x.=.( x.V.Z.P.p. X$X,X,X,X,X,X,X,X,X,X,X,X,X,X,X,X,X,X,X,X,X,X,X,X,X,X",
",X,X,X,X,X,X,X,X,X,X,X,X,X,X,X,X,X,X.XV.m.M.R.oXOXs w u u R R 8 4 T >.3.,.;.<.3.j._ E >.2.} } c.H.D.K.L.B.~.oX,X,X,X,X,X,X,X,X,X,X,X,X,X,X,X,X,X,X,X,X,X,X,X,X,X",
",X,X,X,X,X,X,X,X,X,X,X,X,X,X,X,X,X,Xw.S.z.s...W.w.y u R Q Q ~ ~ r 4 K } -.,.<.i.j.,.8 t T _ Z.H.Z.J.L.L.K.t.OX:X,X,X,X,X,X,X,X,X,X,X,X,X,X,X,X,X,X,X,X,X,X,X,X,X",
",X,X,X,X,X,X,X,X,X,X,X,X,X,X,X,X,X-Xc.L.B.V.J.>.P y ! ~ ( / ( | | K t =.-.,.3.i.a.l.| t -.B.A.H.J.L.J.J.U.8.OX&X,X,X,X,X,X,X,X,X,X,X,X,X,X,X,X,X,X,X,X,X,X,X,X,X",
",X,X,X,X,X,X,X,X,X,X,X,X,X,X,X,X,X@X5.7.p.p.l.I 0 y E ~ | -.-.-.-.=.} -.,.2.3.p.j.d.c.l.M.C.Z.A.J.L.L.L.U.*.OX$X,X,X,X,X,X,X,X,X,X,X,X,X,X,X,X,X,X,X,X,X,X,X,X,X",
",X,X,X,X,X,X,X,X,X,X,X,X,X,X,X,X,X,X,X>X%XOX|.0 P w Q [ ;.,.>.,.,.>.-.-.;.,.3.i.a.a.l.c.c.B.Z.A.J.L.L.L.I.:.oX$X,X,X,X,X,X,X,X,X,X,X,X,X,X,X,X,X,X,X,X,X,X,X,X,X",
",X,X,X,X,X,X,X,X,X,X,X,X,X,X,X,X,X,X,X,X,X,X,XU P 8 R { =.2.,.3.3.<.;.-.-.,.,.3.i.a.l.x.c.c.C.D.J.J.J.J.L.2.OX$X,X,X,X,X,X,X,X,X,X,X,X,X,X,X,X,X,X,X,X,X,X,X,X,X",
",X,X,X,X,X,X,X,X,X,X,X,X,X,X,X,X,X,X,X,X,X,X,X{.8 w W ~ -.,.>.,.,.,.2.-.| -.;.2.3.i.a.j.a.l.m.C.Z.A.H.H.L.2.oX#X,X,X,X,X,X,X,X,X,X,X,X,X,X,X,X,X,X,X,X,X,X,X,X,X",
",X,X,X,X,X,X,X,X,X,X,X,X,X,X,X,X,X,X,X,X,X,X,X=X7 7 T ! } =.-.;.-.-.=.{ { { } | -.;.,.,.3.i.l.x.n.V.Z.Z.H.;. X#X,X,X,X,X,X,X,X,X,X,X,X,X,X,X,X,X,X,X,X,X,X,X,X,X",
",X,X,X,X,X,X,X,X,X,X,X,X,X,X,X,X,X,X,X,X,X,X,X%X5 w t T _ { =.-.| { ~ ~ ! ! ! ~ ( { { -.;.<.3.a.l.c.m.B.C.=. X#X,X,X,X,X,X,X,X,X,X,X,X,X,X,X,X,X,X,X,X,X,X,X,X,X",
",X,X,X,X,X,X,X,X,X,X,X,X,X,X,X,X,X,X,X,X,X,X,X-Xq 4 8 u Q ~ ( [ ~ ~ R E K K W R R R Q ! { ( =.,.i.a.l.l.B.` OX#X,X,X,X,X,X,X,X,X,X,X,X,X,X,X,X,X,X,X,X,X,X,X,X,X",
",X,X,X,X,X,X,X,X,X,X,X,X,X,X,X,X,X,X,X,X,X,X,X-Xe 9 4 r K ! ! ! L u t t t t r w t t t t u T ! ( -.3.p.p.x.' oXoX,X,X,X,X,X,X,X,X,X,X,X,X,X,X,X,X,X,X,X,X,X,X,X,X",
",X,X,X,X,X,X,X,X,X,X,X,X,X,X,X,X,X,X,X,X,X,X,X,Xi r 7 w y R K K u w 8 7 7 8 8 8 w 8 7 8 w t L ! ( -.2.2.p...oX$X,X,X,X,X,X,X,X,X,X,X,X,X,X,X,X,X,X,X,X,X,X,X,X,X",
",X,X,X,X,X,X,X,X,X,X,X,X,X,X,X,X,X,X,X,X,X,X,X,X{.w w w r t y r w w w w w w w w w w w r w t y u ! / } >.~ ^.oX$X,X,X,X,X,X,X,X,X,X,X,X,X,X,X,X,X,X,X,X,X,X,X,X,X",
",X,X,X,X,X,X,X,X,X,X,X,X,X,X,X,X,X,X,X,X,X,X,X,X,Xk t y w q q w w y t u u t y y t u s u t w q w t L ~ ! k oXoX>X,X,X,X,X,X,X,X,X,X,X,X,X,X,X,X,X,X,X,X,X,X,X,X,X",
",X,X,X,X,X,X,X,X,X,X,X,X,X,X,X,X,X,X,X,X,X,X,X,X,X,Xb 7 8 q w q r 7 q e e f f f f i w q 8 y r w w r w z OXOX$X,X,X,X,X,X,X,X,X,X,X,X,X,X,X,X,X,X,X,X,X,X,X,X,X,X",
",X,X,X,X,X,X,X,X,X,X,X,X,X,X,X,X,X,X,X,X,X,X,X,X,X,X}.;.! K E / p E.{.[.OXoX$X$X#X#X}.}.^.i R u y { ) [.oX:X,X,X,X,X,X,X,X,X,X,X,X,X,X,X,X,X,X,X,X,X,X,X,X,X,X,X",
",X,X,X,X,X,X,X,X,X,X,X,X,X,X,X,X,X,X,X,X,X,X,X,X*X*.K.Y.I.i.&.X.|.oX$X:X>X,X,X,X,X,X,X,X>X#Xa 1 y m.I.K.8.:X>X,X,X,X,X,X,X,X,X,X,X,X,X,X,X,X,X,X,X,X,X,X,X,X,X,X",
",X,X,X,X,X,X,X,X,X,X,X,X,X,X,X,X,X,X,X,X,X,X,X,X|.) 1.1.8./.|.OXoX$X,X,X,X,X,X,X,X,X,X,X,X,X,X Xb j ` 1.) _.$X,X,X,X,X,X,X,X,X,X,X,X,X,X,X,X,X,X,X,X,X,X,X,X,X,X",
",X,X,X,X,X,X,X,X,X,X,X,X,X,X,X,X,X,X,X,X,X,X,X,X,X,X>XoXoX$X$X:X,X,X,X,X,X,X,X,X,X,X,X,X,X,X,X,X,X:X:X$X#X#XoX,X,X,X,X,X,X,X,X,X,X,X,X,X,X,X,X,X,X,X,X,X,X,X,X,X",
",X,X,X,X,X,X,X,X,X,X,X,X,X,X,X,X,X,X,X,X,X,X,X,X,X,X,X,X,X,X,X,X,X,X,X,X,X,X,X,X,X,X,X,X,X,X,X,X,X,X,X,X,X,X,X,X,X,X,X,X,X,X,X,X,X,X,X,X,X,X,X,X,X,X,X,X,X,X,X,X",
",X,X,X,X,X,X,X,X,X,X,X,X,X,X,X,X,X,X,X,X,X,X,X,X,X,X,X,X,X,X,X,X,X,X,X,X,X,X,X,X,X,X,X,X,X,X,X,X,X,X,X,X,X,X,X,X,X,X,X,X,X,X,X,X,X,X,X,X,X,X,X,X,X,X,X,X,X,X,X,X",
",X,X,X,X,X,X,X,X,X,X,X,X,X,X,X,X,X,X,X,X,X,X,X,X,X,X,X,X,X,X,X,X,X,X,X,X,X,X,X,X,X,X,X,X,X,X,X,X,X,X,X,X,X,X,X,X,X,X,X,X,X,X,X,X,X,X,X,X,X,X,X,X,X,X,X,X,X,X,X,X",
",X,X,X,X,X,X,X,X,X,X,X,X,X,X,X,X,X,X,X,X,X,X,X,X,X,X,X,X,X,X,X,X,X,X,X,X,X,X,X,X,X,X,X,X,X,X,X,X,X,X,X,X,X,X,X,X,X,X,X,X,X,X,X,X,X,X,X,X,X,X,X,X,X,X,X,X,X,X,X,X",
",X,X,X,X,X,X,X,X,X,X,X,X,X,X,X,X,X,X,X,X,X,X,X,X,X,X,X,X,X,X,X,X,X,X,X,X,X,X,X,X,X,X,X,X,X,X,X,X,X,X,X,X,X,X,X,X,X,X,X,X,X,X,X,X,X,X,X,X,X,X,X,X,X,X,X,X,X,X,X,X",
",X,X,X,X,X,X,X,X,X,X,X,X,X,X,X,X,X,X,X,X,X,X,X,X,X,X,X,X,X,X,X,X,X,X,X,X,X,X,X,X,X,X,X,X,X,X,X,X,X,X,X,X,X,X,X,X,X,X,X,X,X,X,X,X,X,X,X,X,X,X,X,X,X,X,X,X,X,X,X,X",
",X,X,X,X,X,X,X,X,X,X,X,X,X,X,X,X,X,X,X,X,X,X,X,X,X,X,X,X,X,X,X,X,X,X,X,X,X,X,X,X,X,X,X,X,X,X,X,X,X,X,X,X,X,X,X,X,X,X,X,X,X,X,X,X,X,X,X,X,X,X,X,X,X,X,X,X,X,X,X,X",
",X,X,X,X,X,X,X,X,X,X,X,X,X,X,X,X,X,X,X,X,X,X,X,X,X,X,X,X,X,X,X,X,X,X,X,X,X,X,X,X,X,X,X,X,X,X,X,X,X,X,X,X,X,X,X,X,X,X,X,X,X,X,X,X,X,X,X,X,X,X,X,X,X,X,X,X,X,X,X,X",
",X,X,X,X,X,X,X,X,X,X,X,X,X,X,X,X,X,X,X,X,X,X,X,X,X,X,X,X,X,X,X,X,X,X,X,X,X,X,X,X,X,X,X,X,X,X,X,X,X,X,X,X,X,X,X,X,X,X,X,X,X,X,X,X,X,X,X,X,X,X,X,X,X,X,X,X,X,X,X,X"
};
