/* XPM */
static char *result[] = {
/* columns rows colors chars-per-pixel */
"80 80 211 2 ",
"   c #010100",
".  c #140900",
"X  c #15160E",
"o  c #261900",
"O  c #342907",
"+  c #272614",
"@  c #1B1E32",
"#  c #3B3D24",
"$  c #570402",
"%  c #751500",
"&  c #563800",
"*  c #502600",
"=  c #6A3B0C",
"-  c #662C00",
";  c #5D4200",
":  c #504B18",
">  c #634600",
",  c #664A00",
"<  c #6C4C00",
"1  c #694600",
"2  c #744E00",
"3  c #784E00",
"4  c #6E5100",
"5  c #735300",
"6  c #7B5500",
"7  c #755A00",
"8  c #7C5C01",
"9  c #6B591A",
"0  c #715B10",
"q  c #7D6408",
"w  c #76681A",
"e  c #46482A",
"r  c #5D512F",
"t  c #595E36",
"y  c #7B7B3E",
"u  c #787439",
"i  c #6F6A35",
"p  c #2F3644",
"a  c #7C7C43",
"s  c #767840",
"d  c #9A0700",
"f  c #871600",
"g  c #A90900",
"h  c #B90B00",
"j  c #B01B00",
"k  c #8F3100",
"l  c #BC2C00",
"z  c #B82200",
"x  c #A73800",
"c  c #BD3800",
"v  c #CF0D00",
"b  c #C10C00",
"n  c #DC1500",
"m  c #C02F00",
"M  c #D32F00",
"N  c #C43900",
"B  c #D13E00",
"V  c #E82A00",
"C  c #9A4700",
"Z  c #855600",
"A  c #845D00",
"S  c #8A5D00",
"D  c #885700",
"F  c #9C5E00",
"G  c #8C4A0F",
"H  c #BB4500",
"J  c #B35100",
"K  c #856200",
"L  c #8C6300",
"P  c #896B06",
"I  c #936400",
"U  c #946A00",
"Y  c #9B6D00",
"T  c #9D7100",
"R  c #9F7A00",
"E  c #8C7618",
"W  c #A37400",
"Q  c #A57A00",
"!  c #AC7B00",
"~  c #A87400",
"^  c #A27516",
"/  c #885723",
"(  c #906221",
")  c #85783C",
"_  c #8C6E2C",
"`  c #C54C00",
"'  c #CB4A00",
"]  c #C54600",
"[  c #D74E00",
"{  c #CD5400",
"}  c #C65400",
"|  c #D25C00",
" . c #D95700",
".. c #E95100",
"X. c #CB6900",
"o. c #D76900",
"O. c #CC7900",
"+. c #D47500",
"@. c #E76200",
"#. c #ED7400",
"$. c #877D44",
"%. c #987640",
"&. c #7E854E",
"*. c #9D8211",
"=. c #AC8401",
"-. c #A88804",
";. c #B48500",
":. c #B58A00",
">. c #BB8C00",
",. c #B98600",
"<. c #AE9306",
"1. c #B29301",
"2. c #BD9300",
"3. c #B99B08",
"4. c #A38B18",
"5. c #AB9413",
"6. c #B79B13",
"7. c #BCA400",
"8. c #B5B50E",
"9. c #97872B",
"0. c #8C8638",
"q. c #958C35",
"w. c #988B3A",
"e. c #968B31",
"r. c #AC9B23",
"t. c #AA982C",
"y. c #B09E2B",
"u. c #A5A527",
"i. c #C78803",
"p. c #C49500",
"a. c #C99600",
"s. c #C49A00",
"d. c #CC9B00",
"f. c #CB9509",
"g. c #D29E00",
"h. c #D89B00",
"j. c #DB8300",
"k. c #E68400",
"l. c #F49400",
"z. c #EB8D00",
"x. c #CCA400",
"c. c #C6A600",
"v. c #D4A200",
"b. c #DAA500",
"n. c #D2AB00",
"m. c #DDAA00",
"M. c #DBB400",
"N. c #D5B900",
"B. c #CEB500",
"V. c #E0A700",
"C. c #E3AC00",
"Z. c #EBAD00",
"A. c #EBA500",
"S. c #F8A800",
"D. c #E6B200",
"F. c #ECB300",
"G. c #E4B900",
"H. c #EEBC00",
"J. c #F1B600",
"K. c #F4BA00",
"L. c #F9BE00",
"P. c #FFB600",
"I. c #DDC500",
"U. c #F5C100",
"Y. c #FEC300",
"T. c #FFCB00",
"R. c #F2CB00",
"E. c #FFD400",
"W. c #FFDB00",
"Q. c #F3D500",
"!. c #E9D500",
"~. c #FFE300",
"^. c #FFEB00",
"/. c #F1EB00",
"(. c #FFF400",
"). c #FFFD00",
"_. c #8B8D4C",
"`. c #8A8746",
"'. c #93934C",
"]. c #9C9948",
"[. c #8E9454",
"{. c #949A5A",
"}. c #979A55",
"|. c #8E8E4B",
" X c #A49F4C",
".X c #9DA25B",
"XX c #9CA057",
"oX c #ACA547",
"OX c #A1A55D",
"+X c #A7A859",
"@X c #B3B054",
"#X c #A5AB63",
"$X c #A8AC63",
"%X c #AEB56A",
"&X c #AAB167",
"*X c #B3BB6C",
"=X c #B5B968",
"-X c #B7BF70",
";X c #C4BF6E",
":X c #BAC26E",
">X c #BCC473",
",X c #BFC876",
"<X c #C2C05E",
"1X c #C1CA77",
"2X c #C4CD79",
"3X c #CBD57C",
"4X c #CED87E",
"5X c #D1D97F",
"6X c #D3DC81",
"7X c #D7E084",
"8X c #DCE687",
/* pixels */
"8X8X8X8X8X8X8X8X8X8X8X8X8X8X8X8X8X8X8X8X8X8X8X8X8X8X8X8X8X8X8X8X8X8X8X8X8X8X8X8X8X8X8X8X8X8X8X8X8X8X8X8X8X8X8X8X8X8X8X8X8X8X8X8X8X8X8X8X8X8X8X8X8X8X8X8X8X8X8X8X",
"8X8X8X8X8X8X8X8X8X8X8X8X8X8X8X8X8X8X8X8X8X8X8X8X8X8X8X8X8X8X8X8X8X8X8X8X8X8X8X8X8X8X8X8X8X8X8X8X8X8X8X8X8X8X8X8X8X8X8X8X8X8X8X8X8X8X8X8X8X8X8X8X8X8X8X8X8X8X8X8X",
"8X8X8X8X8X8X8X8X8X8X8X8X8X8X8X8X8X8X8X8X8X8X8X8X8X8X8X8X8X8X8X8X8X8X8X8X8X8X8X8X8X8X8X8X8X8X8X8X8X8X8X8X8X8X8X8X8X8X8X8X8X8X8X8X8X8X8X8X8X8X8X8X8X8X8X8X8X8X8X8X",
"8X8X8X8X8X8X8X8X8X8X8X8X8X8X8X8X8X8X8X8X8X8X8X8X8X8X8X8X8X8X8X8X8X8X8X8X8X8X8X8X8X8X8X8X8X8X8X8X8X8X8X8X8X8X8X8X8X8X8X8X8X8X8X8X8X8X8X8X8X8X8X8X8X8X8X8X8X8X8X8X",
"8X8X8X8X8X8X8X8X8X8X8X8X8X8X8X8X8X8X8X8X8X8X8X8X8X8X8X8X8X8X8X8X8X8X8X8X8X8X8X8X8X8X8X8X8X8X8X8X8X8X8X8X8X8X8X8X8X8X8X8X8X8X8X8X8X8X8X8X8X8X8X8X8X8X8X8X8X8X8X8X",
"8X8X8X8X8X8X8X8X8X8X8X8X8X8X8X8X8X8X8X8X8X8X8X8X8X8X8X8X8X8X8X8X8X8X8X8X8X8X8X8X8X8X8X8X8X8X8X8X8X8X8X8X8X8X8X8X8X8X8X8X8X8X8X8X8X8X8X8X8X8X8X8X8X8X8X8X8X8X8X8X",
"8X8X8X8X8X8X8X8X8X8X8X8X8X8X8X8X8X8X8X8X8X8X8X8X8X8X8X8X8X8X8X8X8X8X8X8X8X8X8X8X8X8X8X8X8X8X8X8X8X8X8X8X8X8X8X8X8X8X8X8X8X8X8X8X8X8X8X8X8X8X8X8X8X8X8X8X8X8X8X8X",
"8X8X8X8X8X8X8X8X8X8X8X8X8X8X8X8X8X8X8X8X8X8X8X8X8X8X8X8X8X8X8X8X8X8X8X8X8X8X8X8X8X8X8X8X8X8X8X8X8X8X8X8X8X8X8X8X8X8X8X8X8X8X8X8X8X8X8X8X8X8X8X8X8X8X8X8X8X8X8X8X",
"8X8X8X8X8X8X8X8X8X8X8X8X8X8X8X8X8X8X8X8X8X8X8X8X8X8X8X8X8X8X8X8X8X8X8X8X8X8X8X8X8X8X8X8X8X8X8X8X8X8X8X8X8X8X8X8X8X8X-X#X8X8X8X8X8X8X8X8X8X8X8X8X8X8X8X8X8X8X8X8X",
"8X8X8X8X8X8X8X8X8X8X8X8X8X8X8X8X8X8X8X8X8X8X8X8X8X8X8X8X8X8X8X8X8X8X8X8X8X8X8X8X8X8X8X8X8X8X8X8X8X8X8X8X8X8X8X8X8X8Xx.y.6X6X8X8X8X8X8X8X8X8X8X8X8X8X8X8X8X8X8X8X",
"8X8X8X8X8X8X8X8X8X8X8X8X8X8X8X8X8X8X8X8X8X8X8X8X8X8X8X8X8X8X8X8X8X8X8X8X8X8X8X8X8X8X8X8X8X8X8X8X8X8X8X8X8X8X8X8X8X5.(.6.1X2X8X8X8X8X8X8X8X8X8X8X8X8X8X8X8X8X8X8X",
"8X8X8X8X8X8X8X8X8X8X8X8X8X8X8X8X8X8X8X8X8X8X8X8X8X8X8X8X8X8X8X8X8X8X8X8X8X8X8X8X8X8X8X8X8X8X8X8X8X8X8X8X8X8X8X8Xy.W.W.p.-X1X8X8X8X8X8X8X8X8X8X8X8X8X8X8X8X8X8X8X",
"8X8X8X8X8X8X8X8X8X8X8X8X8X8X8X8X8X8X8X8X8X8X8X8X8X8X8X8X8X8X8X8X8X8X8X8X8X8X8X8X8X8X8X8X8X8X8X8X8X8X8X8X8X8X8Xw.W.Y.E.x.%X,X8X8X8X8X8X8X8X8X8X8X8X8X8X8X8X8X8X8X",
"8X8X8X8X8X8X8X8X8X8X8X8X8X8X8X8X8X8X8X8X8X8X8X8X8X8X8X8X8X8X8X8X8X8X8X8X8X8X8X8X8X8X8X8X8X8X8X8X8X8X8X8X8X8Xw.W.T.L.E.v.&X,X7X8X8X8X8X8X8X8X8X8X8X8X8X8X8X8X8X8X",
"8X8X8X8X8X8X8X8X8X8X8X8X8X8X8X8X8X8X8X8X8X8X8X8X8X8X8X8X8X8X8X8X8X8X8X8X8X8X8X8X8X8X8X8X8X8X8X8X8X8X8X8X8X'.T.T.L.L.Y.J.oX,X7X8X8X8X8X8X8X8X8X8X8X8X8X8X8X8X8X8X",
"8X8X8X8X8X8X8X8X8X8X8X8X8X8X8X8X8X8X8X8X8X8X8X8X8X8X8X8X8X8X8X8X8X8X8X8X8X8X8X8X8X8X8X8X8X8X8X8X8X8X8X8X,XM.W.K.L.L.Y.W.y ,X6X8X8X8X8X8X8X8X8X8X8X8X8X8X8X8X8X8X",
"8X8X8X8X8X8X8X8X8X8X8X8X8X8X8X8X8X8X8X8X8X8X8X8X8X8X8X8X8X8X8X8X8X8X8X8X8X8X8X8X8X8X8X8X8X8X8X8X8X8X8X5X3.W.L.K.Y.L.Y.W.9.>X3X7X8X8X8X8X8X8X8X8X8X8X8X8X8X8X8X8X",
"8X8X8X8X8X8X8X8X8X8X8X8X8X8X8X8X8X8X8X8X8X8X8X8X8X8X8X8X8X8X8X8X8X8X8X8X8X8X8X8X8X8X8X8X8X8X8X8X8X8X4X<.W.K.Y.L.Y.K.K.E.6.>X3X8X8X8X8X8X8X8X8X8X8X8X8X8X8X8X8X8X",
"8X8X8X8X8X8X8X8X8X8X8X8X8X8X8X8X8X8X8X8X8X8X8X8X8X8X8X8X8X8X8X8X8X8X8X8X8X8X8X8X8X8X8X8X8X8X8X8X8X8X4.W.K.L.Y.K.L.L.K.T.s.>X2X8X8X8X8X8X8X8X8X8X8X8X8X8X8X8X8X8X",
"8X8X8X8X8X8X8X8X8X8X8X8X8X8X8X8X8X8X8X8X8X8X8X8X8X8X8X8X8X8X8X8X8X8X8X8X8X8X8X8X8X8X8X8X8X8X8X8X8Xy.T.L.F.Y.K.Y.K.Y.Y.Y.H.>X1X8X8X8X8X8X8X8X8X8X8X8X8X8X8X8X8X8X",
"8X8X8X8X8X8X8X8X8X8X8X8X8X8X8X8X8X8X8X8X8X8X8X8X8X8X8X8X8X8X8X8X8X8X8X8X8X8X8X8X8X8X8X8X8X8X8X8Xq.T.L.J.J.L.L.L.Y.L.Y.E.v.>X>X8X8X8X8X8X8X8X8X8X8X8X8X8X8X8X8X8X",
"8X8X8X8X8X8X8X8X8X8X8X8X8X8X8X8X8X8X8X8X8X8X8X8X8X8X8X8X8X8X8X8X8X8X8X8X8X8X8X8X8X8X8X8X8X8X8XoXT.Y.F.H.K.Y.L.L.K.E.T.2..X>X,X8X8X8X8X8X8X8X8X8X8X8X8X8X8X8X8X8X",
"8X8X8X8X8X8X8X8X8X8X8X8X8X8X8X8X8X8X8X8X8X8X8X8X8X8X8X8X8X8X8X8X8X8X8X8X8X8X8X8X8X8X8X8X8X8X].K.Y.J.J.J.Y.L.K.Y.W.D.0.-X>X1X6X8X8X8X8X8X8X8X8X8X8X8X8X8X8X8X8X8X",
"8X8X8X8X8X8X8X8X8X8X8X8X8X8X8X8X8X8X8X8X8X8X8X8X8X8X8X8X8X8X8X8X8X8X8X8X8X8X8X8X8X8X8X8X8X%XD.Y.F.J.J.Y.L.L.T.~.1.OX>X,X3X8X8X8X8X8X8X8X8X8X8X8X8X8X8X8X8X8X8X8X",
"8X8X8X8X8X8X8X8X8X8X8X8X8X8X8X8X8X8X8X8X8X8X8X8X8X8X8X8X8X8X8X8X8X8X8X8X8X8X8X8X8X8X8X8X%X2.Y.F.J.J.K.Y.L.T.H.9.#X>X1X6X8X8X8X8X8X8X8X8X8X8X8X8X8X8X8X8X8X8X8X8X",
"8X8X8X8X8X8X8X8X8X8X8X8X8X8X8X8X8X8X8X8X8X8X8X8X8X8X8X8X8X8X8X8X8X8X8X8X8X8X8X8X8X8X8X8X_ W.Y.D.J.J.K.L.T.x.+X>X>X3X7X8X8X8X8X8X8X8X8X8X8X8X8X8X8X8X8X8X8X8X8X8X",
"8X8X8X8X8X8X8X8X8X8X8X8X8X8X8X8X8X8X8X8X8X8X8X8X8X8X8X8X8X8X8X8X8X8X8X8X8X8X8X8X8X8X8X8X3Xy.n.T.L.F.K.L.E.p.>X,X6X8X8X8X8X8X8X8X8X8X8X8X8X8X8X8X8X8X8X8X8X8X8X8X",
"8X8X8X8X8X8X8X8X8X8X8X8X8X8X8X8X8X8X8X8X8X8X8X8X8X8X8X8X8X8X8X8X8X8X8X8X8X8X8X8X8X8X8X8X8X8X*X<.Y.Y.F.K.Y.E.4.,X8X8X8X8X8X8X8X8X8X8X8X8X8X8X8X8X8X8X8X8X8X8X8X8X",
"8X8X8X8X8X8X8X8X8X8X8X8X8X8X8X8X8X8X8X8X8X8X8X8X8X8X8X8X8X8X8X8X8X8X8X8X8X8X8X8X8X8X8X8X8X8X8X8X].D.T.L.K.Y.W.9.2X8X8X8X8X8X8X8X8X8X8X8X8X8X8X8X8X8X8X8X8X8X8X8X",
"8X8X8X8X8X8X8X8X8X8X8X8X8X8X8X8X8X8X8X8X8X8X8X8X8X8X8X8X8X8X8X8X8X8X8X8X8X8X8X8X8X8X8X8X8X8X8X8X8X+X7.F.K.Y.T.T.oX2X8X8X8X8X8X8X8X8X8X8X8X8X8X8X8X8X8X8X8X8X8X8X",
"8X8X8X8X8X8X8X8X8X8X8X8X8X8X8X8X8X8X8X8X8X8X8X8X8X8X8X8X8X8X8X8X8X8X8X8X8X8X8X8X8X8X8X8X8X8X8X8X8X8X,Xs.Y.K.L.E.Y.}.6X8X8X8X8X8X8X8X8X8X8X8X8X8X8X8X8X8X8X8X8X8X",
"8X8X8X8X8X8X8X8X8X8X8X8X8X8X8X8X8X8X8X8X8X8X8X8X8X8X8X8X8X8X8X8X8X8X8X8X8X8X8X8X8X8X8X8X8X8X8X8X8X:X<.T.K.L.Y.~.M.0.,X6X8X8X8X8X8X8X8X8X8X8X8X8X8X8X8X8X8X8X8X8X",
"8X8X8X8X8X8X8X8X8X8X8X8X8X8X8X8X8X8X8X8X8X8X8X8X8X8X8X8X8X8X8X8X8X8X8X8X8X8X8X6X6X8X8X8X8X8X8X8X@Xn.W.Y.L.E.T.-.+X>X>X3X8X8X8X8X8X8X8X8X8X8X8X8X8X8X8X8X8X8X8X8X",
"8X8X8X8X8X8X8X8X8X8X8X8X8X8X8X8X8X8X8X8X8X8X8X8X4X6X8X8X8X8X8X8X8X8X8X8X8X6Xs + 6X8X8X8X8X8X8X}.H.E.P.T.~.x.q.,X>X1X6X8X8X8X8X8X8X8X8X8X8X8X8X8X8X8X8X8X8X8X8X8X",
"8X8X8X8X8X8X8X8X8X8X8X8X8X8X8X8X8X8X8X8X8X8X8X{.X {.7X8X8X8X8X8X8X8X8X8X.XX   # 3X1X8X8X8X8XoXL.E.Y.T.E.5.#X>X,X3X8X8X8X8X8X8X8X8X8X8X8X8X8X8X8X8X8X8X8X8X8X8X8X",
"8X8X8X8X8X8X8X8X8X8X8X8X8X8X8X8X8X8X8X8X8X>Xr.;   *X,X5X8X8X8X8X8X8X=X8.c.    &X1X2X8X8X8X8X@XY.E.E.W.) >X>X1X6X8X8X8X8X8X8X8X8X8X8X8X8X8X8X8X8X8X8X8X8X8X8X8X8X",
"8X8X8X8X8X8X8X8X8X8X8X8X8X8X8X8X8X8X8X2Xq.I.).c._.>X>X7X8X8X8X8X*Xt.!.).E.. t >X>X6X8X8X8X8X8Xw.^.T.T._ 1X5X8X8X8X8X8X8X8X8X8X8X8X8X8X8X8X8X8X8X8X8X8X8X8X8X8X8X",
"8X8X8X8X8X8X8X8X8X8X8X8X8X8X8X8X8X8X<Xc.(.).(.*.>X>X6X8X8X8X5X9.I.(.(.^.G.+ >X>X5X8X8X8X8X8X8X6X6.z.X.@.`.3X8X8X8X8X8X8X8X8X8X8X8X8X8X8X8X8X8X8X8X8X8X8X8X8X8X8X",
"8X8X8X8X8X8X8X8X8X8X8X8X8X8X8X8X8X'.R.(.~.^.F.{.>X2X8X8X8X-Xv.(.(.~.W.^.d.&.>X,X8X8X8X8X8X8X8X8X6Xx ] ' ] [.6X8X8X8X8X8X8X8X8X8X8X8X8X8X8X8X8X8X8X8X8X8X8X8X8X8X",
"8X8X8X8X8X8X8X8X8X8X8X8X8X8X8X8Xe.Q.^.~.~.^.-.#X'..X+X*XoXs.^.^.~.W.E.E.P >X-X6X8X8X8X8X8X8X8X6X$.H ' [ ] ) >X6X8X8X8X8X8X8X8X8X8X8X8X8X8X8X8X8X8X8X8X8X8X8X8X8X",
"8X8X8X8X8X8X8X8X8X8X8X8X8X8X8X0.W.^.W.E.E.T.F.H.W.~.W.C.F.W.W.W.~.E.E.h.[.>X1X8X8X8X8X8X8X8X6X_ [ ' J _ .X>X>X4X8X8X8X8X8X8X8X8X8X8X8X8X8X8X8X8X8X8X8X8X8X8X8X8X",
"8X8X8X8X8X8X8X8X8X8X8X8X8X8XXXY.W.E.Y.L.Y.Y.T.W.W.W.G.C.Y.T.E.W.E.T.K.u >X-X6X8X8X8X8X8X8X6X#X' @./ $X>X,X3X7X8X8X8X8X8X8X8X8X8X8X8X8X8X8X8X8X8X8X8X8X8X8X8X8X8X",
"8X8X8X8X8X8X8X8X8X8X8X8X8X7XE Y.K.J.J.L.Y.L.Y.T.E.J.d.b.J.Y.T.Y.Y.K.Q '.$.( i.f.c.^ %.;X8X6Xi ' ' G _.2X7X8X8X8X8X8X8X8X8X8X8X8X8X8X8X8X8X8X8X8X8X8X8X8X8X8X8X8X",
"8X8X8X8X8X8X8X8X8X8X8X8X8X2XL M.D.Z.J.J.H.Y.T.E.T.C.v.n.Z.F.K.F.b.! x.Q.P.#.N ' l.^.T.H G C x ) [.$X%X2X5X8X8X8X8X8X8X8X8X8X8X8X8X8X8X8X8X8X8X8X8X8X8X8X8X8X8X8X",
"8X8X8X8X8X8X8X8X8X8X8X8X8X3XL m.b.m.m.Z.Z.L.T.T.E.J.m.m.V.C.C.g.! d.^.^.^.~.U.{ z | ~.~.@...O.OX1X6X6X6X8X8X8X8X8X8X8X8X8X8X8X8X8X8X8X8X8X8X8X8X8X8X8X8X8X8X8X8X",
"8X8X8X8X8X8X8X8X8X8X8X8X8X*X:.v.a.v.v.m.C.F.Y.T.E.W.J.m.m.b.d.Y 2.^.^.E.W.^.).E.| z  .(.W.' ' S.y.6X8X8X8X8X8X8X8X8X8X8X8X8X8X8X8X8X8X8X8X8X8X8X8X8X8X8X8X8X8X8X",
"8X8X8X8X8X8X8X8X8X8X8X8X8Xw p.,.1.d.v.v.m.C.J.Y.T.E.W.U.F.m.d.d.W.^.~.E.E.~.W.(.T.` l k.).U.c @.(.|.2X8X8X8X8X8X8X8X8X8X8X8X8X8X8X8X8X8X8X8X8X8X8X8X8X8X8X8X8X8X",
"8X8X8X8X8X8X8X8X8X8X8X8X=XL ~ T =.>.a.d.x.b.F.J.Y.E.W.W.E.T.T.~.~.W.~.E.E.~.~.~.(.J.c ' T.).j.z S./.{.6X8X8X8X8X8X8X8X8X8X8X8X8X8X8X8X8X8X8X8X8X8X8X8X8X8X8X8X8X",
"8X8X8X8X8X8X8X8X8X8X8X8X|.I A L Y ! >.p.a.g.m.D.Y.Y.E.E.W.W.W.W.W.W.W.E.J.W.~.W.^.^.o.l l.).J.l o.).c.*X7X8X8X8X8X8X8X8X8X8X8X8X8X8X8X8X8X8X8X8X8X8X8X8X8X8X8X8X",
"8X8X8X8X8X8X8X8X8X8X8X8Xw K 4 Z U T =.:.>.a.v.Z.F.Y.T.T.E.E.E.E.W.E.W.E.K.E.W.W.W.(.Z.l k.).W.` o.~.).0.,X8X8X8X8X8X8X8X8X8X8X8X8X8X8X8X8X8X8X8X8X8X8X8X8X8X8X8X",
"8X8X8X8X8X8X8X8X8X8X8X8X7 < , 5 K Y Q ! :.x.m.C.F.K.Y.Y.T.T.E.W.E.W.W.T.T.W.E.W.E.~.T.c +.^.~.X.} W.(.N.:X3X8X8X8X8X8X8X8X8X8X8X8X8X8X8X8X8X8X8X8X8X8X8X8X8X8X8X",
"8X8X8X8X8X8X8X8X8X8X8X8X: ; < , Z I Y ! Y 5 W m.Z.F.K.L.T.E.E.W.W.W.E.Y.Y.E.E.E.E.~.W.} X.~.~.X.} W.W.^.`.>X8X8X8X8X8X8X8X8X8X8X8X8X8X8X8X8X8X8X8X8X8X8X8X8X8X8X",
"8X8X8X8X8X8X8X8X8X8X8X8Xe + 2 > 5 S Y L r @   q D.F.J.L.Y.T.E.E.W.E.T.Y.L.T.T.T.T.E.^.+.+.~.E.O.j.E.T.~.c.>X4X8X8X8X8X8X8X8X8X8X8X8X8X8X8X8X8X8X8X8X8X8X8X8X8X8X",
"8X8X8X8X8X8X8X8X8X8X8X8X#   > , , 6 ~ * p p   . v.F.K.Y.T.E.E.W.E.T.Y.K.K.T.Y.T.Y.T.E.A.A.T.L.H.K.Y.T.E.W.'.,X8X8X8X8X8X8X8X8X8X8X8X8X8X8X8X8X8X8X8X8X8X8X8X8X8X",
"8X8X8X8X8X8X8X8X8X8X8X8Xe   < 4 5 S ! &       o m.F.K.Y.T.T.E.T.T.T.L.F.L.T.Y.T.Y.Y.Y.Y.Y.K.K.K.H.J.Y.Y.^.4.>X6X8X8X8X8X8X8X8X8X8X8X8X8X8X8X8X8X8X8X8X8X8X8X8X8X",
"8X8X8X8X8X8X8X8X8X8X8X8X9 * L I Y Q >.W .     8 F.D.T.E.T.T.T.Y.Y.L.J.Z.L.T.T.T.T.T.Y.L.L.K.J.F.C.F.L.Y.W.U.#X2X8X8X8X8X8X8X8X8X8X8X8X8X8X8X8X8X8X8X8X8X8X8X8X8X",
"8X8X8X8X8X8X8X8X8X8X8X8X7 K >.b.m.v.g.C.! 1 Y m.M.G.S.L.E.L.L.L.J.F.Z.m.K.T.E.W.E.T.Y.L.J.J.Z.m.m.C.K.L.Y.W.q.,X7X8X8X8X8X8X8X8X8X8X8X8X8X8X8X8X8X8X8X8X8X8X8X8X",
"8X8X8X8X8X8X8X8X8X8X8X8X< ! L 4 F.H.m.b.v.b.b.n.i.M n V l.H.F.F.C.C.v.g.T.~.W.~.E.T.Y.K.F.Z.b.x.v.C.F.K.Y.W.M.%X3X8X8X8X8X8X8X8X8X8X8X8X8X8X8X8X8X8X8X8X8X8X8X8X",
"8X8X8X8X8X8X8X8X8X8X8X8X`.W & O R :.:.i.:.;.2.:.j b v v n z.M.b.v.g.>.C.W.~.~.W.E.E.Y.F.m.v.v.d.v.C.F.F.K.Y.~.`.,X8X8X8X8X8X8X8X8X8X8X8X8X8X8X8X8X8X8X8X8X8X8X8X",
"8X8X8X8X8X8X8X8X8X8X8X8X6X< K 5 1 5 6 A A I R F d h h h b O.7.p.a.;.a.T.~.W.E.L.F.J.Z.v.d.a.a.d.d.v.b.m.C.J.E.d.>X3X8X8X8X8X8X8X8X8X8X8X8X8X8X8X8X8X8X8X8X8X8X8X",
"8X8X8X8X8X8X8X8X8X8X8X8X8XOXA % $ - 2 < < 6 L I f d d g x =.! Q W i.T.~.^.W.Y.d.! :.p.p.>.=.:.p.d.d.v.g.v.m.H.L.0.*X8X8X8X8X8X8X8X8X8X8X8X8X8X8X8X8X8X8X8X8X8X8X",
"8X8X8X8X8X8X8X8X8X8X8X8X8X8Xy 3 % $ = 8 7 7 6 8 3 % % k K K Z Y v.E.~.~.W.Y.g.Y L Y Q ;.! Y Y =.2.a.a.d.a.v.v.v.F.1.,X8X8X8X8X8X8X8X8X8X8X8X8X8X8X8X8X8X8X8X8X8X",
"8X8X8X8X8X8X8X8X8X8X8X8X8X8X8X=X= $ * S A 8 Z 6 8 K A P 7 > U U.^.~.~.~.T.h.I 2 6 I U K K D A Y =.:.2.a.a.d.p.d.Y.E.|.,X8X8X8X8X8X8X8X8X8X8X8X8X8X8X8X8X8X8X8X8X",
"8X8X8X8X8X8X8X8X8X8X8X8X8X8X8X4XB.D.S S Y Y I I K A A A 2 T E.(.W.E.E.T.C.I < 5 2 5 6 5 6 A Z A I Q -.>.2.p.2.d.K.T.-.>X3X8X8X8X8X8X8X8X8X8X8X8X8X8X8X8X8X8X8X8X",
"8X8X8X8X8X8X8X8X8X8X8X8X8X8X7Xq T.^.F.U 9 9 4 K L T Y Z T Y.^.W.Y.F.C.g.Y < 4 5 A K 5 Z S L I A 8 L Y W ;.,.T A T ;.=.=X2X8X8X8X8X8X8X8X8X8X8X8X8X8X8X8X8X8X8X8X",
"8X8X8X8X8X8X8X8X8X8X8X8X8X8X7X].`.q E [.>X,X%X[.u 0 4 K s.Y.K.v.a.Q I S Z S K D , 9 a u L A 5 S S I L Z 2 9 _.%X9 I =.}.,X7X8X8X8X8X8X8X8X8X8X8X8X8X8X8X8X8X8X8X",
"8X8X8X8X8X8X8X8X8X8X8X8X8X8X8X8X8X3X6X,X2X6X7X8X7X4X:X_.w q K Y L A D D 3 8 w s OX>X>X2X_.{.&X[.s i i &.$X>X,X1X>X, ! a >X5X8X8X8X8X8X8X8X8X8X8X8X8X8X8X8X8X8X8X",
"8X8X8X8X8X8X8X8X8X8X8X8X8X8X8X8X8X8X8X8X8X8X8X8X8X8X8X8X7X:X`.i s a y a {.-X>X,X2X6X6X8X8X7X6X6X7X6X6X6X3X6X6X8X8X-Xw $.>X3X8X8X8X8X8X8X8X8X8X8X8X8X8X8X8X8X8X8X",
"8X8X8X8X8X8X8X8X8X8X8X8X8X8X8X8X8X8X8X8X8X8X8X8X8X8X8X8X8X8X8X7X5X3X4X4X4X4X7X8X8X8X8X8X8X8X8X8X8X8X8X8X8X8X8X8X8X8X8X6X1X6X8X8X8X8X8X8X8X8X8X8X8X8X8X8X8X8X8X8X",
"8X8X8X8X8X8X8X8X8X8X8X8X8X8X8X8X8X8X8X8X8X8X8X8X8X8X8X8X8X8X8X8X8X8X8X8X8X8X8X8X8X8X8X8X8X8X8X8X8X8X8X8X8X8X8X8X8X8X8X8X8X8X8X8X8X8X8X8X8X8X8X8X8X8X8X8X8X8X8X8X",
"8X8X8X8X8X8X8X8X8X8X8X8X8X8X8X8X8X8X8X8X8X8X8X8X8X8X8X8X8X8X8X8X8X8X8X8X8X8X8X8X8X8X8X8X8X8X8X8X8X8X8X8X8X8X8X8X8X8X8X8X8X8X8X8X8X8X8X8X8X8X8X8X8X8X8X8X8X8X8X8X",
"8X8X8X8X8X8X8X8X8X8X8X8X8X8X8X8X8X8X8X8X8X8X8X8X8X8X8X8X8X8X8X8X8X8X8X8X8X8X8X8X8X8X8X8X8X8X8X8X8X8X8X8X8X8X8X8X8X8X8X8X8X8X8X8X8X8X8X8X8X8X8X8X8X8X8X8X8X8X8X8X",
"8X8X8X8X8X8X8X8X8X8X8X8X8X8X8X8X8X8X8X8X8X8X8X8X8X8X8X8X8X8X8X8X8X8X8X8X8X8X8X8X8X8X8X8X8X8X8X8X8X8X8X8X8X8X8X8X8X8X8X8X8X8X8X8X8X8X8X8X8X8X8X8X8X8X8X8X8X8X8X8X",
"8X8X8X8X8X8X8X8X8X8X8X8X8X8X8X8X8X8X8X8X8X8X8X8X8X8X8X8X8X8X8X8X8X8X8X8X8X8X8X8X8X8X8X8X8X8X8X8X8X8X8X8X8X8X8X8X8X8X8X8X8X8X8X8X8X8X8X8X8X8X8X8X8X8X8X8X8X8X8X8X",
"8X8X8X8X8X8X8X8X8X8X8X8X8X8X8X8X8X8X8X8X8X8X8X8X8X8X8X8X8X8X8X8X8X8X8X8X8X8X8X8X8X8X8X8X8X8X8X8X8X8X8X8X8X8X8X8X8X8X8X8X8X8X8X8X8X8X8X8X8X8X8X8X8X8X8X8X8X8X8X8X",
"8X8X8X8X8X8X8X8X8X8X8X8X8X8X8X8X8X8X8X8X8X8X8X8X8X8X8X8X8X8X8X8X8X8X8X8X8X8X8X8X8X8X8X8X8X8X8X8X8X8X8X8X8X8X8X8X8X8X8X8X8X8X8X8X8X8X8X8X8X8X8X8X8X8X8X8X8X8X8X8X",
"8X8X8X8X8X8X8X8X8X8X8X8X8X8X8X8X8X8X8X8X8X8X8X8X8X8X8X8X8X8X8X8X8X8X8X8X8X8X8X8X8X8X8X8X8X8X8X8X8X8X8X8X8X8X8X8X8X8X8X8X8X8X8X8X8X8X8X8X8X8X8X8X8X8X8X8X8X8X8X8X",
"8X8X8X8X8X8X8X8X8X8X8X8X8X8X8X8X8X8X8X8X8X8X8X8X8X8X8X8X8X8X8X8X8X8X8X8X8X8X8X8X8X8X8X8X8X8X8X8X8X8X8X8X8X8X8X8X8X8X8X8X8X8X8X8X8X8X8X8X8X8X8X8X8X8X8X8X8X8X8X8X",
"8X8X8X8X8X8X8X8X8X8X8X8X8X8X8X8X8X8X8X8X8X8X8X8X8X8X8X8X8X8X8X8X8X8X8X8X8X8X8X8X8X8X8X8X8X8X8X8X8X8X8X8X8X8X8X8X8X8X8X8X8X8X8X8X8X8X8X8X8X8X8X8X8X8X8X8X8X8X8X8X",
"8X8X8X8X8X8X8X8X8X8X8X8X8X8X8X8X8X8X8X8X8X8X8X8X8X8X8X8X8X8X8X8X8X8X8X8X8X8X8X8X8X8X8X8X8X8X8X8X8X8X8X8X8X8X8X8X8X8X8X8X8X8X8X8X8X8X8X8X8X8X8X8X8X8X8X8X8X8X8X8X"
};
