/* XPM */
static char *result[] = {
/* columns rows colors chars-per-pixel */
"80 80 208 2 ",
"   c #000001",
".  c #03050A",
"X  c #0D0C0C",
"o  c #18100F",
"O  c #2E120C",
"+  c #282614",
"@  c #5B0E1C",
"#  c #600700",
"$  c #6C1304",
"%  c #6C1D0F",
"&  c #4F3801",
"*  c #523A00",
"=  c #772D15",
"-  c #581527",
";  c #72353C",
":  c #7A3726",
">  c #5A430A",
",  c #4E4410",
"<  c #544C13",
"1  c #794F00",
"2  c #6B5709",
"3  c #7D5504",
"4  c #7B5F00",
"5  c #67521A",
"6  c #7D6108",
"7  c #5B4C36",
"8  c #585B3B",
"9  c #474128",
"0  c #7D585D",
"q  c #5C6372",
"w  c #616565",
"e  c #843916",
"r  c #843D23",
"t  c #D1390F",
"y  c #CD3A14",
"u  c #CA103B",
"i  c #DA123F",
"p  c #C60E3D",
"a  c #855B00",
"s  c #855A0A",
"d  c #9B5906",
"f  c #965C15",
"g  c #944D04",
"h  c #926300",
"j  c #976900",
"k  c #817106",
"l  c #9D7800",
"z  c #8A6600",
"x  c #A26D00",
"c  c #A57400",
"v  c #AA7400",
"b  c #AD7B00",
"n  c #B47C00",
"m  c #B97700",
"M  c #A77715",
"N  c #916D3B",
"B  c #D45102",
"V  c #E25E14",
"C  c #E0491B",
"Z  c #DE6103",
"A  c #E17E07",
"S  c #DF4527",
"D  c #D60F4A",
"F  c #DF0D5F",
"G  c #D81044",
"H  c #E7134A",
"J  c #E30F5E",
"K  c #EF1456",
"L  c #EB165E",
"P  c #DF2D51",
"I  c #E13C4F",
"U  c #EF255D",
"Y  c #EF1062",
"T  c #ED1965",
"R  c #E80D6F",
"E  c #F0316F",
"W  c #F02871",
"Q  c #F0286B",
"!  c #817244",
"~  c #A17964",
"^  c #7B8055",
"/  c #9F8904",
"(  c #AE8000",
")  c #B48201",
"_  c #BE8500",
"`  c #B68B01",
"'  c #BE8B00",
"]  c #AA9400",
"[  c #BB9200",
"{  c #BF900D",
"}  c #B68817",
"|  c #AC8917",
" . c #9D8F30",
".. c #B68A22",
"X. c #AE9433",
"o. c #C38600",
"O. c #C38C00",
"+. c #CB8D00",
"@. c #C88700",
"#. c #D18E00",
"$. c #C59300",
"%. c #CC9200",
"&. c #CB9B00",
"*. c #C59D00",
"=. c #D39400",
"-. c #DA9600",
";. c #D49B00",
":. c #DD9C00",
">. c #C59914",
",. c #D09E17",
"<. c #E38E00",
"1. c #E29B00",
"2. c #CDA500",
"3. c #C8A900",
"4. c #D5A400",
"5. c #DDA100",
"6. c #DDB500",
"7. c #DFBC00",
"8. c #D4B21C",
"9. c #E4A300",
"0. c #EAA600",
"q. c #E3AC00",
"w. c #ECAC00",
"e. c #E3B400",
"r. c #EBB400",
"t. c #E5BD00",
"y. c #EBBC00",
"u. c #C79A23",
"i. c #CBAD24",
"p. c #D4BA29",
"a. c #CCBB3A",
"s. c #D3BB3D",
"d. c #D0AA31",
"f. c #DFC100",
"g. c #DBC31A",
"h. c #DDC312",
"j. c #E5C300",
"k. c #EBC400",
"l. c #E5C900",
"z. c #EDC900",
"x. c #ECD000",
"c. c #E7CE12",
"v. c #DBC626",
"b. c #D7C637",
"n. c #EAD838",
"m. c #948558",
"M. c #B29950",
"N. c #BEA44C",
"B. c #B8A34B",
"V. c #A6A25F",
"C. c #BEAD5C",
"Z. c #B6A456",
"A. c #BDB159",
"S. c #868F62",
"D. c #959D68",
"F. c #A7A568",
"G. c #BBAC63",
"H. c #AEB16F",
"J. c #B7B266",
"K. c #BCB364",
"L. c #BBBB6C",
"P. c #B9B668",
"I. c #B1A870",
"U. c #ACB371",
"Y. c #BBB673",
"T. c #B7BC75",
"R. c #BABC74",
"E. c #B6B979",
"W. c #C49F41",
"Q. c #C3A843",
"!. c #CAB947",
"~. c #D3BE42",
"^. c #C3AC5C",
"/. c #C4AD53",
"(. c #C6BB55",
"). c #C5B866",
"_. c #C2BE71",
"`. c #BBC473",
"'. c #BCC37A",
"]. c #D3C547",
"[. c #C9C35A",
"{. c #D8CB55",
"}. c #CCC56A",
"|. c #D3C865",
" X c #CDC673",
".X c #C1CA77",
"XX c #C4C57D",
"oX c #C4CD79",
"OX c #CBCB7D",
"+X c #C9C676",
"@X c #D1CE71",
"#X c #CBD47C",
"$X c #CFD97F",
"%X c #CBD176",
"&X c #D0D97F",
"*X c #D4D274",
"=X c #D5D464",
"-X c #CACE83",
";X c #C3CA82",
":X c #CDD284",
">X c #D2D385",
",X c #D3DC82",
"<X c #D4DB89",
"1X c #D7E084",
"2X c #DCE687",
"3X c #D8E18A",
"4X c #C9CFDE",
"5X c #E6E7F3",
/* pixels */
"2X2X2X2X2X2X2X2X2X2X2X2X2X2X2X2X2X2X2X2X2X2X2X2X2X2X2X2X2X2X2X2X2X2X2X2X2X2X2X2X2X2X2X2X2X2X2X2X2X2X2X2X2X2X2X2X2X2X2X2X2X2X2X2X2X2X2X2X2X2X2X2X2X2X2X2X2X2X2X2X",
"2X2X2X2X2X2X2X2X2X2X2X2X2X2X2X2X2X2X2X2X2X2X2X2X2X2X2X2X2X2X2X2X2X2X2X2X2X2X2X2X2X2X2X2X2X2X2X2X2X2X2X2X2X2X2X2X2X2X2X2X2X2X2X2X2X2X2X2X2X2X2X2X2X2X2X2X2X2X2X2X",
"2X2X2X2X2X2X2X2X2X2X2X2X2X2X2X2X2X2X2X2X2X2X2X2X2X2X2X2X2X2X2X2X2X2X2X2X2X2X2X2X2X2X2X2X2X2X2X2X2X2X2X2X2X2X2X2X2X2X2X2X2X2X2X2X2X2X2X2X2X2X2X2X2X2X2X2X2X2X2X2X",
"2X2X2X2X2X2X2X2X2X2X2X2X2X2X2X2X2X2X2X2X2X2X2X2X2X2X2X2X2X2X2X2X2X2X2X2X2X2X2X2X2X2X2X2X2X2X2X2X2X2X2X2X2X2X2X2X2X2X2X2X2X2X2X2X2X2X2X2X2X2X2X2X2X2X2X2X2X2X2X2X",
"2X2X2X2X2X2X2X2X2X2X2X2X2X2X2X2X2X2X2X2X2X2X2X2X2X2X2X2X2X2X2X2X2X2X2X2X2X2X2X2X2X2X2X2X2X2X2X2X2X2X2X2X2X2X2X2X2X2X2X2X2X2X2X2X2X2X2X2X2X2X2X2X2X2X2X2X2X2X2X2X",
"2X2X2X2X2X2X2X2X2X2X2X2X2X2X2X2X2X2X2X2X2X2X2X2X2X2X2X2X2X2X2X2X2X2X2X2X2X2X2X2X2X2X2X2X2X2X2X2X2X2X2X2X2X2X2X2X2X2X2X2X2X2X2X2X2X2X2X2X2X2X2X2X2X2X2X2X2X2X2X2X",
"2X2X2X2X2X2X2X2X2X2X2X2X2X2X2X2X2X2X2X2X2X2X2X2X2X2X2X2X2X2X2X2X2X2X2X2X2X2X2X2X2X2X2X2X2X2X2X2X2X2X2X2X2X2X2X2X2X2X2X2X2X2X2X2X2X2X2X2X2X2X2X2X2X2X2X2X2X2X2X2X",
"2X2X2X2X2X2X2X2X2X2X2X2X2X2X2X2X2X2X2X2X2X2X2X2X2X2X2X2X2X2X2X2X2X2X2X2X2X2X2X2X2X2X2X2X2X2X2X2X2X2X2X2X2X2X2X2X2X2X2X2X2X2X2X2X2X2X2X2X2X2X2X2X2X2X2X2X2X2X2X2X",
"2X2X2X2X2X2X2X2X2X2X2X2X2X2X2X2X2X2X2X2X2X2X2X2X2X2X2X2X2X2X2X2X2X2X2X2X2X2X2X2X2X2X2X2X2X2X2X2X2X2X2X2X2X2X2X2X2X2X2X2X2X2X2X2X2X2X2X2X2X2X2X2X2X2X2X2X2X2X2X2X",
"2X2X2X2X2X2X2X2X2X2X2X2X2X2X2X2X2X2X2X2X2X2X2X2X2X2X2X2X2X2X2X2X2X2X2X2X2X2X2X2X2X2X2X2X2X2X2X2X2X2X2X2X2X2X2X2X2X2X2X2X2X2X2X2X2X2X2X2X2X2X2X2X2X2X2X2X2X2X2X2X",
"2X2X2X2X2X2X2X2X2X2X2X2X2X2X2X2X2X2X2X2X2X2X2X2X2X2X2X2X2X2X2X2X2X2X2X2X2X2X2X2X2X2X2X2X2X2X2X2X2X2X2X2X2X2X2X2X2X2X2X2X2X2X2X2X2X2X2X2X2X2X2X2X2X2X2X2X2X2X2X2X",
"2X2X2X2X2X2X2X2X2X2X2X2X2X2X2X2X2X2X2X2X2X2X2X2X2X2X2X2X2X2X2X2X2X2X2X2X2X2X2X2X2X2X2X2X2X2X2X2X2X2X2X2X2X2X2X2X2X2X2X2X2X2X2X2X2X2X2X2X2X2X2X2X2X2X2X2X2X2X2X2X",
"2X2X2X2X2X2X2X2X2X2X2X2X2X2X2X2X2X2X2X2X2X2X2X2X2X2X2X2X2X2X2X2X2X2X2X2X2X2X2X2X2X2X2X2X2X2X2X2X2X2X2X2X2X2X2X2X2X2X2X2X2X2X2X2X+XOX2X2X2X2X2X2X2X2X2X2X2X2X2X2X",
"2X2X2X2X2X2X2X2X2X2X2X2X2X2X2X2X2X2X2X2X2X2X2X2X2X2X2X2X2X2X2X2X2X2X2X2X2X2X2X2X2X2X2X2X2X2X2X2X2X2X2X2X2X2X2X2X2X2X2X2X2X2X2X<Xz.OX#X,X2X2X2X2X2X2X2X2X2X2X2X2X",
"2X2X2X2X2X2X2X2X2X2X2X2X2X2X2X2X2X2X2X2X2X2X2X2X2X2X2X2X2X2X2X2X2X2X2X2X2X2X2X2X2X2X2X2X2X2X2X2X2X2X2X2X2X2X2X2X2X2X2X2X2X2X2Xj.z.}.`.$X2X2X2X2X2X2X2X2X2X2X2X2X",
"2X2X2X2X2X2X2X2X2X2X2X2X2X2X2X2X2X2X2X2X2X2X2X2X2X2X2X2X2X2X2X2X2X2X2X2X2X2X2X2X2X2X2X2X2X2X2X2X2X2X2X2X2X2X2X2X2X2X2X2X2X2Xs.z.z.(.`.$X2X2X2X2X2X2X2X2X2X2X2X2X",
"2X2X2X2X2X2X2X2X2X2X2X2X2X2X2X2X2X2X2X2X2X2X2X2X2X2X2X2X2X2X2X2X2X2X2X2X2X2X2X2X2X2X2X2X2X2X2X2X2X2X2X2X2X2X2X2X2X2X2X2X2X Xk.k.z.!.`.#X2X2X2X2X2X2X2X2X2X2X2X2X",
"2X2X2X2X2X2X2X2X2X2X2X2X2X2X2X2X2X2X2X2X2X2X2X2X2X2X2X2X2X2X2X2X2X2X2X2X2X2X2X2X2X2X2X2X2X2X2X2X2X2X2X2X2X2X2X2X2X2X2X2X>Xk.k.k.k.g.`..X2X2X2X2X2X2X2X2X2X2X2X2X",
"2X2X2X2X2X2X2X2X2X2X2X2X2X2X2X2X2X2X2X2X2X2X2X2X2X2X2X2X2X2X2X2X2X2X2X2X2X2X2X2X2X2X2X2X2X2X2X2X2X2X2X2X2X2X2X2X2X2X2X,Xk.k.k.k.k.f.`.`.2X2X2X2X2X2X2X2X2X2X2X2X",
"2X2X2X2X2X2X2X2X2X2X2X2X2X2X2X2X2X2X2X2X2X2X2X2X2X2X2X2X2X2X2X2X2X2X2X2X2X2X2X2X2X2X2X2X2X2X2X2X2X2X2X2X2X2X2X2X2X2X2Xb.k.k.k.k.k.z.R.`.1X2X2X2X2X2X2X2X2X2X2X2X",
"2X2X2X2X2X2X2X2X2X2X2X2X2X2X2X2X2X2X2X2X2X2X2X2X2X2X2X2X2X2X2X2X2X2X2X2X2X2X2X2X2X2X2X2X2X2X2X2X2X2X2X2X2X2X2X2X2X2X[.z.k.k.y.k.z.z.Y.`.,X2X2X2X2X2X2X2X2X2X2X2X",
"2X2X2X2X2X2X2X2X2X2X2X2X2X2X2X2X2X2X2X2X2X2X2X2X2X2X2X2X2X2X2X2X2X2X2X2X2X2X2X2X2X2X2X2X2X2X2X2X2X2X2X2X2X2X2X2X2X:Xk.k.k.k.k.k.k.z.K.`.,X2X2X2X2X2X2X2X2X2X2X2X",
"2X2X2X2X2X2X2X2X2X2X2X2X2X2X2X2X2X2X2X2X2X2X2X2X2X2X2X2X2X2X2X2X2X2X2X2X2X2X2X2X2X2X2X2X2X2X2X2X2X2X2X2X2X2X2X2X<Xk.z.y.j.k.k.k.k.k.(.`.#X2X2X2X2X2X2X2X2X2X2X2X",
"2X2X2X2X2X2X2X2X2X2X2X2X2X2X2X2X2X2X2X2X2X2X2X2X2X2X2X2X2X2X2X2X2X2X2X2X2X2X2X2X2X2X2X2X2X2X2X2X2X2X2X2X2X2X2X2Xb.z.k.k.k.y.k.k.k.k.(.`.#X2X2X2X2X2X2X2X2X2X2X2X",
"2X2X2X2X2X2X2X2X2X2X2X2X2X2X2X2X2X2X2X2X2X2X2X2X2X2X2X2X2X2X2X2X2X2X2X2X2X2X2X2X2X2X2X2X2X2X2X2X2X2X2X2X2X2X2X Xz.k.k.k.k.y.k.k.k.z.h.`.oX2X2X2X2X2X2X2X2X2X2X2X",
"2X2X2X2X2X2X2X2X2X2X2X2X2X2X2X2X2X2X2X2X2X2X2X2X2X2X2X2X2X2X2X2X2X2X2X2X2X2X2X2X2X2X2X2X2X2X2X2X2X2X2X2X2X2X>Xk.z.k.k.k.j.k.j.k.k.z.a.`.`.2X2X2X2X2X2X2X2X2X2X2X",
"2X2X2X2X2X2X2X2X2X2X2X2X2X2X2X2X2X2X2X2X2X2X2X2X2X2X2X2X2X2X2X2X2X2X2X2X2X2X2X2X2X2X2X2X2X2X2X2X2X2X2X2X2X<Xv.z.k.k.k.k.k.k.k.k.k.).`.`.oX2X2X2X2X2X2X2X2X2X2X2X",
"2X2X2X2X2X2X2X2X2X2X2X2X2X2X2X2X2X2X2X2X2X2X2X2X2X2X2X2X2X2X2X2X2X2X2X2X2X2X2X2X2X2X2X2X2X2X2X2X2X2X2X2X2X[.k.k.k.k.y.j.k.k.k.z.L.`.`.%X2X2X2X2X2X2X2X2X2X2X2X2X",
"2X2X2X2X2X2X2X2X2X2X2X2X2X2X2X2X2X2X2X2X2X2X2X2X2X2X2X2X2X2X2X2X2X2X2X2X2X2X2X2X2X2X2X2X2X2X2X2X2X2X2X2XOXk.z.k.k.k.y.k.k.k.g.E.`.`.$X2X2X2X2X2X2X2X2X2X2X2X2X2X",
"2X2X2X2X2X2X2X2X2X2X2X2X2X2X2X2X2X2X2X2X2X2X2X2X2X2X2X2X2X2X2X2X2X2X2X2X2X2X2X2X2X2X2X2X2X2X2X2X2X2X2X<Xj.k.k.k.k.k.k.z.z.s.R.`.`.,X2X2X2X2X2X2X2X2X2X2X2X2X2X2X",
"2X2X2X2X2X2X2X2X2X2X2X2X2X2X2X2X2X2X2X2X2X2X2X2X2X2X2X2X2X2X2X2X2X2X2X2X2X2X2X2X2X2X2X2X2X2X2X2X2X2X2Xb.z.k.k.k.k.y.z.k.A.`.`..X2X2X2X2X2X2X2X2X2X2X2X2X2X2X2X2X",
"2X2X2X2X2X2X2X2X2X2X2X2X2X2X2X2X2X2X2X2X2X2X2X2X2X2X2X2X2X2X2X2X2X2X2X2X2X2X2X2X2X2X2X2X2X2X2X2X2X2X*Xk.k.k.k.j.k.k.z.R.`.`.#X2X2X2X2X2X2X2X2X2X2X2X2X2X2X2X2X2X",
"2X2X2X2X2X2X2X2X2X2X2X2X2X2X2X2X2X2X2X2X2X2X2X2X2X2X2X2X2X2X2X2X2X2X2X2X2X2X2X2X2X2X2X2X2X2X2X2X2X2X:X8.z.z.k.k.z.t.T.`.`.$X2X2X2X2X2X2X2X2X2X2X2X2X2X2X2X2X2X2X",
"2X2X2X2X2X2X2X2X2X2X2X2X2X2X2X2X2X2X2X2X2X2X2X2X2X2X2X2X2X2X2X2X2X2X2X2X2X2X2X2X2X2X2X2X2X2X2X2X2X2X2X<Xa.z.k.k.k.k.L.`.,X2X2X2X2X2X2X2X2X2X2X2X2X2X2X2X2X2X2X2X",
"2X2X2X2X2X2X2X2X2X2X2X2X2X2X2X2X2X2X2X2X2X2X2X2X2X2X2X2X2X2X2X2X2X2X2X1X'.F.^ 8 8 :X2X2X2X2X2X2X2X2X2X2X1XQ.z.z.k.z.z.K.#X2X2X2X2X2X2X2X2X2X2X2X2X2X2X2X2X2X2X2X",
"2X2X2X2X2X2X2X2X2X2X2X2X2X2X2X2X2X2X2X2X2X2X2X2X2X2X2X2X2X2X3X<X*X=X].8.+         '.oX2X2X2X2X2X2X2X2X2X2X2XC.k.k.k.z.k.L.#X2X2X2X2X2X2X2X2X2X2X2X2X2X2X2X2X2X2X",
"2X2X2X2X2X2X2X2X2X2X2X2X2X2X2X2X2X2X2X2X2X2X2XT.D.S.XX3XOX|.b.j.k.k.k.z.2     X U.'.`.,X2X2X2X2X2X2X2X2X2X2X2XK.6.k.k.z.z.P.:X2X2X2X2X2X2X2X2X2X2X2X2X2X2X2X2X2X",
"2X2X2X2X2X2X2X2X2X2X2X2X2X2X2X2X2X2X1X<X@X(. ./ ] ] 3.c.k.z.z.z.z.k.k.z.<     9 P.I.-X2X2X2X2X2X2X2X2X2X2X2X2X2XR.2.z.k.z.z.R.$X2X2X2X2X2X2X2X2X2X2X2X2X2X2X2X2X",
"2X2X2X2X2X2X2X2X2X2X2X2X2X2X2X<X*X].v.z.z.z.z.z.z.z.z.k.k.k.k.k.k.k.z.z.X   < x.k.4.f ; ~ >X3X2X2X2X2X2X2X2X2X2X2Xi.k.k.k.j.[.`.,X2X2X2X2X2X2X2X2X2X2X2X2X2X2X2X",
"2X2X2X2X2X2X2X2X2X2X2X2X2X2X+Xl.z.z.z.z.k.z.k.k.k.k.j.k.k.k.k.k.z.k.z.k   X f z.k.k.y.m $ @ Z.<X2X2X2X2X2X2X2X2X~.z.k.k.z.!.`.`.$X2X2X2X2X2X2X2X2X2X2X2X2X2X2X2X",
"2X2X2X2X2X2X2X2X2X2X2X2X2X<Xw.z.z.z.z.k.k.k.k.k.y.k.k.z.z.k.z.k.y.k.O.+ O O O d y.k.z.z.j.g % ,.}.3X2X2X2X2X2X}.z.k.k.z.v.`.`..X2X2X2X2X2X2X2X2X2X2X2X2X2X2X2X2X",
"2X2X2X2X2X2X2X2X2X2X2X2X2Xd.z.z.z.z.j.k.k.j.k.y.k.k.k.k.r.:.;.$.#.#.j l ` 3 % @ 5.k.k.k.k.k.%.;.z.v.;X2X2X2X Xk.z.y.z.j.T.`.`.1X2X2X2X2X2X2X2X2X2X2X2X2X2X2X2X2X",
"2X2X2X2X2X2X2X2X2X2X2X2X;Xr.z.z.z.k.k.k.k.k.k.j.k.k.t.4.@.O.' ) b c n v ` z.q.: 4.k.y.k.k.k.k.k.k.z.t.E.1X2Xj.z.k.k.k.E.`.`.1X2X2X2X2X2X2X2X2X2X2X2X2X2X2X2X2X2X",
"2X2X2X2X2X2X2X2X2X2X2X<X,.y.z.z.k.j.k.k.y.k.k.k.z.j.6.6.t.k.k.t.6.2.[ *.y.k.z.t.y.k.k.k.k.k.k.j.k.k.k.v.E.,X{.z.k.z.).`.`.,X2X2X2X2X2X2X2X2X2X2X2X2X2X2X2X2X2X2X",
"2X2X2X2X2X2X2X2X2X2X2X^.0.y.k.k.j.y.k.k.j.k.k.k.k.k.k.k.z.k.k.z.z.z.z.z.k.k.k.k.z.k.k.k.k.k.k.k.j.k.k.z.) 0 I.z.z.z.`.`.#X2X2X2X2X2X2X2X2X2X2X2X2X2X2X2X2X2X2X2X",
"2X2X2X2X2X2X2X2X2X2X,X4.r.y.z.k.k.k.k.k.k.k.k.j.k.j.k.k.k.k.k.k.k.k.k.t.k.k.k.k.k.k.k.j.j.y.k.k.k.k.y.k.z.g - M $...R.`.2X2X2X2X2X2X2X2X2X2X2X2X2X2X2X2X2X2X2X2X",
"2X2X2X2X2X2X2X2X2X2X_.0.w.r.k.z.k.k.k.j.k.k.y.k.k.k.k.j.y.k.j.k.k.j.k.k.t.k.k.t.k.k.k.k.k.k.k.y.k.j.k.k.k.z.e @ % r `.'.1X2X2X2X2X2X2X2X2X2X2X2X2X2X2X2X2X2X2X2X",
"2X2X2X2X2X2X2X2X2X2X/.0.w.y.y.j.k.k.k.y.k.j.k.k.y.k.k.k.k.k.y.k.k.k.k.k.k.k.k.k.k.j.y.k.k.k.j.k.k.k.k.k.k.z.7.= $ r `.`.1X2X2X2X2X2X2X2X2X2X2X2X2X2X2X2X2X2X2X2X",
"2X2X2X2X2X2X2X2X2X2XQ.0.w.r.r.t.z.k.k.k.k.k.k.k.k.k.j.k.k.j.k.k.k.k.t.k.k.k.k.k.k.j.k.k.k.k.j.y.y.k.j.k.k.k.k.$.# r `.`.2X2X2X2X2X2X2X2X2X2X2X2X2X2X2X2X2X2X2X2X",
"2X2X2X2X2X2X2X2X2X2XQ.1.0.r.r.r.t.z.z.z.k.y.j.k.k.k.y.k.y.k.k.k.k.k.k.k.k.t.k.k.k.k.y.k.k.k.k.k.k.k.k.k.k.k.z.z.N ; R.`.2X2X2X2X2X2X2X2X2X2X2X2X2X2X2X2X2X2X2X2X",
"2X2X2X2X2X2X2X2X2X2X).-.9.w.w.w.z.y.7.z.k.k.k.k.k.k.k.k.k.k.k.k.k.j.k.k.k.k.k.k.k.k.k.j.j.k.k.k.k.k.k.y.t.k.k.k.n.E.R.`.1X2X2X2X2X2X2X2X2X2X2X2X2X2X2X2X2X2X2X2X",
"2X2X2X2X2X2X2X2X2X2XOX=.1.0.0.y.2.7 o , j.z.k.k.k.k.k.j.j.k.k.y.k.y.k.k.t.k.t.k.y.k.k.k.k.y.k.k.k.k.k.j.k.k.k.k.k._..X>X2X2X2X2X2X2X2X2X2X2X2X2X2X2X2X2X2X2X2X2X",
"2X2X2X2X2X2X2X2X2X2X3X>.-.9.0.q.m.5Xq   2 k.k.k.k.k.k.z.k.k.k.j.k.k.j.k.t.k.k.k.j.k.k.k.k.k.z.z.k.t.k.k.k.k.k.k.z.!.`.&X2X2X2X2X2X2X2X2X2X2X2X2X2X2X2X2X2X2X2X2X",
"2X2X2X2X2X2X2X2X2X2X2XN.-.9.0.q.7 4Xw   O z.k.z.<.A 0.z.k.k.k.k.k.k.y.k.k.k.k.k.k.k.k.j.k.z.y.y.z.z.k.y.j.k.k.k.z.j.`..X2X2X2X2X2X2X2X2X2X2X2X2X2X2X2X2X2X2X2X2X",
"2X2X2X2X2X2X2X2X2X2X2XV.=.1.0.z.6 . . . 5 z.0.I J F J S x.z.k.k.k.k.k.k.k.k.k.y.k.j.k.y.z.k.w.y.z.t.z.k.k.k.y.k.k.k.L.`.1X2X2X2X2X2X2X2X2X2X2X2X2X2X2X2X2X2X2X2X",
"2X2X2X2X2X2X2X2X2X2X2X:X%.0.w.r.z.2 O < j.y.I R T T Y J C z.k.k.k.k.k.j.k.k.j.k.k.k.k.k.k.y.w.$.&.j.z.k.k.k.j.k.k.k.(.`.&X2X2X2X2X2X2X2X2X2X2X2X2X2X2X2X2X2X2X2X",
"2X2X2X2X2X2X2X2X2X2X2X<X5.r.y.e.y.z.z.z.k.A R W E Q L L H t.k.k.k.k.z.k.z.k.k.y.k.j.k.k.k.k.b 1 o.k.z.k.k.j.k.k.k.k.p.`.#X2X2X2X2X2X2X2X2X2X2X2X2X2X2X2X2X2X2X2X",
"2X2X2X2X2X2X2X2X2X2X2X<X} 6.z.y.y.y.k.k.z.V Y L U L K K D 5.z.k.j.k.t.y.y.k.z.z.z.k.k.k.z.q.a h :.y.z.k.k.k.k.y.k.z.z.R.`.2X2X2X2X2X2X2X2X2X2X2X2X2X2X2X2X2X2X2X",
"2X2X2X2X2X2X2X2X2X2X2X3X..5.r.y.y.r.r.r.z.<.H H H H H H u 5.z.r.r.r.w.q.w.r.r.y.y.k.k.k.z.$.h O.w.z.k.j.k.k.k.k.k.z.z.R.`.1X2X2X2X2X2X2X2X2X2X2X2X2X2X2X2X2X2X2X",
"2X2X2X2X2X2X2X2X2X2X2X2X`.A -.) n y.r.w.w.z.Z i G D D u B z.r.w.0.0.0.0.0.0.0.q.w.r.z.k.z.m x =.w.z.z.k.k.y.k.k.k.k.!.`.`.,X2X2X2X2X2X2X2X2X2X2X2X2X2X2X2X2X2X2X",
"2X2X2X2X2X2X2X2X2X2X2X2X2XM.c s v 9.9.9.9.0.k.-.B t y B e.q.9.1.:.-.=.-.;.-.:.0.w.r.z.z.z.%.v %.0.r.k.z.z.z.k.k.z.k.).`.oX2X2X2X2X2X2X2X2X2X2X2X2X2X2X2X2X2X2X2X",
"2X2X2X2X2X2X2X2X2X2X2X2X2X2XP.[ +.o.+.%.=.=.=.6.j.7.6.6.;.=.=.+.%.%.=.5.=.o.+.1.0.w.z.z.z.y.n n 5.w.r.y.y.z.k.k.k.y.P.`.#X2X2X2X2X2X2X2X2X2X2X2X2X2X2X2X2X2X2X2X",
"2X2X2X2X2X2X2X2X2X2X2X2X2X2X2X+X} ' #.+.+.%.=.=.=.=.=.=.=.+.$.O.+.O.v a ( =.o.%.0.w.k.z.z.z.&.c @.9.0.0.0.w.k.k.k.e.R.`.#X2X2X2X2X2X2X2X2X2X2X2X2X2X2X2X2X2X2X2X",
"2X2X2X2X2X2X2X2X2X2X2X2X2X2X2X2X<XR.Z.u.%.&.&.$.&.>.u.Q.^.^.+._ n c 3 & > ` ' _ =.w.r.y.k.z.y.M.} +.+.@.-.1.r.k.k.p.`.`.1X2X2X2X2X2X2X2X2X2X2X2X2X2X2X2X2X2X2X2X",
"2X2X2X2X2X2X2X2X2X2X2X2X2X2X2X2X2X2X2X#XXXR.R.L.`.`.`.'.F.N z ' m c j z & ! T...@.;.w.w.r.k.y.^.E.M.X.| ..| ;.k.z.l.P.'.2X2X2X2X2X2X2X2X2X2X2X2X2X2X2X2X2X2X2X2X",
"2X2X2X2X2X2X2X2X2X2X2X2X2X2X2X2X2X2X2X2X2X2X,X,X$X1X2X2X).P.Y.K.' ` ) v a > `.`.O.#.:.0.w.w.0./.'.#X1X#XoXM.6.z.k.i.T.`.$X2X2X2X2X2X2X2X2X2X2X2X2X2X2X2X2X2X2X2X",
"2X2X2X2X2X2X2X2X2X2X2X2X2X2X2X2X2X2X2X2X2X2X2X2X2X2X2X2X2X2X$X#XXXN.O.O.( 4 F.`.K.O.%.:.9.0.0.C.`.oX2X2XJ.e.z.e.J.`.`.`.1X2X2X2X2X2X2X2X2X2X2X2X2X2X2X2X2X2X2X2X",
"2X2X2X2X2X2X2X2X2X2X2X2X2X2X2X2X2X2X2X2X2X2X2X2X2X2X2X2X2X2X2X2X2X2X&XK.$.z V.`.$XN.+.#.1.w.0.G.`.#X2XR.4.z.s.E.`.`.#X2X2X2X2X2X2X2X2X2X2X2X2X2X2X2X2X2X2X2X2X2X",
"2X2X2X2X2X2X2X2X2X2X2X2X2X2X2X2X2X2X2X2X2X2X2X2X2X2X2X2X2X2X2X2X2X2X2X2Xu.l H.`.#X+X+.+.-.w.w.R.`.#X2X@X|.OX`.`.oX1X2X2X2X2X2X2X2X2X2X2X2X2X2X2X2X2X2X2X2X2X2X2X",
"2X2X2X2X2X2X2X2X2X2X2X2X2X2X2X2X2X2X2X2X2X2X2X2X2X2X2X2X2X2X2X2X2X2X2X2X>XN.`.`.$X<XO.#.1.r.5.`.`.$X2X2X2X,X$X&X2X2X2X2X2X2X2X2X2X2X2X2X2X2X2X2X2X2X2X2X2X2X2X2X",
"2X2X2X2X2X2X2X2X2X2X2X2X2X2X2X2X2X2X2X2X2X2X2X2X2X2X2X2X2X2X2X2X2X2X2X2X2X2X1XoX1X2X>XQ.u.d.^.`.`.1X2X2X2X2X2X2X2X2X2X2X2X2X2X2X2X2X2X2X2X2X2X2X2X2X2X2X2X2X2X2X",
"2X2X2X2X2X2X2X2X2X2X2X2X2X2X2X2X2X2X2X2X2X2X2X2X2X2X2X2X2X2X2X2X2X2X2X2X2X2X2X2X2X2X2X2X3XoX`..XoX2X2X2X2X2X2X2X2X2X2X2X2X2X2X2X2X2X2X2X2X2X2X2X2X2X2X2X2X2X2X2X",
"2X2X2X2X2X2X2X2X2X2X2X2X2X2X2X2X2X2X2X2X2X2X2X2X2X2X2X2X2X2X2X2X2X2X2X2X2X2X2X2X2X2X2X2X2X2X2X2X2X2X2X2X2X2X2X2X2X2X2X2X2X2X2X2X2X2X2X2X2X2X2X2X2X2X2X2X2X2X2X2X",
"2X2X2X2X2X2X2X2X2X2X2X2X2X2X2X2X2X2X2X2X2X2X2X2X2X2X2X2X2X2X2X2X2X2X2X2X2X2X2X2X2X2X2X2X2X2X2X2X2X2X2X2X2X2X2X2X2X2X2X2X2X2X2X2X2X2X2X2X2X2X2X2X2X2X2X2X2X2X2X2X",
"2X2X2X2X2X2X2X2X2X2X2X2X2X2X2X2X2X2X2X2X2X2X2X2X2X2X2X2X2X2X2X2X2X2X2X2X2X2X2X2X2X2X2X2X2X2X2X2X2X2X2X2X2X2X2X2X2X2X2X2X2X2X2X2X2X2X2X2X2X2X2X2X2X2X2X2X2X2X2X2X",
"2X2X2X2X2X2X2X2X2X2X2X2X2X2X2X2X2X2X2X2X2X2X2X2X2X2X2X2X2X2X2X2X2X2X2X2X2X2X2X2X2X2X2X2X2X2X2X2X2X2X2X2X2X2X2X2X2X2X2X2X2X2X2X2X2X2X2X2X2X2X2X2X2X2X2X2X2X2X2X2X",
"2X2X2X2X2X2X2X2X2X2X2X2X2X2X2X2X2X2X2X2X2X2X2X2X2X2X2X2X2X2X2X2X2X2X2X2X2X2X2X2X2X2X2X2X2X2X2X2X2X2X2X2X2X2X2X2X2X2X2X2X2X2X2X2X2X2X2X2X2X2X2X2X2X2X2X2X2X2X2X2X",
"2X2X2X2X2X2X2X2X2X2X2X2X2X2X2X2X2X2X2X2X2X2X2X2X2X2X2X2X2X2X2X2X2X2X2X2X2X2X2X2X2X2X2X2X2X2X2X2X2X2X2X2X2X2X2X2X2X2X2X2X2X2X2X2X2X2X2X2X2X2X2X2X2X2X2X2X2X2X2X2X",
"2X2X2X2X2X2X2X2X2X2X2X2X2X2X2X2X2X2X2X2X2X2X2X2X2X2X2X2X2X2X2X2X2X2X2X2X2X2X2X2X2X2X2X2X2X2X2X2X2X2X2X2X2X2X2X2X2X2X2X2X2X2X2X2X2X2X2X2X2X2X2X2X2X2X2X2X2X2X2X2X",
"2X2X2X2X2X2X2X2X2X2X2X2X2X2X2X2X2X2X2X2X2X2X2X2X2X2X2X2X2X2X2X2X2X2X2X2X2X2X2X2X2X2X2X2X2X2X2X2X2X2X2X2X2X2X2X2X2X2X2X2X2X2X2X2X2X2X2X2X2X2X2X2X2X2X2X2X2X2X2X2X"
};
