/* XPM */
static char *result[] = {
/* columns rows colors chars-per-pixel */
"80 80 218 2 ",
"   c #010100",
".  c #140900",
"X  c #14150D",
"o  c #261900",
"O  c #342907",
"+  c #2A2816",
"@  c #1B1E32",
"#  c #3A3C25",
"$  c #570402",
"%  c #751500",
"&  c #563800",
"*  c #4A2E08",
"=  c #6A3A0B",
"-  c #662C00",
";  c #5D4200",
":  c #544D10",
">  c #634600",
",  c #664A00",
"<  c #6B4C00",
"1  c #694600",
"2  c #734D00",
"3  c #784E00",
"4  c #6E5100",
"5  c #735300",
"6  c #7B5500",
"7  c #755900",
"8  c #7C5C01",
"9  c #6B5919",
"0  c #715B10",
"q  c #7A6308",
"w  c #75681D",
"e  c #514A29",
"r  c #6B5B30",
"t  c #686A38",
"y  c #786937",
"u  c #7B7A3C",
"i  c #73733B",
"p  c #716C2E",
"a  c #2F3644",
"s  c #7C7C43",
"d  c #757740",
"f  c #696F41",
"g  c #9A0700",
"h  c #871600",
"j  c #A90900",
"k  c #B90B00",
"l  c #B01B00",
"z  c #8F3100",
"x  c #9D3A00",
"c  c #BC2C00",
"v  c #B82200",
"b  c #BD3800",
"n  c #AE3500",
"m  c #CF0D00",
"M  c #C10C00",
"N  c #DC1500",
"B  c #C02F00",
"V  c #D32F00",
"C  c #C43900",
"Z  c #D13E00",
"A  c #E82A00",
"S  c #984600",
"D  c #855600",
"F  c #845D00",
"G  c #8A5D00",
"H  c #885700",
"J  c #92510C",
"K  c #B84700",
"L  c #856200",
"P  c #8C6300",
"I  c #8D6A00",
"U  c #936400",
"Y  c #946A00",
"T  c #9B6D00",
"R  c #9D7100",
"E  c #9F7A00",
"W  c #8A7418",
"Q  c #87710C",
"!  c #A37400",
"~  c #A57A00",
"^  c #AC7B00",
"/  c #A87400",
"(  c #A27516",
")  c #865A24",
"_  c #857928",
"`  c #837D3A",
"'  c #946C2E",
"]  c #C54C00",
"[  c #CB4A00",
"{  c #C54600",
"}  c #D74E00",
"|  c #CD5400",
" . c #C65400",
".. c #D25C00",
"X. c #D95700",
"o. c #E95100",
"O. c #CB6900",
"+. c #D76900",
"@. c #CD7900",
"#. c #D47500",
"$. c #E76200",
"%. c #ED7400",
"&. c #987640",
"*. c #7C8147",
"=. c #9B8310",
"-. c #AD8400",
";. c #AB8C00",
":. c #AA8C07",
">. c #B48500",
",. c #B58A00",
"<. c #BB8C00",
"1. c #B58A08",
"2. c #AD9204",
"3. c #BC9300",
"4. c #B69900",
"5. c #A68B13",
"6. c #A5931D",
"7. c #B69C15",
"8. c #B9A709",
"9. c #8B832C",
"0. c #8C873C",
"q. c #9C933B",
"w. c #9E9034",
"e. c #9E8B24",
"r. c #A99626",
"t. c #A39639",
"y. c #A98F34",
"u. c #B1B12F",
"i. c #C78803",
"p. c #C49500",
"a. c #C99600",
"s. c #C49A00",
"d. c #CC9B00",
"f. c #CB9509",
"g. c #D29E00",
"h. c #D89B00",
"j. c #DB8300",
"k. c #E68400",
"l. c #F49400",
"z. c #EB8D00",
"x. c #CCA300",
"c. c #CCA900",
"v. c #C5A700",
"b. c #D4A200",
"n. c #DAA500",
"m. c #D3AB00",
"M. c #DDAA00",
"N. c #DAB400",
"B. c #D8BC00",
"V. c #CAB100",
"C. c #E0A700",
"Z. c #E3AC00",
"A. c #EBAD00",
"S. c #EBA500",
"D. c #F8A800",
"F. c #E5B200",
"G. c #ECB400",
"H. c #E4B900",
"J. c #EEBC00",
"K. c #F1B600",
"L. c #F4BA00",
"P. c #F9BE00",
"I. c #FFB600",
"U. c #DDC500",
"Y. c #F5C100",
"T. c #FEC300",
"R. c #FFCB00",
"E. c #F2CB00",
"W. c #FFD400",
"Q. c #FFDB00",
"!. c #F3D500",
"~. c #E9D500",
"^. c #FFE300",
"/. c #FFEB00",
"(. c #F1EB00",
"). c #FFF400",
"_. c #FFFD00",
"`. c #828344",
"'. c #8A8B4A",
"]. c #938C4B",
"[. c #938A47",
"{. c #8D904F",
"}. c #9A9546",
"|. c #888E51",
" X c #949553",
".X c #959C5A",
"XX c #989B58",
"oX c #8D9351",
"OX c #A1984B",
"+X c #99A05B",
"@X c #A1A44E",
"#X c #A6A95C",
"$X c #A6A759",
"%X c #B6B359",
"&X c #9EA360",
"*X c #A4AC63",
"=X c #AAAE64",
"-X c #ABB266",
";X c #AEB56A",
":X c #B3BB6D",
">X c #B6BA67",
",X c #B9BF71",
"<X c #C3BF68",
"1X c #BCC473",
"2X c #B7C071",
"3X c #BBC06F",
"4X c #C2CA77",
"5X c #C4CD79",
"6X c #C3C674",
"7X c #CCD57C",
"8X c #CFD97F",
"9X c #C7D07B",
"0X c #D0D97F",
"qX c #D0D779",
"wX c #C0C066",
"eX c #D3DD81",
"rX c #D7E084",
"tX c #DCE687",
/* pixels */
"tXtXtXtXtXtXtXtXtXtXtXtXtXtXtXtXtXtXtXtXtXtXtXtXtXtXtXtXtXtXtXtXtXtXtXtXtXtXtXtXtXtXtXtXtXtXtXtXtXtXtXtXtXtXtXtXtXtXtXtXtXtXtXtXtXtXtXtXtXtXtXtXtXtXtXtXtXtXtXtX",
"tXtXtXtXtXtXtXtXtXtXtXtXtXtXtXtXtXtXtXtXtXtXtXtXtXtXtXtXtXtXtXtXtXtXtXtXtXtXtXtXtXtXtXtXtXtXtXtXtXtXtXtXtXtXtXtXtXtXtXtXtXtXtXtXtXtXtXtXtXtXtXtXtXtXtXtXtXtXtXtX",
"tXtXtXtXtXtXtXtXtXtXtXtXtXtXtXtXtXtXtXtXtXtXtXtXtXtXtXtXtXtXtXtXtXtXtXtXtXtXtXtXtXtXtXtXtXtXtXtXtXtXtXtXtXtXtXtXtXtXtXtXtXtXtXtXtXtXtXtXtXtXtXtXtXtXtXtXtXtXtXtX",
"tXtXtXtXtXtXtXtXtXtXtXtXtXtXtXtXtXtXtXtXtXtXtXtXtXtXtXtXtXtXtXtXtXtXtXtXtXtXtXtXtXtXtXtXtXtXtXtXtXtXtXtXtXtXtXtXtXtXtXtXtXtXtXtXtXtXtXtXtXtXtXtXtXtXtXtXtXtXtXtX",
"tXtXtXtXtXtXtXtXtXtXtXtXtXtXtXtXtXtXtXtXtXtXtXtXtXtXtXtXtXtXtXtXtXtXtXtXtXtXtXtXtXtXtXtXtXtXtXtXtXtXtXtXtXtXtXtXtXtXtXtXtXtXtXtXtXtXtXtXtXtXtXtXtXtXtXtXtXtXtXtX",
"tXtXtXtXtXtXtXtXtXtXtXtXtXtXtXtXtXtXtXtXtXtXtXtXtXtXtXtXtXtXtXtXtXtXtXtXtXtXtXtXtXtXtXtXtXtXtXtXtXtXtXtXtXtXtXtXtXtXtXtXtXtXtXtXtXtXtXtXtXtXtXtXtXtXtXtXtXtXtXtX",
"tXtXtXtXtXtXtXtXtXtXtXtXtXtXtXtXtXtXtXtXtXtXtXtXtXtXtXtXtXtXtXtXtXtXtXtXtXtXtXtXtXtXtXtXtXtXtXtXtXtXtXtXtXtXtXtXtXtXtXtXtXtXtXtXtXtXtXtXtXtXtXtXtXtXtXtXtXtXtXtX",
"tXtXtXtXtXtXtXtXtXtXtXtXtXtXtXtXtXtXtXtXtXtXtXtXtXtXtXtXtXtXtXtXtXtXtXtXtXtXtXtXtXtXtXtXtXtXtXtXtXtXtXtXtXtXtXtXtXtXtXtXtXtXtXtXtXtXtXtXtXtXtXtXtXtXtXtXtXtXtXtX",
"tXtXtXtXtXtXtXtXtXtXtXtXtXtXtXtXtX=X2XtXtXtXtXtXtXtXtXtXtXtXtXtXtXtXtXtXtXtXtXtXtXtXtXtXtXtXtXtXtXtXtXtXtXtXtXtXtXtXtXtXtXtXtXtXtXtXtXtXtXtXtXtXtXtXtXtXtXtXtXtX",
"tXtXtXtXtXtXtXtXtXtXtXtXtXtXtXtXtXr.x.7XrXtXtXtXtXtXtXtXtXtXtXtXtXtXtXtXtXtXtXtXtXtXtXtXtXtXtXtXtXtXtXtXtXtXtXtXtXtXtXtXtXtXtXtXtXtXtXtXtXtXtXtXtXtXtXtXtXtXtXtX",
"tXtXtXtXtXtXtXtXtXtXtXtXtXtXtXtXtX7./.5.1XtXtXtXtXtXtXtXtXtXtXtXtXtXtXtXtXtXtXtXtXtXtXtXtXtXtXtXtXtXtXtXtXtXtXtXtXtXtXtXtXtXtXtXtXtXtXtXtXtXtXtXtXtXtXtXtXtXtXtX",
"tXtXtXtXtXtXtXtXtXtXtXtXtXtXtXtXrXs.Q.Q.e.5XtXtXtXtXtXtXtXtXtXtXtXtXtXtXtXtXtXtXtXtXtXtXtXtXtXtXtXtXtXtXtXtXtXtXtXtXtXtXtXtXtXtXtXtXtXtXtXtXtXtXtXtXtXtXtXtXtXtX",
"tXtXtXtXtXtXtXtXtXtXtXtXtXtXtXtX8Xb.W.T.Q.9.9XtXtXtXtXtXtXtXtXtXtXtXtXtXtXtXtXtXtXtXtXtXtXtXtXtXtXtXtXtXtXtXtXtXtXtXtXtXtXtXtXtXtXtXtXtXtXtXtXtXtXtXtXtXtXtXtXtX",
"tXtXtXtXtXtXtXtXtXtXtXtXtXtXtXtX4Xb.W.P.R.Q.` 7XtXtXtXtXtXtXtXtXtXtXtXtXtXtXtXtXtXtXtXtXtXtXtXtXtXtXtXtXtXtXtXtXtXtXtXtXtXtXtXtXtXtXtXtXtXtXtXtXtXtXtXtXtXtXtXtX",
"tXtXtXtXtXtXtXtXtXtXtXtXtXtXtXtX>XK.T.T.L.R.R.`.7XtXtXtXtXtXtXtXtXtXtXtXtXtXtXtXtXtXtXtXtXtXtXtXtXtXtXtXtXtXtXtXtXtXtXtXtXtXtXtXtXtXtXtXtXtXtXtXtXtXtXtXtXtXtXtX",
"tXtXtXtXtXtXtXtXtXtXtXtXtXtXtXtX}.Q.T.P.P.P.W.N.*XeXtXtXtXtXtXtXtXtXtXtXtXtXtXtXtXtXtXtXtXtXtXtXtXtXtXtXtXtXtXtXtXtXtXtXtXtXtXtXtXtXtXtXtXtXtXtXtXtXtXtXtXtXtXtX",
"tXtXtXtXtXtXtXtXtXtXtXtXtXtXtXtXt.Q.T.P.P.T.L.Q.4.;XtXtXtXtXtXtXtXtXtXtXtXtXtXtXtXtXtXtXtXtXtXtXtXtXtXtXtXtXtXtXtXtXtXtXtXtXtXtXtXtXtXtXtXtXtXtXtXtXtXtXtXtXtXtX",
"tXtXtXtXtXtXtXtXtXtXtXtXtXtXtXtX7.W.L.T.L.T.P.L.W.;.;XtXtXtXtXtXtXtXtXtXtXtXtXtXtXtXtXtXtXtXtXtXtXtXtXtXtXtXtXtXtXtXtXtXtXtXtXtXtXtXtXtXtXtXtXtXtXtXtXtXtXtXtXtX",
"tXtXtXtXtXtXtXtXtXtXtXtXtXtXtXtXc.R.T.L.T.L.P.P.L.Q.=.4XtXtXtXtXtXtXtXtXtXtXtXtXtXtXtXtXtXtXtXtXtXtXtXtXtXtXtXtXtXtXtXtXtXtXtXtXtXtXtXtXtXtXtXtXtXtXtXtXtXtXtXtX",
"tXtXtXtXtXtXtXtXtXtXtXtXtXtXtXtXL.T.L.T.L.T.L.T.K.L.R.r.1XtXtXtXtXtXtXtXtXtXtXtXtXtXtXtXtXtXtXtXtXtXtXtXtXtXtXtXtXtXtXtXtXtXtXtXtXtXtXtXtXtXtXtXtXtXtXtXtXtXtXtX",
"tXtXtXtXtXtXtXtXtXtXtXtXtXtXtXtXm.Q.T.P.T.T.L.T.K.G.T.R.9.9XtXtXtXtXtXtXtXtXtXtXtXtXtXtXtXtXtXtXtXtXtXtXtXtXtXtXtXtXtXtXtXtXtXtXtXtXtXtXtXtXtXtXtXtXtXtXtXtXtXtX",
"tXtXtXtXtXtXtXtXtXtXtXtXtXtXtXtX:Xs.R.R.L.P.L.P.P.G.K.P.R.q.9XtXtXtXtXtXtXtXtXtXtXtXtXtXtXtXtXtXtXtXtXtXtXtXtXtXtXtXtXtXtXtXtXtXtXtXtXtXtXtXtXtXtXtXtXtXtXtXtXtX",
"tXtXtXtXtXtXtXtXtXtXtXtXtXtXtXtXtXtXq.F.Q.T.P.T.Y.L.K.G.T.L.0.8XtXtXtXtXtXtXtXtXtXtXtXtXtXtXtXtXtXtXtXtXtXtXtXtXtXtXtXtXtXtXtXtXtXtXtXtXtXtXtXtXtXtXtXtXtXtXtXtX",
"tXtXtXtXtXtXtXtXtXtXtXtXtXtXtXtXtXtXtX,X4.Q.R.L.T.T.K.K.G.T.F..XrXtXtXtXtXtXtXtXtXtXtXtXtXtXtXtXtXtXtXtXtXtXtXtXtXtXtXtXtXtXtXtXtXtXtXtXtXtXtXtXtXtXtXtXtXtXtXtX",
"tXtXtXtXtXtXtXtXtXtXtXtXtXtXtXtXtXtXtXtX5Xr.J.R.P.P.L.G.K.G.T.3.+X0XtXtXtXtXtXtXtXtXtXtXtXtXtXtXtXtXtXtXtXtXtXtXtXtXtXtXtXtXtXtXtXtXtXtXtXtXtXtXtXtXtXtXtXtXtXtX",
"tXtXtXtXtXtXtXtXtXtXtXtXtXtXtXtXtXtXtXtXtXtX>Xb.R.T.L.K.K.G.T.W.W 5XeXtXtXtXtXtXtXtXtXtXtXtXtXtXtXtXtXtXtXtXtXtXtXtXtXtXtXtXtXtXtXtXtXtXtXtXtXtXtXtXtXtXtXtXtXtX",
"tXtXtXtXtXtXtXtXtXtXtXtXtXtXtXtXtXtXtXtXtXtXtXd.W.P.L.K.P.R.c.q.-X1X9XtXtXtXtXtXtXtXtXtXtXtXtXtXtXtXtXtXtXtXtXtXtXtXtXtXtXtXtXtXtXtXtXtXtXtXtXtXtXtXtXtXtXtXtXtX",
"tXtXtXtXtXtXtXtXtXtXtXtXtXtXtXtXtXtXtXtXtXtXr.W.T.L.G.R.T.2.+X1X1X7XtXtXtXtXtXtXtXtXtXtXtXtXtXtXtXtXtXtXtXtXtXtXtXtXtXtXtXtXtXtXtXtXtXtXtXtXtXtXtXtXtXtXtXtXtXtX",
"tXtXtXtXtXtXtXtXtXtXtXtXtXtXtXtXtXtXtXtXtXw.Q.T.L.P.R.F.0.1X1X1XeXtXtXtXtXtXtXtXtXtXtXtXtXtXtXtXtXtXtXtXtXtXtXtXtXtXtXtXtXtXtXtXtXtXtXtXtXtXtXtXtXtXtXtXtXtXtXtX",
"tXtXtXtXtXtXtXtXtXtXtXtXtXtXtXtXtXtXtXtX%XR.R.P.L.G.4. X1X1X7XtXtXtXtXtXtXtXtXtXtXtXtXtXtXtXtXtXtXtXtXtXtXtXtXtXtXtXtXtXtXtXtXtXtXtXtXtXtXtXtXtXtXtXtXtXtXtXtXtX",
"tXtXtXtXtXtXtXtXtXtXtXtXtXtXtXtXtXtXtX%XR.W.L.L.R.s.*X2X1XeXtXtXtXtXtXtXtXtXtXtXtXtXtXtXtXtXtXtXtXtXtXtXtXtXtXtXtXtXtXtXtXtXtXtXtXtXtXtXtXtXtXtXtXtXtXtXtXtXtXtX",
"tXtXtXtXtXtXtXtXtXtXtXtXtXtXtXtXtXtXtX}.H.Q.T.P.L.R.;.#XtXtXtXtXtXtXtXtXtXtXtXtXtXtXtXtXtXtXtXtXtXtXtXtXtXtXtXtXtXtXtXtXtXtXtXtXtXtXtXtXtXtXtXtXtXtXtXtXtXtXtXtX",
"tXtXtXtXtXtXtXtXtXtXtXtXtXtXtXtXtXtXtXtXwX2.R.Q.P.P.Q.m.+XrXtXtXtXtXtXtXeXrXtXtXtXtXtXtXtXtXtXtXtXtXtXtXrXtXtXtXtXtXtXtXtXtXtXtXtXtXtXtXtXtXtXtXtXtXtXtXtXtXtXtX",
"tXtXtXtXtXtXtXtXtXtXtXtXtXtXtXtXtXtXtXtXtXtX}.b.^.R.P.W.H.'.eXtXtXtXtXtXeX+ f 7XtXtXtXtXtXtXtXtXtXtXtX0XeXtXtXtXtXtXtXtXtXtXtXtXtXtXtXtXtXtXtXtXtXtXtXtXtXtXtXtX",
"tXtXtXtXtXtXtXtXtXtXtXtXtXtXtXtXtXtXtXtXtXtXtX1X7.R.R.T.W.P.q.eXtXtXtXtXtX#   X oXtXtXtXtXtXtXtXtXtXtX.XX .XtXtXtXtXtXtXtXtXtXtXtXtXtXtXtXtXtXtXtXtXtXtXtXtXtXtX",
"tXtXtXtXtXtXtXtXtXtXtXtXtXtXtXtXtXtXtXtXtXtXtXtXtX[.Q.W.W.T.}.1XeXtXtXtXtX5X    8.8.*XtXtXtXtXtXtXtXtX1X  ; 6.:XtXtXtXtXtXtXtXtXtXtXtXtXtXtXtXtXtXtXtXtXtXtXtXtX",
"tXtXtXtXtXtXtXtXtXtXtXtXtXtXtXtXtXtXtXtXtXtXtXtXtXy.T.R./.9.1X1XeXtXtXtXtXtXf . W._.~.6.;XtXtXtXtXtXtXtX.Xv._.U.9.1XtXtXtXtXtXtXtXtXtXtXtXtXtXtXtXtXtXtXtXtXtXtX",
"tXtXtXtXtXtXtXtXtXtXtXtXtXtXtXtXtXtXtXtXtXtXtXtXXX+.+.z.:.,X1X9XtXtXtXtXtXtXtX+ H./.).).U._ qXtXtXtXtXtXtX5.)._._.8.=XrXtXtXtXtXtXtXtXtXtXtXtXtXtXtXtXtXtXtXtXtX",
"tXtXtXtXtXtXtXtXtXtXtXtXtXtXtXtXtXtXtXtXtXtXtX=XK [ { x :X,X5XtXtXtXtXtXtXtXtX.Xg.^.Q.^.).).x.*XtX0XtXtXtX:XH././.).E.&.eXrXtXtXtXtXtXtXtXtXtXtXtXtXtXtXtXtXtXtX",
"tXtXtXtXtXtXtXtXtXtXtXtXtXtXtXtXtXtXtXtXtXtXtX[.{ } } b y 1XtXtXtXtXtXtXtXtXtXtXQ Q.W.Q.^.^./.s.q.3X%X#X#X6X1./.^.^./.!._ eXtXtXtXtXtXtXtXtXtXtXtXtXtXtXtXtXtXtX",
"tXtXtXtXtXtXtXtXtXtXtXtXtXtXtXtXtXtXtXtXtXtXtXtX,X' K [ } ) 5XtXtXtXtXtXtXtXtXtX*Xh.W.W.^.Q.Q.Q.K.C.^.^.Q.G.G.R.W.W.Q.).Q.u 9X0XtXtXtXtXtXtXtXtXtXtXtXtXtXtXtXtX",
"tXtXtXtXtXtXtXtXtXtXtXtXtXtXtXtXtXtXtXtXtXtXtXtXtXtX4X) o.| {.9XtXtXtXtXtXtXtXtXtX`.L.R.R.Q.W.R.T.M.G.Q.Q.Q.W.T.P.P.T.W.Q.T.'.qXtXtXtXtXtXtXtXtXtXtXtXtXtXtXtXtX",
"tXtXtXtXtXtXtXtXtXtXtXtXtXtXtXtXtXtXtXtXtXtXtXtXtXtX&XJ [ [ r -XeX<X' ( x.f.i.' [.#X~ K.T.T.R.T.K.n.d.K.W.R.T.T.T.P.K.K.L.T.Q 3XrXtXtXtXtXtXtXtXtXtXtXtXtXtXtXtX",
"tXtXtXtXtXtXtXtXtXtXtXtXtXtXtXtXtXtXtXtXtXtXtXtXtXtXeX6X.Xy S S ) K R.).l.[ C %.I.!.b.^ M.G.L.K.Z.m.b.C.W.W.T.T.L.K.K.A.G.M.I -X1XtXtXtXtXtXtXtXtXtXtXtXtXtXtXtX",
"tXtXtXtXtXtXtXtXtXtXtXtXtXtXtXtXtXtXtXtXtXtXtXtXtXtXtXtXtX>X@.o.o.^.^...c | L.^./././.d.~ b.M.C.C.M.M.L.W.R.T.P.G.Z.C.M.b.M.I ;X1XrXtXtXtXtXtXtXtXtXtXtXtXtXtXtX",
"tXtXtXtXtXtXtXtXtXtXtXtXtXtXtXtXtXtXtXtXtXtXtXtXtXtXtXtXu.D.Z ] Q.).X.v ..Q._.^.Q.W././.3.T d.M.M.M.K.Q.W.R.T.G.Z.M.n.g.a.b.-.+X1XtXtXtXtXtXtXtXtXtXtXtXtXtXtXtX",
"tXtXtXtXtXtXtXtXtXtXtXtXtXtXtXtXtXtXtXtXtXtXtXtXtXtXtX@X).$.b Y._.k.c [ R.).Q.^.Q.Q.^./.Q.d.d.C.F.Y.Q.Q.R.T.G.F.M.b.x.s.3.,.p.q 1XrXtXtXtXtXtXtXtXtXtXtXtXtXtXtX",
"tXtXtXtXtXtXtXtXtXtXtXtXtXtXtXtXtXtXtXtXtXtXtXtXtXtX:X(.D.v k._.R.[ b K._.^.^.^.R.W.Q.^.^.^.R.R.W.Q.Q.W.T.L.F.M.b.d.p.<.-.! / P +X1XtXtXtXtXtXtXtXtXtXtXtXtXtXtX",
"tXtXtXtXtXtXtXtXtXtXtXtXtXtXtXtXtXtXtXtXtXtXtXtXtX0Xc._.#.c K._.l.c +././.^.Q.Q.K.W.Q.Q.Q.Q.Q.Q.Q.Q.R.R.P.G.M.g.d.p.3.^ R P F U u 1XrXtXtXtXtXtXtXtXtXtXtXtXtXtX",
"tXtXtXtXtXtXtXtXtXtXtXtXtXtXtXtXtXtXtXtXtXtXtXtXtXOX_./...] Q.).k.c S.).Q.W.Q.Q.L.W.Q.W.W.W.W.R.W.R.T.T.K.Z.b.s.<.,.^ T U F 4 F 0 3X7XtXtXtXtXtXtXtXtXtXtXtXtXtX",
"tXtXtXtXtXtXtXtXtXtXtXtXtXtXtXtXtXtXtXtXtXtXtXtXeXB.).Q. .O.^.^.#.C R./.W.Q.W.Q.R.R.Q.Q.Q.Q.Q.W.R.T.T.K.F.C.M.b.,./ / T P 5 , 2 q 3X4XtXtXtXtXtXtXtXtXtXtXtXtXtX",
"tXtXtXtXtXtXtXtXtXtXtXtXtXtXtXtXtXtXtXtXtXtXtXtX@X/.Q.Q. .O.^.^.O. .Q.Q.W.W.W.W.T.T.W.Q.W.Q.W.R.R.P.L.K.F.M.! 7 T ^ T Y 8 , , ; # 1X1XtXtXtXtXtXtXtXtXtXtXtXtXtX",
"tXtXtXtXtXtXtXtXtXtXtXtXtXtXtXtXtXtXtXtXtXtXtXtXc./.R.W.j.@.W.Q.#.#./.W.R.R.R.R.T.P.R.Q.Q.Q.W.R.T.P.J.A.G.q   @ e G T L 5 > 1 O # 2X5XtXtXtXtXtXtXtXtXtXtXtXtXtX",
"tXtXtXtXtXtXtXtXtXtXtXtXtXtXtXtXtXtXtXtXtXtXtX#XQ.W.T.T.Y.L.P.R.A.S.W.T.T.R.R.R.L.L.R.R.W.W.W.W.R.T.K.G.M..   a a & / 6 , , >   # 2X4XtXtXtXtXtXtXtXtXtXtXtXtXtX",
"tXtXtXtXtXtXtXtXtXtXtXtXtXtXtXtXtXtXtXtXtXtXtX6./.R.T.K.G.L.L.T.T.T.T.R.T.T.T.R.T.G.P.T.R.R.W.R.R.T.P.A.M.o       = ^ G 5 2 <   e 2X5XtXtXtXtXtXtXtXtXtXtXtXtXtX",
"tXtXtXtXtXtXtXtXtXtXtXtXtXtXtXtXtXtXtXtXtXtX5XY.Q.T.P.G.F.G.G.K.Y.P.T.R.R.R.R.R.L.Z.K.P.T.T.R.R.R.R.R.H.G.q     . ! ,.~ T U L * : 1X5XtXtXtXtXtXtXtXtXtXtXtXtXtX",
"tXtXtXtXtXtXtXtXtXtXtXtXtXtXtXtXtXtXtXtXtXtX}.Q.T.T.K.Z.n.M.G.G.K.P.T.T.W.Q.W.R.P.M.Z.G.K.P.P.P.W.T.S.G.N.M.T , ^ M.b.b.C.M.,.G 7 1X4XtXtXtXtXtXtXtXtXtXtXtXtXtX",
"tXtXtXtXtXtXtXtXtXtXtXtXtXtXtXtXtXtXtXtXtX0XH.Q.T.L.J.F.b.g.M.A.G.L.T.R.Q.Q.^.^.R.b.b.Z.Z.G.K.U.l.A N V i.c.n.n.b.n.C.J.G.4 P ^ 2 1X1XtXtXtXtXtXtXtXtXtXtXtXtXtX",
"tXtXtXtXtXtXtXtXtXtXtXtXtXtXtXtXtXtXtXtXtXOX^.T.L.G.Z.C.g.d.g.b.M.G.T.W.W.W.^.^.Q.M.<.g.n.n.N.z.N m m M l <.3.>.>.<.,.>.~ O & ! i 1X4XtXtXtXtXtXtXtXtXtXtXtXtXtX",
"tXtXtXtXtXtXtXtXtXtXtXtXtXtXtXtXtXtXtXtXtXb.Q.G.Z.C.M.n.d.d.d.p.g.b.A.L.G.L.W.^.^.W.i.>.p.p.8.#.M M k j j U E U F F 6 7 1 2 L < :X1X7XtXtXtXtXtXtXtXtXtXtXtXtXtX",
"tXtXtXtXtXtXtXtXtXtXtXtXtXtXtXtXtXtXtXeX}.P.K.M.b.g.g.d.p.p.,.-.i.p.3.,.^ d.P.W.^.^.R.p.~ ~ ^ -.n j g g h P P 6 4 4 , - $ - H {.1X1XtXtXtXtXtXtXtXtXtXtXtXtXtXtX",
"tXtXtXtXtXtXtXtXtXtXtXtXtXtXtXtXtXtX0X3.G.b.b.d.a.d.s.d.p.-.T T ~ >.~ T U T b.T.Q.^.^.W.b.Y D q F z h % 3 8 6 7 5 7 = $ % z t 1X1XeXtXtXtXtXtXtXtXtXtXtXtXtXtXtX",
"tXtXtXtXtXtXtXtXtXtXtXtXtXtXtXtXtXtX@XQ.T.a.p.d.s.p.p.,.-.T F D L L U P 6 2 U n.R.^.^.^./.E.Y = 7 L 8 q 8 D 6 D q F - $ = .X1X1X7XtXtXtXtXtXtXtXtXtXtXtXtXtXtXtX",
"tXtXtXtXtXtXtXtXtXtXtXtXtXtXtXtXtXtX5.R.L.d.3.p.p.<.-.! U L D D 6 7 6 7 4 2 < U Z.R.W.W.Q./.W.R 6 D L L G U U T T U P N.V.:X6XeXtXtXtXtXtXtXtXtXtXtXtXtXtXtXtXtX",
"tXtXtXtXtXtXtXtXtXtXtXtXtXtXtXtXtXqX,.,.R q R >.>.! T L D H U U P D 5 q 8 7 4 4 Y g.C.K.T.Q./.R.T D Y R I F 5 9 9 Y F.^.W.0 1XtXtXtXtXtXtXtXtXtXtXtXtXtXtXtXtXtX",
"tXtXtXtXtXtXtXtXtXtXtXtXtXtXtXtXtX3X>.U 9 ;X{.9 3 G U U L L 5 F L i &.9 , G F G D G U ~ a.n.L.T.p.L 5 0 p oX-X1X1X.XW q u 0.:X4XtXtXtXtXtXtXtXtXtXtXtXtXtXtXtXtX",
"tXtXtXtXtXtXtXtXtXtXtXtXtXtXtXtXtX].^ < *X1X4XtX3X'.t y i oX-X|.*.1X1XeX;Xs w 8 3 H G H P T F 8 w |.;X1X1X1X7XeXrXtXtXeX5X4X7X7XtXtXtXtXtXtXtXtXtXtXtXtXtXtXtXtX",
"tXtXtXtXtXtXtXtXtXtXtXtXtXtXtXtXtX Xw =X1X1XrXtXtXtXrX0X7X7X8XeXrXeX8XtXtXtXeX9X&X`.d s d p `.*X1X1X5X0XtXtXtXtXtXtXtXtXtXtXtXtXtXtXtXtXtXtXtXtXtXtXtXtXtXtXtXtX",
"tXtXtXtXtXtXtXtXtXtXtXtXtXtXtXtXtXtXtX7X4XrXtXtXtXtXtXtXtXtXtXtXtXtXtXtXtXtXtXtXtXtXeXeX7X7XeX9XeXtXtXtXtXtXtXtXtXtXtXtXtXtXtXtXtXtXtXtXtXtXtXtXtXtXtXtXtXtXtXtX",
"tXtXtXtXtXtXtXtXtXtXtXtXtXtXtXtXtXtXtXtXtXtXtXtXtXtXtXtXtXtXtXtXtXtXtXtXtXtXtXtXtXtXtXtXtXtXtXtXtXtXtXtXtXtXtXtXtXtXtXtXtXtXtXtXtXtXtXtXtXtXtXtXtXtXtXtXtXtXtXtX",
"tXtXtXtXtXtXtXtXtXtXtXtXtXtXtXtXtXtXtXtXtXtXtXtXtXtXtXtXtXtXtXtXtXtXtXtXtXtXtXtXtXtXtXtXtXtXtXtXtXtXtXtXtXtXtXtXtXtXtXtXtXtXtXtXtXtXtXtXtXtXtXtXtXtXtXtXtXtXtXtX",
"tXtXtXtXtXtXtXtXtXtXtXtXtXtXtXtXtXtXtXtXtXtXtXtXtXtXtXtXtXtXtXtXtXtXtXtXtXtXtXtXtXtXtXtXtXtXtXtXtXtXtXtXtXtXtXtXtXtXtXtXtXtXtXtXtXtXtXtXtXtXtXtXtXtXtXtXtXtXtXtX",
"tXtXtXtXtXtXtXtXtXtXtXtXtXtXtXtXtXtXtXtXtXtXtXtXtXtXtXtXtXtXtXtXtXtXtXtXtXtXtXtXtXtXtXtXtXtXtXtXtXtXtXtXtXtXtXtXtXtXtXtXtXtXtXtXtXtXtXtXtXtXtXtXtXtXtXtXtXtXtXtX",
"tXtXtXtXtXtXtXtXtXtXtXtXtXtXtXtXtXtXtXtXtXtXtXtXtXtXtXtXtXtXtXtXtXtXtXtXtXtXtXtXtXtXtXtXtXtXtXtXtXtXtXtXtXtXtXtXtXtXtXtXtXtXtXtXtXtXtXtXtXtXtXtXtXtXtXtXtXtXtXtX",
"tXtXtXtXtXtXtXtXtXtXtXtXtXtXtXtXtXtXtXtXtXtXtXtXtXtXtXtXtXtXtXtXtXtXtXtXtXtXtXtXtXtXtXtXtXtXtXtXtXtXtXtXtXtXtXtXtXtXtXtXtXtXtXtXtXtXtXtXtXtXtXtXtXtXtXtXtXtXtXtX",
"tXtXtXtXtXtXtXtXtXtXtXtXtXtXtXtXtXtXtXtXtXtXtXtXtXtXtXtXtXtXtXtXtXtXtXtXtXtXtXtXtXtXtXtXtXtXtXtXtXtXtXtXtXtXtXtXtXtXtXtXtXtXtXtXtXtXtXtXtXtXtXtXtXtXtXtXtXtXtXtX",
"tXtXtXtXtXtXtXtXtXtXtXtXtXtXtXtXtXtXtXtXtXtXtXtXtXtXtXtXtXtXtXtXtXtXtXtXtXtXtXtXtXtXtXtXtXtXtXtXtXtXtXtXtXtXtXtXtXtXtXtXtXtXtXtXtXtXtXtXtXtXtXtXtXtXtXtXtXtXtXtX",
"tXtXtXtXtXtXtXtXtXtXtXtXtXtXtXtXtXtXtXtXtXtXtXtXtXtXtXtXtXtXtXtXtXtXtXtXtXtXtXtXtXtXtXtXtXtXtXtXtXtXtXtXtXtXtXtXtXtXtXtXtXtXtXtXtXtXtXtXtXtXtXtXtXtXtXtXtXtXtXtX",
"tXtXtXtXtXtXtXtXtXtXtXtXtXtXtXtXtXtXtXtXtXtXtXtXtXtXtXtXtXtXtXtXtXtXtXtXtXtXtXtXtXtXtXtXtXtXtXtXtXtXtXtXtXtXtXtXtXtXtXtXtXtXtXtXtXtXtXtXtXtXtXtXtXtXtXtXtXtXtXtX",
"tXtXtXtXtXtXtXtXtXtXtXtXtXtXtXtXtXtXtXtXtXtXtXtXtXtXtXtXtXtXtXtXtXtXtXtXtXtXtXtXtXtXtXtXtXtXtXtXtXtXtXtXtXtXtXtXtXtXtXtXtXtXtXtXtXtXtXtXtXtXtXtXtXtXtXtXtXtXtXtX"
};
