/* XPM */
static char *result[] = {
/* columns rows colors chars-per-pixel */
"80 80 221 2 ",
"   c #000000",
".  c #01020A",
"X  c #0A0A0D",
"o  c #16170D",
"O  c #0D0E11",
"+  c #1B040E",
"@  c #3D0312",
"#  c #2D1409",
"$  c #22201D",
"%  c #3A2B13",
"&  c #5D1119",
"*  c #620802",
"=  c #711B04",
"-  c #62181D",
";  c #4D3601",
":  c #403712",
">  c #6E210F",
",  c #793015",
"<  c #5B1B28",
"1  c #621520",
"2  c #5B4C0D",
"3  c #5E5B12",
"4  c #7A4F06",
"5  c #69570A",
"6  c #7A5700",
"7  c #604C11",
"8  c #68500D",
"9  c #7E640C",
"0  c #4D4231",
"q  c #595B3A",
"w  c #733340",
"e  c #4D4E4F",
"r  c #5F534D",
"t  c #444B5B",
"y  c #7F4541",
"u  c #7A7F56",
"i  c #CF3A0F",
"p  c #CC3A14",
"a  c #D6103F",
"s  c #C81439",
"d  c #8D4205",
"f  c #855E00",
"g  c #835808",
"h  c #91521B",
"j  c #9B6D00",
"k  c #946401",
"l  c #8B6C08",
"z  c #A56F00",
"x  c #AA6903",
"c  c #A57300",
"v  c #A97500",
"b  c #AC7B00",
"n  c #A77C08",
"m  c #B27C00",
"M  c #A46B14",
"N  c #8F5133",
"B  c #8E5133",
"V  c #846D38",
"C  c #D64E00",
"Z  c #D85706",
"A  c #E05C13",
"S  c #E54C1B",
"D  c #D76000",
"F  c #C07D00",
"G  c #DF7A00",
"H  c #E16919",
"J  c #DE5122",
"K  c #D50F4B",
"L  c #DB1044",
"P  c #D91844",
"I  c #DF0E5E",
"U  c #DF1E59",
"Y  c #EA124C",
"T  c #E41246",
"R  c #E10F5D",
"E  c #EC165B",
"W  c #EF255D",
"Q  c #E13154",
"!  c #E2224A",
"~  c #EE1463",
"^  c #EC1B6A",
"/  c #EA0D71",
"(  c #F0306F",
")  c #F02B71",
"_  c #F0266A",
"`  c #825F63",
"'  c #9F8806",
"]  c #A58804",
"[  c #B48401",
"{  c #BD8501",
"}  c #BC8B00",
"|  c #B7890B",
" . c #AA9300",
".. c #BA9200",
"X. c #B88618",
"o. c #AA8714",
"O. c #998A29",
"+. c #AF9335",
"@. c #BA9C3B",
"#. c #BA9736",
"$. c #B48C23",
"%. c #BEA730",
"&. c #C38600",
"*. c #C48D00",
"=. c #CB8D00",
"-. c #D18D00",
";. c #DD8B00",
":. c #C59300",
">. c #CD9200",
",. c #CA9C03",
"<. c #C59B00",
"1. c #D29300",
"2. c #D99600",
"3. c #D59C00",
"4. c #DD9C00",
"5. c #C89C14",
"6. c #E38600",
"7. c #E29E00",
"8. c #CBA300",
"9. c #C5AC00",
"0. c #D3A200",
"q. c #DDA400",
"w. c #DCAA00",
"e. c #D2AC03",
"r. c #DDB500",
"t. c #DEBA00",
"y. c #DAB207",
"u. c #CFAF1C",
"i. c #E4A300",
"p. c #E9A500",
"a. c #E6AB00",
"s. c #ECAC00",
"d. c #E4B600",
"f. c #EBB300",
"g. c #E3BB00",
"h. c #EBBC00",
"j. c #C79B23",
"k. c #C39F31",
"l. c #CFA322",
"z. c #D8BE25",
"x. c #D4BA37",
"c. c #CAB530",
"v. c #DFC301",
"b. c #DDC313",
"n. c #DBC31B",
"m. c #DDC819",
"M. c #E4C301",
"N. c #EBC400",
"B. c #E6CA00",
"V. c #EDC900",
"C. c #ECCF11",
"Z. c #EAD00B",
"A. c #D7C539",
"S. c #DCC628",
"D. c #8B8053",
"F. c #9C8848",
"G. c #A89A4B",
"H. c #AB9852",
"J. c #B7A348",
"K. c #A9A45D",
"L. c #AEA952",
"P. c #B5A859",
"I. c #BCB44B",
"U. c #858D60",
"Y. c #968E71",
"T. c #929A66",
"R. c #AA856A",
"E. c #9CA26B",
"W. c #ABA765",
"Q. c #B3AE6A",
"!. c #BAAE6A",
"~. c #B3B36E",
"^. c #BAB668",
"/. c #B5B674",
"(. c #B6BC75",
"). c #B9BB75",
"_. c #B7BA7A",
"`. c #C4A147",
"'. c #CDBA44",
"]. c #D3BE4D",
"[. c #C1A755",
"{. c #C2AE5D",
"}. c #C5BB5B",
"|. c #D0BD59",
" X c #C3AC67",
".X c #C9BC64",
"XX c #BBC474",
"oX c #BFC876",
"OX c #B9C178",
"+X c #BDC36D",
"@X c #D2C344",
"#X c #CBC559",
"$X c #D1C557",
"%X c #E3D349",
"&X c #D1CB68",
"*X c #CCC574",
"=X c #C1CA77",
"-X c #CCC974",
";X c #C9C679",
":X c #C4CD79",
">X c #C8C77B",
",X c #D2CB76",
"<X c #C7D07B",
"1X c #CBD37C",
"2X c #CFD97F",
"3X c #D3D270",
"4X c #D0D97F",
"5X c #CFCC68",
"6X c #CBCD81",
"7X c #D0CF84",
"8X c #CED383",
"9X c #CDD189",
"0X c #D0D483",
"qX c #D3DC83",
"wX c #D4D78B",
"eX c #D5DD89",
"rX c #D7E084",
"tX c #DCE687",
"yX c #D8E18B",
"uX c #CED3E1",
"iX c #E6E7F3",
/* pixels */
"tXtXtXtXtXtXtXtXtXtXtXtXtXtXtXtXtXtXtXtXtXtXtXtXtXtXtXtXtXtXtXtXtXtXtXtXtXtXtXtXtXtXtXtXtXtXtXtXtXtXtXtXtXtXtXtXtXtXtXtXtXtXtXtXtXtXtXtXtXtXtXtXtXtXtXtXtXtXtXtX",
"tXtXtXtXtXtXtXtXtXtXtXtXtXtXtXtXtXtXtXtXtXtXtXtXtXtXtXtXtXtXtXtXtXtXtXtXtXtXtXtXtXtXtXtXtXtXtXtXtXtXtXtXtXtXtXtXtXtXtXtXtXtXtXtXtXtXtXtXtXtXtXtXtXtXtXtXtXtXtXtX",
"tXtXtXtXtXtXtXtXtXtXtXtXtXtXtXtXtXtXtXtXtXtXtXtXtXtXtXtXtXtXtXtXtXtXtXtXtXtXtXtXtXtXtXtXtXtXtXtXtXtXtXtXtXtXtXtXtXtXtXtXtXtXtXtXtXtXtXtXtXtXtXtXtXtXtXtXtXtXtXtX",
"tXtXtXtXtXtXtXtXtXtXtXtXtXtXtXtXtXtXtXtXtXtXtXtXtXtXtXtXtXtXtXtXtXtXtXtXtXtXtXtXtXtXtXtXtXtXtXtXtXtXtXtXtXtXtXtXtXtXtXtXtXtXtXtXtXtXtXtXtXtXtXtXtXtXtXtXtXtXtXtX",
"tXtXtXtXtXtXtXtXtXtXtXtXtXtXtXtXtXtXtXtXtXtXtXtXtXtXtXtXtXtXtXtXtXtXtXtXtXtXtXtXtXtXtXtXtXtXtXtXtXtXtXtXtXtXtXtXtXtXtXtXtXtXtXtXtXtXtXtXtXtXtXtXtXtXtXtXtXtXtXtX",
"tXtXtXtXtXtXtXtXtXtXtXtXtXtXtXtXtXtXtXtXtXtXtXtXtXtXtXtXtXtXtXtXtXtXtXtXtXtXtXtXtXtXtXtXtXtXtXtXtXtXtXtXtXtXtXtXtXtXtXtXtXtXtXtXtXtXtXtXtXtXtXtXtXtXtXtXtXtXtXtX",
"tXtXtXtXtXtXtXtXtXtXtXtXtXtXtXtXtXtXtXtXtXtXtXtXtXtXtXtXtXtXtXtXtXtXtXtXtXtXtXtXtXtXtXtXtXtXtXtXtXtXtXtXtXtXtXtXtXtXtXtXtXtXtXtXtXtXtXtXtXtXtXtXtXtXtXtXtXtXtXtX",
"tXtXtXtXtXtXtXtXtXtXtXtXtXtXtXtXtXtXtXtXtXtXtXtXtXtXtXtXtXtXtXtXtXtXtXtXtXtXtXtXtXtXtXtXtXtXtXtXtXtXtXtXtXtXtXtXtXtXtXtXtXtXtXtXtXtXtXtXtXtXtXtXtXtXtXtXtXtXtXtX",
"tXtXtXtXtXtXtXtXtXtXtXtXtXtXtXtXtXtXtXtXtXtXtXtXtXtXtXtXtXtXtXtXtXtXtXtXtXtXtXtXtXtXtXtXtXtXtXtXtXtXtXtXtXtXtXtXtXtXtXtXtXtXtXtXtXtXtXtXtXtXtXtXtXtXtXtXtXtXtXtX",
"tXtXtXtXtXtXtXtXtXtXtXtXtXtXtXtXtXtXtXtXtXtXtXtXtXtXtXtXtXtXtXtXtXtXtXtXtXtXtXtXtXtXtXtXtXtXtXtXtXtXtXtXtXtXtXtXtXtXtXtXtXtXtXtXtXtXtXtXtXtXtXtXtXtXtXtXtXtXtXtX",
"tXtXtXtXtXtXtXtXtXtXtXtXtXtXtXtXtXtXtXtXtXtXtXtXtXtXtXtXtXtXtXtXtXtXtXtXtXtXtXtXtXtXtXtXtXtXtXtXtXtXtXtXtXtXtXtXtXtXtXtXtXtXtXtXtXtXtXtXtXtXtXtXtXtXtXtXtXtXtXtX",
"tXtXtXtXtXtXtXtXtXtXtXtXtXtXtXtXtXtXtXtXtXtXtXtXtXtXtXtXtXtXtXtXtXtXtXtXtXtXtXtXtXtXtXtXtXtXtXtXtXtXtXtXtXtXtXtXtXtXtXtXtXtXtXtXtXtXtXtXtXtXtXtXtXtXtXtXtXtXtXtX",
"tXtXtXtXtXtXtXtXtXtXtX0X-XtXtXtXtXtXtXtXtXtXtXtXtXtXtXtXtXtXtXtXtXtXtXtXtXtXtXtXtXtXtXtXtXtXtXtXtXtXtXtXtXtXtXtXtXtXtXtXtXtXtXtXtXtXtXtXtXtXtXtXtXtXtXtXtXtXtXtX",
"tXtXtXtXtXtXtXtXtXtXtX0XN.;X1XtXtXtXtXtXtXtXtXtXtXtXtXtXtXtXtXtXtXtXtXtXtXtXtXtXtXtXtXtXtXtXtXtXtXtXtXtXtXtXtXtXtXtXtXtXtXtXtXtXtXtXtXtXtXtXtXtXtXtXtXtXtXtXtXtX",
"tXtXtXtXtXtXtXtXtXtXtX3XN.M.OX2XtXtXtXtXtXtXtXtXtXtXtXtXtXtXtXtXtXtXtXtXtXtXtXtXtXtXtXtXtXtXtXtXtXtXtXtXtXtXtXtXtXtXtXtXtXtXtXtXtXtXtXtXtXtXtXtXtXtXtXtXtXtXtXtX",
"tXtXtXtXtXtXtXtXtXtXtX&XN.N.z.XXrXtXtXtXtXtXtXtXtXtXtXtXtXtXtXtXtXtXtXtXtXtXtXtXtXtXtXtXtXtXtXtXtXtXtXtXtXtXtXtXtXtXtXtXtXtXtXtXtXtXtXtXtXtXtXtXtXtXtXtXtXtXtXtX",
"tXtXtXtXtXtXtXtXtXtXtX$XV.N.V.}.=XtXtXtXtXtXtXtXtXtXtXtXtXtXtXtXtXtXtXtXtXtXtXtXtXtXtXtXtXtXtXtXtXtXtXtXtXtXtXtXtXtXtXtXtXtXtXtXtXtXtXtXtXtXtXtXtXtXtXtXtXtXtXtX",
"tXtXtXtXtXtXtXtXtXtXtXx.N.N.N.N.~.:XtXtXtXtXtXtXtXtXtXtXtXtXtXtXtXtXtXtXtXtXtXtXtXtXtXtXtXtXtXtXtXtXtXtXtXtXtXtXtXtXtXtXtXtXtXtXtXtXtXtXtXtXtXtXtXtXtXtXtXtXtXtX",
"tXtXtXtXtXtXtXtXtXtXtXn.N.N.N.N.N._.8XtXtXtXtXtXtXtXtXtXtXtXtXtXtXtXtXtXtXtXtXtXtXtXtXtXtXtXtXtXtXtXtXtXtXtXtXtXtXtXtXtXtXtXtXtXtXtXtXtXtXtXtXtXtXtXtXtXtXtXtXtX",
"tXtXtXtXtXtXtXtXtXtXqXB.V.N.N.N.N.M.XXrXtXtXtXtXtXtXtXtXtXtXtXtXtXtXtXtXtXtXtXtXtXtXtXtXtXtXtXtXtXtXtXtXtXtXtXtXtXtXtXtXtXtXtXtXtXtXtXtXtXtXtXtXtXtXtXtXtXtXtXtX",
"tXtXtXtXtXtXtXtXtXtX7XN.N.N.h.N.N.N.'.=XtXtXtXtXtXtXtXtXtXtXtXtXtXtXtXtXtXtXtXtXtXtXtXtXtXtXtXtXtXtXtXtXtXtXtXtXtXtXtXtXtXtXtXtXtXtXtXtXtXtXtXtXtXtXtXtXtXtXtXtX",
"tXtXtXtXtXtXtXtXtXtX,XN.N.N.M.N.N.N.N._.:XtXtXtXtXtXtXtXtXtXtXtXtXtXtXtXtXtXtXtXtXtXtXtXtXtXtXtXtXtXtXtXtXtXtXtXtXtXtXtXtXtXtXtXtXtXtXtXtXtXtXtXtXtXtXtXtXtXtXtX",
"tXtXtXtXtXtXtXtXtXtX3XN.N.N.N.N.N.N.N.B.OX1XtXtXtXtXtXtXtXtXtXtXtXtXtXtXtXtXtXtXtXtXtXtXtXtXtXtXtXtXtXtXtXtXtXtXtXtXtXtXtXtXtXtXtXtXtXtXtXtXtXtXtXtXtXtXtXtXtXtX",
"tXtXtXtXtXtXtXtXtXtX&XN.N.N.N.N.N.N.N.B.n.XXrXtXtXtXtXtXtXtXtXtXtXtXtXtXtXtXtXtXtXtXtXtXtXtXtXtXtXtXtXtXtXtXtXtXtXtXtXtXtXtXtXtXtXtXtXtXtXtXtXtXtXtXtXtXtXtXtXtX",
"tXtXtXtXtXtXtXtXtXtXS.N.N.N.N.N.h.N.N.N.V..XXXtXtXtXtXtXtXtXtXtXtXtXtXtXtXtXtXtXtXtXtXtXtXtXtXtXtXtXtXtXtXtXtXtXtXtXtXtXtXtXtXtXtXtXtXtXtXtXtXtXtXtXtXtXtXtXtXtX",
"tXtXtXtXtXtXtXtXtXtX$XV.N.N.N.h.N.N.N.N.N.V.).:XtXtXtXtXtXtXtXtXtXtXtXtXtXtXtXtXtXtXtXtXtXtXtXtXtXtXtXtXtXtXtXtXtXtXtXtXtXtXtXtXtXtXtXtXtXtXtXtXtXtXtXtXtXtXtXtX",
"tXtXtXtXtXtXtXtXtXtXtX,XN.V.N.N.N.N.h.M.N.N.M.OX4XtXtXtXtXtXtXtXtXtXtXtXtXtXtXtXtXtXtXtXtXtXtXtXtXtXtXtXtXtXtXtXtXtXtXtXtXtXtXtXtXtXtXtXtXtXtXtXtXtXtXtXtXtXtXtX",
"tXtXtXtXtXtXtXtXtXtXtXtX6XB.N.N.M.N.N.N.N.N.N.'.=XrXtXtXtXtXtXtXtXtXtXtXtXtXtXtXtXtXtXtXtXtXtXtXtXtXtXtXtXtXtXtXtXtXtXtXtXtXtXtXtXtXtXtXtXtXtXtXtXtXtXtXtXtXtXtX",
"tXtXtXtXtXtXtXtXtXtXtXtXtX0XS.N.N.h.N.N.N.N.N.N.^.=XtXtXtXtXtXtXtXtXtXtXtXtXtXtXtXtXtXtXtXtXtXtXtXtXtXtXtXtXtXtXtXtXtXtXtXtXtXtXtXtXtXtXtXtXtXtXtXtXtXtXtXtXtXtX",
"tXtXtXtXtXtXtXtXtXtXtXtXtXtXtX].V.N.N.N.N.N.N.N.B.(.1XtXtXtXtXtXtXtXtXtXtXtXtXtXtXtXtXtXtXtXtXtXtXtXtXtXtXtXtXtXtXtXtXtXtXtXtXtXtXtXtXtXtXtXtXtXtXtXtXtXtXtXtXtX",
"tXtXtXtXtXtXtXtXtXtXtXtXtXtXtXtX*XN.N.N.N.N.N.N.N.z.XXqXtXtXtXtXtXtXtXtXtXtXtXtXtXtXtXtXtXtXtXtXtXtXtXtXtXtXtXtXtXtXtXtXtXtXtXtXtXtXtXtXtXtXtXtXtXtXtXtXtXtXtXtX",
"tXtXtXtXtXtXtXtXtXtXtXtXtXtXtXtXtX0XN.N.N.M.h.N.V.V.#XXXtXtXtXtXtXtXtXtXtXtXtXtXtXtXtXtXtXtXtXtXtXtXtXtXtXtXtXtXtXtXtXtXtXtXtXtXtXtXtXtXtXtXtXtXtXtXtXtXtXtXtXtX",
"tXtXtXtXtXtXtXtXtXtXtXtXtXtXtXtXtXtXwXM.N.N.N.N.N.t.).XX<XtXtXtXtXtXtXtXtXtXtXtXtXtXtXtXtXtXtXtXtXtXtXtXtXtXtXtXtXtXtXtXtXtXtXtXtXtXtXtXtXtXtXtXtXtXtXtXtXtXtXtX",
"tXtXtXtXtXtXtXtXtXtXtXtXtXtXtXtXtXtX1XN.N.N.B.N.u.).XXXXqXtXtXtXtXtXtXtXtXtXtXtXtXtXtXtXtXtXtXtXtXtXtXtXtXtXtXtXtXtXtXtXtXtXtXtXtXtXtXtXtXtXtXtXtXtXtXtXtXtXtXtX",
"tXtXtXtXtXtXtXtXtXtXtXtXtXtXtXtXtX;XV.N.N.N.B.%.OXXX=XqXtXtXtXtXtXtXtXeXq q u E.OXrXtXtXtXtXtXtXtXtXtXtXtXtXtXtXtXtXtXtXtXtXtXtXtXtXtXtXtXtXtXtXtXtXtXtXtXtXtXtX",
"tXtXtXtXtXtXtXtXtXtXtXtXtXtXtXtX1XN.V.N.V.N.J.XXXXoXtXtXtXtXtXtXtXtXtXtXO       o u.A.&X3XwXtXtXtXtXtXtXtXtXtXtXtXtXtXtXtXtXtXtXtXtXtXtXtXtXtXtXtXtXtXtXtXtXtXtX",
"tXtXtXtXtXtXtXtXtXtXtXtXtXtXtX8XV.V.N.V.t.G.oXXX<XtXtXtXtXtXtXtXtXtXtXyXrXO     2 V.N.N.V.B.A.#X<XtX8XD.T.OXtXtXtXtXtXtXtXtXtXtXtXtXtXtXtXtXtXtXtXtXtXtXtXtXtXtX",
"tXtXtXtXtXtXtXtXtXtXtXtXtXtX0XV.N.N.V.0.W.XXoX<XtXtXtXtXtXtXtXtXtXtXwX>X-Xq     : V.V.N.V.N.N.N.N.Z.9. .' ' O.[.3XwXrXtXtXtXtXtXtXtXtXtXtXtXtXtXtXtXtXtXtXtXtXtX",
"tXtXtXtXtXtXtXtXtXtXtXtXtXtX3XV.N.N.V.e.XXXX1XtXtXtXtXtXtXtXtXwXR.w h 0.N.V.3   . g.N.N.N.N.N.N.N.N.N.V.B.V.V.V.N.V.m.@X3XrXtXtXtXtXtXtXtXtXtXtXtXtXtXtXtXtXtXtX",
"tXtXtXtXtXtXtXtXtXtXtXtXtXtXtX.XV.N.N.V.c.XXtXtXtXtXtXtXtXyX X1 * x V.V.V.V.M +   5 V.N.V.N.V.N.V.N.N.N.B.B.N.V.N.V.V.N.V.B.^.tXtXtXtXtXtXtXtXtXtXtXtXtXtXtXtXtX",
"tXtXtXtXtXtXtXtXtXtXtXtXtXtXtXtXA.V.N.N.V.|.=XrXtXtXtXtX3Xu.= d d.N.N.N.N.x @ + % $ ] V.h.N.N.N.N.V.N.N.N.N.M.N.N.N.V.V.V.V.d./.1XtXtXtXtXtXtXtXtXtXtXtXtXtXtXtX",
"tXtXtXtXtXtXtXtXtXtXtXtXtXtXtXtXwXC.V.N.N.N.}.:XtXtXeX@XV.a.=.V.N.N.N.V.g.1 - 4 m c k -.=.>.3.4.f.N.N.N.N.h.N.N.B.N.N.N.V.V.N.l.XX4XtXtXtXtXtXtXtXtXtXtXtXtXtXtX",
"tXtXtXtXtXtXtXtXtXtXtXtXtXtXtXtXyX9XN.N.N.N.N.OX1XwXn.N.V.N.V.V.N.N.N.V.d., 0.N.} b m c b [ } *.=.3.t.M.N.N.N.N.N.N.N.N.V.V.V.f.!.XXtXtXtXtXtXtXtXtXtXtXtXtXtXtX",
"tXtXtXtXtXtXtXtXtXtXtXtXtXtXtXtXtXtX>XB.V.B.x.XX_.@XV.N.N.N.N.h.h.N.N.N.N.g.N.N.N.8...8.r.g.N.V.g.r.t.h.N.N.N.N.N.h.M.N.N.V.V.N.q.).1XtXtXtXtXtXtXtXtXtXtXtXtXtX",
"tXtXtXtXtXtXtXtXtXtXtXtXtXtXtXtXtXtXyXC.V.V.W.` v N.N.N.N.N.N.N.N.N.N.N.N.N.N.N.N.N.N.N.N.N.N.N.N.N.N.N.N.N.N.M.N.M.N.N.N.N.N.N.s.[.=XqXtXtXtXtXtXtXtXtXtXtXtXtX",
"tXtXtXtXtXtXtXtXtXtXtXtXtXtXtXtXtXtXrX#.=.n < d N.N.N.N.N.M.h.N.N.N.N.N.N.N.M.N.N.N.N.N.N.N.M.h.N.N.N.N.N.M.N.h.N.N.N.N.N.h.N.h.s.q.).=XtXtXtXtXtXtXtXtXtXtXtXtX",
"tXtXtXtXtXtXtXtXtXtXtXtXtXtXtXtXtXtXtXB = & , N.N.N.N.h.N.N.N.N.N.h.M.N.N.h.N.N.N.M.N.N.N.N.N.N.N.M.N.N.N.N.N.N.h.N.N.N.N.N.N.h.f.p.P.XX4XtXtXtXtXtXtXtXtXtXtXtX",
"tXtXtXtXtXtXtXtXtXtXtXtXtXtXtXtXtXtXtXB = > w.N.N.N.N.N.M.N.N.M.N.N.N.N.M.N.N.N.N.N.N.N.N.N.N.N.N.N.N.N.h.N.N.M.N.N.N.N.N.N.h.f.f.s.k.XX1XtXtXtXtXtXtXtXtXtXtXtX",
"tXtXtXtXtXtXtXtXtXtXtXtXtXtXtXtXtXtXtXN * { V.N.N.N.h.N.N.N.N.h.N.M.N.N.M.N.N.N.h.N.N.N.N.N.N.N.N.N.M.N.N.M.N.N.N.N.N.N.B.h.d.f.s.p.k.XX=XtXtXtXtXtXtXtXtXtXtXtX",
"tXtXtXtXtXtXtXtXtXtXtXtXtXtXtXtXtXtXtXy N N.N.N.N.N.N.N.M.N.N.N.N.h.N.N.N.N.h.N.N.N.M.N.N.M.h.N.N.h.N.N.N.N.N.N.N.N.N.N.N.f.f.s.s.7.@.XX=XtXtXtXtXtXtXtXtXtXtXtX",
"tXtXtXtXtXtXtXtXtXtXtXtXtXtXtXtXtXtXtX0X%XV.N.N.N.N.N.N.h.N.N.N.N.N.N.N.N.N.M.N.N.N.N.N.N.N.N.N.N.N.N.N.N.N.N.N.N.V.h.g.N.s.s.s.i.2.P.XX=XtXtXtXtXtXtXtXtXtXtXtX",
"tXtXtXtXtXtXtXtXtXtXtXtXtXtXtXtXtXtXtX4XV.V.N.h.M.h.N.N.N.N.N.N.M.N.M.N.h.N.N.N.N.M.M.h.N.N.M.N.N.M.h.N.N.N.V.N.N.2 o 0 ,.h.s.a.4.2.!.XX1XtXtXtXtXtXtXtXtXtXtXtX",
"tXtXtXtXtXtXtXtXtXtXtXtXtXtXtXtXtXtXtX$XN.N.N.M.N.N.N.N.N.N.V.N.N.N.N.N.N.M.N.N.N.N.N.M.N.N.N.N.N.N.N.V.N.V.N.N.9   t iXY.3.s.i.2.&.).XX2XtXtXtXtXtXtXtXtXtXtXtX",
"tXtXtXtXtXtXtXtXtXtXtXtXtXtXtXtXtXtXtXz.N.N.N.N.N.N.N.N.N.h.h.V.N.h.M.N.N.N.N.h.N.h.N.N.N.N.N.h.N.V.a.G 6.V.V.N.%   e uXr q.f.4.2.#.XXXXqXtXtXtXtXtXtXtXtXtXtXtX",
"tXtXtXtXtXtXtXtXtXtXtXtXtXtXtXtXtXtX0XV.N.N.h.N.N.N.N.N.V.h.s.h.B.N.N.N.N.N.N.N.N.N.N.N.h.N.N.V.V.J E I R Q a.B.l .   . 8 N.p.7.3.G.XX=XtXtXtXtXtXtXtXtXtXtXtXtX",
"tXtXtXtXtXtXtXtXtXtXtXtXtXtXtXtXtXtX&XN.N.N.N.N.h.M.N.B.8.:.s.h.N.N.h.N.M.h.N.N.N.M.h.N.N.N.V.V.A R ~ ^ ^ / E g.V.3 # 8 V.h.s.p.1.~.XX<XtXtXtXtXtXtXtXtXtXtXtXtX",
"tXtXtXtXtXtXtXtXtXtXtXtXtXtXtXtXtXtX@XN.N.N.M.N.N.N.V.V.*.4 c h.N.N.N.h.N.N.N.N.N.N.N.V.N.N.N.B.! ~ E _ ( ) / H V.V.V.V.N.f.h.h.q.).XX4XtXtXtXtXtXtXtXtXtXtXtXtX",
"tXtXtXtXtXtXtXtXtXtXtXtXtXtXtXtXtXeXN.N.N.N.N.N.N.N.V.h.i.j g q.V.N.N.N.N.N.V.N.h.h.h.M.N.N.N.r.P Y E E W E ~ S C.h.h.h.h.h.N.f.[ /.XXqXtXtXtXtXtXtXtXtXtXtXtXtX",
"tXtXtXtXtXtXtXtXtXtXtXtXtXtXtXtXtXtXM.V.N.N.N.N.N.h.N.V.f.*.k { V.N.N.N.h.h.h.f.s.f.s.f.f.f.N.g.s T Y Y Y Y T G V.f.f.f.h.h.f.s.5./.XXqXtXtXtXtXtXtXtXtXtXtXtXtX",
"tXtXtXtXtXtXtXtXtXtXtXtXtXtXtXtXtXyX|.N.N.N.h.N.N.N.V.V.f.3.z m V.V.V.h.a.p.a.p.p.p.i.p.s.s.s.N.D s K K L L Z N.s.s.f.h.&.m 7.F L.XXXXrXtXtXtXtXtXtXtXtXtXtXtXtX",
"tXtXtXtXtXtXtXtXtXtXtXtXtXtXtXtXtXtX,XN.N.N.N.N.V.V.N.f.p.1.v *.N.V.V.f.s.p.2.2.2.2.1.2.4.7.i.i.g.Z p i C ;.B.a.i.7.i.i.m g v F.XX+X1XtXtXtXtXtXtXtXtXtXtXtXtXtX",
"tXtXtXtXtXtXtXtXtXtXtXtXtXtXtXtXtXtX7Xf.V.N.V.N.h.h.f.s.i.m b h.V.V.V.f.p.a.=.&.1.7.2.=.=.>.>.1.3.d.r.r.t.w.3.2.1.>.>.&.=.:.P.OXXX:XtXtXtXtXtXtXtXtXtXtXtXtXtXtX",
"tXtXtXtXtXtXtXtXtXtXtXtXtXtXtXtXtXtXyXa.N.V.h.f.s.p.p.i.-.z >.V.V.V.N.s.p.1.&.1.m f c } *.=.>.>.1.1.1.1.1.1.>.>.>.=.-.&.| ~.XXXX1XtXtXtXtXtXtXtXtXtXtXtXtXtXtXtX",
"tXtXtXtXtXtXtXtXtXtXtXtXtXtXtXtXtXtXyXx.V.V.h.7.-.=.=.=.m J.g.V.N.N.f.p.2.{ } ..2 ; 6 c m { *.[.{.`.j.5.,.,.,.>.>.j.L.Q.(.XXXX1XtXtXtXtXtXtXtXtXtXtXtXtXtXtXtXtX",
"tXtXtXtXtXtXtXtXtXtXtXtXtXtXtXtXtXtXqXM.V.V.q.$.$.o.+.J.).!.f.N.f.f.s.4.=.{ OXD.; f j c m &.j V K.=X1X:XXX+X)./._.XXXX:X:X1XrXtXtXtXtXtXtXtXtXtXtXtXtXtXtXtXtXtX",
"tXtXtXtXtXtXtXtXtXtXtXtXtXtXtXtXtXtXwXx.V.N.g.+.OX).oXXXoX!.p.s.s.p.4.-.&.).XX7 6 c [ [ } P.Q.K.K.OX1XtXtXtXtXtX4X4XqXtXtXtXtXtXtXtXtXtXtXtXtXtXtXtXtXtXtXtXtXtX",
"tXtXtXtXtXtXtXtXtXtXtXtXtXtXtXtXtXtXtXyX.Xy.V.N.H.=XtXtXtX.Xp.s.i.4.>.=.J.XXW.6 b *.:.@./.XXXX<X0X2X2XrXtXtXtXtXtXtXtXtXtXtXtXtXtXtXtXtXtXtXtXtXtXtXtXtXtXtXtXtX",
"tXtXtXtXtXtXtXtXtXtXtXtXtXtXtXtXtXtXtXtXtX0X].N.w.W.<XtXtX*Xp.s.4.=.=.@.XXXXW.l } L.OXXXXX=X2XtXtXtXtXtXtXtXtXtXtXtXtXtXtXtXtXtXtXtXtXtXtXtXtXtXtXtXtXtXtXtXtXtX",
"tXtXtXtXtXtXtXtXtXtXtXtXtXtXtXtXtXtXtXtXtXtXtX1X}.^.XX1XtXwXi.s.2.-.=.W.XXoX6Xc :.OXXX:XtXtXtXtXtXtXtXtXtXtXtXtXtXtXtXtXtXtXtXtXtXtXtXtXtXtXtXtXtXtXtXtXtXtXtXtX",
"tXtXtXtXtXtXtXtXtXtXtXtXtXtXtXtXtXtXtXtXtXtXtXtXtXqX2X0XtXyXa.h.4.=.*._.XX1XtX`.;XXXXXtXtXtXtXtXtXtXtXtXtXtXtXtXtXtXtXtXtXtXtXtXtXtXtXtXtXtXtXtXtXtXtXtXtXtXtXtX",
"tXtXtXtXtXtXtXtXtXtXtXtXtXtXtXtXtXtXtXtXtXtXtXtXtXtXtXtXtXtX.Xx.l.%.(.XXXXrXtXtXtX:X4XtXtXtXtXtXtXtXtXtXtXtXtXtXtXtXtXtXtXtXtXtXtXtXtXtXtXtXtXtXtXtXtXtXtXtXtXtX",
"tXtXtXtXtXtXtXtXtXtXtXtXtXtXtXtXtXtXtXtXtXtXtXtXtXtXtXtXtXtXtXtX1XoXoXoXqXtXtXtXtXtXtXtXtXtXtXtXtXtXtXtXtXtXtXtXtXtXtXtXtXtXtXtXtXtXtXtXtXtXtXtXtXtXtXtXtXtXtXtX",
"tXtXtXtXtXtXtXtXtXtXtXtXtXtXtXtXtXtXtXtXtXtXtXtXtXtXtXtXtXtXtXtXtXtXtXtXtXtXtXtXtXtXtXtXtXtXtXtXtXtXtXtXtXtXtXtXtXtXtXtXtXtXtXtXtXtXtXtXtXtXtXtXtXtXtXtXtXtXtXtX",
"tXtXtXtXtXtXtXtXtXtXtXtXtXtXtXtXtXtXtXtXtXtXtXtXtXtXtXtXtXtXtXtXtXtXtXtXtXtXtXtXtXtXtXtXtXtXtXtXtXtXtXtXtXtXtXtXtXtXtXtXtXtXtXtXtXtXtXtXtXtXtXtXtXtXtXtXtXtXtXtX",
"tXtXtXtXtXtXtXtXtXtXtXtXtXtXtXtXtXtXtXtXtXtXtXtXtXtXtXtXtXtXtXtXtXtXtXtXtXtXtXtXtXtXtXtXtXtXtXtXtXtXtXtXtXtXtXtXtXtXtXtXtXtXtXtXtXtXtXtXtXtXtXtXtXtXtXtXtXtXtXtX",
"tXtXtXtXtXtXtXtXtXtXtXtXtXtXtXtXtXtXtXtXtXtXtXtXtXtXtXtXtXtXtXtXtXtXtXtXtXtXtXtXtXtXtXtXtXtXtXtXtXtXtXtXtXtXtXtXtXtXtXtXtXtXtXtXtXtXtXtXtXtXtXtXtXtXtXtXtXtXtXtX",
"tXtXtXtXtXtXtXtXtXtXtXtXtXtXtXtXtXtXtXtXtXtXtXtXtXtXtXtXtXtXtXtXtXtXtXtXtXtXtXtXtXtXtXtXtXtXtXtXtXtXtXtXtXtXtXtXtXtXtXtXtXtXtXtXtXtXtXtXtXtXtXtXtXtXtXtXtXtXtXtX",
"tXtXtXtXtXtXtXtXtXtXtXtXtXtXtXtXtXtXtXtXtXtXtXtXtXtXtXtXtXtXtXtXtXtXtXtXtXtXtXtXtXtXtXtXtXtXtXtXtXtXtXtXtXtXtXtXtXtXtXtXtXtXtXtXtXtXtXtXtXtXtXtXtXtXtXtXtXtXtXtX",
"tXtXtXtXtXtXtXtXtXtXtXtXtXtXtXtXtXtXtXtXtXtXtXtXtXtXtXtXtXtXtXtXtXtXtXtXtXtXtXtXtXtXtXtXtXtXtXtXtXtXtXtXtXtXtXtXtXtXtXtXtXtXtXtXtXtXtXtXtXtXtXtXtXtXtXtXtXtXtXtX",
"tXtXtXtXtXtXtXtXtXtXtXtXtXtXtXtXtXtXtXtXtXtXtXtXtXtXtXtXtXtXtXtXtXtXtXtXtXtXtXtXtXtXtXtXtXtXtXtXtXtXtXtXtXtXtXtXtXtXtXtXtXtXtXtXtXtXtXtXtXtXtXtXtXtXtXtXtXtXtXtX"
};
