/* XPM */
static char *result[] = {
/* columns rows colors chars-per-pixel */
"80 80 206 2 ",
"   c #000000",
".  c #090C0B",
"X  c #080800",
"o  c #1A1401",
"O  c #2F0D00",
"+  c #211200",
"@  c #371E00",
"#  c #342303",
"$  c #2A2716",
"%  c #262423",
"&  c #373120",
"*  c #5C0200",
"=  c #5A0E00",
"-  c #5C1900",
";  c #640300",
":  c #6B0300",
">  c #720400",
",  c #631900",
"<  c #483501",
"1  c #593B00",
"2  c #5A2500",
"3  c #623F00",
"4  c #5B4400",
"5  c #594602",
"6  c #5F5211",
"7  c #654B00",
"8  c #6B4E00",
"9  c #644500",
"0  c #794F00",
"q  c #665100",
"w  c #6C5200",
"e  c #6A5908",
"r  c #735400",
"t  c #7A5600",
"y  c #745A00",
"u  c #7B5B00",
"i  c #645915",
"p  c #6C5E18",
"a  c #6C5B16",
"s  c #7E6100",
"d  c #796706",
"f  c #6B611A",
"g  c #726417",
"h  c #474A2C",
"j  c #615E24",
"k  c #696227",
"l  c #716B3A",
"z  c #77763B",
"x  c #716E32",
"c  c #3C4555",
"v  c #50555F",
"b  c #7A7C45",
"n  c #6C7142",
"m  c #8A0600",
"M  c #AF0C00",
"N  c #963300",
"B  c #A72400",
"V  c #CA0D00",
"C  c #D80E00",
"Z  c #D91100",
"A  c #E30F00",
"S  c #ED1100",
"D  c #E41000",
"F  c #C22E00",
"G  c #FF2000",
"H  c #E73600",
"J  c #874C00",
"K  c #835E00",
"L  c #8A5E00",
"P  c #865400",
"I  c #995F00",
"U  c #84561A",
"Y  c #AD4E00",
"T  c #846200",
"R  c #8C6400",
"E  c #8D6A00",
"W  c #826900",
"Q  c #926600",
"!  c #936B00",
"~  c #9A6D00",
"^  c #9A6100",
"/  c #957300",
"(  c #9C7200",
")  c #947902",
"_  c #9C7A00",
"`  c #917A0D",
"'  c #8A7C1C",
"]  c #856F0E",
"[  c #A06F00",
"{  c #A17400",
"}  c #A37B00",
"|  c #A97D00",
" . c #AD7100",
".. c #867A2B",
"X. c #887C39",
"o. c #D14C00",
"O. c #C57E00",
"+. c #D37D00",
"@. c #FC6300",
"#. c #947F4C",
"$. c #7E8047",
"%. c #9B8000",
"&. c #9D891C",
"*. c #A58300",
"=. c #AB8400",
"-. c #AC8B00",
";. c #A58907",
":. c #B18400",
">. c #B48C00",
",. c #B98E00",
"<. c #AE9206",
"1. c #B49200",
"2. c #BC9300",
"3. c #BC9B01",
"4. c #B29C06",
"5. c #A48D17",
"6. c #A79414",
"7. c #BAA207",
"8. c #978624",
"9. c #948C38",
"0. c #999238",
"q. c #8C863C",
"w. c #A38E22",
"e. c #AA952A",
"r. c #A0973F",
"t. c #A49737",
"y. c #B39D22",
"u. c #C08E00",
"i. c #C39600",
"p. c #C59B00",
"a. c #CB9D00",
"s. c #CC9500",
"d. c #D29D00",
"f. c #DE9700",
"g. c #EA9D00",
"h. c #CDA200",
"j. c #C5A500",
"k. c #D3A300",
"l. c #D9A500",
"z. c #D4A900",
"x. c #DBAB00",
"c. c #C7B000",
"v. c #D4B900",
"b. c #D8B200",
"n. c #E2AD00",
"m. c #E8AE00",
"M. c #FDAF00",
"N. c #E4B300",
"B. c #EBB500",
"V. c #E6BA00",
"C. c #EDBB00",
"Z. c #F2BC00",
"A. c #F9BE00",
"S. c #F2B600",
"D. c #E3C000",
"F. c #EEC700",
"G. c #F5C200",
"H. c #FCC400",
"J. c #F7CA00",
"K. c #FFCB00",
"L. c #FFD200",
"P. c #FFDC00",
"I. c #FFE400",
"U. c #FFEA00",
"Y. c #FFF500",
"T. c #878948",
"R. c #938E40",
"E. c #9B9B4C",
"W. c #9A9545",
"Q. c #9B9D54",
"!. c #949B59",
"~. c #969B55",
"^. c #8A8D52",
"/. c #A09E41",
"(. c #9DA35C",
"). c #9EA157",
"_. c #B9A947",
"`. c #A4A659",
"'. c #B5B55C",
"]. c #BBB759",
"[. c #ADA954",
"{. c #A4AB63",
"}. c #A7A862",
"|. c #ABB165",
" X c #ACB469",
".X c #B3BB6D",
"XX c #B6BB6A",
"oX c #C4B956",
"OX c #BBC06B",
"+X c #BCC573",
"@X c #BFC876",
"#X c #B7C070",
"$X c #C8CB6B",
"%X c #C1C772",
"&X c #C1CA76",
"*X c #C4CE79",
"=X c #C8CE72",
"-X c #CBD47C",
";X c #CED87E",
":X c #C8D078",
">X c #D0D97D",
",X c #6A7090",
"<X c #D3DD81",
"1X c #D7E084",
"2X c #DCE687",
"3X c #AEBDDC",
/* pixels */
"2X2X2X2X2X2X2X2X2X2X2X2X2X2X2X2X2X2X2X2X2X2X2X2X2X2X2X2X2X2X2X2X2X2X2X2X2X2X2X2X2X2X2X2X2X2X2X2X2X2X2X2X2X2X2X2X2X2X2X2X2X2X2X2X2X2X2X2X2X2X2X2X2X2X2X2X2X2X2X2X",
"2X2X2X2X2X2X2X2X2X2X2X2X2X2X2X2X2X2X2X2X2X2X2X2X2X2X2X2X2X2X2X2X2X2X2X2X2X2X2X2X2X2X2X2X2X2X2X2X2X2X2X2X2X2X2X2X2X2X2X2X2X2X2X2X2X2X2X2X2X2X2X2X2X2X2X2X2X2X2X2X",
"2X2X2X2X2X2X2X2X2X2X2X2X2X2X2X2X2X2X2X2X2X2X2X2X2X2X2X2X2X2X2X2X2X2X2X2X2X2X2X2X2X2X2X2X2X2X2X2X2X2X2X2X2X2X2X2X2X2X2X2X2X2X2X2X2X2X2X2X2X2X2X2X2X2X2X2X2X2X2X2X",
"2X2X2X2X2X2X2X2X2X2X2X2X2X2X2X2X2X2X2X2X2X2X2X2X2X2X2X2X2X2X2X2X2X2X2X2X2X2X2X2X2X2X2X2X2X2X2X2X2X2X2X2X2X2X2X2X2X2X2X2X2X2X2X2X2X2X2X2X2X2X2X2X2X2X2X2X2X2X2X2X",
"2X2X2X2X2X2X2X2X2X2X2X2X2X2X2X2X2X2X2X2X2X2X2X2X2X2X2X2X2X2X2X2X2X2X2X2X2X2X2X2X2X2X2X2X2X2X2X2X2X2X2X2X2X2X2X2X2X2X2X2X2X2X2X2X2X2X2X2X2X2X2X2X2X2X2X2X2X2X2X2X",
"2X2X2X2X2X2X2X2X2X2X2X2X2X2X2X2X2X2X2X2X2X2X2X2X2X2X2X2X2X2X2X2X2X2X2X2X2X2X2X2X2X2X2X2X2X2X2X2X2X2X2X2X2X2X2X2X2X2X2X2X2X2X2X2X2X2X2X2X2X2X2X2X2X2X2X2X2X2X2X2X",
"2X2X2X2X2X2X2X2X2X2X2X2X2X2X2X2X2X2X2X2X2X2X2X2X2X2X2X2X2X2X2X2X2X2X2X2X2X2X2X2X2X2X2X2X2X2X2X2X2X2X2X2X2X2X2X2X2X2X2X2X2X2X2X2X2X2X2X2X2X2X2X2X2X2X2X2X2X2X2X2X",
"2X2X2X2X2X2X2X2X2X2X2X2X2X2X2X2X2X2X2X2X2X2X2X2X2X2X2X2X2X2X2X2X2X2X2X2X2X2X2X2X2X2X2X2X2X2X2X2X2X2X2X2X2X2X2X2X2X2X2X2X2X2X2X2X2X2X2X2X2X2X2X2X2X2X2X2X2X2X2X2X",
"2X2X2X2X2X2X2X2X2X2X2X2X2X2X2X2X2X2X2X2X2X2X2X2X2X2X2X2X2X2X2X2X2X2X2X2X2X2X2X2X2X2X2X2X2X2X2X2X2X2X2X2X2X2X2X2X2X2X2X2X2X2X2X2X2X2X2X2X2X2X2X2X2X2X2X2X2X2X2X2X",
"2X2X2X2X2X2X2X2X2X2X2X2X2X2X2X2X2X2X2X2X2X2X2X2X2X2X2X2X2X2X2X2X2X2X2X2X2X2X2X2X2X2X2X2X2X2X2X2X2X2X2X2X2X2X2X2X2X2X2X2X2X2X2X2X2X2X2X2X2X2X2X2X2X2X2X2X2X2X2X2X",
"2X2X2X2X2X2X2X2X2X2X2X2X2X2X2X2X2X2X2X2X2X2X2X2X2X2X2X2X2X2X2X2X2X2X2X2X2X2X2X2X2X2X2X2X2X2X2X2X2X2X2X2X2X2X2X2X2X2X2X2X2X2X2X2X2X2X2X2X2X2X2X2X2X2X2X2X2X2X2X2X",
"2X2X2X2X2X2X2X2X2X2X2X2X2X2X2X2X2X2X2X2X2X2X2X2X2X2X2X2X2X2X2X2X2X2X2X2X2X2X2X2X2X2X2X2X2X2X2X2X2X2X2X2X2X2X2X2X2X2X2X2X2X2X2X2X2X2X2X2X2X2X2X2X2X2X2X2X2X2X2X2X",
"2X2X2X2X2X2X2X2X2X2X2X2X2X2X2X2X2X2X2X2X2X2X2X2X2X2X2X2X2X2X2X2X2X2X2X2X2X2X2X2X2X2X2X2X2X2X2X2X2X2X2X2X2X2X2X2X2X2X2X2X2X2X2X2X2X2X2X2X2X2X2X2X2X2X2X2X2X2X2X2X",
"2X2X2X2X2X2X2X2X2X2X2X2X2X2X2X2X2X2X2Xh n <X2X2X2X2X2X2X2X2X2X2X2X2X2X2X2X2X2X2X2X2X2X2X2X2X2X2X2X2X2X2X2X2X2X2X2X2X2X2X2X2X2X2X2X2X2X2X2X2X2X2X2X2X2X2X2X2X2X2X",
"2X2X2X2X2X2X2X2X2X2X2X2X2X2X2X2X2X2X2X& X _ W.-X2X2X2X2X2X2X2X2X2X2X2X2X2X2X2X2X2X2X2X2X2X2X2X2X2X2X2X2X2X2X2X1X2X-X#X2X2X2X2X2X2X2X2X2X2X2X2X2X2X2X2X2X2X2X2X2X",
"2X2X2X2X2X2X2X2X2X2X2X2X2X2X2X2X2X2X2X-Xo d.J.b.8.XX2X2X2X2X2X2X2X2X2X2X2X2X2X2X2X2X2X2X2X2X2X2X2X2X2X2X2X2X+X].0.$   2X2X2X2X2X2X2X2X2X2X2X2X2X2X2X2X2X2X2X2X2X",
"2X2X2X2X2X2X2X2X2X2X2X2X2X2X2X2X2X2X2X2Xl u =.C.P.D.6.@X2X2X2X2X2X2X2X2X2X2X2X2X2X2X2X2X2X2X2X2X2X2X2X@XW.h.v.F.Y.4 $ +X+X2X2X2X2X2X2X2X2X2X2X2X2X2X2X2X2X2X2X2X",
"2X2X2X2X2X2X2X2X2X2X2X2X2X2X2X2X2X2X2X2X-X7 Q | l.H.P.v.t.1X2X2X2X2X2X2X2X2X2X2X2X2X2X2X2X2X2X2X2X$Xe.j.P.P.P.P.P.< {.+X@X2X2X2X2X2X2X2X2X2X2X2X2X2X2X2X2X2X2X2X",
"2X2X2X2X2X2X2X2X2X2X2X2X2X2X2X2X2X2X2X2X1X#.t K | d.B.P.P.6.(.2X2X2X2X<X%X%X@X+X%X%X>X2X2X2X2X`.8.b.P.I.K.K.H.L.s.b +X+X1X2X2X2X2X2X2X2X2X2X2X2X2X2X2X2X2X2X2X2X",
"2X2X2X2X2X2X2X2X2X2X2X2X2X2X2X2X2X2X2X2X2X<X6 u L | k.S.K.U.J.6.E.t.3.j.j.z.z.k.z.h.j.7./.).4.C.I.L.K.H.K.H.H.B.k +X+X;X2X2X2X2X2X2X2X2X2X2X2X2X2X2X2X2X2X2X2X2X",
"2X2X2X2X2X2X2X2X2X2X2X2X2X2X2X2X2X2X2X2X2X2X X5 K L | i.n.S.H.K.Z.A.L.P.P.P.P.I.U.I.U.I.L.J.I.P.K.L.K.K.H.A.S.g |.+X*X2X2X2X2X2X2X2X2X2X2X2X2X2X2X2X2X2X2X2X2X2X",
"2X2X2X2X2X2X2X2X2X2X2X2X2X2X2X2X2X2X2X2X2X2X2XT.r r K { ,.p.h.z.B.C.C.Z.G.H.K.K.K.K.L.L.L.L.L.L.L.K.H.S.m.m.s .X+X&X2X2X2X2X2X2X2X2X2X2X2X2X2X2X2X2X2X2X2X2X2X2X",
"2X2X2X2X2X2X2X2X2X2X2X2X2X2X2X2X2X2X2X2X2X2X2X2Xx r 9 K } 2.h.x.N.N.B.C.G.A.H.K.K.H.K.L.L.L.L.L.K.K.H.x.d.K (.+X@X2X2X2X2X2X2X2X2X2X2X2X2X2X2X2X2X2X2X2X2X2X2X2X",
"2X2X2X2X2X2X2X2X2X2X2X2X2X2X2X2X2X2X2X2X2X2X2X2X<Xi y r ( 2.p.k.x.x.N.B.C.Z.A.H.K.K.H.K.K.L.K.L.L.K.S.x.y !.+X@X1X2X2X2X2X2X2X2X2X2X2X2X2X2X2X2X2X2X2X2X2X2X2X2X",
"2X2X2X2X2X2X2X2X2X2X2X2X2X2X2X2X2X2X2X2X2X2X2X2X2X;Xa R / -.i.l.l.z.x.x.V.B.Z.G.H.H.K.H.K.L.L.K.K.K.G.] |.@X%X<X2X2X2X2X2X2X2X2X2X2X2X2X2X2X2X2X2X2X2X2X2X2X2X2X",
"2X2X2X2X2X2X2X2X2X2X2X2X2X2X2X2X2X2X2X2X2X2X2X2X2X2X{.u ! ,.2.} u.x.k.x.n.N.B.Z.Z.A.G.K.L.B.V.L.L.K.H.!.+X*X1X2X2X2X2X2X2X2X2X2X2X2X2X2X2X2X2X2X2X2X2X2X2X2X2X2X",
"2X2X2X2X2X2X2X2X2X2X2X2X2X2X2X2X2X2X2X2X2X2X2X2X2X2XT.y { ~ # % l | k.k.x.b.N.B.Z.G.H.K.k.#.& y L.L.H.E.+X<X2X2X2X2X2X2X2X2X2X2X2X2X2X2X2X2X2X2X2X2X2X2X2X2X2X2X",
"2X2X2X2X2X2X2X2X2X2X2X2X2X2X2X2X2X2X2X2X2X2X2X2X2X1Xi s ! +   v ,Xo i.k.k.x.x.N.C.C.K.f.& 3Xc   q I.H.0.#X<X2X2X2X2X2X2X2X2X2X2X2X2X2X2X2X2X2X2X2X2X2X2X2X2X2X2X",
"2X2X2X2X2X2X2X2X2X2X2X2X2X2X2X2X2X2X2X2X2X2X2X2X2X=X5 E r     . .   >.n.l.b.N.B.Z.S.P.,.  % .   o L.I.&.+X-X2X2X2X2X2X2X2X2X2X2X2X2X2X2X2X2X2X2X2X2X2X2X2X2X2X2X",
"2X2X2X2X2X2X2X2X2X2X2X2X2X2X2X2X2X2X2X2X2X2X2X2X2X|.w T { +       < N.N.B.Z.L.L.H.H.L.J.@       5 P.P.l.|.:X2X2X2X2X2X2X2X2X2X2X2X2X2X2X2X2X2X2X2X2X2X2X2X2X2X2X",
"2X2X2X2X2X2X2X2X2X2X2X2X2X2X2X2X2X2X2X2X2X2X2X2X2Xx ! R ,._ # + 1 k.Z.C.G.H.V.C.L.K.K.I.l.< O 1 V.P.K.P.0.+X1X2X2X2X2X2X2X2X2X2X2X2X2X2X2X2X2X2X2X2X2X2X2X2X2X2X",
"2X2X2X2X2X2X2X2X2X2X2X2X2X2X2X2X2X2X2X2X2X2X2X2X-Xy *.*.1.h.a.i.N.B.N.C.G.l.# e P.L.L.J.I.L.C.L.P.P.I.Y.6.+X-X2X2X2X2X2X2X2X2X2X2X2X2X2X2X2X2X2X2X2X2X2X2X2X2X2X",
"2X2X2X2X2X2X2X2X2X2X2X2X2X2X2X2X2X2X2X2X2X2X2X2X Xy J N  .4.i.h.p.2.i.p.p.p._ ,.C.Z.C.H.H.K.P.L.L.M.@.M.v..X&X2X2X2X2X2X2X2X2X2X2X2X2X2X2X2X2X2X2X2X2X2X2X2X2X2X",
"2X2X2X2X2X2X2X2X2X2X2X2X2X2X2X2X2X2X2X2X2X2X2X2X`.1 : m B *.*.=.} ( { } *.-.>.:.2.h.z.x.x.N.B.F.F.H S G g.).@X2X2X2X2X2X2X2X2X2X2X2X2X2X2X2X2X2X2X2X2X2X2X2X2X2X",
"2X2X2X2X2X2X2X2X2X2X2X2X2X2X2X2X2X2X2X2X2X2X2X2X).- ; > m I / ~ ! R u w u ! { ( E ( { >.i.k.z.D.f.Z D S o._.+X<X2X2X2X2X2X2X2X2X2X2X2X2X2X2X2X2X2X2X2X2X2X2X2X2X",
"2X2X2X2X2X2X2X2X2X2X2X2X2X2X2X2X2X2X2X2X2X2X2X2X~.= ; ; > J E R ! ! E u Q } >.2.>.| { >.2.p.h.v.+.C Z A B (.+X;X2X2X2X2X2X2X2X2X2X2X2X2X2X2X2X2X2X2X2X2X2X2X2X2X",
"2X2X2X2X2X2X2X2X2X2X2X2X2X2X2X2X2X2X2X2X2X2X2X2X&X2 * * ; J s T Q ! ! / { } } -.1.2.>.>.2.i.p.c.O.V V V Y |.+X1X2X2X2X2X2X2X2X2X2X2X2X2X2X2X2X2X2X2X2X2X2X2X2X2X",
"2X2X2X2X2X2X2X2X2X2X2X2X2X2X2X2X2X2X2X2X2X2X2X2X2X8.- * , q y y K R Q Q ! ~ ( } =.=.=.>.>.1.2.2.,.B M o.d +X+X2X2X2X2X2X2X2X2X2X2X2X2X2X2X2X2X2X2X2X2X2X2X2X2X2X",
"2X2X2X2X2X2X2X2X2X2X2X2X2X2X2X2X2X2X2X2X2X2X2X2X2X$Xu 9 9 7 7 7 w u T s T Q ! ~ ( { | =.} *.=.| } ( I s ^.+X@X2X2X2X2X2X2X2X2X2X2X2X2X2X2X2X2X2X2X2X2X2X2X2X2X2X",
"2X2X2X2X2X2X2X2X2X2X2X2X2X2X2X2X2X2X2X2X2X2X2X2X2X2X..w e 8 8 8 8 w r r r u R Q Q ! ( ~ ~ ! Q Q L y d x +X+X<X2X2X2X2X2X2X2X2X2X2X2X2X2X2X2X2X2X2X2X2X2X2X2X2X2X",
"2X2X2X2X2X2X2X2X2X2X2X2X2X2X2X2X2X2X2X2X2X2X2X2X2X2Xz R r w r w 8 w w w w w t K u u T R T T y 8 4 T ,.0.+X-X2X2X2X2X2X2X2X2X2X2X2X2X2X2X2X2X2X2X2X2X2X2X2X2X2X2X",
"2X2X2X2X2X2X2X2X2X2X2X2X2X2X2X2X2X2X2X2X2X2X2X2X2X2Xg E ( u 9 w r r w w w w q q w w r r q q 1 r 2.K.J.0.+X;X2X2X2X2X2X2X2X2X2X2X2X2X2X2X2X2X2X2X2X2X2X2X2X2X2X2X",
"2X2X2X2X2X2X2X2X2X2X2X2X2X2X2X2X2X2X2X2X2X2X2X2X2X2Xg y _ h.! 7 8 r r r 8 r w 8 8 7 8 7 q q E N.P.L.H.y.+X-X2X2X2X2X2X2X2X2X2X2X2X2XXXw.2X2X2X2X2X2X2X2X2X2X2X2X",
"2X2X2X2X2X2X2X2X2X2X2X2X2X2X2X2X2X2X2X2X2X2X2X2X2X2Xg y R x.L.>.8 r r r r 0 8 8 r y T Q } 2.G.P.L.K.K.4.@X*X2X2X2X2X2X2X2X2X2X2X[.5.B.,.<X*X2X2X2X2X2X2X2X2X2X2X",
"2X2X2X2X2X2X2X2X2X2X2X2X2X2X2X2X2X2X2X2X2X2X2X2X2X1Xy 7 K i.K.K.Q K *.=.=.=.| =.,.i.k.z.l.k.G.K.K.K.K.` +X*X2X2X2X2X2X2X2X1X[.*.l.B.A.R.#X+X2X2X2X2X2X2X2X2X2X2X",
"2X2X2X2X2X2X2X2X2X2X2X2X2X2X2X2X2X2X2X2X2X2X2X2X2X=Xy 7 8 =.N.P.B.Q } 3.a.k.k.z.x.n.x.x.k.p.Z.K.K.H.V._  X&X2X2X2X2X2X*XW.1.n.B.l.d.k.Q.+X<X2X2X2X2X2X2X2X2X2X2X",
"2X2X2X2X2X2X2X2X2X2X2X2X2X2X2X2X2X2X2X2X2X2X2X2X2XOXy q 9 ( k.K.P.a.Q -.2.a.a.k.h.l.z.l.j.x.H.K.K.B.d.) XX+X2X2X2X&Xt.>.m.B.k.a.d.m.1..X+X<X2X2X2X2X2X2X2X2X2X2X",
"2X2X2X2X2X2X2X2X2X2X2X2X2X2X2X2X2X2X2X2X2X2X2X2X2X'.y w 1 L ,.V.L.L.:.( 1.2.p.a.h.k.x.p.a.H.K.K.G.k.,.2.).+X2XXXe.,.n.n.k.a.d.d.d.A.8.+X+X2X2X2X2X2X2X2X2X2X2X2X",
"2X2X2X2X2X2X2X2X2X2X2X2X2X2X2X2X2X2X2X2X2X2X2X2X2XoX8 y 7 q ( i.C.P.B./ =.2.2.i.a.a.a.2.B.H.G.C.B.=.{ F.q.`.8.i.m.x.d.a.d.d.l.l.l.Z.9.+X*X2X2X2X2X2X2X2X2X2X2X2X",
"2X2X2X2X2X2X2X2X2X2X2X2X2X2X2X2X2X2X2X2X2X2X2X2X2XoX4 8 w 4 r { a.G.P.2.} >.2.i.p.h.>.p.H.G.N.z.,.R 2.G.8.2.S.x.d.a.d.k.l.l.n.m.K.x.|.+X<X2X2X2X2X2X2X2X2X2X2X2X",
"2X2X2X2X2X2X2X2X2X2X2X2X2X2X2X2X2X2X2X2X2X2X2X2X2X_.9 5 7 8 9 y =.a.K.C.} -.2.2.a.2.| k.B.B.z.>.! ,.N.K.;.X.S.k.d.d.n.Z.Z.Z.l.k.3.9.+X+X1X2X2X2X2X2X2X2X2X2X2X2X",
"2X2X2X2X2X2X2X2X2X2X2X2X2X2X2X2X2X2X2X2X2X2X2X2X2X0.8 9 7 y 8 4 u =.l.B.>.*.2.2.p.=.*.h.k.z.*.( x.B.C.K.p..X*.S.d.n.a.-.w.9.Q.|.+X@X@X-X2X2X2X2X2X2X2X2X2X2X2X2X",
"2X2X2X2X2X2X2X2X2X2X2X2X2X2X2X2X2X2X2X2X2X2X2X2X2Xd w u u T L 8 4 K :.2.>.=.,.2.k._ R :.2._ { x.G.C.G.L.N.E.}.k.n.B.-.+X@X*X*X-X1X2X2X2X2X2X2X2X2X2X2X2X2X2X2X2X",
"2X2X2X2X2X2X2X2X2X2X2X2X2X2X2X2X2X2X2X2X2X2X2X2X_.y u R Q Q ~ ~ r 4 T { =.>.2.2.h.>.8 u T _ C.H.C.H.K.K.J.t.%X^.m.m.N.Q.@X1X2X2X2X2X2X2X2X2X2X2X2X2X2X2X2X2X2X2X",
"2X2X2X2X2X2X2X2X2X2X2X2X2X2X2X2X2X2X2X2X2X2X2X|.P y E ! { ( _ | | u t =.>.>.3.i.a.l.} u =.N.G.G.H.H.K.K.I.' R...s.l.H.8.@X1X2X2X2X2X2X2X2X2X2X2X2X2X2X2X2X2X2X2X",
"2X2X2X2X2X2X2X2X2X2X2X2X2X2X2X2X2X2X2X2X2X2X2XX.J y E ( | =.*.=.=.=.} =.-.,.2.i.a.d.x.k.N.N.V.A.H.K.K.H.I./ B.K.B.N.H.x..X:X2X2X2X2X2X2X2X2X2X2X2X2X2X2X2X2X2X2X",
"2X2X2X2X2X2X2X2X2X2X2X2X2X2X2X2X2X2X2X2X2X2X2XU P r Q { *.-.>.>.,.:.*.-.:.>.2.i.a.a.k.x.x.N.B.G.K.K.K.K.L.*.B.k.p.i.3.;.{.+X2X2X2X2X2X2X2X2X2X2X2X2X2X2X2X2X2X2X",
"2X2X2X2X2X2X2X2X2X2X2X2X2X2X2X2X2X2X2X2X2X2X2XU P q L ( -.,.>.,.2.,.-.-.-.-.,.2.i.a.k.z.x.x.V.C.H.H.H.H.L.1.R. X.X+X@X@X@X*X1X2X2X2X2X2X2X2X2X2X2X2X2X2X2X2X2X2X",
"2X2X2X2X2X2X2X2X2X2X2X2X2X2X2X2X2X2X2X2X2X2X2X`.8 q T ( =.-.:.,.,.,.1.=.=.=.-.,.2.i.a.a.a.k.n.N.B.Z.G.G.K.<.+X@X<X1X2X2X2X2X2X2X2X2X2X2X2X2X2X2X2X2X2X2X2X2X2X2X",
"2X2X2X2X2X2X2X2X2X2X2X2X2X2X2X2X2X2X2X2X2X2X2X:X7 8 T ! { -.=.-.*.=.} ( { { { } *.>.>.1.2.p.k.l.b.V.C.B.G.-..X&X2X2X2X2X2X2X2X2X2X2X2X2X2X2X2X2X2X2X2X2X2X2X2X2X",
"2X2X2X2X2X2X2X2X2X2X2X2X2X2X2X2X2X2X2X2X2X2X2X=X5 q r R _ { *.=.} { ( ~ ! ! ! ~ ~ { { =.-.2.i.p.k.x.m.n.V.*..X&X2X2X2X2X2X2X2X2X2X2X2X2X2X2X2X2X2X2X2X2X2X2X2X2X",
"2X2X2X2X2X2X2X2X2X2X2X2X2X2X2X2X2X2X2X2X2X2X2X>Xq 4 8 K Q ~ ( [ ~ ~ Q R L K T T Q Q Q ! { ( *.>.i.a.k.z.N.) +X&X2X2X2X2X2X2X2X2X2X2X2X2X2X2X2X2X2X2X2X2X2X2X2X2X",
"2X2X2X2X2X2X2X2X2X2X2X2X2X2X2X2X2X2X2X2X2X2X2X<Xe 7 4 w L ! ! Q L K t r t r r w t t t t u K Q ( =.2.p.p.z.' +X@X2X2X2X2X2X2X2X2X2X2X2X2X2X2X2X2X2X2X2X2X2X2X2X2X",
"2X2X2X2X2X2X2X2X2X2X2X2X2X2X2X2X2X2X2X2X2X2X2X1Xi r 9 r y T T L y w w 8 8 8 8 q q 8 7 w w r R Q ( =.1.1.i...#X*X2X2X2X2X2X2X2X2X2X2X2X2X2X2X2X2X2X2X2X2X2X2X2X2X",
"2X2X2X2X2X2X2X2X2X2X2X2X2X2X2X2X2X2X2X2X2X2X2X2X{.e w w r y y r r q w w w w w w w w w r r r u u Q / { >.~ !.+X-X2X2X2X2X2X2X2X2X2X2X2X2X2X2X2X2X2X2X2X2X2X2X2X2X",
"2X2X2X2X2X2X2X2X2X2X2X2X2X2X2X2X2X2X2X2X2X2X2X2X2Xk u r q w w r 8 y y K K y u y y u u u y w q w r L ~ ! k +X+X<X2X2X2X2X2X2X2X2X2X2X2X2X2X2X2X2X2X2X2X2X2X2X2X2X",
"2X2X2X2X2X2X2X2X2X2X2X2X2X2X2X2X2X2X2X2X2X2X2X2X2X2XT.7 q 7 7 q w 7 q w e p p f f i e 8 8 y r w r r 8 z +X.X-X2X2X2X2X2X2X2X2X2X2X2X2X2X2X2X2X2X2X2X2X2X2X2X2X2X",
"2X2X2X2X2X2X2X2X2X2X2X2X2X2X2X2X2X2X2X2X2X2X2X2X2X2X{.-./ L E / p ^.{.{.+X+X@X*X&X@X|.|.!.i R u y } ) {.+X<X2X2X2X2X2X2X2X2X2X2X2X2X2X2X2X2X2X2X2X2X2X2X2X2X2X2X",
"2X2X2X2X2X2X2X2X2X2X2X2X2X2X2X2X2X2X2X2X2X2X2X2X-X6.J.U.P.a._ '  X+X@X<X1X2X2X2X2X2X2X2X1X&Xa 1 y x.P.G.8.<X1X2X2X2X2X2X2X2X2X2X2X2X2X2X2X2X2X2X2X2X2X2X2X2X2X2X",
"2X2X2X2X2X2X2X2X2X2X2X2X2X2X2X2X2X2X2X2X2X2X2X2X.XW <.<...Q. X+X@X*X2X2X2X2X2X2X2X2X2X2X2X2X2X.X$.j ` 1.) (.*X1X2X2X2X2X2X2X2X2X2X2X2X2X2X2X2X2X2X2X2X2X2X2X2X2X",
"2X2X2X2X2X2X2X2X2X2X2X2X2X2X2X2X2X2X2X2X2X2X2X2X2X2X1X@X@X@X-X<X2X2X2X2X2X2X2X2X2X2X2X2X2X2X2X2X2X1X<X*X*X*X@X1X2X2X2X2X2X2X2X2X2X2X2X2X2X2X2X2X2X2X2X2X2X2X2X2X",
"2X2X2X2X2X2X2X2X2X2X2X2X2X2X2X2X2X2X2X2X2X2X2X2X2X2X2X2X2X2X2X2X2X2X2X2X2X2X2X2X2X2X2X2X2X2X2X2X2X2X2X2X2X2X2X2X2X2X2X2X2X2X2X2X2X2X2X2X2X2X2X2X2X2X2X2X2X2X2X2X",
"2X2X2X2X2X2X2X2X2X2X2X2X2X2X2X2X2X2X2X2X2X2X2X2X2X2X2X2X2X2X2X2X2X2X2X2X2X2X2X2X2X2X2X2X2X2X2X2X2X2X2X2X2X2X2X2X2X2X2X2X2X2X2X2X2X2X2X2X2X2X2X2X2X2X2X2X2X2X2X2X",
"2X2X2X2X2X2X2X2X2X2X2X2X2X2X2X2X2X2X2X2X2X2X2X2X2X2X2X2X2X2X2X2X2X2X2X2X2X2X2X2X2X2X2X2X2X2X2X2X2X2X2X2X2X2X2X2X2X2X2X2X2X2X2X2X2X2X2X2X2X2X2X2X2X2X2X2X2X2X2X2X",
"2X2X2X2X2X2X2X2X2X2X2X2X2X2X2X2X2X2X2X2X2X2X2X2X2X2X2X2X2X2X2X2X2X2X2X2X2X2X2X2X2X2X2X2X2X2X2X2X2X2X2X2X2X2X2X2X2X2X2X2X2X2X2X2X2X2X2X2X2X2X2X2X2X2X2X2X2X2X2X2X",
"2X2X2X2X2X2X2X2X2X2X2X2X2X2X2X2X2X2X2X2X2X2X2X2X2X2X2X2X2X2X2X2X2X2X2X2X2X2X2X2X2X2X2X2X2X2X2X2X2X2X2X2X2X2X2X2X2X2X2X2X2X2X2X2X2X2X2X2X2X2X2X2X2X2X2X2X2X2X2X2X",
"2X2X2X2X2X2X2X2X2X2X2X2X2X2X2X2X2X2X2X2X2X2X2X2X2X2X2X2X2X2X2X2X2X2X2X2X2X2X2X2X2X2X2X2X2X2X2X2X2X2X2X2X2X2X2X2X2X2X2X2X2X2X2X2X2X2X2X2X2X2X2X2X2X2X2X2X2X2X2X2X",
"2X2X2X2X2X2X2X2X2X2X2X2X2X2X2X2X2X2X2X2X2X2X2X2X2X2X2X2X2X2X2X2X2X2X2X2X2X2X2X2X2X2X2X2X2X2X2X2X2X2X2X2X2X2X2X2X2X2X2X2X2X2X2X2X2X2X2X2X2X2X2X2X2X2X2X2X2X2X2X2X",
"2X2X2X2X2X2X2X2X2X2X2X2X2X2X2X2X2X2X2X2X2X2X2X2X2X2X2X2X2X2X2X2X2X2X2X2X2X2X2X2X2X2X2X2X2X2X2X2X2X2X2X2X2X2X2X2X2X2X2X2X2X2X2X2X2X2X2X2X2X2X2X2X2X2X2X2X2X2X2X2X",
"2X2X2X2X2X2X2X2X2X2X2X2X2X2X2X2X2X2X2X2X2X2X2X2X2X2X2X2X2X2X2X2X2X2X2X2X2X2X2X2X2X2X2X2X2X2X2X2X2X2X2X2X2X2X2X2X2X2X2X2X2X2X2X2X2X2X2X2X2X2X2X2X2X2X2X2X2X2X2X2X"
};
