/* XPM */
static char *_3bac90d3ae241e6edb7554a43044b72AGdf1itjc7fqwQFO[] = {
/* columns rows colors chars-per-pixel */
"80 80 220 2 ",
"   c #020201",
".  c #0B0403",
"X  c #070806",
"o  c #0B0C0D",
"O  c #06050A",
"+  c #1F0004",
"@  c #130000",
"#  c #0F1119",
"$  c #230005",
"%  c #2B0003",
"&  c #2C0009",
"*  c #330403",
"=  c #390D03",
"-  c #3A010B",
";  c #360708",
":  c #221C0E",
">  c #3D1309",
",  c #391203",
"<  c #3A0713",
"1  c #322900",
"2  c #3F3501",
"3  c #272818",
"4  c #302A16",
"5  c #300032",
"6  c #3E3F29",
"7  c #2E2E2A",
"8  c #42040B",
"9  c #44120C",
"0  c #461905",
"q  c #531C09",
"w  c #581B0A",
"e  c #48091A",
"r  c #461419",
"t  c #5A171B",
"y  c #571B12",
"u  c #572509",
"i  c #592812",
"p  c #663409",
"a  c #743D0A",
"s  c #7D310D",
"d  c #612013",
"f  c #6F3512",
"g  c #733F14",
"h  c #6F2B0A",
"j  c #4E1529",
"k  c #4C1526",
"l  c #561B2A",
"z  c #5B1623",
"x  c #5A243A",
"c  c #552123",
"v  c #6D3A31",
"b  c #544408",
"n  c #6E4307",
"m  c #715B0F",
"M  c #7C4415",
"N  c #705307",
"B  c #4E503C",
"V  c #5C5D47",
"C  c #6A6F4C",
"Z  c #737659",
"A  c #727547",
"S  c #813B0D",
"D  c #844907",
"F  c #944C09",
"G  c #8C5508",
"H  c #9A5C01",
"J  c #935B05",
"K  c #894915",
"L  c #935C1B",
"P  c #8A511D",
"I  c #9C6402",
"U  c #9E6C00",
"Y  c #966406",
"T  c #8C7610",
"R  c #A36907",
"E  c #BC6C00",
"W  c #A87505",
"Q  c #B47B01",
"!  c #B67600",
"~  c #C07B00",
"^  c #AB8100",
"/  c #A98D00",
"(  c #B38300",
")  c #BA8504",
"_  c #BA9200",
"`  c #BC931C",
"'  c #B1992F",
"]  c #B29D34",
"[  c #A79235",
"{  c #C48B00",
"}  c #CA8D00",
"|  c #C98500",
" . c #D48B00",
".. c #C49300",
"X. c #CB9300",
"o. c #C69900",
"O. c #CB9C00",
"+. c #D49400",
"@. c #D39D00",
"#. c #DD9D00",
"$. c #D99200",
"%. c #E89C00",
"&. c #CEA200",
"*. c #C8AC01",
"=. c #D3A400",
"-. c #DBA400",
";. c #D5AB00",
":. c #DCAC00",
">. c #D5B300",
",. c #DDB300",
"<. c #D5BB02",
"1. c #DCBB00",
"2. c #D5B80C",
"3. c #CCA41C",
"4. c #D6AF1F",
"5. c #D9BA17",
"6. c #E2A400",
"7. c #E2AD00",
"8. c #E9A400",
"9. c #E3B400",
"0. c #E8B400",
"q. c #E5BA00",
"w. c #EABB00",
"e. c #F2BD00",
"r. c #F0B100",
"t. c #E2BE13",
"y. c #C59E28",
"u. c #CCB62C",
"i. c #C9B436",
"p. c #D6BA33",
"a. c #D9BE26",
"s. c #D5C200",
"d. c #DCC300",
"f. c #DAC618",
"g. c #E5C200",
"h. c #ECC300",
"j. c #EECA00",
"k. c #F2C300",
"l. c #F4CA00",
"z. c #FACC00",
"x. c #FAC100",
"c. c #F3D300",
"v. c #FCD600",
"b. c #D8C627",
"n. c #DBC235",
"m. c #DBC63A",
"M. c #92894C",
"N. c #938645",
"B. c #898954",
"V. c #90945C",
"C. c #918C5B",
"Z. c #AC9F52",
"A. c #AB9A46",
"S. c #ABAA44",
"D. c #989E70",
"F. c #85866E",
"G. c #A19D6E",
"H. c #A6AE6D",
"J. c #AEB272",
"K. c #B1B17C",
"L. c #AFAB6D",
"P. c #CDBA44",
"I. c #D2BD48",
"U. c #C4AF5C",
"Y. c #CCBA5F",
"T. c #D2BF79",
"R. c #C9BA72",
"E. c #BCC473",
"W. c #BEC779",
"Q. c #DBCE4E",
"!. c #D7C548",
"~. c #D9D240",
"^. c #C8C359",
"/. c #DCCF53",
"(. c #D6C856",
"). c #D9D353",
"_. c #D8D45A",
"`. c #E0CE47",
"'. c #CEC664",
"]. c #C5C56A",
"[. c #CBC96E",
"{. c #C9C465",
"}. c #D1C86F",
"|. c #DDD465",
" X c #D9DC6C",
".X c #D5D569",
"XX c #C1C976",
"oX c #CBCA74",
"OX c #C1C579",
"+X c #C3CB7B",
"@X c #C3C671",
"#X c #D0C871",
"$X c #CBD37C",
"%X c #CED87E",
"&X c #DADB73",
"*X c #D0D97F",
"=X c #DADD7A",
"-X c #D8D677",
";X c #DBE17B",
":X c #BEC48C",
">X c #BFC780",
",X c #C3CA84",
"<X c #C5CB8B",
"1X c #CACD8C",
"2X c #CECE82",
"3X c #CFD18A",
"4X c #D1DB80",
"5X c #D3DD81",
"6X c #DBDD81",
"7X c #D7DA8A",
"8X c #C7D194",
"9X c #CDD497",
"0X c #D2C986",
"qX c #D7E084",
"wX c #DCE687",
"eX c #DCE485",
"rX c #DCE687",
"tX c #DCE589",
"yX c #DEE392",
"uX c #DDE59A",
/* pixels */
"wXwXwXwXwXwXwXwXwXwXwXwXwXwXwXwXwXwXwXwXwXwXwXwXwXwXwXwXwXwXwXwXwXwXwXwXwXwXwXwXwXwXwXwXwXwXwXwXwXwXwXwXwXwXwXwXwXwXwXwXwXwXwXwXwXwXwXwXwXwXwXwXwXwXwXwXwXwXwXwX",
"wXwXwXwXwXwXwXwXwXwXwXwXwXwXwXwXwXwXwXwXwXwXwXwXwXwXwXwXwXwXwXwXwXwXwXwXwXwXwXwXwXwXwXwXwXwXwXwXwXwXwXwXwXwXwXwXwXwXwXwXwXwXwXwXwXwXwXwXwXwXwXwXwXwXwXwXwXwXwXwX",
"wXwXwXwXwXwXwXwXwXwXwXwXwXwXwXwXwXwXwXwXwXwXwXwXwXwXwXwXwXwXwXwXwXwXwXwXwXwXwXwXwXwXwXwXwXwXwXwXwXwXwXwXwXwXwXwXwXwXwXwXwXwXwXwXwXwXwXwXwXwXwXwXwXwXwXwXwXwXwXwX",
"wXwXwXwXwXwXwXwXwXwXwXwXwXwXwXwXwXwXwXwXwXwXwXwXwXwXwXwXwXwXwXwXwXwXwXwXwXwXwXwXwXwXwXwXwXwXwXwXwXwXwXwXwXwXwXwXwXwXwXwXwXwXwXwXwXwXwXwXwXwXwXwXwXwXwXwXwXwXwXwX",
"wXwXwXwXwXwXwXwXwXwXwXwXwXwXwXwXwXwXwXwXwXwXwXwXwXwXwXwXwXwXwXwXwXwXwXwXwXwXwXwXwXwXwXwXwXwXwXwXwXwXwXwXwXwXwXwXwXwXwXwXwXwXwXwXwXwXwXwXwXwXwXwXwXwXwXwXwXwXwXwX",
"wXwXwXwXwXwXwXwXwXwXwXwXwXwXwXwXwXwXwXwXwXwXwXwXwXwXwXwXwXwXwXwXwXwXwXwXwXwXwXwXwXwXwXwXwXwXwXwXwXwXwXwXwXwXwXwXwXwXwXwXwXwXwXwXwXwXwXwXwXwXwXwXwXwXwXwXwXwXwXwX",
"wXwXwXwXwXwXwXwXwXwXwXwXwXwXwXwXwXwXwXwXwXwXwXwXwXwXwXwXwXwXwXwXwXwXwXwXwXwXwXwXwXwXwXwXwXwXwXwXwXwXwXwXwXwXwXwXwXwXwXwXwXwXwXwXwXwXwXwXwXwXwXwXwXwXwXwXwXwXwXwX",
"wXwXwXwXwXwXwXwXwXwXwXwXwXwXwXwXwXwXwXwXwXwXwXwXwXwXwXwXwXqX4 6 qXwXwXwXwXwXwXwXwXwXwXwXwXwXwXwXwXwXwXwXwXwXwXwXwXwXwXwXwXwXwXwXwXwXwXwXwXwXwXwXwXwXwXwXwXwXwXwX",
"wXwXwXwXwXwXwXwXwXwXwXwXwXwXwXwXwXwXwXwXwXwXwXwXwXwXwXwXtXC     3 E.eXrXwXwXwXwXwXwXwXwXwXwXwXwXwXwXwXwXwXwXwXwXwXwXwXwXwXwXwXwXwXwXwXwXwXwXwXwXwXwXwXwXwXwXwXwX",
"wXwXwXwXwXwXwXwXwXwXwXwXwXwXwXwXwXwXwXwXwXwXwXwXwXwXwXwXqX        6 +XqXwXwXwXwXwXwXwXwXwXwXwXwXwXwXwXwXwXwXwXwXwXwXwXwXwXwXwXwXwXwXwXwXwXwXwXwXwXwXwXwXwXwXwXwX",
"wXwXwXwXwXwXwXwXwXwXwXwXwXwXwXwXwXwXwXwXwXwXwXwXwXwXwXwXH.    X     J.W.wXwXwXwXwXwXwXwXwXwXwXwXwXwXwXwXwXwXwXwXwXwXwXwXwXwXwXwXwXwXwXwXwXwXwXwXwXwXwXwXwXwXwXwX",
"wXwXwXwXwXwXwXwXwXwXwXwXwXwXwXwXwXwXwXwXwXwXwXwXwXwXwXwXZ   X X     S.E.4XwXwXwXwXwXwXwXwXwXwXwXwXwXwXwXwXwXwXwXwXwXwXwXwXwXwXwXwXwXwXwXwXwXwXwXwXwXwXwXwXwXwXwX",
"wXwXwXwXwXwXwXwXwXwXwXwXwXwXwXwXwXwXwXwXwXwXwXwXwXwXwXwXV   .     b g.W.XXwXwXwXwXwXwXwXwXwXwXwXwXwXwXwXwXwXwXwXwXwXwXwXwXwXwXwXwXwXwXwXwXwXwXwXwXwXwXwXwXwXwXwX",
"wXwXwXwXwXwXwXwXwXwXwXwXwXwXwXwXwXwXwXwXwXwXwXwXwXwXwXwXB       4 9.e.].E.eXwXwXwXwXwXwXwXwXwXwXwXwXwXwXwXwXwXwXwXwXwXtXwXwXwXwXwXwXwXwXwXwXwXwXwXwXwXwXwXwXwXwX",
"wXwXwXwXwXwXwXwXwXwXwXwXwXwXwXwXwXwXwXwXwXwXwXwXwXwXwXwXA O : m >.k.:.^.E.%XeXwXwXwXwXwXwXwXwXwXwXwXwXwXeXwXwXqX;X_.[.V.C A B.H.%XwXwXwXwXwXwXwXwXwXwXwXwXwXwXwX",
"wXwXwXwXwXwXwXwXwXwXwXwXwXwXwXwXwXwXwXwXwXwXwXwXwXwXwXtXm._ &.e.9.,.9.P.E.$XwXwXwXwXwXwXwXwXwXwXwXwXwXwX&X/.b.1.1.g./ o # o X X o B $XwXwXwXwXwXwXwXwXwXwXwXwXwX",
"wXwXwXwXwXwXwXwXwXwXwXwXwXwXwXwXwXwXwXwXwXwXwXwXwXwXwXwX`.w.0.-.:.9.,.I.E.$XwXwXwXwXwXwXtXeXwXeXwX&XQ.<.,.7.9.9.,.j.T O O X   X     D.$XqXeXwXwXwXwXwXwXwXwXwXwX",
"wXwXwXwXwXwXwXwXwXwXwXwXwXwXwXwXwXwXwXwXwXwXwXwXwXwXwXwX-X:.7.:.>.,.7.(.E.oX|.)././.)..X&X;XeX=Xb.:.:.,.9.0.,.7.,.g.m             7 >XE.$XeXwXwXwXwXwXwXwXwXwXwX",
"wXwXwXwXwXwXwXwXwXwXwXwXwXwXwXwXwXwXwXwXwXwXwXwXwXwXwXwXtX;.7.,.:.9.9.1.p.9.9.0.w.q.q.9.q.q.5.9.6.8.9.7.:.,.:.:.:.q.b   .       F.W.E.E.qXwXwXwXwXwXwXwXwXwXwXwX",
"wXwXwXwXwXwXwXwXwXwXwXwXwXwXwXwXwXwXwXwXwXwXwXwXwXwXwXwXtX5.6.,.7.0.9.:.7.7.7.7.:.9.9.q.9.9.q.q.9.#.=.:.:.-.:.:.:.:.2       Z :XE.E.$XqXtXtXwXwXwXwXwXwXwXwXwXwX",
"wXwXwXwXwXwXwXwXwXwXwXwXwXwXwXwXwXwXwXwXwXwXwXwXwXwXwXwXtX6X:.8.7.7.7.6.7.:.7.:.:.,.9.,.,.9.9.,.q.:.+.#.%.=.-.=.@.X.1 # F.:XE.E.XX5XwXwXwXwXwXwXwXwXwXwXwXwXwXwX",
"wXwXwXwXwXwXwXwXwXwXwXwXwXwXwXwXwXwXwXwXwXwXwXwXwXwXwXwXtXtXn.%.6.6.#.8.8.,.:.9.9.,.9.9.9.9.0.9.0.w.6. . .$.@.&.u.[.:X,XE.E.+X%XwXwXwXwXwXwXwXwXwXwXwXwXwXwXwXwX",
"wXwXwXwXwXwXwXwXwXwXwXwXwXwXwXwXwXwXwXwXwXwXwXwXwXwXwXwXwXwXm.6.7.6.7.0.,.9.9.,.9.,.7.9.9.q.q.9.q.q.:.3.T.0X1X<XOXE.E.W.%XqXeXeXwXwXwXwXwXwXwXwXwXwXwXwXwXwXwXwX",
"wXwXwXwXwXwXwXwXwXwXwXwXwXwXwXwXwXwXwXwXwXwXwXwXwXwXwXwXwXqX>.q.q.q.q.q.q.q.q.q.9.0.9.9.9.9.q.0.q.q.:.I.E.E.+X$X%X5XeXtXeXwXwXtXwXwXwXwXwXwXwXwXwXwXwXwXwXwXwXwX",
"wXwXwXwXwXwXwXwXwXwXwXwXwXwXwXwXwXwXwXwXwXwXwXwXwXwXwXwXwXQ.1.q.q.q.q.q.q.q.q.q.q.0.q.9.9.q.q.q.q.9.9.>.W.XXtXeXtXwXwXwXwXwXwXwXwXwXwXwXwXwXwXwXwXwXwXwXwXwXwXwX",
"wXwXwXwXwXwXwXwXwXwXwXwXwXwXwXwXwXwXwXwXwXwXwXwXwXwXwXwXwX5.0.q.q.q.w.q.w.q.q.q.9.q.9.q.q.q.q.q.q.q.q.;.[.W.qXeXwXwXwXwXwXwXwXwXwXwXwXwXwXwXwXwXwXwXwXwXwXwXwXwX",
"wXwXwXwXwXwXwXwXwXwXwXwXwXwXwXwXwXwXwXwXwXwXwXwXwXwXwXwXwX9.9.q.q.q.w.q.q.9.q.9.q.9.1.9.9.9.q.q.q.q.9.:.}.E.%XeXwXwXwXwXwXwXwXwXwXwXwXwXwXwXwXwXwXwXwXwXwXwXwXwX",
"wXwXwXwXwXwXwXwXwXwXwXwXwXwXwXwXwXwXwXwXwXwXwXwXwXwXwXwXwX>.9.q.q.q.q.q.q.q.q.q.0.q.9.q.q.1.q.9.q.9.q.,.[.E.$XwXwXwXwXwXwXwXwXwXwXwXwXwXwXwXwXwXwXwXwXwXwXwXwXwX",
"wXwXwXwXwXwXwXwXwXwXwXwXwXwXwXwXwXwXwXwXwXwXwXwXwXwXwXwX&X:.q.,.q.9.9.q.q.q.9.q.q.0.q.q.,.q.q.1.9.q.q.:.oXE.$XwXwXwXwXwXwXwXwXwXwXwXwXwXwXwXwXwXwXwXwXwXwXwXwXwX",
"wXwXwXwXwXwXwXwXwXwXwXwXwXwXwXwXwXwXwXwXwXwXwXwXwXwXwXwXQ.:.0.q.9.q.9.q.9.q.9.9.9.9.0.9.q.q.9.9.q.0.q.:.oXE.$XwXwXwXwXwXwXwXwXwXwXwXwXwXwXwXwXwXwXwXwXwXwXwXwXwX",
"wXwXwXwXwXwXwXwXwXwXwXwXwXwXwXwXwXwXwXwXwXwXwXwXwXwXwXtX<.9.0.9.q.9.9.q.9.9.9.9.q.9.9.9.9.9.0.q.q.0.q.>.{.E.%XwXwXwXwXwXwXwXwXwXwXwXwXwXwXwXwXwXwXwXwXwXwXwXwXwX",
"wXwXwXwXwXwXwXwXwXwXwXwXwXwXwXwXwXwXwXwXwXwXwXwXwXwXwXeX:.9.0.0.q.9.9.0.q.q.q.9.9.9.9.9.9.9.0.q.9.q.0.,.^.E.%XwXwXwXwXwXwXwXwXwXwXwXwXwXwXwXwXwXwXwXwXwXwXwXwXwX",
"wXwXwXwXwXwXwXwXwXwXwXwXwXwXwXwXwXwXwXwXwXwXwXwXwXtXtX|.:.q.0.9.q.0.0.7.0.0.0.9.9.9.7.0.0.9.9.q.q.q.0.,.{.E.%XwXwXwXwXwXwXwXwXwXwXwXwXwXwXwXwXwXwXwXwXwXwXwXwXwX",
"wXwXwXwXwXwXwXwXwXwXwXwXwXwXwXwXwXwXwXwXwXwXwXwXwXtXtX!.9.9.9.9.0.0.0.9.9.7.7.9.7.9.9.7.7.9.9.,.0.9.q.,.^.E.%XwXwXwXwXwXwXwXwXwXwXwXwXwXwXwXwXwXwXwXwXwXwXwXwXwX",
"wXwXwXwXwXwXwXwXwXwXwXwXwXwXwXwXwXwXwXwXwXwXwXwXwXwXrXp.9.0.0.9.9.0.7.9.9.9.7.9.0.7.7.9.9.9.9.9.q.0.0.:.].E.%XwXwXwXwXwXwXwXwXwXwXwXwXwXwXwXwXwXwXwXwXwXwXwXwXwX",
"wXwXwXwXwXwXwXwXwXwXwXwXwXwXwXwXwXwXwXwXwXwXwXwXwXwXeX_.:.0.9.9.9.9.9.9.7.9.7.7.9.7.:.7.7.9.9.9.0.q.q.,.@XE.4XwXwXwXwXwXwXwXwXwXwXwXwXwXwXwXwXwXwXwXwXwXwXwXwXwX",
"wXwXwXwXwXwXwXwXwXwXwXwXwXwXwXwXwXwXwXwXwXwXwXwXwXwXwXyX:.0.9.,.,.9.0.7.7.7.7.:.7.:.9.7.9.,.9.9.9.9.0.-.XXE.4XwXwXwXwXwXwXwXwXwXwXwXwXwXwXwXwXwXwXwXwXwXwXwXwXwX",
"wXwXwXwXwXwXwXwXwXwXwXwXwXwXwXwXwX;XwXwXwXwXwXwXwXwXwXwX!.:.q.9.9.9.7.7.7.7.7.9.7.7.7.0.0.9.9.9.9.9.0.:.<XE.4XtXwXwXwXwXwXwXwXwXwXwXwXwXwXwXwXwXwXwXwXwXwXwXwXwX",
"wXwXwXwXwXwXwXwXwXwXwXwXwXwX).f.d.d.d.g.d.f.b.m._. X;XwXyX2.7.9.9.:.7.:.6.:.-.:.:.:.:.:.:.-.:.:.:.:.:.;.XXW.4XtXwXwXwXwXwXwXwXwXwXwXwXwXwXwXwXwXwXwXwXwXwXwXwXwX",
"wXwXwXwXwXwXwXwXwXwXwXwXwXb.q.w.g.w.g.g.g.g.g.g.g.q.1.s./.p.:.:.6.:.6.6.-.6.-.-.-.-.-.:.:.-.-.:.:.,.-.=.*.i..XtXwXwXwXwXwXwXwXwXwXwXwXwXwXwXwXwXwXwXwXwXwXwXwXwX",
"wXwXwXwXwXwXwXwXwXwXwXwX X1.w.q.w.q.q.q.q.w.g.q.w.w.w.q.q.g.g.q.9.9.9.7.7.7.8.:.:.7.9.7.7.q.0.q.9.9.9.:.-.-.:.>.5._.qXwXwXwXwXwXwXwXwXwXwXwXwXwXwXwXwXwXwXwXwXwX",
"wXwXwXwXwXwXwXwXwXwXwXwX`.9.q.g.q.q.g.q.w.q.q.q.g.q.q.w.g.g.g.g.g.1.q.9.,.9.9.:.9.9.,.,.9.9.9.q.q.9.9.,.:.:.7.7.7.,.:.b.).;XwXwXwXwXwXwXwXwXwXwXwXwXwXwXwXwXwXwX",
"wXwXwXwXwXwXwXwXwXwXwXwXtX>.w.w.g.q.g.q.w.q.q.g.q.q.g.q.q.q.q.q.q.d.q.q.,.7.:.9.9.:.9.9.9.q.9.0.0.9.q.9.,.9.7.9.9.,.0.0.0.,.b..XeXwXrXrXwXwXwXwXwXwXwXwXwXwXwXwX",
"wXwXwXwXwXwXwXwXwXwXwXwXtX-X1.q.w.q.q.w.q.q.q.w.q.w.q.w.q.q.q.q.q.q.q.g.g.0.:.:.:.7.9.,.9.q.9.q.9.q.0.9.,.9.0.9.0.q.1.q.q.q.0.q.1.!.=XrXwXwXwXwXwXwXwXwXwXwXwXwX",
"wXwXwXwXwXwXwXwXwXwXwXwXtXtXf.q.w.q.q.q.q.q.q.q.q.w.g.q.q.q.q.q.q.q.q.q.g.,.:.:.:.:.,.,.9.9.9.q.q.9.q.9.,.9.9.9.9.9.q.q.q.q.q.q.w.q.s.$XqXwXwXwXwXwXwXwXwXwXwXwX",
"wXwXwXwXwXwXwXwXwXwXwXwXwXqX1.q.q.q.g.w.g.w.w.q.q.q.q.q.q.q.q.q.q.q.,.,.j.w.0.w.q.0.9.,.,.,.9.0.0.q.9.9.9.7.7.9.,.9.0.9.q.q.q.w.0.>.$XE.E.wXwXwXwXwXwXwXwXwXwXwX",
"wXwXwXwXwXwXwXwXwXwXwXwXtXs.w.q.q.g.q.g.q.q.q.q.q.q.q.q.q.9.q.q.q.,.,.j...J H H R Q X.-.0.w.w.q.,.0.q.9.7.:.7.,.,.9.9.9.9.9.7.;.<.$XE.E.$XeXwXwXwXwXwXwXwXwXwXwX",
"wXwXwXwXwXwXwXwXwXwXwXwXqXq.w.q.g.q.q.w.g.q.w.g.g.q.q.w.q.q.q.q.q.9.q.g.y $ % $ & 8 i f G Q @.e.w.,.q.9.:.-.:.6.6.-.-.-.@.:.5.oX<XE.E.+XqXeXwXwXwXwXwXwXwXwXwXwX",
"wXwXwXwXwXwXwXwXwXwXwXwXyXs.q.g.w.w.w.0.q.w.0.9.0.9.9.9.0.q.q.q.q.q.c.W & * & % & = < r l x v L =.w.0.q.:.-.@.-.4.p.I.#X2X1X<XE.E.$X4XtXwXwXwXwXwXwXwXwXwXwXwXwX",
"wXwXwXwXwXwXwXwXwXwXwXwXwXyXd.1.>.9.>.1.1.1.d.f.f.b.f.1.s.1.q.q.q.q.h.u @ % $ + % & < k l x x 5 G l.9.9.9.-.u.8X<XW.W.E.W.+X$X%XqXwXeXeXwXwXwXwXwXwXwXwXwXwXwXwX",
"wXwXwXwXwXwXwXwXwXwXwXwXrXrXyX7X$X$X3X9X<X<X<XW.,XOX<X8X$Xo.=.h.9.j.O.y y w q q u u p g M P L I X.w.9.9.0.,.p.E.E.4X5XrXeXwXeXeXwXwXwXwXwXwXwXwXwXwXwXwXwXwXwXwX",
"wXwXwXwXwXwXwXwXwXwXwXwXrXrXrXrX*X$X$X$X$X%X5X5X5XtXqX5X=X@.,.q.q.q.O.X.@.X.X.o.o.O.O.=.-.>.q.h.w.:.9.,.9.9.:.@XE.rXrXrXtXwXwXtXwXwXwXwXwXwXwXwXwXwXwXwXwXwXwXwX",
"wXwXwXwXwXwXwXwXrXrXrXrXrXrXrXrXwXwXwXwXwXwXwXwXrXrXwXtX:.9.g.q.q.q.;.=.=.;.=.&.=.&.;.>.>.9.,.9.9.9.9.,.9.7.>.+XE.qXwXwXwXwXwXwXwXwXwXwXwXwXwXwXwXwXwXwXwXwXwXwX",
"wXwXwXwXwXwXwXwXrXrXrXrXrXrXrXrXwXwXwXwXwXwXwXwXrXrXwX X;.q.q.w.q.q.1.;.O.X.O.&.&.&.=.;.:.>.,.,.9.9.9.7.9.9.:.oXE.qXwXwXwXwXwXwXwXwXwXwXwXwXwXwXwXwXwXwXwXwXwXwX",
"wXwXwXwXwXwXwXwXrXrXrXrXrXrXrXrXwXwXwXwXwXwXwXwXrXrXrX>.q.g.q.q.q.q.g.g.,.o._ =.-.>.9.,.,.,.,.9.9.9.9.9.,.,.:.oXE.%XwXwXwXwXwXwXwXwXwXwXwXwXwXwXwXwXwXwXwXwXwXwX",
"wXwXwXwXwXwXwXwXrXrXrXrXrXrXrXrXwXwXwXwXwXwXtXeXrXrX=X:.,.j.v.l.h.q.,.,.g.c.W i a G U ( o.:.h.w.,.,.9.,.,.9.7.'.E.$XwXwXwXwXwXwXwXwXwXwXwXwXwXwXwXwXwXwXwXwXwXwX",
"rXrXrXrXrXrXrXrXrXrXrXrXrXrXrXrXrXrXrXrXrXrXrXtXwXwXm.7.k.+.J Q ,.h.,.>.1.v.M   $ & ; 9 i M Y ..q.q.:.9.9.,.7.'.E.$XrXrXrXrXrXrXwXwXwXwXwXwXwXwXwXwXwXwXwXwXwXwX",
"rXrXrXrXrXrXrXrXrXrXrXrXrXrXrXrXrXrXrXrXrXrXrXrXwXtX>.x.! < < l c ( l.>.l.( + % * = 9 9 9 k j l L q.9.9.9.9.:.'.E.$XrXrXrXrXrXrXwXwXwXwXwXwXwXwXwXwXwXwXwXwXwXwX",
"rXrXrXrXrXrXrXrXrXrXrXrXrXrXrXrXrXrXrXrXrXrXrXrXwX6X,.z.F 8 t l e H 0.l.-.& . % % % - - - e t z K 0.9.9.9.,.:.'.E.$XrXrXrXrXrXrXwXwXwXwXwXwXwXwXwXwXwXwXwXwXwXwX",
"rXrXrXrXrXrXrXrXrXrXrXrXrXrXrXrXrXrXrXrXrXrXrXrXtX|.7.,.7.$.Q R d 0 u G K u h h s s s D F H W } 0.0.9.,.9.,.:.'.E.$XrXrXrXrXrXrXwXwXwXwXwXwXwXwXwXwXwXwXwXwXwXwX",
"rXtXwXwXrXrXrXrXrXrXrXrXrXrXrXrXrXrXrXrXrXrXrXrXwX|.8.9.1.w.k.k.n . % % > G { o.=.:.7.,.q.w.w.q.0.,.9.9.9.9.-.}.E.$XrXrXrXrXrXrXwXwXwXwXwXwXwXwXwXwXwXwXwXwXwXwX",
"tXtXwXwXrXrXrXrXrXrXrXrXrXrXrXrXrXrXrXrXrXrXrXrXwX|.7.w.9.,.:.9.&.G u > , > U &.*.=.;.:.:.:.:.:.9.9.9.9.9.9.>.+XE.$XrXrXrXrXrXrXwXwXwXwXwXwXwXwXwXwXwXwXwXwXwXwX",
"wXwXwXwXrXrXrXrXrXrXrXrXrXrXrXrXrXrXrXrXrXrXrXrXeX&X>.9.q.9.,.-.>.0...p , > Y O.&.=.;.;.;.:.:.9.7.9.9.:.9.7.<.W.E.%XrXrXrXrXrXrXwXwXwXwXwXwXwXwXwXwXwXwXwXwXwXwX",
"wXwXwXwXrXrXrXrXrXrXrXrXrXrXrXrXrXrXrXrXrXrXrXrXrXyX:.0.9.9.,.-.=.O.X.N ; 0 a ( O.=.=.;.:.:.:.:.:.,.9.:.9.-.].E.E.rXrXrXrXrXrXrXwXwXwXwXwXwXwXwXwXwXwXwXwXwXwXwX",
"wXwXwXwXwXwXwXwXwXwXwXwXwXwXwXwXwXwXwXwXwXwXwXwXwXwXn.7.0.,.,.:.=.O.o.n * 0 * N -.@.=.=.;.=.:.;.:.:.:.7.-.*.,XE.+XwXwXwXwXwXwXwXwXwXwXwXwXwXwXwXwXwXwXwXwXwXwXwX",
"wXwXwXwXwXwXwXwXwXwXwXwXwXwXwXwXwXwXwXwXwXwXwXwXwXwXuX;.9.9.:.-.=.@.=.Y 0 , & J 7.O.=.=.=.@.=.:.;.;.-.#.*.9XE.E.qXwXwXwXwXwXwXwXwXwXwXwXwXwXwXwXwXwXwXwXwXwXwXwX",
"wXwXwXwXwXwXwXwXwXwXwXwXwXwXwXwXwXwXwXwXwXwXwXwXwXwXwX7X:.7.:.:.=.@.O.X.) I I { X...X.+.@.@.@.@.@.@.+.P.W.E.E.%XwXwXwXwXwXwXwXwXwXwXwXwXwXwXwXwXwXwXwXwXwXwXwXwX",
"wXwXwXwXwXwXwXwXwXwXwXwXwXwXwXwXwXwXwXwXwXwXwXwXwXwX;X X:.-.=.=.@.=.{ { X.&.;.3.y.y.` _ } { } X.X. .@.P.].E.qXwXwXwXwXwXwXwXwXwXwXwXwXwXwXwXwXwXwXwXwXwXwXwXwXwX",
"wXwXwXwXwXwXwXwXwXwXwXwXwXwXwXwXwXwXwXwXwXwXwXwX=X2.,.7.7.7.-.$.+.{ Y.+XoX+XXXE.E.E.+XR.E | +.$.$.=.7.7.-.;..XrXwXwXwXwXwXwXwXwXwXwXwXwXwXwXwXwXwXwXwXwXwXwXwXwX",
"wXwXwXwXwXwXwXwXwXwXwXwXwXwXwXwXwXwXwXwXwXwXwXtXu.:.7.w.0.e.e.r.8. .R.E.+X$X4X5X6XtXeXU.~ @.:.7.9.9.:.:.=.&.P.E.%XtXwXwXwXwXwXwXwXwXwXwXwXwXwXwXwXwXwXwXwXwXwXwX",
"wXwXwXwXwXwXwXwXwXwXwXwXwXwXwXwXwXwXwXwXwXwXwXtXrX4XL.Z.A.] ] ] ' [ L.E.5XrXwXwXtXtXeXK.M.N.N.N.M.M.B.C.G.E.W.E.XXrXwXwXwXwXwXwXwXwXwXwXwXwXwXwXwXwXwXwXwXwXwXwX",
"wXwXwXwXwXwXwXwXwXwXwXwXwXwXwXwXwXwXwXwXwXwXwXwXtXtXeX5X,XXXW.XXW.W.W.W.4XrXwXwXeXrXtXwXtX$XE.XXXXXXXXW.+X+X+X5XqXwXwXwXwXwXwXwXwXwXwXwXwXwXwXwXwXwXwXwXwXwXwXwX",
"wXwXwXwXwXwXwXwXwXwXwXwXwXwXwXwXwXwXwXwXwXwXwXwXeXtXwXwXwXwXwXwXwXwXwXwXwXwXwXwXwXwXwXwXwXwXwXwXwXwXwXwXwXwXwXwXwXwXwXwXwXwXwXwXwXwXwXwXwXwXwXwXwXwXwXwXwXwXwXwX",
"wXwXwXwXwXwXwXwXwXwXwXwXwXwXwXwXwXwXwXwXwXwXwXwXrXeXwXwXwXwXwXwXwXwXwXwXwXwXwXwXwXwXwXwXwXwXwXwXwXwXwXwXwXwXwXwXwXwXwXwXwXwXwXwXwXwXwXwXwXwXwXwXwXwXwXwXwXwXwXwX",
"wXwXwXwXwXwXwXwXwXwXwXwXwXwXwXwXwXwXwXwXwXwXwXwXtXrXrXtXwXwXwXwXwXwXwXwXwXwXwXwXwXwXwXwXwXwXwXwXwXwXwXwXwXwXwXwXwXwXwXwXwXwXwXwXwXwXwXwXwXwXwXwXwXwXwXwXwXwXwXwX",
"wXwXwXwXwXwXwXwXwXwXwXwXwXwXwXwXwXwXwXwXwXwXwXwXeXrXtXeXwXwXwXwXwXwXwXwXwXwXwXwXwXwXwXwXwXwXwXwXwXwXwXwXwXwXwXwXwXwXwXwXwXwXwXwXwXwXwXwXwXwXwXwXwXwXwXwXwXwXwXwX",
"wXwXwXwXwXwXwXwXwXwXwXwXwXwXwXwXwXwXwXwXwXwXwXwXwXwXwXwXwXwXwXwXwXwXwXwXwXwXwXwXwXwXwXwXwXwXwXwXwXwXwXwXwXwXwXwXwXwXwXwXwXwXwXwXwXwXwXwXwXwXwXwXwXwXwXwXwXwXwXwX",
"wXwXwXwXwXwXwXwXwXwXwXwXwXwXwXwXwXwXwXwXwXwXwXwXwXwXwXwXwXwXwXwXwXwXwXwXwXwXwXwXwXwXwXwXwXwXwXwXwXwXwXwXwXwXwXwXwXwXwXwXwXwXwXwXwXwXwXwXwXwXwXwXwXwXwXwXwXwXwXwX",
"wXwXwXwXwXwXwXwXwXwXwXwXwXwXwXwXwXwXwXwXwXwXwXwXwXwXwXwXwXwXwXwXwXwXwXwXwXwXwXwXwXwXwXwXwXwXwXwXwXwXwXwXwXwXwXwXwXwXwXwXwXwXwXwXwXwXwXwXwXwXwXwXwXwXwXwXwXwXwXwX",
"wXwXwXwXwXwXwXwXwXwXwXwXwXwXwXwXwXwXwXwXwXwXwXwXwXwXwXwXwXwXwXwXwXwXwXwXwXwXwXwXwXwXwXwXwXwXwXwXwXwXwXwXwXwXwXwXwXwXwXwXwXwXwXwXwXwXwXwXwXwXwXwXwXwXwXwXwXwXwXwX"
};
