/* XPM */
static char *_0b914e7822c4890e8f414d35d8562827jL4TJBBjkGeczwl[] = {
/* columns rows colors chars-per-pixel */
"80 80 216 2 ",
"   c #020201",
".  c #0A0402",
"X  c #0A0806",
"o  c #01010A",
"O  c #090B09",
"+  c #140002",
"@  c #180007",
"#  c #1A1500",
"$  c #13120A",
"%  c #181716",
"&  c #0C0B18",
"*  c #220004",
"=  c #2B0004",
"-  c #2E000B",
";  c #340304",
":  c #350C03",
">  c #34010C",
",  c #3C010C",
"<  c #3A0A09",
"1  c #3C1207",
"2  c #3F0818",
"3  c #3E1016",
"4  c #30260E",
"5  c #242419",
"6  c #353012",
"7  c #35002B",
"8  c #30322D",
"9  c #47070B",
"0  c #491709",
"q  c #561C09",
"w  c #490C14",
"e  c #471415",
"r  c #5A161B",
"t  c #4B2109",
"y  c #53240B",
"u  c #552808",
"i  c #5F3400",
"p  c #5B2214",
"a  c #65290A",
"s  c #752B0D",
"d  c #663409",
"f  c #7A380E",
"g  c #622F17",
"h  c #65311E",
"j  c #783B13",
"k  c #4C1525",
"l  c #551827",
"z  c #4F183D",
"x  c #5A212C",
"c  c #5E2839",
"v  c #5B4E19",
"b  c #6E4B0E",
"n  c #75402C",
"m  c #60653E",
"M  c #525633",
"N  c #6C704C",
"B  c #757A4C",
"V  c #656948",
"C  c #787963",
"Z  c #823E0D",
"A  c #814E0B",
"S  c #8A4808",
"D  c #895805",
"F  c #955D0C",
"G  c #965703",
"H  c #814914",
"J  c #875613",
"K  c #856D04",
"L  c #9A6000",
"P  c #976017",
"I  c #A36E01",
"U  c #A36506",
"Y  c #AC7A02",
"T  c #A67208",
"R  c #B57B02",
"E  c #B77900",
"W  c #A16A15",
"Q  c #8C5420",
"!  c #C06C00",
"~  c #8D7F44",
"^  c #7D8255",
"/  c #AF8200",
"(  c #BA8300",
")  c #BA8C00",
"_  c #B58700",
"`  c #B79100",
"'  c #BA9018",
"]  c #B79629",
"[  c #B39D35",
"{  c #A8943B",
"}  c #C48A00",
"|  c #CB8B00",
" . c #CB8400",
".. c #D38D00",
"X. c #D68700",
"o. c #C49300",
"O. c #CC9500",
"+. c #CC9C00",
"@. c #C19B00",
"#. c #D39400",
"$. c #D39C00",
"%. c #DC9D00",
"&. c #D99400",
"*. c #C69F1F",
"=. c #E69F00",
"-. c #CEA200",
";. c #CAAA00",
":. c #D4A300",
">. c #DBA500",
",. c #D5AB00",
"<. c #DCAC00",
"1. c #CAB000",
"2. c #D6B600",
"3. c #DDB300",
"4. c #D4BE00",
"5. c #DBBB00",
"6. c #D5BB0A",
"7. c #DABE1C",
"8. c #D5BA1A",
"9. c #E1A400",
"0. c #E2AD00",
"q. c #EBA900",
"w. c #E3B400",
"e. c #EAB600",
"r. c #E5BA00",
"t. c #EABB00",
"y. c #F3BB00",
"u. c #E2BC11",
"i. c #C59D27",
"p. c #D8B929",
"a. c #CFB93B",
"s. c #D4BA35",
"d. c #CDAB39",
"f. c #D5C000",
"g. c #DEC500",
"h. c #DCC606",
"j. c #DAC416",
"k. c #E4C100",
"l. c #EBC300",
"z. c #EDCA00",
"x. c #F3C300",
"c. c #F6CD00",
"v. c #FCCC00",
"b. c #F9D300",
"n. c #DBC52B",
"m. c #D6C739",
"M. c #E9D733",
"N. c #948745",
"B. c #8C8A56",
"V. c #928C59",
"C. c #8D935C",
"Z. c #AC9C49",
"A. c #AFA95E",
"S. c #96997A",
"D. c #989166",
"F. c #9AA064",
"G. c #B1B971",
"H. c #BCBA70",
"J. c #ACAA75",
"K. c #C7BD40",
"L. c #CDBF5D",
"P. c #CDAC46",
"I. c #C7BF77",
"U. c #BFC56C",
"Y. c #BCC474",
"T. c #BEC679",
"R. c #CEC34B",
"E. c #D3C343",
"W. c #D8CA47",
"Q. c #D9D344",
"!. c #CCC85C",
"~. c #D5CA53",
"^. c #DBCD53",
"/. c #D3C156",
"(. c #DBD154",
"). c #D6D95B",
"_. c #C5C76C",
"`. c #CAC76C",
"'. c #D4C967",
"]. c #D5D46A",
"[. c #D8D766",
"{. c #C2C776",
"}. c #C1CA76",
"|. c #CDCB72",
" X c #C3CC7B",
".X c #C8CA7B",
"XX c #D2CC76",
"oX c #CAD37C",
"OX c #CBD57D",
"+X c #DADB74",
"@X c #D0D97F",
"#X c #D6D777",
"$X c #DBE17E",
"%X c #B3B88F",
"&X c #C2CB83",
"*X c #CDCE83",
"=X c #C6CE8B",
"-X c #C9CD8A",
";X c #D1C984",
":X c #CDD18C",
">X c #CAD281",
",X c #D3DD82",
"<X c #DDDF83",
"1X c #D1D888",
"2X c #C9D193",
"3X c #D4DB95",
"4X c #C5CA91",
"5X c #D7E084",
"6X c #DCE687",
"7X c #DCE587",
"8X c #DCE687",
"9X c #DDE48A",
"0X c #D7E08F",
"qX c #DDE492",
"wX c #DDE399",
"eX c #DEE89B",
/* pixels */
"6X6X6X6X6X6X6X6X6X6X6X6X6X6X6X6X6X6X6X6X6X6X6X6X6X6X6X6X6X6X6X6X6X6X6X6X6X6X6X6X6X6X6X6X6X6X6X6X6X6X6X6X6X6X6X6X6X6X6X6X6X6X6X6X6X6X6X6X6X6X6X6X6X6X6X6X6X6X6X6X",
"6X6X6X6X6X6X6X6X6X6X6X6X6X6X6X6X6X6X6X6X6X6X6X6X6X6X6X6X6X6X6X6X6X6X6X6X6X6X6X6X6X6X6X6X6X6X6X6X6X6X6X6X6X6X6X6X6X6X6X6X6X6X6X6X6X6X6X6X6X6X6X6X6X6X6X6X6X6X6X6X",
"6X6X6X6X6X6X6X6X6X6X6X6X6X6X6X6X6X6X6X6X6X6X6X6X6X6X6X6X6X6X6X6X6X6X6X6X6X6X6X6X6X6X6X6X6X6X6X6X6X6X6X6X6X6X6X6X6X6X6X6X6X6X6X6X6X6X6X6X6X6X6X6X6X6X6X6X6X6X6X6X",
"6X6X6X6X6X6X6X6X6X6X6X6X6X6X6X6X6X6X6X6X6X6X6X6X6X6X6X6X6X6X6X6X6X6X6X6X6X6X6X6X6X6X6X6X6X6X6X6X6X6X6X6X6X6X6X6X6X6X6X6X6X6X6X6X6X6X6X6X6X6X6X6X6X6X6X6X6X6X6X6X",
"6X6X6X6X6X6X6X6X6X6X6X6X6X6X6X6X6X6X6X6X8X8X8X8X6X6X6X6X6X6X6X6X6X6X6X6X6X6X6X6X6X6X6X6X6X6X6X6X6X6X6X6X6X6X6X6X6X6X6X6X6X6X6X6X6X6X6X6X6X6X6X6X6X6X6X6X6X6X6X6X",
"6X6X6X6X6X6X6X6X6X6X6X6X6X6X6X6X6X6X6X6X8X8X8X8X6X6X6X6X6X6X6X6X6X6X6X6X6X6X6X6X6X6X6X6X6X6X6X6X6X6X6X6X6X6X6X6X6X6X6X6X6X6X6X6X6X6X6X6X6X6X6X6X6X6X6X6X6X6X6X6X",
"6X6X6X6X6X6X6X6X6X6X6X6X6X6X6X6X6X6X6X6X8X8X8X8X6X6X6X6X6X6X6X6X6X6X6X6X6X6X6X6X6X6X6X6X6X6X6X6X6X6X6X6X6X6X6X6X6X6X6X6X6X6X6X6X6X6X6X6X6X6X6X6X6X6X6X6X6X6X6X6X",
"6X6X6X6X6X6X6X6X6X6X6X6X6X6X6X6X6X6X6X6X6X6X8X8X6X6X6X6X6X6X6X6X6X6X6X6X6X6X6X6X6X6X6X6X6X6X6X6Xm 5 T.6X6X6X6X6X6X6X6X6X6X6X6X6X6X6X6X6X6X6X6X6X6X6X6X6X6X6X6X6X",
"6X6X6X6X6X6X6X6X6X6X6X6X6X6X6X6X8X8X8X8X8X8X8X8X6X6X6X6X6X6X6X6X6X6X6X6X6X6X6X6X6X6X6X6X6X6X6XM     5 }.5X6X6X6X6X6X6X6X6X6X6X6X6X6X6X6X6X6X6X6X6X6X6X6X6X6X6X6X",
"6X6X6X6X6X6X6X6X6X6X6X6X6X6X6X6X8X8X8X8X8X8X8X8X6X6X6X6X6X6X6X6X6X6X6X6X6X6X6X6X6X6X6X6X6X6XB.        F.Y.6X6X6X6X6X6X6X6X6X6X6X6X6X6X6X6X6X6X6X6X6X6X6X6X6X6X6X",
"6X6X6X6X6X6X6X6X6X6X6X6X6X6X6X6X8X8X8X8X8X8X8X8X6X6X6X6X6X6X6X6X6X6X6X6X6X6X6X6X6X6X6X6X6X5XX     X   V Y.,X6X6X6X6X6X6X6X6X6X6X6X6X6X6X6X6X6X6X6X6X6X6X6X6X6X6X",
"6X6X6X6X6X6X6X6X6X6X6X6X6X6X6X6X8X8X8X8X8X8X8X8X6X6X6X6X6X6X6X6X6X6X6X6X6X6X6X6X6X6X6X6X6X+X#   X X   8 Y.oX6X6X6X6X6X6X6X6X6X6X6X6X6X6X6X6X6X6X6X6X6X6X6X6X6X6X",
"6X6X6X6X6X6X6X6X6X6X6X6X6X6X6X6X8X8X8X8X6X6X6X6X6X6X6X6X6X6X6X6X6X6X6X6X6X6X6X6X6X6X6X6X6XM.K o o .   % Y.T.6X6X6X6X6X6X6X6X6X6X6X6X6X6X6X6X6X6X6X6X6X6X6X6X6X6X",
"6X6X6X6X6X6X6X6X6X6X6X6X6X6X6X6X8X5X8X8X6X6X6X6X6X6X6X6X6X6X6X6X6X6X6X6X6X6X6X6X6X6X6X6X6X5.x.v       & G.Y.6X6X6X6X6X6X6X6X6X6X6X6X6X6X6X6X6X6X6X6X6X6X6X6X6X6X",
"6X6X6X6X6X6X6X6X6X6X6X6X6X6X6X,XG.C.B B ^ _.[.[.$X6X6X6X6X6X6X6X6X6X6X6X6X6X6X6X6X6X6X6X$X<.t.t.K 4 o 6 Y.Y.5X6X6X6X6X6X6X6X6X6X6X6X6X6X6X6X6X6X6X6X6X6X6X6X6X6X",
"6X6X6X6X6X6X6X6X6X6X6X6X6X5XB % O O O % O b z.5.3.7.W.[.6X6X6X6X6X6X6X6X6X6X6X6X6X6X6X6X[.w.5.0.y.,.` 6.>XY.5X6X6X6X6X6X6X6X6X6X6X6X6X6X6X6X6X6X6X6X6X6X6X6X6X6X",
"6X6X6X6X6X6X6X6X6X6X6X6X6X1X    .   X O o b z.4.w.0.w.0.2.W.].9X6X6X6X6X6X9X6X6X7X<X7X9X+X5.w.3.<.0.t.k. XY.,X6X6X6X6X6X6X6X6X6X6X6X6X6X6X6X6X6X6X6X6X6X6X6X6X6X",
"6X6X6X6X6X6X6X6X6X6X6X6X6X6XC             6 5.5.0.3.3.w.w.<.<.3.].7X5X+X[.(.^.^.(.[.+X9X+Xw.0.<.3.0.<.E.Y.Y.5X6X6X6X6X6X6X6X6X6X6X6X6X6X6X6X6X6X6X6X6X6X6X6X6X6X",
"6X6X6X6X6X6X6X6X6X6X6X6X6X6X6X%X$     .   4 ;.w.<.<.3.3.3.<.0.9.<.u.r.w.w.r.r.r.t.w.w.s.7.0.0.3.3.9.,.|.Y.T.6X6X6X6X6X6X6X6X6X6X6X6X6X6X6X6X6X6X6X6X6X6X6X6X6X6X",
"6X6X6X6X6X6X6X6X6X6X6X6X6X6X6X6XeXS.$     # @.0.<.<.>.9.<.>.%.0.r.w.w.w.r.w.w.3.0.0.0.0.9.w.w.w.0.<.<.&XY.OX6X6X6X6X6X6X6X6X6X6X6X6X6X6X6X6X6X6X6X6X6X6X6X6X6X6X",
"6X6X6X6X6X6X6X6X6X6X6X6X6X6X6X6X6X6XwXS.8 $ / %.$.>.>.>.%.#.>.r.w.w.w.5.w.w.<.<.<.9.<.9.9.9.0.0.0.<./.Y.Y.5X6X6X6X6X6X6X6X6X6X6X6X6X6X6X6X6X6X6X6X6X6X6X6X6X6X6X",
"6X6X6X6X6X6X6X6X6X6X6X6X6X6X6X6X6X6X6X6X1X4XI.a.;.$.&...X.%.w.r.w.w.w.w.3.w.w.3.w.0.w.w.q.%.=.9.9.<.&XY.Y.6X6X6X6X6X6X6X6X6X6X6X6X6X6X6X6X6X6X6X6X6X6X6X6X6X6X6X",
"6X6X6X6X6X6X6X6X6X6X6X6X6X6X6X6X6X6X6X6X6X6X5X1X:X-X;X;Xd.>.r.r.w.w.e.w.w.w.w.w.w.5.w.w.w.0.0.0.9.3.Y.Y.5X6X6X6X6X6X6X6X6X6X6X6X6X6X6X6X6X6X6X6X6X6X6X6X6X6X6X6X",
"6X6X6X6X6X6X6X6X6X6X6X6X6X6X6X6X6X6X6X6X6X6X6X6X6X7X,X@XXX>.r.r.r.r.r.w.w.w.w.w.w.w.r.r.r.r.r.r.r.w.!.Y.6X6X6X6X6X6X6X6X6X6X6X6X6X6X6X6X6X6X6X6X6X6X6X6X6X6X6X6X",
"6X6X6X6X6X6X6X6X6X6X6X6X6X6X6X6X6X6X6X6X6X6X6X6X6X6X6X6Xs.3.r.w.r.r.r.w.r.w.r.w.w.r.r.r.r.r.r.r.w.5.6.Y.OX6X6X6X6X6X6X6X6X6X6X6X6X6X6X6X6X6X6X6X6X6X6X6X6X6X6X6X",
"6X6X6X6X6X6X6X6X6X6X6X6X6X6X6X6X6X6X6X6X6X6X6X6X6X6X6X6X<.w.r.r.t.r.w.r.w.r.w.r.r.r.r.r.t.r.r.r.r.r.3.}.T.6X6X6X6X6X6X6X6X6X6X6X6X6X6X6X6X6X6X6X6X6X6X6X6X6X6X6X",
"6X6X6X6X6X6X6X6X6X6X6X6X6X6X6X6X6X6X6X6X6X6X6X6X6X9X6X9X3.5.r.w.r.r.r.r.r.r.w.t.r.w.r.r.k.r.t.r.r.w.w._.U.5X6X6X6X6X6X6X6X6X6X6X6X6X6X6X6X6X6X6X6X6X6X6X6X6X6X6X",
"6X6X6X6X6X6X6X6X6X6X6X6X6X6X6X6X6X6X6X6X6X6X6X6X6X9X9X9X3.r.w.r.r.w.w.r.w.w.w.r.r.w.r.r.r.r.r.r.w.r.3._.Y.,X6X6X6X6X6X6X6X6X6X6X6X6X6X6X6X6X6X6X6X6X6X6X6X6X6X6X",
"6X6X6X6X6X6X6X6X6X6X6X6X6X6X6X6X6X6X6X6X6X6X6X6X6X6X6X9Xw.r.e.r.5.r.r.w.r.r.r.w.r.r.w.r.r.r.w.r.r.r.<.R.Y.OX6X6X6X6X6X6X6X6X6X6X6X6X6X6X6X6X6X6X6X6X6X6X6X6X6X6X",
"6X6X6X6X6X6X6X6X6X6X6X6X6X6X6X6X6X6X6X6X6X6X6X6X6X6X6XqX3.w.e.r.w.r.w.r.w.w.r.w.w.w.r.w.r.w.r.w.w.w.w.6.U. X6X6X6X6X6X6X6X6X6X6X6X6X6X6X6X6X6X6X6X6X6X6X6X6X6X6X",
"6X6X6X6X6X6X6X6X6X6X6X6X6X6X6X6X6X6X6X6X6X6X6X6X6X6X6X5X3.w.r.w.w.r.e.w.w.w.w.w.w.w.w.w.w.r.r.r.w.e.e.2.{.Y.6X6X6X6X6X6X6X6X6X6X6X6X6X6X6X6X6X6X6X6X6X6X6X6X6X6X",
"6X6X6X6X6X6X6X6X6X6X6X6X6X6X6X6X6X6X6X6X6X6X6X6X6X6X6X$X5.w.w.r.r.w.r.w.w.w.w.w.r.w.w.e.w.w.w.w.e.w.w.<.`.Y.,X6X6X6X6X6X6X6X6X6X6X6X6X6X6X6X6X6X6X6X6X6X6X6X6X6X",
"6X6X6X6X6X6X6X6X6X6X6X6X6X6X6X6X6X6X6X6X6X6X6X6X6X6X7X$Xw.w.w.w.w.w.w.e.w.w.0.w.w.w.w.e.w.e.e.w.e.w.w.0.a.Y.oX6X6X6X6X6X6X6X6X6X6X6X6X6X6X6X6X6X6X6X6X6X6X6X6X6X",
"6X6X6X6X6X6X6X6X6X6X6X6X6X6X6X6X6X6X6X6X6X6X6X6X6X6X7X<X5.w.t.t.w.w.w.w.w.0.w.0.w.w.0.w.0.w.w.e.w.w.w.e.3.Y.}.6X6X6X6X6X6X6X6X6X6X6X6X6X6X6X6X6X6X6X6X6X6X6X6X6X",
"6X6X6X6X6X6X6X6X6X6X6X6X6X6X6X6X6X6X6X6X6X6X6X6X6X6X7X5Xw.w.r.w.w.w.w.0.0.w.0.w.0.0.0.w.w.e.e.w.w.w.w.t.5.{.Y.6X6X6X6X6X6X6X6X6X6X6X6X6X6X6X6X6X6X6X6X6X6X6X6X6X",
"6X6X6X6X6X6X6X6X6X6X6X6X6X6X6X6X6X6X6X6X6X6X6X6X6X6X7X7X5.w.w.r.w.w.w.w.0.0.0.0.w.0.0.w.w.0.0.w.w.w.w.w.8.Y.Y.5X6X6X6X6X6X6X6X6X6X6X6X6X6X6X6X6X6X6X6X6X6X6X6X6X",
"6X6X6X6X6X6X6X6X6X6X6X6X6X6X6X6X6X6X6X6X6X6X6X6X6X6X6X7X5.0.e.w.w.w.w.w.0.0.0.0.0.<.0.0.0.w.w.w.w.w.w.<.'.Y.Y.6X6X6X6X6X6X6X6X6X6X6X6X6X6X6X6X6X6X6X6X6X6X6X6X6X",
"6X6X6X6X6X6X6X6X6X6X6X6X6X6X6X6X6X6X6X6X6X6X6X6X6X6X6X6Xp.q.w.w.w.w.w.w.w.0.<.0.0.0.0.0.9.0.3.w.w.w.w.5.&XY.oX9X6X6X6X6X5X7X$X7X6X6X6X6X6X6X6X6X6X6X6X6X6X6X6X6X",
"6X6X6X6X6X6X6X6X6X6X6X6X6X6X6X6X6X6X6X6X6X6X6X6X9X9X6X6XK.%.<.<.<.<.<.<.<.<.<.<.<.>.9.9.9.0.3.w.3.w.,.;XY._.].).Q.M.j.g.g.g.k.g.h.m.$X6X6X6X6X6X6X6X6X6X6X6X6X6X",
"6X6X6X6X6X6X6X6X6X6X6X6X6X6X6X6X6X6X6X6X6X6X6X6X9X+X^.8.:.<.<.w.<.<.<.9.>.<.>.>.>.>.<.>.<.9.9.<.9.<.6.~.8.4.r.g.k.5.t.r.r.l.r.k.r.r.f.oX5X6X6X6X6X6X6X6X6X6X6X6X",
"6X6X6X6X6X6X6X6X6X6X6X6X6X6X6X6X6X6X6X6X6X8X[.n.3.,.:.>.<.3.w.w.w.w.w.w.w.0.w.<.<.0.0.0.0.w.w.w.r.k.k.r.r.t.t.t.r.r.t.r.r.r.r.r.r.t.w.m.Y.6X6X6X6X6X6X6X6X6X6X6X",
"6X6X6X6X6X6X6X6X6X6X6X6X6X6X6X6X6X6X$X[.m.r.0.0.w.0.0.<.w.w.w.r.r.e.r.w.3.w.3.0.0.0.0.3.w.r.r.5.k.k.k.r.r.t.r.k.r.k.r.r.k.t.k.r.r.t.w.j.Y.}.6X6X6X6X6X6X6X6X6X6X",
"6X6X6X6X6X6X6X6X6X6X6X6X6X6X6X6X$Xm.5.w.w.r.w.5.w.w.w.<.w.w.r.w.r.w.r.w.w.<.0.3.<.0.0.w.5.k.k.r.r.r.r.r.r.t.r.r.r.r.r.r.r.t.t.r.r.t.5.|.Y.Y.6X6X6X6X6X6X6X6X6X6X",
"6X6X6X6X6X6X6X6X6X6X6X6X6X5X(.j.r.w.r.r.r.w.w.e.w.0.w.3.w.w.w.r.w.w.t.w.3.w.w.<.3.<.w.r.k.r.r.r.r.r.t.r.k.r.t.r.r.t.k.t.k.r.k.r.r.5.W.T.Y.oX6X6X6X6X6X6X6X6X6X6X",
"6X6X6X6X6X6X6X6X6X6X6X6X6Xm.3.t.t.r.r.r.r.t.w.w.w.0.w.w.w.w.w.r.t.w.w.w.3.w.w.<.<.<.<.r.r.r.r.r.r.r.r.r.r.r.r.r.r.r.k.r.t.r.k.t.r.4.=XY.U.6X6X6X6X6X6X6X6X6X6X6X",
"6X6X6X6X6X6X6X6X6X6X6X6X6XwXf.w.t.r.r.r.w.t.w.w.w.w.0.w.w.w.t.w.w.w.w.w.3.w.w.r.t.w.r.z.r.5.r.r.r.r.r.r.t.r.r.r.r.t.r.t.r.r.r.r.r.r.!.Y.,X6X6X6X6X6X6X6X6X6X6X6X",
"6X6X6X6X6X6X6X6X6X6X6X6X6X6XqX7.,.9.0.w.w.w.w.3.<.0.9.<.w.r.r.w.w.e.t.t.<.O.( I L G G R k.3.3.r.r.r.w.r.k.r.r.r.r.r.r.k.t.r.k.r.r.k.g.Y.OX9X6X6X6X6X6X6X6X6X6X6X",
"6X6X6X6X6X6X6X6X6X6X6X6X6X6X6XeX:Xp.<.>.$.>.>.>.9.<.<.<.w.w.w.r.x.>.( F j p 9 ; - = * , -.z.w.w.r.r.r.r.r.r.t.k.r.t.t.r.k.r.t.k.r.r.w.!.Y.5X6X6X6X6X6X6X6X6X6X6X",
"6X6X6X6X6X6X6X6X6X6X6X6X6X6X6X6X6X0X3X*X|./.s.p.:.$.%.<.w.w.r.9.W n c x e 3 < ; = = ; * J c.5.w.r.r.r.r.w.w.e.w.e.w.t.r.w.t.r.t.r.r.2.>XY.oX6X6X6X6X6X6X6X6X6X6X",
"6X6X6X6X6X6X6X6X6X6X6X6X6X6X6X6X6X6X6X6X,XOX&X&X2X!.$.w.w.w.c.I 7 z c x k 3 > * * * = * - :.l.r.r.w.g.f.4.8.n.j.j.h.5.4.5.5.3.3.3.5.XXY.Y.OX6X6X6X6X6X6X6X6X6X6X",
"6X6X6X6X6X6X6X6X6X6X6X6X6X6X6X6X6X6X6X6X6X6X6X6X7X'.<.w.w.w.t.$.W P Q b j d a y q q q q w Y c.r.t.<.} '.2X=X X&X&X&X2X=X2X:X*XoXOX=XY.Y.}.6X6X6X6X6X6X6X6X6X6X6X",
"6X6X6X6X6X6X6X6X6X6X6X6X6X6X6X6X6X6X6X6X6X6X6X6X7Xm.0.w.w.w.3.w.x.t.3.<.:.-.+.o.o.o.+.O.O.+.r.r.r.5.:.R.Y. X,X,X<X5X,X<X,X,XOXoXOXoXoX@X6X6X6X6X6X6X6X6X6X6X6X6X",
"6X6X6X6X6X6X6X6X6X6X6X6X6X6X6X6X6X6X6X6X6X6X6X6X9X5.0.w.3.w.w.w.w.5.<.3.3.,.,.-.-.-.:.:.:.,.3.r.r.k.r.,.}.oX6X6X6X6X6X6X9X7X7X7X6X6X6X6X6X6X6X6X6X6X6X6X6X6X6X6X",
"6X6X6X6X6X6X6X6X6X6X6X6X6X6X6X6X6X6X6X6X6X6X6X6X9X5.0.w.w.w.w.w.w.3.3.<.,.:.-.-.-.-.O.O.:.5.r.r.r.t.k.<.a.Y.,X6X6X6X6X6X7X7X6X6X6X6X6X6X6X6X6X6X6X6X6X6X6X6X6X6X",
"6X6X6X6X6X6X6X6X6X6X6X6X6X6X6X6X6X6X6X6X6X6X6X6X9X3.0.3.3.3.w.0.w.5.3.3.5.w.w.9.:.o.@.3.r.k.r.r.t.w.k.r.,.}. X6X6X6X6X6X6X6X6X6X6X6X6X6X6X6X6X6X6X6X6X6X6X6X6X6X",
"6X6X6X6X6X6X6X6X6X6X6X6X6X6X6X6X6X6X6X6X6X6X6X6X<Xw.w.w.w.0.5.w.t.l.w.+.) I D b u J z.k.w.5.w.l.c.b.c.r.<.E.Y.,X6X6X6X6X6X6X6X6X6X6X6X6X6X6X6X6X6X6X6X6X6X6X6X6X",
"6X6X6X6X6X6X6X6X6X6X6X6X6X6X6X6X6X6X6X6X6X6X6X6X7X<.w.3.w.w.w.l.$.I b g e , > * . e l.r.2.3.t.r.` L ! y.w.3.}. X6X6X6X6X6X6X6X6X6X6X6X6X6X6X6X6X6X6X6X6X6X6X6X6X",
"6X6X6X6X6X6X6X6X6X6X6X6X6X6X6X6X6X6X6X6X6X6X6X6X<X3.0.w.w.w.l.W x k k w 9 0 1 : ; + J c.,.z.:.h l 7 , G y.w._.Y.6X6X6X6X6X6X6X6X6X6X6X6X6X6X6X6X6X6X6X6X6X6X6X6X",
"6X6X6X6X6X6X6X6X6X6X6X6X6X6X6X6X6X6X6X6X6X6X6X6X<X3.3.w.w.w.y.L l l w 9 , , ; = = @ @ R v.k.E r l l 9 s y.w.!.Y.@X6X6X6X6X6X6X6X6X6X6X6X6X6X6X6X6X6X6X6X6X6X6X6X",
"6X6X6X6X6X6X6X6X6X6X6X6X6X6X6X6X6X6X6X6X6X6X6X6X<X<.<.w.3.w.w.e.#.E U G S Z f s s a p b G i 0 0 F ( | 0.5.0.s.Y.oX6X6X6X6X6X6X6X6X6X6X6X6X6X6X6X6X6X6X6X6X6X6X6X",
"6X6X6X6X6X6X6X6X6X6X6X6X6X6X6X6X6X6X6X6X6X6X6X6X9X<.w.w.0.w.3.w.r.t.t.e.w.0.<.:.+.} L u = - + t <.x.l.r.5.0.p.}.}.6X6X6X6X6X6X6X6X6X6X6X6X6X6X6X6X6X6X6X6X6X6X6X",
"6X6X6X6X6X6X6X6X6X6X6X6X6X6X6X6X6X6X6X6X6X6X6X6X9X5.0.w.w.w.w.w.<.<.<.2.,.,.,.-.+._ u : 1 q b o.w.<.3.r.e.w.n.{.{.7X6X6X6X6X6X6X6X6X6X6X6X6X6X6X6X6X6X6X6X6X6X6X",
"6X6X6X6X6X6X6X6X6X6X6X6X6X6X6X6X6X6X6X6X6X6X6X6X9X~.>.w.w.w.w.w.3.<.<.,.,.,.,.-.+.Y t : u Y w.<.>.<.w.w.w.<.E.Y.Y.6X6X6X6X6X6X6X6X6X6X6X6X6X6X6X6X6X6X6X6X6X6X6X",
"6X6X6X6X6X6X6X6X6X6X6X6X6X6X6X6X6X6X6X6X6X6X6X9X9X9X>.0.3.<.<.3.0.<.<.<.<.:.:.-.( A t : d ) +.:.,.<.3.w.w.<.|.Y.}.6X6X6X6X6X6X6X6X6X6X6X6X6X6X6X6X6X6X6X6X6X6X6X",
"6X6X6X6X6X6X6X6X6X6X6X6X6X6X6X6X6X6X6X6X6X6X6X6X6X6XE.+.<.3.<.<.<.<.,.:.:.,.:.<.D = 0 : u } -.:.>.<.w.w.0.3.T.Y.OX6X6X6X6X6X6X6X6X6X6X6X6X6X6X6X6X6X6X6X6X6X6X6X",
"6X6X6X6X6X6X6X6X6X6X6X6X6X6X6X6X6X6X6X6X6X6X6X6X6X6XeXE.$.>.,.,.,.:.:.:.:.:.+.>.I < : 1 b -.+.:.<.<.3.w.<.;XY.Y.5X6X6X6X6X6X6X6X6X6X6X6X6X6X6X6X6X6X6X6X6X6X6X6X",
"6X6X6X6X6X6X6X6X6X6X6X6X6X6X6X6X6X6X6X6X6X6X6X6X6X6X6X6X'.#.$.:.$.$.$.$.#.O.o.o.+.T G E O.O.+.>.>.<.0.<.'.Y.Y.oX6X6X6X6X6X6X6X6X6X6X6X6X6X6X6X6X6X6X6X6X6X6X6X6X",
"6X6X6X6X6X6X6X6X6X6X6X6X6X6X6X6X6X6X6X6X6X6X6X6X6X6X6X$X'.$.#.| O.| | | } ' i.i.*.,.,.O.} } $.$.:.:.>.>.R.U.Y.6X6X6X6X6X6X6X6X6X6X6X6X6X6X6X6X6X6X6X6X6X6X6X6X6X",
"6X6X6X6X6X6X6X6X6X6X6X6X6X6X6X6X6X6X6X6X6X6X6X6X6X,X,.>.9.0.>.$.#.#. .! P. XY.Y.Y. X X.X`.`.o...$.%.<.0.<.w.2.].9X6X6X6X6X6X6X6X6X6X6X6X6X6X6X6X6X6X6X6X6X6X6X6X",
"6X6X6X6X6X6X6X6X6X6X6X6X6X6X6X6X6X6X6X6X6X6X6X6X6X#X-.>.,.3.0.0.0.0.:. .] Y.}.5X9X5X6X5X,X,X#.9.q.y.y.y.e.0.<.;..XOX6X6X6X6X6X6X6X6X6X6X6X6X6X6X6X6X6X6X6X6X6X6X",
"6X6X6X6X6X6X6X6X6X6X6X6X6X6X6X6X6X6X6X6X6X6X6X6X6X9X6XJ.V.B.B.N.N.N.N.~ D.H.Y.6X6X6X6X6X9X-X{ ] [ [ { Z.Z.A.H.Y.Y.Y.,X6X6X6X6X6X6X6X6X6X6X6X6X6X6X6X6X6X6X6X6X6X",
"6X6X6X6X6X6X6X6X6X6X6X6X6X6X6X6X6X6X6X6X6X6X6X6X6X6X7X7X5XoX X X XT.Y.{.Y.T. X6X6X6X6X6X9X6X7X,X}.}.}.}.}.}. X X,X5X6X6X6X6X6X6X6X6X6X6X6X6X6X6X6X6X6X6X6X6X6X6X",
"6X6X6X6X6X6X6X6X6X6X6X6X6X6X6X6X6X6X6X6X6X6X6X6X6X6X6X6X6X6X6X6X6X6X6X6X6X6X6X6X6X6X6X6X6X6X6X6X6X6X6X6X6X6X6X6X6X6X6X6X6X6X6X6X6X6X6X6X6X6X6X6X6X6X6X6X6X6X6X6X",
"6X6X6X6X6X6X6X6X6X6X6X6X6X6X6X6X6X6X6X6X6X6X6X6X6X6X6X6X6X6X6X6X6X6X6X6X6X6X6X6X6X6X6X6X6X6X6X6X6X6X6X6X6X6X6X6X6X6X6X6X6X6X6X6X6X6X6X6X6X6X6X6X6X6X6X6X6X6X6X6X",
"6X6X6X6X6X6X6X6X6X6X6X6X6X6X6X6X6X6X6X6X6X6X6X6X6X6X6X6X6X6X6X6X6X6X6X6X6X6X6X6X6X6X6X6X6X6X6X6X6X6X6X6X6X6X6X6X6X6X6X6X6X6X6X6X6X6X6X6X6X6X6X6X6X6X6X6X6X6X6X6X",
"6X6X6X6X6X6X6X6X6X6X6X6X6X6X6X6X6X6X6X6X6X6X6X6X6X6X6X6X6X6X6X6X6X6X6X6X6X6X6X6X6X6X6X6X6X6X6X6X6X6X6X6X6X6X6X6X6X6X6X6X6X6X6X6X6X6X6X6X6X6X6X6X6X6X6X6X6X6X6X6X",
"6X6X6X6X6X6X6X6X6X6X6X6X6X6X6X6X6X6X6X6X6X6X6X6X6X6X6X6X6X6X6X6X6X6X6X6X6X6X6X6X6X6X6X6X6X6X6X6X6X6X6X6X6X6X6X6X6X6X6X6X6X6X6X6X6X6X6X6X6X6X6X6X6X6X6X6X6X6X6X6X",
"6X6X6X6X6X6X6X6X6X6X6X6X6X6X6X6X6X6X6X6X6X6X6X6X6X6X6X6X6X6X6X6X6X6X6X6X6X6X6X6X6X6X6X6X6X6X6X6X6X6X6X6X6X6X6X6X6X6X6X6X6X6X6X6X6X6X6X6X6X6X6X6X6X6X6X6X6X6X6X6X",
"6X6X6X6X6X6X6X6X6X6X6X6X6X6X6X6X6X6X6X6X6X6X6X6X6X6X6X6X6X6X6X6X6X6X6X6X6X6X6X6X6X6X6X6X6X6X6X6X6X6X6X6X6X6X6X6X6X6X6X6X6X6X6X6X6X6X6X6X6X6X6X6X6X6X6X6X6X6X6X6X",
"6X6X6X6X6X6X6X6X6X6X6X6X6X6X6X6X6X6X6X6X6X6X6X6X6X6X6X6X6X6X6X6X6X6X6X6X6X6X6X6X6X6X6X6X6X6X6X6X6X6X6X6X6X6X6X6X6X6X6X6X6X6X6X6X6X6X6X6X6X6X6X6X6X6X6X6X6X6X6X6X"
};
