/* XPM */
static char *result[] = {
/* columns rows colors chars-per-pixel */
"80 80 256 2 ",
"   c #3A0801",
".  c #38100A",
"X  c #0B1F22",
"o  c #49180A",
"O  c #4A1D13",
"+  c #4B1409",
"@  c #720D03",
"#  c #572619",
"$  c #4E2314",
"%  c #702D0D",
"&  c #582B24",
"*  c #5C3226",
"=  c #50312E",
"-  c #643B2D",
";  c #6A3C2E",
":  c #633527",
">  c #653D32",
",  c #6A3E33",
"<  c #653938",
"1  c #713727",
"2  c #774F02",
"3  c #6D4234",
"4  c #6B4639",
"5  c #734737",
"6  c #725132",
"7  c #726028",
"8  c #3E4843",
"9  c #594D4C",
"0  c #785748",
"q  c #72564D",
"w  c #746757",
"e  c #643E42",
"r  c #9B0900",
"t  c #981A01",
"y  c #8C1502",
"u  c #A40900",
"i  c #AC0A00",
"p  c #A00700",
"a  c #B40B00",
"s  c #BB0C00",
"d  c #AB1702",
"f  c #B31300",
"g  c #BA1300",
"h  c #B61B01",
"j  c #BC1B00",
"k  c #BA1D0C",
"l  c #942E05",
"z  c #A42B00",
"x  c #BC2201",
"c  c #B72A03",
"v  c #A83701",
"b  c #BA3800",
"n  c #B43116",
"m  c #A23726",
"M  c #C21400",
"N  c #C21D00",
"B  c #CA1C00",
"V  c #CE1700",
"C  c #C32300",
"Z  c #CB2400",
"A  c #C42B01",
"S  c #CB2B00",
"D  c #D52A00",
"F  c #C23200",
"G  c #CA3803",
"H  c #D73701",
"J  c #C83218",
"K  c #E03A00",
"L  c #994B00",
"P  c #8F5300",
"I  c #AC4701",
"U  c #B84901",
"Y  c #A65604",
"T  c #BC5400",
"R  c #B55B00",
"E  c #BB5B00",
"W  c #B45404",
"Q  c #B85917",
"!  c #AF4117",
"~  c #98650D",
"^  c #BC6200",
"/  c #BC6B00",
"(  c #B86604",
")  c #BC7602",
"_  c #B56B10",
"`  c #8E502E",
"'  c #B3512B",
"]  c #95732B",
"[  c #B26E31",
"{  c #C64802",
"}  c #DB4401",
"|  c #D64A02",
" . c #C45B00",
".. c #CC5C00",
"X. c #C55303",
"o. c #D85704",
"O. c #CA4617",
"+. c #D34C19",
"@. c #CB5716",
"#. c #D75916",
"$. c #E84601",
"%. c #E85800",
"&. c #E45A15",
"*. c #C36200",
"=. c #CC6400",
"-. c #C36A00",
";. c #CB6904",
":. c #D56803",
">. c #C57803",
",. c #D57602",
"<. c #C86716",
"1. c #D96817",
"2. c #C77916",
"3. c #D57819",
"4. c #E96800",
"5. c #E47503",
"6. c #EA6F12",
"7. c #D75824",
"8. c #CA4F2A",
"9. c #D36729",
"0. c #D46A39",
"q. c #CF712E",
"w. c #E4732F",
"e. c #8D6E53",
"r. c #B2744A",
"t. c #8A7B66",
"y. c #957B64",
"u. c #9B634E",
"i. c #D87844",
"p. c #CC7147",
"a. c #D86844",
"s. c #7F816E",
"d. c #BB8711",
"f. c #B88F36",
"g. c #A0972D",
"h. c #C78306",
"j. c #D78606",
"k. c #C98716",
"l. c #D88A17",
"z. c #CC941A",
"x. c #DC9212",
"c. c #E28902",
"v. c #E79015",
"b. c #D9A210",
"n. c #C88926",
"m. c #D78C27",
"M. c #CC9629",
"N. c #D79729",
"B. c #C98934",
"V. c #D98837",
"C. c #D79836",
"Z. c #C99632",
"A. c #E78328",
"S. c #E9922F",
"D. c #D8A839",
"F. c #D4A831",
"G. c #E5A737",
"H. c #E9A734",
"J. c #999450",
"K. c #AF9056",
"L. c #99A74F",
"P. c #A9AA5A",
"I. c #ABB45C",
"U. c #AFA94F",
"Y. c #9A8867",
"T. c #95916D",
"R. c #A69769",
"E. c #A79A74",
"W. c #B19372",
"Q. c #AAAC66",
"!. c #B5B769",
"~. c #B7AB79",
"^. c #BCBA78",
"/. c #AAAB6D",
"(. c #9CA76B",
"). c #D89A45",
"_. c #D78857",
"`. c #D89759",
"'. c #CB8B4C",
"]. c #E49450",
"[. c #C8A846",
"{. c #DBAD44",
"}. c #D7A746",
"|. c #D9B448",
" X c #D9AB55",
".X c #D4B454",
"XX c #D9B958",
"oX c #C9B35B",
"OX c #E5A947",
"+X c #E6B64A",
"@X c #E2A558",
"#X c #E4B658",
"$X c #F0B34D",
"%X c #D3956B",
"&X c #E39A64",
"*X c #DAA967",
"=X c #D8B765",
"-X c #DBB879",
";X c #CEB075",
":X c #E4A967",
">X c #E6B56F",
",X c #BCC574",
"<X c #BCC26E",
"1X c #DCC356",
"2X c #E4C65B",
"3X c #E2CA4E",
"4X c #DBC769",
"5X c #C2C47A",
"6X c #DCCB78",
"7X c #DDD577",
"8X c #DCD36C",
"9X c #E4C967",
"0X c #E3CA78",
"qX c #E5D67A",
"wX c #E4D46A",
"eX c #E5E27C",
"rX c #B6AB86",
"tX c #BBB786",
"yX c #A9A88C",
"uX c #A8A48D",
"iX c #C4BA86",
"pX c #D9BB84",
"aX c #C5A782",
"sX c #E4BB82",
"dX c #BDC18D",
"fX c #B2C2AA",
"gX c #C6C886",
"hX c #D9C687",
"jX c #CCD388",
"kX c #DDDC84",
"lX c #D4DB8D",
"zX c #DCDC8D",
"xX c #D7D58A",
"cX c #C8C896",
"vX c #D5DB9C",
"bX c #D6D897",
"nX c #CFD29A",
"mX c #E3CA87",
"MX c #E3DB82",
"NX c #E3DC8C",
"BX c #E3D487",
"VX c #E4D894",
"CX c #E1CF93",
"ZX c #DCE687",
"AX c #DDE58A",
"SX c #DDE78D",
"DX c #DDE593",
"FX c #DFE892",
"GX c #DCE49A",
"HX c #D6E39A",
"JX c #E1E58B",
"KX c #E2E588",
"LX c #E2E594",
"PX c #E1E696",
"IX c #D3D8A2",
"UX c #DDE2A1",
/* pixels */
"ZXZXZXZXZXZXZXZXZXZXZXZXZXZXZXZXZXZXZXZXZXZXZXZXZXZXZXZXZXZXZXZXZXZXZXZXZXZXZXkX`.SXZXZXZXZXJXG 0XZXZXMXBXZXZXZXZXZXZXZXZXZXZXZXZXZXZXZXZXZXZXZXZXZXZXZXZXZXZXZX",
"ZXZXZXZXZXZXZXZXZXZXZXZXZXZXZXZXZXZXZXZXZXZXZXZXZXZXZX;XoXZXZXZXZXZXZXZXZXZXAX9Xd U DXZXZXZX>XC X.SXqXZ G ZXZXZXZXZXZXZXZXZXZXZXZXZXZXZXZXZXZXZXZXZXZXZXZXZXZXZX",
"ZXZXZXZXZXZXZXZXZXZXZXZXZXZXZXZXZXZXZXAXZXFX=XZXZXZXZXW v ZXAXkXBXkXkXZXZXZXAX{.b u *XZXZXZXOXS b OX4.Z x ZXZXZXZXZXZXZXZXZXZXZXZXZXZXZXZXZXZXZXZXZXZXZXZXZXZXZX",
"ZXZXZXZXZXZXZXZXZXZXZXZXZXZXZXZXZXZXZXAXZXq.z JXZXZXZX[ l |.'.v z f.ZXZXZXSX7XG.b z 2.).{ @.o.o. X+XN.}.V.=XZXZXZXZXZXZXZXZXZXZXZXZXZXZXZXZXZXZXZXZXZXZXZXZXZXZX",
"ZXZXZXZXZXZXZXZXZXZXZXZXZXZXZXZXZXZXZXAX4Xv c j.ZXZXBX0...U z z 2.JXZXZXZXMX| l.3.m.5.M @.<.@.D.OX,.*.z.#X;.R .XZXZXZXAXZXZXZXZXZXZXZXZXZXZXZXZXZXZXZXZXZXZXZXZX",
"ZXZXZXZXZXZXZXZXZXZXZXZXZXZXZXZXZXZXZX[.T <.v ..qX*Xg D O.@.I z W ZXZXZXZXKXD U :.3.@X#X{.k.M.|.h.^ Z.zXJXN.X.R SXZXZXAXZXZXZXZXZXZXZXZXZXZXZXZXZXZXZXZXZXZXZXZX",
"ZXZXZXZXZXZXZXZXZXZXZXZXZXZXZXZXZXZX6Xy 2.B.b  .NX;Xa i f @.n.E t Q ZX#XB.qX6.G U c q.7X>.X.N.{.k.{.ZXZXZXqX,.XX#XC.D.AXZXZXZXZXZXZXZXZXZXZXZXZXZXZXZXZXZXZXZXZX",
"ZXZXZXZXZXZXZXZXZXZXZXZXZXZXZXZXZXSXQ z 2.<.I I MXvXcXCXG M V.JXZXZXKX].j =.$X%.H H ..M.*.G.qX/ ..2XD.k.MXZXJXv.=.U .XZXZXZXZXZXZXZXZXZXZXZXZXZXZXZXZXZXZXZXZXZX",
"ZXZXZXZXZXZXZXZXZXZXZXZXZXkXJXZXZXZX' v W z v Z.N.F.GXSXi.v d.ZXZXZXZXA.G b ).KX#X>X0X4XJXJX7X|.U wXqXX.I DXZXh./ d.KX9X6.1.-XJXZXZXZXZXZXZXZXZXZXZXZXZXZXZXZXZX",
"ZXZXZXZXZXZXZXZXZXZXZXZXZX@.=.[.{.1X_ v z I z.D.-.v.4XFXPXz.P [.ZXZXAXS.H F @.ZXmXSXHXIXAX#X-.ZX1XPXAXj.T {.8X.XM.JX0XH D s mXZXZXZXZXZXZXZXZXZXZXZXZXZXZXZXZXZX",
"ZXZXZXZXZXZXZXZXZXZXZXZXZX0.c I v I / Q _ z.wX|.*.o.A c `.f.P ) NXkXZXNXH x -XSXN 0.E.UXZXj.T 6XJX:X8.mX9X1Xj.^ ) XXA.D g O.ZXZXZXZXZXZXZXZXZXZXZXZXZXZXZXZXZXZX",
"ZXZXZXZXZXZXZXZXZXZXZXZXZXmXj T v b 9.O.@.9.i.).>.{ g a i x ( d..X).JXZXMX .KXVXM s y GXJX,.( D.].a i bXZXbXSXG.,.( H.#.B { KXZXZXZXZXZXZXZXZXZXZXZXZXZXZXZXZXZX",
"ZXZXZXZXZXZXZXZXZXZXZXSXJXKX1.Z X.w.} k j C M 8.=X#Xi.D x f v d.1.M m.ZXZX,.|.].g '.n.cXJX,./ D.7.i x DXAXr.mXqXN.D.G.;.^ F.qXJXZXZXZXZXZXZXZXZXZXZXZXZXZXZXZXZX",
"ZXZXZXZXZXZXZXZXZXZXZX.XX.j.c. XVX9.x i F } B N mXZXVX} D f _ n.G N $.ZXKX=.-.}.).+XN.r.@X5.l.B.d a | qXNXS.N.( ( |.4Xn.D. XM `.ZXZXZXZXZXZXZXZXZXZXZXZXZXZXZXZX",
"ZXZXZXZXZXZXZXZXZXZXZXAX/ T { MXPXM p c PXPXmX].} DXSX( X.=XSXhXa D 4.9X4Xl.E XX#X-.N.K g A ).V.j G G ,.H.#Xh...j.M.XX:XA.O.J kXZXZX4XZXZXZXZXZXZXZXZXZXZXZXZXZX",
"ZXZXZXZXZXZXZXZXZXZXZXZXLX).g `.9Xj -XpXGXZXhXJ g OX8XP Y 1XZXVXs H A.;.( N.k.N.=.d.qXw.S j J 1.o.{ { OXOX XC.qXwX/ c.).j M 3.F.7X9X .SXZXZXZXZXZXZXZXZXZXZXZXZX",
"ZXZXZXZXZXZXZXZXZXZXZXZXZX*Xp 9.,.0XAX*X! UXA f H S.M.L Y D.AXrX<.$XG.N.m.4X9Xk.R 7X:X4.6.H x z F S OXe.X.H Z PXPXT j.OXu c mXl.^ z.E kXAXAXZXZXZXZXZXZXZXZXZXZX",
"ZXZXZXZXZXZXZXZXZXZXZXZXZX-XQ  X>.9XVXf Z ' v H 4.qXU.Y ( Z.cXq ZXAXqXS.MX6Xl.{.FXFXD F 6.:.' %X@X0XQ.y a k Z _.FX>.;.m.8.GXZXG. ./ k.SXZXAXZXZXZXZXZXZXZXZXZXZX",
"ZXZXZXZXZXZXZXZXZXZXZXZXKX.XD.wXk.x.C.d N 7.;Xw.OXIXJ.( 8X/.  nXAXp.G G qX_  .+XhX%X| s x l Y.AXGXt.nXCXd XXq.a PXZXE VXZXZX[.N.D.M.D.KXZXZXZXZXZXZXZXZXZXZXZXZX",
"ZXZXZXZXZXZXZXZXZXZXZXJX^ T N.'.2.k.C.k { #.GX`...K.4 ` ZXcX$ AXi.a N o.PX=XT +XF @ W.CXe.O UXcX0 cXZXZXLXF.|.b VXSX1X0XqX>.U 2.|.XXl...C.ZXZXZXZXZXZXZXZXZXZXZX",
"ZXZXZXZXZXZXZXZXZXZXZX[.U c.JX;XS.N.3.1.6.A.qXJ D 4._ = rXe.IXDXs Z D S.zXZXD.N.G r e.ZXT.$ t.y.DXAXZXZXKX..k.4XGXHX' A G #XwXD.R OX}.( k.KXZXZXZXZXZXZXZXZXZXZX",
"ZXZXZXZXZXZXZXAXqX#XwX}.k.{..X.X2XH.G | | &.4.S x } A.@.O O AXZXb Z 4.0XCX:X}.].H D u.q O e.nXKXZXLX@X].9Xj.W 1XAX%Xu f N &XZXBXW S.qXAXZXZXZXZXZXZXZXZXZXZXZXZX",
"ZXZXZXZXZXZXZXKX^ X...G.XX-.X.*.D.wXS.X.G c .._.f C &.Z t o R.ZXGX;X;XMXM g M S :XVXW.  tXPXZXZXAXv.V F 2Xc.:.) Y.cX_.u a 8.ZXGX) F.OX].JXZXZXZXZXZXZXZXZXZXZXZX",
"ZXZXZXZXZXZXZXKX{.k.) =X.XN.N.l.D.2XOX:.*.Q NXKX| | V. Xi.u.o y.AXUXT.ZX4.S F s sXDX9 nX>X7.O.vXKXK A j VXKX=.[ nXZXPXp.f C nXDX9XB.H D } 9XZXZXZXZXZXZXZXZXZXZX",
"ZXZXZXZXZXZXAXS { #XV.@XN.-.qXKX{.X.A i NXFX6Xx.l.l.v.2XXXJXnX  Y.yXT.AXDX%.H H ' 2 ;XPXu f B mXNXD C D aX/.hXDXZXZXZXZXPXbX[ xXJXg s j s 7.ZXZXZXZXZXZXZXZXZXZX",
"ZXZXZXZXZXZXZX-XB.].D C.F.T 7XKX+X@.i n ZXZXb.;./ / ^ n.,.JXZXK.l L r.ZXZXNXNXpXP Y >.).j i g 7.VXOXK l $ % 7XZXZXZXZXJXLX>Xg >XZXpX0.0.6XZXZXZXZXZXZXZXZXZXZXZX",
"ZXZXZXZXZX4X0XJXz.m.i i.+XE XX|.,.#Xd pXFXAXgX6X9Xk.7X[.E G.`.o.o.4.:.~.SXSXKXw P Y Y n.hXp.c n KXJX% 3 ~ :.E KXZXAXDXhX} M a '.ZXZXJXNXNX_.8.ZXZXZXZXZXZXZXZXZX",
"ZXZXZXZXZXXX .F.^ |._.p.#X-.8XZ.=.2XK.r.G sXfXr.i.#.qX{.j.,.{  .1.6.` . 0 GXE.o ~ Y I ( JXZXiX4 nXw 9 DX>.Y / 2XLXNXT.' H k i pXZXKXwXi.B a c ZXZXZXZXZXZXZXZXZX",
"ZXZXZXZXZX7XR M.*.OX0XXX6XwX8X) ;.G.#XD a C ~.% D &.} %.6.3.( ( 2.Z.6 e # # * < xXf.v I PXSXiXo +   IXJXg.L A.6.H A KXVXi r n KXqX-.,.{ 8.u 8.ZXZXZXZXZXZXZXZXZX",
"ZXZXZXZXZXAX=X) }.{.^ -.{. Xq.>.T G.@XC a 8.iX1 6.:.x b F 3.l.T U  .) = 0 - $ e.ZXPX~ P zXDXY.# # R.JXzXE.Q $.H a 0.LX@X| %XPXwXX.h.E a 4XC.JXZXZXZXZXZXZXZXZXZX",
"ZXZXZXZXZXZXwXj.{.N.N.+XV.i f hX4XJX*Xi A [ t.; $.$X X<.1.2.N.S.l.m.|.` < 5 O R.AXcX~.JXDXGX* + : +Xc.c.MX@Xa s C 1.| } 4.qXJX .W 6XVX;XC.z.AXZXZXZXZXZXZXZXZXZX",
"ZXZXZXZXAX#X{ k.D.T 8XBXC f i PXZXZXVX%Xw.7.m % zXZXZXSX3XX.h.ZXZXJXKXrX+ , O rXPX0 SXZXKXw   y.bXF.X.;.c.9X_.8.VX=Xf { G F 4.D.8XDXPXSXwX{ n.AXZXZXZXZXZXZXZXZX",
"ZXZXZXZXAXh.) 8X2X{ 0XVXj p 9.SXZXZXKX-XG S D @ T.DXZXZXKXX..XJXZXZXZXvX$ 5 : e.y.tXAXBX=X+ yXZXZXDX>.R R >.JXZXZXLXq...1.3.:.A.:XF.R ) |.;._ JXSXZXZXZXZXZXZXZX",
"ZXZXZXZXZXZXZXZXZXo.8.&XC 0.DXZXZXlXf.A C i f pX= > VXsX].D.JXJXZXZXZXPX, : 4 # o FXAX:.S =.PXZXZXJX7X4X{.F.KXZXZXZXZX@.,.S.&.M +.MXx.=.>.D.{.ZXSXZXZXZXZXZXZXZX",
"ZXZXZXZXZXZXZXZXZX_.s 7.;XHXZXZXjX% x B f x -XAXlX$ x M j 3.@XPXZXZXZXZXe.# , - # vXDXB.o.A q.ZXqX .kXJX1.0.mXZXZXZXiXp N +.+.a _.ZXZXl.Z.{.,.:.9XZXZXZXZXZXZXZX",
"ZXZXZXZXZXZX'.B.XX).Z 8.r.K.~.gX2 2 ).C.XXPXZXJXHX9 % S k g V VXZXZXZXZXY.# 3 , < 6 Z.) l.3.{ N.,.E qX#XD s O.PXbXiX` a i +.7.9.FXZX6XR }.qX^ T ^ KXZXZXZXZXZXZX",
"ZXZXZXZXZXZX*Xt z 2.@.a s S X.P 2 Z.M.,.|.dX= 3 z S ` % N a z IXZXZXZXZXiX# , < 4 z.5.X.W R 3.l.>.XX^.U K M a.-Xp d CX%X0.OX|.FXJXJX( X.9XZXZX7XZXSXZXZXZXZXZXZX",
"ZXZXZXZXZXZXZX_ v v @.&.G c v ~ f.F.;.G.DXq = K.$.V +.~.e.Q _ ~ iXDXCXPXIX& , , 4 ` n.,...3.m.6.4.9Xw ] S.G pXp.i B &XJX+X-..XZXUX X>.G.9XSXAXZXZXAXZXZXZXZXZXZX",
"ZXZXZXZXZXAXf.v z v R U %XlX[.k.d.n.G.SXcXe.ZXAXK C M VXDX) :.X.% l d c '.0 , , 5 < = 6X9Xl.;.A } %.v nXeX*XvX%Xi C A.+X,.R 7XZXJ X.2X).K %.KXZXZXZXZXZXZXZXZXZX",
"ZXZXZXZXZXAX=X'.;XSXC.y hXZXD.W L ) z.oXuXSXnXcXNX%.o.0X+XU z t l x c c A ` < , 3 < & DXqXE ,.{ G $.4.ZXPXA w.i.N A =Xc. .) SXZX' f n O.>Xg 1.AXZXZXZXZXZXZXZXZX",
"ZXZXZXZXZXZXZXZXZXZXKXv AXLXl L oXwXo.k.ZXZXdXX SXHXZXFXU t r r.HX`.H o.| ` < , 5 : e LXD.X.2XLX`.Y _ K.t s A 1.v %XSX|.h.C.;XPXzXk c C.|.*XhXAXZXZXZXZXZXZXZXZX",
"ZXZXZXZXZXZXZXZXZXZXZX4XKX8XoXJXKXCXB `.ZXZXZX9 w DXZXSXI Q NXZXZXZX;X% & 0 , 3 5 - q ;XD.9XZXZXT.O = E.%Xi h $.u.HXZXZXzXc i 2.1X0XBXl.^ KXAXAXZXZXZXZXZXZXZXZX",
"ZXZXZXZXZXZXZXZXZXZXSXN.T >.wXZXPXx s &XZXZXZXZX+ aXzXbXDXPXGXzXZXZXAXtX$ $ 5 3 3 , $ 0 ZXZXLXVXO w AXAXSX9.a g V.AXZXZX%Xp n S.=.k.{.=.Z.D.*.kXZXZXZXZXZXZXZXZX",
"ZXZXZXZXZXZXZXZXZX7X .c U v I F.C.j N ].ZXZXZXZXaXk sXIXZXGXp %XGXSXZXDXDXy.: 3 , - $ vXAX`.H c # e.DXAXDXN.@.C } qXrXnX&Xi M ].9Xz.D.Z.M.U D.AXZXZXZXZXZXZXZXZX",
"ZXZXZXZXZXZXZXZXZXMX{ c @._ z v k.+.Z p.E.Y.iXIXs.O @ k a.a.J m rXFXZXZXZXvX# 3 > * 0 FX&XM M l ` G B K.K.j.h.C.o.y . vXmXi N mXqX/ |.+Xn..XZXZXZXZXZXZXZXZXZXZX",
"ZXZXZXZXZXZXZXZXZXZXxX.XM.2.W v Q 1.mXLXGXnX# & e 8 X = i k ' iXZXZXZXZXAXvX# ; , & t.mXH x C 8.n S D x 3 =X,.) T f.UXAXPXf i.ZX) ..G.k.9XZXZXZXZXZXZXZXZXZXZXZX",
"ZXZXZXZXZXZXZXZXZXjXiXoXz z I v U R 5XPXvXrXe.4 < w 9 8 s.fXuXT.iXcXbXDXZXGX* - 3 # t.hXD M n K.&.D $.>XjX.XN.).2.H.OXXXAXFXUXVXU +XXXI ,.ZXZXZXZXZXZXZXZXZXZXZX",
"ZXZXZXZXZXZXZXZXZXZXZXAX4Xq.@.[ 2.U t * e.E.ZXgX+ t.fXuXfXuX= +   + o > bXZX0 * 5 : q DX>XZ n ` B.qXJXJX9XE Z.{.+X>./ b.xXvXcX6X0XAXJX.XE MXZXZXZXZXZXZXZXZXZXZX",
"ZXZXZXZXZXZXZXZXZXZXZXZXZXZXlXkX>.z U AXZXZXE.6 tXAXZXlXIX= w gX~.e.4 # $ cXW.# 3 : * AXZXO.} $.O.pXkXJXc.S.N.^ OXXXB.H.;XgXkXAXZXZXZXZXZXZXZXZXZXZXZXZXZXZXZXZX",
"ZXZXZXZXZXZXZXZXZXZXZXZXZXjXdXjXk.t ).ZXlX= Y.ZXAXZXZXlX$ ^.ZXZXgXT.* # : - 0 ; 4 3 # HXhXa x j M +.PXvXK.J.[.;.j.V.g H KXJXZXZXZXZXZXZXZXZXZXZXZXZXZXZXZXZXZXZX",
"ZXZXZXZXZXZXZXZXZXZXZXZXZXZXZXZXC.W ZXcXq nXZXOX7XZXZXlXdXlXE.Y.E.y.iXE.* : ; 3 3 , ; Y.5 c A j z ` t.W.E.dXSXkX>.V.A s 0XZXZXZXZXZXZXZXZXZXZXZXZXZXZXZXZXZXZXZX",
"ZXZXZXZXZXZXZXZXZXZXZXZXZXZXZXZX7XhXtXE.SXAXH.X./ ZXZXdXgXR.gXAX>XJ `.KXcX+ 5 5 , , 3 * * 5 l 5 Y.w > E.ZXZXZXZXKXZXBX`.hXZXZXZXZXZXZXZXZXZXZXZXZXZXZXZXZXZXZXZX",
"ZXZXZXZXZXZXZXZXZXZXZXZXZXZXZXZXZXtXgXZXZXZXl.T h.ZXlXgXzXAXZXBXD j u mXZXt.# 5 , 4 , 5 : $ T.SXKXAXZXY.Y.jXZXZXZXZXZXZXZXZXZXZXZXZXZXZXZXZXZXZXZXZXZXZXZXZXZXZX",
"ZXZXZXZXZXZXZXZXZXZXZXZXZXZXZXZXZXZXZXZXZXJX;.( NXZXZXZXZXAXZXSX&.s a -XAXSX# 5 , , 5 , * dXSXZXZXZXZXZXgXE.~.AXZXZXZXZXZXZXZXZXZXZXZXZXZXZXZXZXZXZXZXZXZXZXZXAX",
"ZXZXZXZXZXZXZXZXZXZXZXZXZXZXZXZXZXZXZXZXZXZX7XZXZXZXZXZXZXZXZXZXNX+.h kXZXZXW.# , , , O E.ZXZXZXZXeXKXZXZXZXgXjXZXZXZXZXZXZXZXZXZXZXZXZXZXZXZXZXZXZXZXZXZXZXZXZX",
"ZXZXZXZXZXZXZXZXZXZXZXZXZXZXZXZXZXZXZXZXZXZXZXZXZXZXZXZXZXZXZXZXZXSXhXZXZXAXrX& , , > # lXZXZXZXwX;.qXZXZXZXZXZXZXZXZXZXZXZXZXZXZXZXZXZXZXZXZXZXZXZXZXZXZXZXZXZX",
"ZXZXZXZXZXZXZXZXZXZXZXZXZXZXZXZXZXZXZXZXZXZXZXZXZXZXZXZXZXZXAXKXKXZXZXZXZXZXR.; , 3 & 5 ZXZXZXeXb.:.9XZXZXZXZXZXZXZXZXZXZXZXZXZXZXZXZXZXZXZXZXZXZXZXZXZXZXZXZXZX",
"ZXZXZXZXZXZXZXZXZXZXZXZXZXZXZXZXZXZXZXZXZXZXZXZXZXZXZXZXZXZXwX:.;.KXZXZXZXZXR.- > 4 * 4 AXZXZX3Xj...4XZXZXZXZXZXZXZXZXZXZXZXZXZXZXZXZXZXZXZXZXZXZXZXZXZXZXZXZXZX",
"ZXZXZXZXZXZXZXZXZXZXZXZXZXZXZXZXZXZXZXZXZXZXZXZXZXZXZXZXZXZXKXb.c.ZXZXZXZXZXR.: ; 3 * 4 ZXZXZX7X..l.KXZXZXZXZXZXZXZXZXZXZXZXZXZXZXZXZXZXZXZXZXZXZXZXZXZXZXZXZXZX",
"ZXZXZXZXZXZXZXZXZXZXZXZXZXZXZXZXZXZXZXZXZXZXZXBX0._.BXAXZXZXZXZXZXZXZXZXZXKXR.: - < > > lXZXZXZXMXKXZXZXZXZXZXZXZXZXZXZXZXZXZXZXZXZXZXZXZXZXZXZXZXZXZXZXZXZXZXZX",
"ZXZXZXZXZXZXZXZXZXZXZXZXZXZXZXZXZXZXZXZXZXZXJXr.r i u -XZXZXZXZXZXZXZXZXZXZXJ., - > - > 5XZXZXZXZXZXZXZXZXZXZXZXZXZXZXZXZXZXZXZXZXZXZXZXZXZXZXZXZXZXZXZXZXZXZXZX",
"ZXZXZXZXZXZXZXZXZXZXZXZXZXZXZXZXZXZXZXZXZXZXZXlXr.' _.zXZXZXZXZXZXZXZXZXZXZXW.: > 3 , & zXZXZXZXZXZXZXZXZXZXZXZXZXZXZXZXZXZXZXZXZXZXZXZXZXZXZXZXZXZXZXZXZXZXZXZX",
"ZXZXZXZXZXZXZXZXZXZXZXZXZXZXZXZXZXZXZXZXZXZXZXZXZXZXZXZXZXZXZXZXZXZXZXZXZXZX~.# > 3 3 & jXAXZXZXZXZXZXZXZXZXZXZXZXZXZXZXZXZXZXZXZXZXZXZXZXZXZXZXZXZXZXZXZXZXZXZX",
"ZXZXZXZXZXZXZXZXZXZXZXZXZXZXZXZXZXZXZXZXZXZXZXZXZXZXZXZXZXZXZXZXZXZXZXZXZXZXY.; > 3 ; $ tXZXZXZXZXZXZXZXZXZXZXZXZXZXZXZXZXZXZXZXZXZXZXZXZXZXZXZXZXZXZXZXZXZXZXZX",
"ZXZXZXZXZXZXZXZXZXZXZXZXZXZXZXZXZXZXZXZXZXZXZXZXZXZXZXZXZXZXZXZXZXZXZXZXZXZXY.: ; ; , $ ~.ZXZXZXZXZXZXZXZXZXZXZXZXZXZXZXZXZXZXZXZXZXZXZXZXZXZXZXZXZXZXZXZXZXZXZX",
"ZXZXZXZXZXZXZXZXZXZXZXZXZXZXZXZXZXZXZXZXZXZXZXZXZXZXZXZXZXZXZXZXZXZXZXZXZXZXy.* - , , # R.ZXZXZXZXZXZXZXZXZXZXZXZXZXZXZXZXZXZXZXZXZXZXZXZXZXZXZXZXZXZXZXZXZXZXZX",
"ZXZXZXZXZXZXZXZXZXZXZXZXZXZXZXZXZXZXZXZXZXZXMX4XSXZXZXZXZXZXZXZXZXZXZXZXZXZX0 ; , 5 , $ E.ZXZXZXZXZXZXZXZXZXZXZXZXZXZXZXZXZXZXZXZXZXZXZXZXZXZXZXZXZXZXZXZXZXZXZX",
"ZXZXZXZXZXZXZXZXZXZXZXZXZXZXZXZXZXZXZXZXZXZX,.=.KXZXZXZXZXZXZXZXZXZXZXZXZXlX> ; , , , $ T.ZXZXZXZXZXZXZXZXZXZXZXZXZXZXZXZXZXZXZXZXZXZXZXZXZXZXZXZXZXZXZXZXZXZXZX",
"ZXZXZXZXZXZXZXZXZXZXZXZXZXZXZXZXZXZXZXZXZXZXj.3XZXZXZXZXZXZXZXZXZXZXZXSXZXxX: , - , 3 * 0 ZXZXZXZXZXZXZXZXZXZXZXZXZXZXZXZXZXZXZXZXZXZXZXZXZXZXZXZXZXZXZXZXZXZXZX",
"ZXZXZXZXZXZXZXZXZXZXZXZXZXZXZXZXZXZXZXZXZXZXKXZXZXZXZXZXZXZXSXZXZXSXZXZXDXaX# , > , , : * AXZXZXZXZXZXZXZXZXZXZXZXZXZXZXZXZXZXZXZXZXZXZXZXZXZXZXZXZXZXZXZXZXZXZX",
"ZXZXZXZXZXZXZXZXZXZXZXZXZXZXZXZXZXZXZXZXZXZXZXZXZXZXZXSXAXAXAXAXlXjXjXSX5X7 < , - , , , & ^.SXZXZXZXZXZXZXZXZXZXZXZXZXZXZXZXZXZXZXZXZXZXZXZXZXZXZXZXZXZXZXZXZXZX",
"ZXZXZXZXZXZXZXZXZXZXZXZXZXZXZXZXZXZXZXZXZXZXZXZXZXSX,X5XAXAXDXlXjXlXP.I.P.; 5 , - , , , & e.jXSXHXZXSXSXZXZXZXZXZXZXZXZXZXZXZXZXZXZXZXZXZXZXZXZXZXZXZXZXZXZXZXZX",
"ZXZXZXZXZXZXZXZXZXZXZXZXZXZXZXZXZXZXZXZXZXZXZXZXZXZX,XzXLXlXzXzXgX^.P.I.Y.; 6 4 - ; , , & 7 U. X=XzXlXDXMXl.+XJXAXZXZXZXZXZXZXZXZXZXZXZXZXZXZXZXZXZXZXZXZXZXZXZX",
"ZXZXZXZXZXZXZXZXZXZXZXZXZXZXZXZXZXZXZXZXZXZXZXZXZXHXxXiX;XtXgXgXQ.(.,X5Xu.: 4 7 - 5 ; $ & R._ v >. XxXxXI.-.b +XZXZXAXZXZXZXZXZXZXZXZXZXZXZXZXZXZXZXZXZXZXZXZXZX",
"ZXZXZXZXZXZXZXZXZXZXZXZXZXZXZXZXZXZXZXZXZXZXZXZXjXP.~.E.T./.K.'.K.oX5XY.* 6 3 7 ; 6 e.Y.tXDXDXK.~ ^ ).L.L.!.n.oXlXAXZXZXZXZXZXZXZXZXZXZXZXZXZXZXZXZXZXZXZXZXZXZX",
"ZXZXZXZXZXZXZXZXZXZXZXZXZXZXZXZXZXZXZXZXZXZXZXlXI.L./.I.,X,XW v _ q.P.J.Q.J.J.g.J.J.^.bXHX;XvXdXK.f.Q.L.g.L.,X!.J.!.SXZXZXZXZXZXZXZXZXZXZXZXZXZXZXZXZXZXZXZXZXZX",
"ZXZXZXZXZXZXZXZXZXZXZXZXZXZXZXZXZXZXZXZXZXZXSXiXP.!.^.I.^.,XU.[ ] f.Q.<X<XP.I.!.U.I./.T.R.T.L.(./.I.<X!.!.P.P.^.Q.g.!.DXSXAXZXZXZXZXZXZXZXZXZXZXZXZXZXZXZXZXZXZX",
"ZXZXZXZXZXZXZXZXZXZXZXZXZXZXZXZXZXZXZXZXZXZXSXnXjX^.^.,X!.!.Q.I.^.,XgX^.,X^.gXjX,X5XdXI./.Q.g./.,XdX!.^.gX5XjXbXjXdXjXZXZXZXZXZXZXZXZXZXZXZXZXZXZXZXZXZXZXZXZXZX",
"ZXZXZXZXZXZXZXZXZXZXZXZXZXZXZXZXZXZXZXZXZXZXZXZXZXDXlXHXvXlXjXjXDXlXvXlXSXAXZXZXZXZXZXZXSXlXgXxXDXSXHXAXZXZXZXZXZXZXZXZXZXZXZXZXZXZXZXZXZXZXZXZXZXZXZXZXZXZXZXZX",
"ZXZXZXZXZXZXZXZXZXZXZXZXZXZXZXZXZXZXZXZXZXZXZXZXZXZXZXZXZXZXSXSXZXZXZXZXZXZXZXZXZXZXZXZXZXZXZXZXZXZXZXZXZXZXZXZXZXZXZXZXZXZXAXZXZXZXZXZXZXZXZXZXZXZXZXZXZXZXZXZX"
};
