/* XPM */
static char *_21d8ee5b85a4a23d0f56b5ffa362438DAmLoneatelO4a9t[] = {
/* columns rows colors chars-per-pixel */
"80 80 241 2 ",
"   c #331600",
".  c #3B1E01",
"X  c #351800",
"o  c #3D2201",
"O  c #373906",
"+  c #441F00",
"@  c #432401",
"#  c #4C2C03",
"$  c #472703",
"%  c #512E02",
"&  c #463907",
"*  c #543304",
"=  c #593604",
"-  c #5C3A04",
";  c #5E3B09",
":  c #563509",
">  c #533A17",
",  c #4C3114",
"<  c #623D05",
"1  c #613E09",
"2  c #175708",
"3  c #0E5102",
"4  c #2B4907",
"5  c #3B460B",
"6  c #385813",
"7  c #295910",
"8  c #1E6115",
"9  c #13600D",
"0  c #286709",
"q  c #2B7708",
"w  c #38790C",
"e  c #296918",
"r  c #346B19",
"t  c #386919",
"y  c #2A751A",
"u  c #34741C",
"i  c #357B1C",
"p  c #3B7C1D",
"a  c #377615",
"s  c #3C6C0D",
"d  c #3A6E23",
"f  c #3C7C22",
"g  c #377723",
"h  c #2D7A20",
"j  c #49450A",
"k  c #5B4418",
"l  c #445C17",
"z  c #504D0E",
"x  c #64410A",
"c  c #68430A",
"v  c #694C1B",
"b  c #457A09",
"n  c #45681A",
"m  c #427918",
"M  c #516E06",
"N  c #644D27",
"B  c #6A5526",
"V  c #6B5635",
"C  c #735B2E",
"Z  c #447728",
"A  c #557533",
"S  c #7A6436",
"D  c #7C6C30",
"F  c #617B0A",
"G  c #826C3C",
"H  c #83723E",
"J  c #887848",
"K  c #8B7E53",
"L  c #826E42",
"P  c #3B811E",
"I  c #3A8616",
"U  c #3C8222",
"Y  c #3E8925",
"T  c #378525",
"R  c #49830E",
"E  c #568A08",
"W  c #5A9504",
"Q  c #5D9A03",
"!  c #5B960A",
"~  c #5A9607",
"^  c #42841C",
"/  c #478718",
"(  c #508C16",
")  c #5A931A",
"_  c #639C04",
"`  c #659E0A",
"'  c #699E0A",
"]  c #689A04",
"[  c #769C01",
"{  c #699A15",
"}  c #77991B",
"|  c #628C05",
" . c #65A303",
".. c #6BA305",
"X. c #65A109",
"o. c #6BA309",
"O. c #6EA907",
"+. c #74AB03",
"@. c #7BAE01",
"#. c #71A609",
"$. c #74AB0A",
"%. c #7AAE0A",
"&. c #78A402",
"*. c #7CB105",
"=. c #7DB30A",
"-. c #77B008",
";. c #77A517",
":. c #428325",
">. c #458C2A",
",. c #4B8C2C",
"<. c #458925",
"1. c #45922B",
"2. c #4A932D",
"3. c #4D9A2D",
"4. c #489225",
"5. c #52932C",
"6. c #569D2D",
"7. c #578937",
"8. c #4E9B32",
"9. c #4C9431",
"0. c #519333",
"q. c #529C33",
"w. c #5A9C32",
"e. c #569A39",
"r. c #538C2E",
"t. c #729831",
"y. c #5CA02D",
"u. c #53A035",
"i. c #5AA335",
"p. c #6DA525",
"a. c #6EA826",
"s. c #63A22E",
"d. c #6AA52C",
"f. c #71A926",
"g. c #74AA29",
"h. c #64A934",
"j. c #78B22F",
"k. c #799C52",
"l. c #698E4B",
"z. c #7BA455",
"x. c #71A648",
"c. c #87A905",
"v. c #82B404",
"b. c #8AB502",
"n. c #82B50B",
"m. c #8AB60A",
"M. c #84B90B",
"N. c #8CB90B",
"B. c #8AB904",
"V. c #94BC0B",
"C. c #9BBE0C",
"Z. c #97B705",
"A. c #87B516",
"S. c #8FAE0D",
"D. c #A1BE09",
"F. c #8AB625",
"G. c #84AA35",
"H. c #8CB33D",
"J. c #96BB35",
"K. c #959F3F",
"L. c #9EC20C",
"P. c #98C416",
"I. c #A4C40D",
"U. c #ABC50C",
"Y. c #ADC90D",
"T. c #A9C503",
"R. c #B6CC0E",
"E. c #BACD0E",
"W. c #B6CA06",
"Q. c #BDD10E",
"!. c #A4C413",
"~. c #ABC711",
"^. c #ADCA11",
"/. c #B4CC11",
"(. c #BACE11",
"). c #B1CA1A",
"_. c #BDD113",
"`. c #B8D217",
"'. c #9BC12E",
"]. c #A4C32E",
"[. c #C2D414",
"{. c #C2D61A",
"}. c #C4DA1C",
"|. c #C9DC1D",
" X c #C8D70D",
".X c #D9E714",
"XX c #C9DF22",
"oX c #C6DC21",
"OX c #CBE022",
"+X c #D0E320",
"@X c #EDF616",
"#X c #958A58",
"$X c #958F52",
"%X c #A69B5B",
"&X c #8DB541",
"*X c #95B747",
"=X c #86AC5A",
"-X c #9DB954",
";X c #94A946",
":X c #A6B25B",
">X c #A59B64",
",X c #8DB361",
"<X c #98B668",
"1X c #89AD60",
"2X c #ABA868",
"3X c #B4AC6D",
"4X c #A2B968",
"5X c #ADAA73",
"6X c #BBBA76",
"7X c #B0B270",
"8X c #9B9662",
"9X c #C0BE7B",
"0X c #9DC043",
"qX c #A9C657",
"wX c #ACC64C",
"eX c #ABC764",
"rX c #B4CB69",
"tX c #B9D267",
"yX c #ABC476",
"uX c #B9C879",
"iX c #BED377",
"pX c #C4C778",
"aX c #C3D575",
"sX c #C3D37D",
"dX c #CCDC7D",
"fX c #C8D67A",
"gX c #C8DA75",
"hX c #BCCE84",
"jX c #BBD182",
"kX c #CACC84",
"lX c #CDDC81",
"zX c #C9D585",
"xX c #D3DC83",
"cX c #D3DD88",
"vX c #D1D684",
"bX c #D4E184",
"nX c #DCE687",
"mX c #DCE687",
"MX c #DBE589",
"NX c #D5E289",
"BX c #DAE590",
/* pixels */
"nXnXnXnXnXnXnXnXnXnXnXnXnXnXnXnXnXnXnXnXnXnXnXnXnXnXnXnXnXnXnXnXnXnXnXnXnXnXnXnXmXmXmXmXmXnXmXmXmXmXmXmXmXnXnXnXnXnXnXnXnXnXnXnXnXnXnXnXnXnXnXnXnXnXnXnXnXnXnXnX",
"nXnXnXnXnXnXnXnXnXnXnXnXnXnXnXnXnXnXnXnXnXnXnXnXnXnXnXnXnXnXnXnXnXnXnXnXnXnXnXnXmXmXmXmXnXnXmXmXmXmXmXmXmXmXnXnXnXnXnXnXnXnXnXnXnXnXnXnXnXnXnXnXnXnXnXnXnXnXnXnX",
"nXnXnXnXnXnXnXnXnXnXnXnXnXnXnXnXnXnXnXnXnXnXnXnXnXnXnXnXnXnXnXnXbXqX0XgXnXnXbXmXnXmXmXmXnXmXmXmXmXmXmXmXmXmXmXmXnXnXnXnXnXnXnXnXnXnXnXnXnXnXnXnXnXnXnXnXnXnXnXnX",
"nXnXnXnXnXnXnXnXnXnXnXnXnXnXnXnXnXnXnXnXnXnXnXnXnXnXnXnXnXnXnXdX=.L.*.*.tXtX0XtXdXtXdXMXmXbXmXmXmXmXmXmXmXmXmXmXnXnXnXnXnXnXnXnXnXnXnXnXnXnXnXnXnXnXnXnXnXnXnXnX",
"nXnXnXnXnXnXnXnXnXnXnXnXnXnXnXnXnXnXnXnXnXnXnXnXnXnXnXnXnXnXbXqXv.P.M.*.-.+.*.+.b.b.+.tXwXF.bXmXmXmXmXmXmXMXmXmXnXnXnXnXnXnXnXnXnXnXnXnXnXnXnXnXnXnXnXnXnXnXnXnX",
"nXnXnXnXnXnXnXnXnXnXnXnXnXnXnXnXnXnXnXnXnXnXnXnXnXnXnXnXnXdXiXP.*.M.n.*.M.=.P.I.W.[.V.+.*.+.F.tXaXMXbXtXeXqXaXmXnXnXnXnXnXnXnXnXnXnXnXnXnXnXnXnXnXnXnXnXnXnXnXnX",
"nXnXnXnXnXnXnXnXnXnXnXnXnXnXnXnXnXnXnXnXnXnXnXnXnXnXdXdXtX+.+.*.=.*.*.L.^.!.Y. X[.(.V.-.=.=.v.@.=.qX'.O.O.O.p.rXnXnXnXnXnXnXnXnXnXnXnXnXnXnXnXnXnXnXnXnXnXnXnXnX",
"nXnXnXnXnXnXnXnXnXnXnXnXnXnXnXnXnXnXnXnXnXnXnXdXtXgXtXA.*.L.Y.I.L.N.I.{.{._.E.E.Q.R.I.V.*.M.R.Y.*.+.+.-.A.=. .Q NXnXnXnXnXnXnXnXnXnXnXnXnXnXnXnXnXnXnXnXnXnXnXnX",
"nXnXnXnXnXnXnXnXnXnXnXnXnXnXnXnXnXnXnXnXnXnXdX].R.P.@.+.@.L.|._././.OX+XQ.R.R.R.R.R.Q.R.D.I.[.(.V.v.V.C.n.=.#.W qXNXmXmXmXmXmXmXnXnXnXnXnXnXnXnXnXnXnXnXnXnXnXnX",
"nXnXnXnXnXnXnXnXnXnXnXnXnXnXnXnXnXnXnXnXnXnXqXb. XT.L.N.B.Y.}.R.R._.OX}.R.R.R.R.R.R.R.Q._.E.R.R./.I.Y.[.L.%.%.Q G.lXmXmXmXmXmXmXnXnXnXnXnXnXnXnXnXnXnXnXnXnXnXnX",
"nXnXnXnXnXnXnXnXnXnXnXnXnXnXnXnXnXnXmXmXnXMX'.B.}.[._./.`.OX+XR.R.(._.R.R./.E./.E./.R.R.R.R.R.R.(.E.E.[.L.%.n. .;.NXmXmXnXmXmXmXnXnXnXnXnXnXnXnXnXnXnXnXnXnXnXnX",
"nXnXnXnXnXnXnXnXnXnXnXnXnXnXnXnXnXnXnXmXnXnXiXv.W.R._._._.OX_.R.R.R./.R.E.E./.R.E.E./.E.R.(.E.R.E.(.(.I.m.M.=._ W rXbXmXnXmXmXmXnXnXnXnXnXnXnXnXnXnXnXnXnXnXnXnX",
"nXnXnXnXnXnXnXnXnXnXnXnXnXnXnXnXmXmXmXmXmXmXBX'.*.I.Q.R._./.R.{.}._.R.R.R.R.R.E./.E.R.R.R.R.R.R.(.~.m.n.=.=.X.` _ ` G.rXmXnXnXnXnXnXnXnXnXnXnXnXnXnXnXnXnXnXnXnX",
"nXnXnXnXnXnXnXnXnXnXnXnXnXnXnXnXmXmXmXmXmXmXdXA.@.L.R.E._.{.{.OXOX}.{._.}._.E.E.E./.R.R.R.R.R.R.[.D.%.n.=..._ _ X. .Q ] iXnXnXnXnXnXnXnXnXnXnXnXnXnXnXnXnXnXnXnX",
"nXnXnXnXnXnXnXnXnXnXnXnXnXnXnXnXmXmXmXmXmXbXqXZ.Y.Y._.OXXXOXOXOXOXOXOXXXOXXX(.R.R.Q.W.R.R.E.E.R.C.n.%.n.n.%...o.#...X._ H.mXnXnXnXnXnXnXnXnXnXnXnXnXnXnXnXnXnXnX",
"nXnXnXnXnXnXnXnXnXnXnXnXnXnXnXnXmXmXmXbXgX0X*.Y.Q.R.OXOXOX|.OXOXOXOXOXOXXX_.R.V.I.Q.Q.R.E.E.R.V.*.n.n.n.n.n.n.=.n.$.X._ &XmXnXnXnXnXnXnXnXnXnXnXnXnXnXnXnXnXnXnX",
"nXnXnXnXnXnXnXnXmXmXmXmXmXmXmXmXmXmXNXF.m.B.n.I.[.{.XXXXOXOXXXOXOXXXOXOX_.R.I.n.n.I.Y.(.Y.L.N.n.n.$.o.$.%.=.=.n.=...` _ ;.fXMXmXmXmXmXmXmXmXmXmXmXmXmXmXnXnXnXnX",
"nXnXnXnXnXnXnXnXmXmXmXmXmXmXmXmXnXbX'.*.`.`.!.U.{.OXXXOXXXOXOXOXOXOXOXOXOX/.m.*.=.%.n.V.M.$.o.$.o.~ W ~ ` X.n.n.O._ ` ` _ { qXiXNXMXmXmXmXmXmXmXmXmXmXmXnXnXnXnX",
"nXnXnXnXnXnXnXnXmXmXmXmXmXmXmXmXnXmXwX*.{.oX(.(.XXOXXXXXOX|.OXOXOXXXOXOXOX{.C.*.=.' ` $.+.` ~ ~ ! ! _ ! ! ' M.n.#.$.$.' ` _ W W 0XBXnXnXmXmXmXmXmXmXmXmXnXnXnXnX",
"nXnXnXnXnXnXnXnXmXmXmXmXmXmXmXmXnXnXNXA.Z././.(.`.XXOXOXOXOXOXOXOXXXXX}.Q.E.I.M.%.~ ~ ~ ~ Q ! ~ ! ` ` _ #.=.%.-.*.M.n.o.` X.X.Q E eXnXnXmXmXmXmXmXmXmXmXnXnXnXnX",
"nXnXnXnXnXnXnXnXmXmXmXmXmXmXmXmXnXnXdXaX+.*.U._./.{.OXOXOXOX+X{._._.`.(.R.R.L.$.` ~ ~ ~ ~ Q ~ o.$.%.$.%.=.X._ %.@.=.=.X._ ` ` ' _ ;.dXnXmXmXmXmXmXmXnXnXnXnXnXnX",
"nXnXnXnXnXnXnXnXmXmXmXmXmXmXmXmXnXnXnXqX+.B./.Q.`.OXOXOXOXOX|.E.Q.Q.R.Y.V.N.$.Q ~ ! Q ` W Q X.=.A.L.L.N.=.#.+.n.n.n.*...` X.X.' _ _ aXnXmXmXmXmXmXmXnXnXnXnXnXnX",
"nXnXnXnXnXnXnXnXmXmXmXmXmXmXmXmXnXnXdX@.*.`.+XQ._.}.}.}._.}._.R./.I.I.V.$.Q ~ ~ ! X.$.$.` ..=.v.I.[.[.!.n.=.M.=.n.n.*.=.$.%.%.o.Q _ iXmXmXmXmXmXmXnXnXnXnXnXnXnX",
"nXnXnXnXnXnXnXnXmXmXmXmXmXmXmXmXnXnXdX*.L.).`.E.R.R.R.R.R.R.E.Y.N.v.=.*.-._ X.X.o.n.C.V.m.v.V.U.R.E.E.U.*.=.=.-.*.=.=.n.n.M.=.' Q H.bXmXmXmXmXmXnXnXnXnXnXnXnXnX",
"nXnXnXnXnXnXnXnXnXnXnXnXmXmXmXmXnXnXgX*.!.~.R.R.R.R.R.R.R.R.E.I.*.-.=.n.=.=.=.*.v.U.(.(./.I.R.[.E.R.(.U.n.%.B.V.B.=.n.=.n.=.-...W rXmXmXmXmXmXmXnXnXnXnXnXnXnXnX",
"nXnXnXnXnXnXnXnXnXnXnXnXmXmXmXmXnXnXdX'.v.C.U.(.R.R.R.R.R.(.[.I.*.n.n.n.=.V.I.L.U.E.(.E.(.R.(.E.R././.(.Y.D./.[.~.m.=.M.n.n.=.%.] g.NXmXmXmXmXmXnXnXnXnXnXnXnXnX",
"nXnXnXnXnXnXnXnXmXmXnXnXMXMXmXmXMXcXaX&X..B.!.(.(.(.R.R.(.R._.I.v.=.=.@.V._.OX{.E.E.R.R.E.R.R.R.R.R.R.(.(.(.(.E.[.I.*.=.=.n.M.=...W -XMXmXmXmXmXnXnXnXnXnXnXnXnX",
"nXnXnXnXnXnXnXnXmXmXMXuX<X1XiXMX<Xr.p.p.;.~./.(.(.U.R._.(.R._.C.=.n.n.m.Y.|.XX_.R.R.R.R.E.R.R.(.R.(.R.(.R.R.R.(.R.Z.=.=.n.n.-.$.X.Q g.NXmXmXmXmXnXnXnXnXnXnXnXnX",
"nXnXnXnXnXnXnXnXmXMX<XY 1.4.2.z.:.a ! =.=.P.I.B.m.n.N.I.V.L.C.n.=.v.~.).A./.(.(.(.R.R.R.R.R.(.R.R.R.R.E.R.R.R.E.E.I.v.=.n.=._ _ ` W H.nXnXnXnXnXnXnXnXnXnXnXnXnX",
"nXnXnXnXnXnXnXnXmXzX9.I u.u.3.I 1.u.I ! O.$.#.$.n.%.=.=.*.$.$.%.%.A.`.C.A.Y.R.R.R.R.(.R.R.R.R.(.R.R.R.R.R.R.Q.R.[.Y.M.=.%.o.` o.Q W aXmXnXnXnXnXnXnXnXnXnXnXnXnX",
"nXnXnXnXnXnXnXnXmXeX9.d.j.s.u.4.3.u.1.P / ( ! O.n.n.=.#.` ~ ! ~ W ..n.!.(.E.R.R.R.R.R.R.R.(.(.R.R.R.E.E.U.U.R.R.Y.V.M.$...] _ _ o.rXMXnXnXnXnXnXnXnXnXnXnXnXnXnX",
"nXnXnXnXnXnXnXxX<Xx.e.j.A.y.u.u.8.8.u.8.T y ( +.n.m.@._ ~ ~ ~ Q ~ W _ v.D.E.E.R.(.R.(.R.E.R.R.R.E.R.E.(.C.=.v.N.v.*.$.' _ { g.H.iXnXnXnXnXnXnXnXnXnXnXnXnXnXnXnX",
"nXnXnXnXmXmXdX,XI 3.u.y.w.8.8.8.8.q.q.u.1.g ( $.*.=.=.=.X.` Q Q ! ' $.-.N.(.Q.R.R.E.[.E.E.R./.R.(.(.[.R.V.-.*.-.$.o.' ..! Z k.l.jXNXNXmXmXmXnXnXnXnXnXnXnXnXnXnX",
"nXnXnXnXBX<X0.8.1.u.8.8.8.q.8.6.6.q.u.q.1.i P ! O.o.=.M.=.=.#.~ X.v.m.n.n.I.Q.I.V.Y.R.R.R.E.(.R.R./.R.V.=.n.M.$.` ` X.X.a 7 d 8 A cXmXmXmXmXnXnXnXnXnXnXnXnXnXnX",
"nXnXnXnXjXq y.h.q.8.q.8.8.q.q.y.h.u.>.U P y 0 M `  .o.o.$.=.%.o.=.$.$.n.v.n.B.m.*.m.m.v.C./.(.R.V.N.m.*.=.$.#...` X.! b e u i i d 4XuX<XiXnXnXnXnXnXnXnXnXnXnXnX",
"nXnXnXnXjXq h.x.3.8.8.q.8.q.3.u.i.1.U p U y e 6 l E X.` o.=.n.n.%._ ' *.=.*.*.*.n.-.=.=.n.N.C.m.%.-.=.v.v.o.` _ X.o.m e f ,.,.U u t t r d hXnXnXnXnXnXnXnXnXnXnX",
"nXnXnXnXbXx.Y i.h.e.8.8.8.8.u.u.1.U U f T U U T l M ' ` ` $.=.=...` _  .#.%.%.$.v.m.-.*.=.=.*.*.=.%.-.M.%.X.` _ X.o.m u ,.e.w.,.f a r f q z.cXnXnXnXnXnXnXnXnXnX",
"nXnXnXnXMX=XI q.i.u.8.u.u.u.u.1.U P U a l f T y r t { o.o.o.O.X.X.Q _ _ X...' ' O.$._ ..$.$.n.A.=.$.o.+..._ ' ..$.~ r u ,.w.w.>.p p f U q ,XnXnXnXnXnXnXnXnXnXnX",
"nXnXnXnXjXy 2.u.8.8.u.q.1.9.2.P i U U m : & e y y 8 s F | ! R a w *XvXpX{  .Q W ....*XH.~ ..$.@.$.E R Q X.O.O.' E p Z <.0.w.w.,.:.:.:.p a k.NXnXnXnXnXnXnXnXnXnX",
"nXnXnXnXuXw 8.Y u.e.8.Y U f U P U f U T m & O t h y 8 j j 7 8 9 3 hXMXcXt.M qXrXt.;XdXdXG._ o.` E a e m m R b a p :./ I 5.d.p.s.w.s.w.:.U 0 <XnXnXnXnXnXnXnXnXnX",
"nXnXnXnXBX,XY 3.u.1.4.{ ^ g U P P U >.2.Y U n j 5 t y d > 4 e 8 2 l.cXBX>X, kXnXK 5XnXcXJ M b a u f ,.,.:.f f :.0.5.w w 6.f.f.f.a.g.w.,.:.q yXnXnXnXnXnXnXnXnXnX",
"nXnXnXnXnXjXq u.9.h A.).( h P U <.1.2.8.8.8.e.:.l j O 6 z z h 8 2 3 zXmXvX> 3XnXK 3XmX9X+ 4 e e f 0.e.e.e.8.i.e./ 5.5.w.f.f.f.p.g.d.q.<.^ r.uXxXnXnXnXnXnXnXnXnX",
"nXnXnXnXnXzXe.i i / { ) f U Y q.8.q.3.8.8.u.u.1.U m l & : x 7 9 3 z.BXMXMXL V kXK 3XMXG o 7 y f :./ w.e.0.<.,.5.4.0.s.g.f.a.p.f.p.s.4.w m <.Z k.cXnXnXnXnXnXnXnX",
"nXnXnXnXnXMXuXI 1.1.Y y f :.I 3.q.8.8.q.8.q.u.>.^ 4.f 6 j < : A yXNXMXMXnX3X+ G x >X3X+ N <Xz.:./ / 2.e.r.6 6 >.2.>.5.d.p.p.p.f.d.w.0.<.a q a 3 uXnXnXnXnXnXnXnX",
"nXnXnXnXnXMXyXI 1.Y Y T P / I 3.q.8.8.3.q.u.u.Y / { f e t z < G NXnXnXnXnX6X* + : v k # J nXkXr m >.U Y n 5 Z U f i >.s.g.p.g.s.w.5.<.:.0 0 0 0 zXnXnXnXnXnXnXnX",
"nXnXnXnXnXnXlXz.0.q a P Y 4.u.u.8.u.8.u.u.9.Y U <.:.y p ( 0 5 v J vXnXnXnXvXc = ; % = = G bXvXZ 0 u P Z & & l 6 t f :.s.g.g.d.5.,.4.^ d t 8 e 7XNXnXnXnXnXnXnXnX",
"nXnXnXnXnXnXNXbXuX,X1X9.4.u.u.8.u.u.u.u.2.U i P U h e r m g <XpXG G 6XnXnXfXS = 1 * ; = C sXMXsX<X7.r j @ & l n Z f :.w.s.d.2.f P :.P 2 l.kXiXMXnXnXnXnXnXnXnXnX",
"nXnXnXnXnXnXnXnXmXMXlXx.I 4.1.P 1.4.Y Y f / $.;.b y 0 7.z.zXmXmXdX%Xx #XxXvXH < 1 : x - B pXnXnXnXuXj o 5 t U U g t t 0.w.2.U Z Z p 0 2 yXnXnXnXnXnXnXnXnXnXnXnX",
"nXnXnXnXnXnXnXnXnXnXnXjX3.a I h p e i i a %.W.Y.N.c.c.F.c.3XnXmXnXdX2XN B #XB < x = ; < v pXnXnXpXG # 5 8 y r 6 5 O 6 Z <.f p :.Z r 7.hXMXnXnXnXnXnXnXnXnXnXnXnX",
"nXnXnXnXnXnXnXnXnXnXnXnXzXz.l.yX4XZ Z R ' D./.R.R.U.U.T.Z.{ rXMXnXnXnXpXC # # < x - x - k pXnX3Xv + V l.4 4 5 & 5 4 e r 0 r r g a d uXnXnXnXnXnXnXnXnXnXnXnXnXnX",
"nXnXnXnXnXnXnXnXnXnXnXnXmXmXbXmXnXgXF.D.T.U.R.~.Y.R.R./.D.[ F ;XnXnXnXnXpXB < < x - x = k 2X$X1 $   V K #XB 4 4 d l.7.d A d 7 0 2 Z kXnXnXnXnXnXnXnXnXnXnXnXnXnX",
"nXnXnXnXnXnXnXnXnXnXnXnXmXmXmXmXnX:XW.@X.XR.U.R.Y.Y.~.D.S.Z.[ } :X:XdXnXnX3X< < x ; x * # - - $ , 8X9XkXnXkX1X=XyXbXlX4XlXyX7.d Z <XNXnXnXnXnXnXnXnXnXnXnXnXnXnX",
"nXnXnXnXnXnXnXnXmXmXmXmXmXmXmXmXnX0XD..X.XQ.Y.~./.U.D.Z.c.S.S.c.[ b G.cXnXcXG < x ; ; : ; ; # > 5XBXnXnXnXnXnXnXnXnXnXnXMXnXlXuXiXMXMXnXnXnXnXnXnXnXnXnXnXnXnXnX",
"nXnXnXnXnXnXnXnXmXmXmXmXmXmXmXmXnXbXwXZ.T.[.R.U.R.D.D.D.c.c.S.Z.c.E } mXnXnX%X= x x ; = x # o 7XnXnXnXnXnXnXnXnXnXnXnXnXnXnXnXnXnXnXnXnXnXnXnXnXnXnXnXnXnXnXnXnX",
"nXnXnXnXnXnXnXnXmXmXmXmXmXmXmXmXnXnXgXc.T./.R.U./.D.Z.b.c.c.Z.c.[ ;.pXmXnXnX%X= ; < ; ; :   #XMXnXnXnXnXnXnXnXnXnXnXnXnXnXnXnXnXnXnXnXnXnXnXnXnXnXnXnXnXnXnXnXnX",
"nXnXnXnXnXnXnXnXmXmXmXmXmXmXmXmXnXnXaXc.T./.(./.U.Z.c.Z. XZ.c.[ c.;XsXmXnXnX%X- < 1 ; : o $ vXnXnXnXnXnXnXnXnXnXnXnXnXnXnXnXnXnXnXnXnXnXnXnXnXnXnXnXnXnXnXnXnXnX",
"nXnXnXnXnXnXnXnXmXmXnXnXnXnXnXnXmXmXxX} [ D.T.W.U.Z.c.W. XZ.] F M @ V kXnXMX%X= x ; - % X K NXnXnXnXnXnXnXnXnXnXnXnXnXnXnXnXnXnXnXnXnXnXnXnXnXnXnXnXnXnXnXnXnXnX",
"nXnXnXnXnXnXnXnXmXmXmXmXnXnXnXnXmXmXmXrXG.} [ b.Z.c.[ c.c.E F 2X2XH : N pXMX2X= ; ; : $   2XnXmXnXnXnXnXnXnXnXnXnXnXnXnXnXnXnXnXnXnXnXnXnXnXnXnXnXnXnXnXnXnXnXnX",
"nXnXnXnXnXnXnXnXmXmXmXmXnXnXnXnXmXmXmXmXdXfXpX:X*X:X:XtX;Xt.4XnXnXvXpX#XV 7X2X< = 1 - o . 7XmXmXnXnXnXnXnXnXnXnXnXnXnXnXnXnXnXnXnXnXnXnXnXnXnXnXnXnXnXnXnXnXnXnX",
"nXnXnXnXnXnXnXnXmXmXmXmXnXnXnXnXmXmXmXnXnXnXdXnXmXxXmXnXmXdXbXmXnXnXbXmXpXV k - ; 1 - o o kXmXmXnXnXnXnXnXnXnXnXnXnXnXnXnXnXnXnXnXnXnXnXnXnXnXnXnXnXnXnXnXnXnXnX",
"nXnXnXnXnXnXnXnXnXnXnXnXnXnXnXnXnXnXnXnXnXnXnXnXmXmXmXmXmXmXmXmXmXmXmXmXnX6X. = = x : o $ kXnXnXnXnXnXnXnXnXnXnXnXnXnXnXnXnXnXnXnXnXnXnXnXnXnXnXnXnXnXnXnXnXnXnX",
"nXnXnXnXnXnXnXnXnXnXnXnXnXnXnXnXnXnXnXnXnXnXnXnXmXmXmXmXmXmXmXmXmXmXmXmXnXcXC = = x = o o kXnXnXnXnXnXnXnXnXnXnXnXnXnXnXnXnXnXnXnXnXnXnXnXnXnXnXnXnXnXnXnXnXnXnX",
"nXnXnXnXnXnXnXnXnXnXnXnXnXnXnXnXnXnXnXnXnXnXmXnXmXmXmXmXmXmXmXmXmXmXmXmXmXmX#X% - x : . o kXnXnXnXnXnXnXnXnXnXnXnXnXnXnXnXnXnXnXnXnXnXnXnXnXnXnXnXnXnXnXnXnXnXnX",
"nXnXnXnXnXnXnXnXnXnXnXnXnXnXnXnXnXnXnXnXnXnXmXmXmXmXmXmXmXmXmXmXmXmXmXmXmXbX2X= 1 1 : o o 6XnXnXnXnXnXnXnXnXnXnXnXnXnXnXnXnXnXnXnXnXnXnXnXnXnXnXnXnXnXnXnXnXnXnX",
"nXnXnXnXnXnXnXnXnXnXnXnXnXnXnXnXnXnXnXnXnXnXnXnXnXnXnXnXnXnXnXnXnXnXnXnXnXnX9X- < x * @ . 2XnXnXnXnXnXnXnXnXnXnXnXnXnXnXnXnXnXnXnXnXnXnXnXnXnXnXnXnXnXnXnXnXnXnX",
"nXnXnXnXnXnXnXnXnXnXnXnXnXnXnXnXnXnXnXnXnXnXnXnXnXnXnXnXnXnXnXnXnXnXnXnXnXnXvXx < x # @ . >XnXnXnXnXnXnXnXnXnXnXnXnXnXnXnXnXnXnXnXnXnXnXnXnXnXnXnXnXnXnXnXnXnXnX",
"nXnXnXnXnXnXnXnXnXnXnXnXnXnXnXnXnXnXnXnXnXnXnXnXnXnXnXnXnXnXnXnXnXnXnXnXnXnXpXB - ; * $   >XMXnXnXnXnXnXnXnXnXnXnXnXnXnXnXnXnXnXnXnXnXnXnXnXnXnXnXnXnXnXnXnXnXnX",
"nXnXnXnXnXnXnXnXnXnXnXnXnXnXnXnXnXnXnXnXnXnXnXnXnXnXnXnXnXnXnXnXnXnXnXnXnXnXkXG = * * #   K xXnXnXnXnXnXnXnXnXnXnXnXnXnXnXnXnXnXnXnXnXnXnXnXnXnXnXnXnXnXnXnXnXnX",
"nXnXnXnXnXnXnXnXnXnXnXnXnXnXnXnXnXnXnXnXnXnXnXnXnXnXnXnXnXnXnXnXnXnXnXnXnXnXvXG * = = # . V vXnXnXnXnXnXnXnXnXnXnXnXnXnXnXnXnXnXnXnXnXnXnXnXnXnXnXnXnXnXnXnXnXnX",
"nXnXnXnXnXnXnXnXnXnXnXnXnXnXnXnXnXnXnXnXnXnXnXnXnXnXnXnXnXnXnXnXnXnXnXnXnXcXcXJ # * : # o > vXnXnXnXnXnXnXnXnXnXnXnXnXnXnXnXnXnXnXnXnXnXnXnXnXnXnXnXnXnXnXnXnXnX",
"nXnXnXnXnXnXnXnXnXnXnXnXnXnXnXnXnXnXnXnXnXnXnXnXnXnXnXnXnXnXnXnXnXnXnXnXnXnXcXJ # * = # o o uXbXnXnXnXnXnXnXnXnXnXnXnXnXnXnXnXnXnXnXnXnXnXnXnXnXnXnXnXnXnXnXnXnX",
"nXnXnXnXnXnXnXnXnXnXnXnXnXnXnXnXnXnXnXnXnXnXnXnXnXnXnXnXnXnXnXnXnXnXnXnXnXnXcXL $ % = : o X 8XMXnXnXnXnXnXnXnXnXnXnXnXnXnXnXnXnXnXnXnXnXnXnXnXnXnXnXnXnXnXnXnXnX",
"nXnXnXnXnXnXnXnXnXnXnXnXnXnXnXnXnXnXnXnXnXnXnXnXnXnXnXnXnXnXnXnXnXnXnXnXnXnXvXS @ # : * $ o N vXnXnXnXnXnXnXnXnXnXnXnXnXnXnXnXnXnXnXnXnXnXnXnXnXnXnXnXnXnXnXnXnX",
"nXnXnXnXnXnXnXnXnXnXnXnXnXnXnXnXnXnXnXnXnXnXnXnXnXnXnXnXnXnXnXnXnXmXnXnXnXnXpX>   . @ . X   . 6XnXnXnXnXnXnXnXnXnXnXnXnXnXnXnXnXnXnXnXnXnXnXnXnXnXnXnXnXnXnXnXnX",
"nXnXnXnXnXnXnXnXnXnXnXnXnXnXnXnXnXnXnXnXnXnXnXnXnXnXnXnXnXnXnXnXmXmXmXmXnXnXxX5X#XJ K #X8X5XuXbXnXnXnXnXnXnXnXnXnXnXnXnXnXnXnXnXnXnXnXnXnXnXnXnXnXnXnXnXnXnXnXnX",
"nXnXnXnXnXnXnXnXnXnXnXnXnXnXnXnXnXnXnXnXnXnXnXnXnXnXnXnXnXnXnXnXmXmXmXmXnXnXmXmXMXMXnXnXnXnXnXnXnXnXnXnXnXnXnXnXnXnXnXnXnXnXnXnXnXnXnXnXnXnXnXnXnXnXnXnXnXnXnXnX",
"nXnXnXnXnXnXnXnXnXnXnXnXnXnXnXnXnXnXnXnXnXnXnXnXnXnXnXnXnXnXnXnXmXmXmXmXmXmXmXmXmXmXmXmXnXnXnXnXnXnXnXnXnXnXnXnXnXnXnXnXnXnXnXnXnXnXnXnXnXnXnXnXnXnXnXnXnXnXnXnX",
"nXnXnXnXnXnXnXnXnXnXnXnXnXnXnXnXnXnXnXnXnXnXnXnXnXnXnXnXnXnXnXnXmXmXmXmXmXmXmXmXmXmXmXmXnXnXnXnXnXnXnXnXnXnXnXnXnXnXnXnXnXnXnXnXnXnXnXnXnXnXnXnXnXnXnXnXnXnXnXnX",
"nXnXnXnXnXnXnXnXnXnXnXnXnXnXnXnXnXnXnXnXnXnXnXnXnXnXnXnXnXnXnXnXmXmXmXmXmXmXmXmXmXmXmXmXnXnXnXnXnXnXnXnXnXnXnXnXnXnXnXnXnXnXnXnXnXnXnXnXnXnXnXnXnXnXnXnXnXnXnXnX",
"nXnXnXnXnXnXnXnXnXnXnXnXnXnXnXnXnXnXnXnXnXnXnXnXnXnXnXnXnXnXnXnXmXmXmXmXmXmXmXmXmXmXmXmXnXnXnXnXnXnXnXnXnXnXnXnXnXnXnXnXnXnXnXnXnXnXnXnXnXnXnXnXnXnXnXnXnXnXnXnX"
};
