/* XPM */
static char *result[] = {
/* columns rows colors chars-per-pixel */
"80 80 238 2 ",
"   c #131E28",
".  c #1D2328",
"X  c #2E2B2C",
"o  c #383535",
"O  c #4B352A",
"+  c #5E3D2F",
"@  c #473835",
"#  c #4D3C3A",
"$  c #543D35",
"%  c #553E3A",
"&  c #5A3E38",
"*  c #643E35",
"=  c #3E403E",
"-  c #4D413C",
";  c #5B4437",
":  c #54433C",
">  c #5B443D",
",  c #62453C",
"<  c #64493D",
"1  c #6A483B",
"2  c #6C4C3E",
"3  c #764C3A",
"4  c #78513D",
"5  c #4A4241",
"6  c #564743",
"7  c #5C4642",
"8  c #5D4A42",
"9  c #624642",
"0  c #644B43",
"q  c #6B4D43",
"w  c #684C48",
"e  c #724E42",
"r  c #6C5245",
"t  c #675448",
"y  c #6C544B",
"u  c #745444",
"i  c #7A5645",
"p  c #765946",
"a  c #7A5946",
"s  c #74554A",
"d  c #7A564A",
"f  c #74594C",
"g  c #7C5B4B",
"h  c #6A5B51",
"j  c #765853",
"k  c #755C52",
"l  c #7B5D52",
"z  c #7C614D",
"x  c #796357",
"c  c #7D6154",
"v  c #81543E",
"b  c #835B45",
"n  c #845844",
"m  c #835D4B",
"M  c #895E4B",
"N  c #825E52",
"B  c #85624D",
"V  c #8C634D",
"C  c #8D694E",
"Z  c #966446",
"A  c #93654D",
"S  c #936A4E",
"D  c #9B6C4E",
"F  c #846353",
"G  c #8B6552",
"H  c #8D6A54",
"J  c #83655A",
"K  c #876759",
"L  c #856B5A",
"P  c #8C6C5A",
"I  c #936652",
"U  c #946B54",
"Y  c #9A6D54",
"T  c #90675B",
"R  c #946E59",
"E  c #9A6E59",
"W  c #8C705C",
"Q  c #957156",
"!  c #9C7255",
"~  c #95725A",
"^  c #9C735A",
"/  c #977A5F",
"(  c #9D795D",
")  c #A46E4D",
"_  c #A6774D",
"`  c #A26E55",
"'  c #A37455",
"]  c #A97655",
"[  c #A47956",
"{  c #AB7B56",
"}  c #A3755A",
"|  c #A9775A",
" . c #A47A5B",
".. c #AB7C5B",
"X. c #B27C56",
"o. c #B87A57",
"O. c #B17E5B",
"+. c #8F7061",
"@. c #947462",
"#. c #9A7561",
"$. c #957B66",
"%. c #9C7A64",
"&. c #9A7D69",
"*. c #A57660",
"=. c #A37C62",
"-. c #AA7D61",
";. c #A37F69",
":. c #B47F62",
">. c #AD8057",
",. c #A4825D",
"<. c #AD815C",
"1. c #B98356",
"2. c #B2835D",
"3. c #B9855B",
"4. c #B4885E",
"5. c #BB8A5D",
"6. c #9F8064",
"7. c #9C826A",
"8. c #9D8471",
"9. c #A58364",
"0. c #AC8363",
"q. c #AC8966",
"w. c #A4836B",
"e. c #AB866A",
"r. c #A58A6D",
"t. c #AC8A6A",
"y. c #B28562",
"u. c #BA8664",
"i. c #B58A64",
"p. c #BB8C64",
"a. c #B1866C",
"s. c #B48C6A",
"d. c #BA8D6A",
"f. c #AE916C",
"g. c #BC9166",
"h. c #B5916C",
"j. c #BD936B",
"k. c #BB976C",
"l. c #A58972",
"z. c #AC8C74",
"x. c #B28D72",
"c. c #B98F74",
"v. c #AD9172",
"b. c #AC927A",
"n. c #B59273",
"m. c #BC9473",
"M. c #BE9A75",
"N. c #B7977A",
"B. c #B4947C",
"V. c #BD9B7B",
"C. c #BDA17C",
"Z. c #C18C5E",
"A. c #CA905D",
"S. c #C28E63",
"D. c #C28D69",
"F. c #C39264",
"G. c #CB9565",
"H. c #C3956B",
"J. c #C5996E",
"K. c #C39573",
"L. c #C79675",
"P. c #C49B73",
"I. c #CB9C73",
"U. c #C39D7B",
"Y. c #CA9E7C",
"T. c #D59E79",
"R. c #C9A074",
"E. c #C5A27D",
"W. c #CCA37C",
"Q. c #D4A47C",
"!. c #D8A67C",
"~. c #E4A77E",
"^. c #AE9981",
"/. c #B49C82",
"(. c #BA9C82",
"). c #BDA588",
"_. c #C59E81",
"`. c #C4A484",
"'. c #CBA583",
"]. c #CCAA85",
"[. c #C6A788",
"{. c #C5A98A",
"}. c #CCAB8C",
"|. c #D3A683",
" X c #D9A785",
".X c #D3AB85",
"XX c #DCAB85",
"oX c #D4AD8C",
"OX c #DBAD8B",
"+X c #CDB28C",
"@X c #DAB285",
"#X c #D3B28D",
"$X c #DDB28D",
"%X c #C5AE93",
"&X c #CEAF91",
"*X c #D3AE91",
"=X c #CEB192",
"-X c #CBB99A",
";X c #D3B494",
":X c #DDB592",
">X c #D5BA95",
",X c #DCBB95",
"<X c #D7B69A",
"1X c #D6BA9B",
"2X c #DBBC9B",
"3X c #E1AC84",
"4X c #E2AD8A",
"5X c #E3B28B",
"6X c #E3B48A",
"7X c #EBB48C",
"8X c #E2B592",
"9X c #E3BA95",
"0X c #EABC95",
"qX c #E3BC99",
"wX c #E9BE9B",
"eX c #DBBFA0",
"rX c #E6BFA0",
"tX c #D6C099",
"yX c #DCC29D",
"uX c #E5C39A",
"iX c #E3C29D",
"pX c #EBC39D",
"aX c #F2C79C",
"sX c #DCC3A2",
"dX c #DFC9A4",
"fX c #E4C6A3",
"gX c #E4CBA5",
"hX c #EBCBA4",
"jX c #E8CBA7",
"kX c #F3CBA4",
"lX c #F9CDA1",
"zX c #E5D2AB",
"xX c #EBD3AB",
"cX c #EBD8AE",
"vX c #F8D4AA",
"bX c #EEDCB3",
"nX c #F5DAB3",
"mX c #F7E5BA",
/* pixels */
"^ G R ! Y D D ] { y.*.j H O...H.-.% g | p.H.H.F.H.J.J.j.j.j.j.j.j.k.k.k.p.4.2.2.i.2.<.! U S V V g % > e 1 2 i V q % < u r u M U } | | ....O...| O.| ..O.` Y E E ",
"<X}.}.{._.B.0. . .! I d G ..O.S.H 7 d } d.H.F.S.p.g.d.j.J.J.H.J.H.H.h.g.4.<.<.<.y...^ l./.b./.b.b.V.B.r.L x x P W @.L y y k s s d ! y...| | | O.O.O...} } E H m ",
";X;X>X;X<X1X<X;X+X{.n.r.#.} Z X.G 7 g ` u.p.p.p.p.i.i.g.j.k.J.j.g.k.g.i.<...<...| ! #.%XdXzXbXbXmXmXcXzXdXdXdXiX+XgXzXtX=X1Xz.=.#.F } ..} E E #.^ T T T K l 9 ~ ",
"&X&X&X&X&X&X&X2XfXjXfX2X;X=X}.=.n e q Y p.p.5.u.4.<.q.i.g.i.h.g.i.i.i.q.[  .|  .D g J -XdXcXxXcXbXcXxXzXcXcXmXtX+XxXiXyXtXsXN.m.e.7 u V G m N N f j y 9 9 9 j '.",
"=X}.*X&X&X&X&X;XtXfXfXjX<X=X-X^.(._.z.P b { <.| [ [ ,.y.y.y.y.y.y.y.0.} } } U Z 4.0.9 -XbXyX,XgXxXzXzXbXmXmXzX+XgXzXzXyX>XeX).h./ G g f s m l p s 0 f ~ t.m.Y.W.",
"2X=X+X}.&X&X;X;X>XjXnX;X(.=X=X=XeXhXnXk c ~ ^  .! ! ! ! ] ! Y ) ' ' Z M A A ! E.vXI h mXxX>X].'.E.+XgXcXmXzX).,XxXdX{.yXzXzX>X~ t n.M.].#X}.].{.].x.h..X@XOXY.U.",
"N.;X;X=X=X;X2X2XjX1Xl.z.sXcXdX=X-XfX&.L &X%X>X;X#X+X).x.r.v.n.s.h.j.s.w.( M.,XmX/.. B.aXM.,.9.<.[ <.i.R.V.9.C <.P.n.B r.{.+X<XP o 6 t W 7.l.7.b.{.yX,X+XR..XB.z.",
"Y s.+X=X}.;X{.`.b.K /.nXcX1X1XdXeX&.&.<X2X<X2XsXfXfXjXzXfXfXsXsXtXsXsX>X;XjXhXW.# o f.4.Q _ } } [ ! ! ,.r.Q i ) Q ^ ,.[ ( ,.C.7.# - - # : j k y f $.N.N.U.:X&.%.",
"! ( C.h.U V B u < E m.tXzXfXzX=X&.^.<X<X}.&X=X;X<X2XyX2X>X;X=X}.}.}.}.&X2X;XU.N @ 6 l E ^ } } ! ^ ! !  .y.Q B  .[  .! S ( t.t.7.6 - 6 0 f k g F l s w 0 %.,X@.~ ",
"! 6.M.^ u p g p l 0.0.0.V.>Xb.W {.jX*X&X&X&X&X*X;X;X;X*X;X2X2X<XyXiXiXiX[.;.N w - 6 l P Q ^ } ! ' } [ !  .C V [ [ ! E U ( 9.q.b.t # 0 h l g l F K F c s c U.J / ",
"}  .h.R g p p F J R 0.y.i.Q F -X1X=X;X=X=X=X&X[.{.(.).(.B.b.b.b.b.{.).r.k % w d % f E R Q ^ ..' ! ' [ [  .V U ! ( }  .,. . .9.N.x # 8 y x F F F F F F l j ~ k w.",
"} } q.H p p u H K H 0.0.q.P w.#X{.{.=X}.].V./.{.{.{.#X[.b.$.P F c F H ~ @.%.K 6 6 F U E ! ' ,.! ' ! ! >.Q B ^ ^ [ (  .^ ! ~ R 7.j # 0 f y w f G R P F x f F k r.",
"} } 9.G p p p P F ^ h.,.q.(  .9.C.C.k.i. .E y.a.a.d.P.<XE.s.0.t.z.^ a d ` H.$.@ 0 K U ! !  . .' } ! [ 0.S i  .} ( R q & < q q M j F ;.w.P c f 9 r K R G l l c t.",
"! } %.G i s g G l 9.t.,.q.#.*.9.h.h.>.' Y D Y Y Y ) } s. .R ! Y  .=.&.F 9 G J # s G R ^ ! [  .[ ^  ...0.H V } ! ^ q k w.l.&.#.R J (.:X}.].U.B.@.p 0 r z K N F 0.",
"!  .=.G i p F g l e.t.,.t.%.=.s.n.t.y. .*.^ ! ! ^ R ^ 0.^ E ! ! ' S Y ;.L N y 6 s G ! '  .[ [ ! R Y  .( H U ! E N +.fXhXfX2XyX,X+.l $./.).z.V.].U.;.l r 0 r J s.",
"E 9./ B i p M s l t.t.,.9.9.9.e.n. .-.-.*.%.^ ^ R U E 9.^ ! } '  .' ' I *.9.8 w N I } }  ... .R S Q Q [ U E ! E N ;.].[.#X;X;X<X$.l j y k K w.{.`.E._.z.F 0 c h.",
" .=.Q z p p V d L f.q. .9.q.0.r.s.( ^ (  .} *.^ Y Y Y =.^ Y ` } ' ! ! Y  .W 6 i V U ! [ <.} S R [ Q ' ( z ! ! R l ^ Y  . .*.} H 8 k J x J J j b.}.}.'._.U.l.( s.",
"=.~ Q z i i I f c h.q.,.q.t.s.r.e.! ~ ^  .` ^ } Y Y } ..^ ! } } ' ' } ' } f , B H H ! ..<. .! ! !  .0.p b  .! U j ^ } Y D A A 0 o h L +.+.@.+.#.j N B.;X}.`.e.0.",
"! ^ P g u i I s x h.q.9.9.f.f.t.e.R R  . .E ! } E E }  .R U Y } ' ' } ' *.f q G U U [  .{  . .[ ..,.H i C } ^ H q U ..' ' ' Y u 5 h L &.&.&.;.+.: % 7 $.(.{.x.0.",
"} ^ H g u i I s F h.,.9.t.f.t.t.s.!  . . . .} *.^ E  .=.S S U Y E ! E ' ;.h u G U Q !  .,.[ [ 9.( b S U U ! ~ B 1 < U ..' E G u 5 t +.&.;.#.;.N : 9 7 # % x x.d.",
"} ( H g p p Y g F f.,.9.t.f.f.9.s. .=.,.9...=. .! E ^ ! G S U Y U I I E ~ r g G H U E ^ ( ! =.S b ! ! m ! ! ^ g r l g U ^ U G u 5 h L $.#.#.w.f : > 9 0 7 > w.m.",
"} ( H g a 4 T l F t.9.q.f.q.t.t.s.,.0. .! ^ *.} E I R U U E Y E U G m m c s m F G U R Q Q ^ B B }  .V B Y S H m u } } ! E U H s 5 8 J 8.%.#.&.y : 9 0 0 8 q 9.j.",
"} #.G z g i M y W s.,.r.t.q.q.r.s. .q. .~ ^  .*.E U E R E ! } ^ U U ~ B s f g N F G H G G B b ^ ! V V R 9.0.H 2 2 U } } E U E s = t x +.&.%.$.9 > 8 0 r 9 s e.h.",
"} } G m i d M s / t.9.t.r.t.q.f.e. .<.=.#.^ } } Y Y ! E ^ } } ! Y R ! -.G s l g f d d i 4 B  .}  .s.M.'.oX*X[.^ 1 U ' ! E E } y o 8 h P #.;.P < 8 8 r q 0 l s.i.",
"} ~ G a a n M k ;.q.9.t.6.q.q.q. .( ,. .^ ^ ^ ! I Y } ^ !  .[ } ! E S *.~ j f g F g B ~ e.U.V.[.*X*X].P.j.#X;XgX%.b ' E Q ^ *.w . 5 h x &.&.F 6 8 8 0 y w G s.s.",
"} %.H m p a u y e.9.9.t.6.,.q.r.^ ^  . . .^ =.! E E ^ !  .{ ] ! E U Y 0.~ g P =.s.h.E.#X*X;X*XoX}.'.].'.}.<X<XiXw.B Y U S ! ..w   o = x &.&.f 9 8 0 0 r q P h.s.",
"} %.G i p g p y 9.9.9.t.9.q.f.9.! E  . . .^ } Y E ! ( } { { } ! I V } U.m.n.].].m.'.}.}.*XoX}.}.<X<X#X2X>Xx.W.+Xa S Y U S ! ..h   o @ - j J y 9 8 t 0 q y E n.i.",
"} ! B i i g f s 9.9.9.f.9.9.t.r.U U ^ ^ } ^  .' Y }  ...X.| E m b  .U.*XoX*X<X;X*X<XqXyX;XoX[.Y.L.p.4.g.0.' i.6.< U S G U R E j x 9.9.G w 8 % % 7 6 w 0 0 R k.0.",
"} E V i i g s k 9.q.r.t.,.,.q.9.E V Y ! } ^ } } E -.[ | ..R b B N.,XyX<XeX<XoXE.V.].].<.! ' M.j._ _ >.[ ' >.p.Q 7 U C G C U C G |.pXhXpX@X).z.%.N s 7 % $ M e.q.",
"} ! g g p a f k 9.9.9.q.9.9.9.9.Y M U ! ! *.| | ] -.| | Y i m W..X].].R.U.Y.i.2.4.i.[ B U ! 2.<.{ 2.y.[ [ <.5.Q < V V F H R R e &.vXxXgXzXxXxXhXeX*XU.;.P M E ! ",
"*.Y u a a m u h 9.,.9.9.(  .r.9.S M U E E } *.| ! Y Y ! V 4 p  .2.>.[ _ _ 4.i.i.j.i.! V ! | 4.2.>.<.<.....>.5.! , g V B V H Q q ; U..XuXuX>X#X+X9XfXkXkX0X.XY.m.",
"*.E a d p m g k r.9.#.( ( 9.9.( U A G V A n M I U b 3 p g 3 2 m ! .. .[ <.i.i.g.k.i.~ V ! ..<.<.<.4. .[ 4.>.y.R < u m m m U G r @ ; 2 e.tXgXjX,X,XyXyX;X>XyXvXxX",
"*.^ g i p p g J 9.9.^ ~ ^ ^ E A b 4 n b b I 0.L.[.oXq.p < u < m D [ ' _ { i.i.h.s.j.i.I ! [ ,.<.<.4.[ ' >.>.<.V 0 0 p b B H H h o - # O q %.`.uXfXjXgXyXyX2XtXiX",
"} } z u i g F c 9.~ G g m E } -.G ^ s.L.|.8X9X9XpXvXmX#X1 < 1 m !  .[ { >.h.i.k.s.g.0.R ! ' <.>.2.[ ! <.>.>. .V 0 < p a V B ^ l o : ; t , , e ^ $XfX>XiXhXjXiXyX",
"} ^ g a g p s f H H R ! s.W.rX&XV.wXaXwXwXwX:XpX0XOXE.E.,.; ; M E } <.2.>.h.q.i.j.d.<.U ! ] <.4.<.! >.>.<...E B t < u B B F V < . @ ; 0 f g y q n.[.U #.e.L.$XuX",
"*.^ g p p < u w.E.W.@X8X9XkX}.t.:XpXhXwX8XfXvX#X9.R m C  .2 ; M ! [ >.>.>.g.i.i.g.g.q.E  .{ <.<.( [ 4.>.[ ] U M r < < r a H ! %.h t M u g T m s R s.I m M U } a.",
"*.} a q 0 p U.vXvXpXuXkXkXn.n.hXvXiX;XY._.'.;Xw.G ^ ~ E ^ y $ B ! ,.>.{ [ g.h.h.g.j.0.! [ 4.4.( D >.[  .! ! ! m 4 ; $ g  .Y.OX5XOX X|.R.0.m F m ~ r.E T H T U I ",
"E N r f r C uXvXxXvXkX#X7.( *X:Xc.w.E }  .' ] 9.9.;.%.#.=.r & M ! >.<.{ ,.4.g.k.h.j.,.!  .{ { S ! ! D Y ! ^ V 4 4 z ( Q.$X@X:XOXoX*XOX7XG.s N G #.s.! H E E ^ ! ",
"^ c f g 2 r.mXmXjX:XM.^ P W p m Y '  .} }  .' 0.n.=.} *. .y > V ! >.2.>.i.h.h.g.d.g.<.U ] ' S C Q S M n n n A Y s..X8X$X$X;X:XOX X|.4X7XD.9 g R #.x.} E R } ..' ",
"-.} p u g .XuXN.~ C C Q 9.Q H F L V R #.=. .! -.s.^ e.=.;.r 9 V ! >.2.<.0.g.h.h.g.d.[ U ! U V Z v v v M ! y.Y.:X,X,X:X:X:X:XoXoX9XOXL.T.;.> s U R 9.^ E ' | | ] ",
"*.U p u H h.C B H H Q ~ H Q ( ,.^ H R H B H G i c h.h.=.e.y 8 G ! <.>.{ 4.h.g.k.g.i.! U D A V 3 4 S  .h.].qX,X:X9X,X,X8X;X;XqXfX Xu.-.y.R 6 y F ^ e.^ } | ..] ] ",
"| E d u G  .Q Q Q H Q Q Q Q Q U R ^ =. .R ~ U p r.W.0.9.s.0 9 I [ ,.<.<.i.h.h.h.i.i.! S A v 3 Z s.]..X:X9X#X$XqX,X:X,XiXgXhX8X:.] } *.*.U 6 8 a ^ 0.^ } ........",
"*.U d u B q.! Q Q Q Q Q Q Q Q Q Q Q S R  ...O.[ ^ i.s.;. .; 0 G !  .{ { y.i.h.g.s.0.! M 3 n s.*XqXqX:X:XY..XiXqX:XqXqX:X@XK.d.) -.E P *.E : 8 a ;.i.} *.0.O.O...",
"=.U i r g 9.! Q Q ~ ~ U Q ~ ~ ~ ~ ^ Q ! } ' ' ' U =.0.*.=.< < G Q ! { [ 0.i.g.s.0...v v e.oXiX9XOX.X.Xp.J.hX9X:X9X8XY.S.3.O.y.s.! Y E ^ ^ > 6 B q.y.*.-.2.2.1.{ ",
"*.U a r u 9.^ Q Q Q ^ Q Q Q ~ R B V R Q E ! ' ' Y ! 9.^ R > y G E ' ' ' ,.s.s.-.I A  .|.rXqX:X].R.W.$XP.$XqX8X:XwXY.' y.y.0. .} ' } ^ ^ ^ 7 > m 0.0...0.i.3.1.] ",
"R U p < r q.Q R ~ H Q / Q Q ~ Q Q R Q ~ ~ E Y ! ! Y E *.B O s I U Y Y ! 9.y.;.U ` K.:XqX2X2X,X:X$X,XqX$X X|. XpXoXV ..y.-.} !  .9...} E E 6 8 p =.y...i.5.5.1.{ ",
"R G 2 ; t q.Q Q ~ H ~ ^ Q Q Q ^ / Q Q Q H U U Q E E U h.H O p M b S S ! y. .G y.XX9X:X:X,XqXqXqX8X$X XT.I.Q.!.vX=.3 y.0. .}  .<.i.<.*.E P 6 0 g =.0.{ 4.5.Z.5.| ",
"G g , ; t t.! Q Q Q ~ ( Q ~ ~ Q Q Q Q U H H R H G V U ! 4 ; s p a B B ..E M d.6X@X5X8XqXqX,X:X$X8X$XoX X8X9XvX}.* M i...| <.0.0.} 9. .E I 7 7 a  .,.{ 5.Z.S.3.' ",
"G f $ $ ; 0. .Q Q W H Q Q Q Q Q ~ ~ Q Q Q H R H Q R V G < ; q e a b V ^ I P.5X5X6X6X:X8X:X9X8X8X:X8X8X9X9XfXpXV * R a...y.y.y.s.Y  ...^ R 7 : u ^  .{ 5.Z.F.X.Y ",
"& @ X o o ^  .b b B 4 V H B B B H ~ ^ ! ^ ^ ^  .,.! V m < + + 1 2 2 a m P.aX!.XX6XOXOXOX$X:X:XqXwXwXrXwX9XpXd.e 2 Y i.i.p.s.y.u.s.0. .I u 8 > e R  ...3.Z.F.{ I ",
"7.W s .   V ! w.( C B C H ~ ( Q B V Q ( ! ,.p.j.k.i.0. .^ ^ m 2 < 1 , a y.oX9X X|.OX$X9X9XiXhX;X`.iXOXY.j.j.} i 3 U H.i.p.i.0.4.i.<.E H l : 8 u U  .{ X.S.G.3.' ",
"kXkXpXU.9.y.P eXnX:X>X+X+X,X,X+XV.( B ! s..X@X5X0X0XuX9XuX5XoX'.Y.r.; 9 ) U _.4X8XfXiX:X#X$X#Xs.9.g.{ } ' y...u 1 U g.p.i.y.<.i.y.9.*.*.=.6 9 u G ' ] O.G.G...a.",
"8X,XcXnX0XuX-X&.yXnXfXhXhXiX9X8X5X Xu.K.pXkXkXkXkXkXaXwXwX9X8X7X7XaXH.e Y ] o.G.Q.Q.P.i.d.4.2.p.g.2...,...u.y.i 1 R J.i.d.y.s.d.y.0.} } R 6 9 i V ! ] 1.F.Z.) d.",
"cXcXmXnXqXOXvX/.L nXxXgXgXqX9X4X5X~. .E n.@X.X$X9XpXkXaX0XqX8X4XXX~.vXd.v ` o.A.1.1.1.g.F.4.4.2.{ 2.......p.Q 4 e U j.i.i.y.y.d.y. .} *.F 6 e g V Y ] 3.Z.o.D d.",
"oXJ.L.XXW.L.3.K.t &.#XM.U.U.V.L.W.I.> 9 ` <.<.i.P.U.U.W. XoXOX3X7X7XL.G i A ..p.S.p.5.g.H.4.2.2...,.<.2.,.=.H i 3 U j.y.y.p.i.| y.0.! } g : u g U Y ] 1.1.] Y 0.",
"j.u.) o.[ D ) ' g <  .' Y Y U E  .i.0 G <...i.i.y.s. .} | *.} =.x.T , & d Y } u.A.Z.5.g.S.4.{ ..0.y.<...<.d.0.p e I p...0.p.0.<.y. .E p.H % i b S ' | O.o.) } O.",
"] i.4.E.0.Y | y.R q ^  .....} ^ Y [ 0 H <.9.4.i.p.y.y...[ } R I M 9 2 2 q Y ` y.F.Z.A.5.1.4...0.2.0.<.{ ..u...i q A y. .0.i.<.-.! ^ ..y.g > i M I ' ] X.X.A } <.",
"X.' S i.i.] | p.Q r E  .2.-. .^ } -.0 G .. . .i.g.i.i.2.<...| } %.a i q < A Y y.F.Z.F.5.1.O...y.<.y.0.O.} y...g e b ..} 0.0.V g %.y.>.{ h % a V I ' { { { Y  ...",
"{ [ ' ..4.| ..F./ r R  .y.y.} ! } G 0 G U ^  .y.i.g.y.4.y.0.-...} p i q , m G | p.F.A.3.O.{ <...<.y.O...] y...b 2 b { 0.~ G F /  .! ..y.s # u b A } ..X.{ ! ..| ",
"....] 2.O...| F.9.0 H  .2.{  .^ a b t g I } ..i.g.p.i.i.y.2...O. .g b > & n N I 5.G.F.1.X.X.0.2.<.......] y.{ i 3 G R m G ! ..<.'  .} | r : u i V | X...' ] 2.] ",
"..| { O.O.-.| g.v.0 G  .<.{ ..P C { < g R ^ | 4.p.i.k.i.p.O.} y. .g m ; $ 4 N B U i.3.3.X.....y.<.{ | ..] u.| i e e m S 0...' } ..-.| | y 6 d g G | X...Y ' 2.{ ",
"....{ O.O.....4.t.y B ..<.| | ! 4.>.0 a ! } ..i.4.4.g.g.i.{ | 5.[ g V > $ e d } 4.5.i.2.O.O.{ 2.0...] | | u. .B < d p.p.{ <.....| Y I -.g 7 u b I ] X.X.` ] O.| ",
"....| { ....| 4.t.r V ....{ | O.<.<.q s !  .<.i.p.i.g.g.i.4.2.4.R B G 0 % q s Y Z.G.S.O.{ O.{ 9.<.] ] ] ..y. .m u E S.O.) ] .. .I A M E u > d Y ' { { ..` | O.| ",
"| ......} ......e.s B ..|  .| ....| < l *...<.g.g.g.H.H.u.<.[ ..U B I 0 % 9 d E S.G.Z.O.O.2.2.<.O.' ' { ..y...n u D u.| Y Y } U M n M E e O < m S ) ] [ Y ..2.| ",
"........ .| ..2.t.j B } | ..| ^ 0.D ; F  .-.i.g.g.H.g.<. .} I E U g G u % : > U D.Z.1...O.O...-...] ' O.2.p...d d Z ` A M Y ` ` ] ] O.d.:.| | } ` | | ] ) D ` O.",
"..| ....| | ..{ s.c l } O.| E E y.! % G <.y.y.p.F.g.<.-.-.} R M 1 & > O X X @ ; n N V G N H E R U ^ ! { | ` U M n ` y.u.D.D.D.I.T.~.3X3X4X7X7X7X4X4XOXT.3X*.e -.",
"..O.| O...{ ....g.L l } ..! E E 5.C $ R y.y.u.p.F.i.].8X$XoXoX'.c.z.=.z u t y d l F p f f p u F } -.2...] y. .i Y !.7X4X3X!.T.!. X3X3X3X3X4X4X3X4X4X4X7X3XG w *.",
"..| | y.O.| O...K.@.N ....} %.! g.G % ^ i.4.u.p.5.R.kXpX6X9X0X0XaXaXkXaXaXpX0X0X9X@X XoX.XoXc.q e E O.1.1.2.} V !.7X!. X3X X3X3X4X3X3X X4X5X3X4X4X4X8X7XG.d 7 E ",
"....| y...| O...g.&.R ..| |  .! p.B , } i.p.p.i.F.R.Q.,XpX:X$X$X5X:X$X|.|.XX0X8X9X0X0X0XpXuXaX$X6 9 U O.2.O.E R I.D. X4X4X8X0XOXXXOX$XpX9XoX|.oX'._. X_.d.| 9 H ",
"| ..| O.O.} O...y.#.N ..O...[ ! 2.p q 0.i.g.g.5.Z.R.R.R.uXpX9X$X:X8X$X X.XOX5X8X8X5X8X$XOX@X8XlX`.% e ' O.{ U S H.| d.Q. X'.K.s.s.k.K.Y.y.O.d.d.y.*.-.-.O.3.s d ",
"......O.O.| { ..p.@.d  .O.......2.q y 0.p.H.g.i.5.R.R.J.H.].hXuX8X8X8X8X9X8X:X:X$X8XOXQ.Q.|.OX5XlXz.& E O.] S V d...' [ ..} } =.s.h.u.] ) ] ] O.2.u.d.O.| :.U q ",
"..| ..O...| ..] K.9.q *.<.| | 2.<.6 g <.g.K.H.p.F.R.P.j.g.R.].R.8XfX,X8X9X8X:X$XOX8X8X8XpXpXuXfXqX4XF a | ] V U g.0.] | } } *.q.s.g.K...' O...| { ' Y U ` | ..f ",
"....| :.O.....] u.n.d R ......O.,.> g y.H.J.H.5.S.I.J.j.g.P.R.p.j..XiXuX9X9X$X$XqX$X.XoX_.|.#X#XP.p.p u ] ! M ^ d.} } .. .{ ..0.q.s.P.<.] ..| } } | ` Y Y E ..H ",
"..| | u.......} O.P.J G | ..| u.y.> g y.H.G.H.F.F.I.P.j.g.J.W.j.g.p.M.#X:X$X|.|.@XU.=.B V ..4.<.3.<.8 u ` Y b  .u.Y | | ..| | ..y.s.m.y.]  .] ' ` E E E ! R ! *.",
"..| ..y.......| ..W.@.g *.....y.<.9 l i.F.J.H.F.F.J.J.H.g.P.P.j.k.H.k.J.W.J.i.i.<.2.i.[ | i.4.4.g. .> s E D m ^ u.! ....| [ ! ' 0.-.h.y.` ' ' ' } E Y } | } U } ",
"....| y.O.....{ ..R.w.d -.{ ..2.<.0 B p.H.F.H.H.F.J.J.j.j.I.P.j.H.j.g.g.J.u.<.<. .<.<.y.2.<.0.4.g. .> u Y D m ^ d.] | { ..| } } *.} i.i.E ] }  .} ` } } Y E U } ",
"..| ..O.-...| { <.J.%.f ^ 2...2.,.w g u.H.G.H.H.F.H.J.g.H.P.H.j.k.j.H.J.J.p.i.,.,..... ...9.-.y.H.^ # f Y I S ! H.] | { { ..} | } ] 0.y.| | .. .} } E D A M Y | ",
"| O.| O.O.......y.k.G w ^ <...2.<.q g y.H.H.H.H.H.J.J.j.k.J.H.j.H.j.i.t.J.p.2.i.,.-.-.9.0. ...y.J.z @ g I ` R U u.| | ....| ` | ..{ O.y.......| ' } U ` -.} Y } ",
"....] O.-.......,.g.@.w E y...2...< d y.F.H.H.G.H.J.J.k.j.H.k.H.j.H.J.h.W ( 2.i.0. .=.-.<...,.i.F.z @ a I ` E U O.'  .........O.| ..<.y.{ | ..| ' ' Y } -.} } ..",
"..] ..O.O.......O.i.( f P -.{ y.y.0 d y.F.H.H.H.H.J.J.H.k.k.H.j.J.k.g.R.t.<.p.i.2.0.,...,.y.i.u.A.z @ g Y ' R Y -.` ..| ....| ..| | O.y.| ....{ | ] | } } ` } | "
};
