/* XPM */
static char *result[] = {
/* columns rows colors chars-per-pixel */
"80 80 256 2 ",
"   c #19282F",
".  c #263733",
"X  c #324935",
"o  c #3F6332",
"O  c #425438",
"+  c #4D713A",
"@  c #374747",
"#  c #374E4C",
"$  c #434D4E",
"%  c #4B5848",
"&  c #4A5A57",
"*  c #535B58",
"=  c #476646",
"-  c #546C48",
";  c #5A7848",
":  c #4B6357",
">  c #586858",
",  c #577456",
"<  c #677653",
"1  c #647A59",
"2  c #4E5C61",
"3  c #596665",
"4  c #586D6D",
"5  c #646D69",
"6  c #697768",
"7  c #727B67",
"8  c #6A7674",
"9  c #757C76",
"0  c #5B8A3B",
"q  c #5A8347",
"w  c #5D8758",
"e  c #66874A",
"r  c #6F954C",
"t  c #6A8858",
"y  c #768A5B",
"u  c #6D9554",
"i  c #789859",
"p  c #7CA359",
"a  c #5D8367",
"s  c #6A8666",
"d  c #758867",
"f  c #7A9667",
"g  c #698674",
"h  c #798677",
"j  c #7D9575",
"k  c #7CA464",
"l  c #82995B",
"z  c #85A65B",
"x  c #94B35D",
"c  c #848A6E",
"v  c #869967",
"b  c #839A6C",
"n  c #858B79",
"m  c #889877",
"M  c #939A7B",
"N  c #83A363",
"B  c #88A467",
"V  c #8BAC63",
"C  c #8CA56B",
"Z  c #8BAB6B",
"A  c #93AA6A",
"S  c #8DB265",
"D  c #97B669",
"F  c #9CBB6C",
"G  c #8BA775",
"H  c #8CA474",
"J  c #92AC72",
"K  c #96A87A",
"L  c #9AB576",
"P  c #A6B776",
"I  c #A2BB73",
"U  c #A6BA7B",
"Y  c #9CC172",
"T  c #A7C76A",
"R  c #A4C373",
"E  c #ABC37B",
"W  c #A9C678",
"Q  c #B5CA79",
"!  c #B3CC7B",
"~  c #B9D47A",
"^  c #C2DB7F",
"/  c #6C7883",
"(  c #798684",
")  c #778E8E",
"_  c #878B86",
"`  c #918E86",
"'  c #8A9588",
"]  c #969987",
"[  c #959B8C",
"{  c #8A9795",
"}  c #979A94",
"|  c #A39E96",
" . c #8DA38B",
".. c #99A786",
"X. c #9CB484",
"o. c #9DA394",
"O. c #9BA599",
"+. c #A4A48D",
"@. c #A4A988",
"#. c #A3AB8C",
"$. c #ABAC8D",
"%. c #B0AF8D",
"&. c #A3B484",
"*. c #A7B985",
"=. c #ABBB84",
"-. c #A4B38B",
";. c #ACB38C",
":. c #ACBB8B",
">. c #B3B98B",
",. c #B3BC8C",
"<. c #A3A493",
"1. c #AAA693",
"2. c #A4AC93",
"3. c #ABAB94",
"4. c #A4A59A",
"5. c #A5A89C",
"6. c #ACAC9A",
"7. c #B1AD95",
"8. c #B2AE9B",
"9. c #A7B796",
"0. c #ACB393",
"q. c #ADBA93",
"w. c #AEB19C",
"e. c #B2B494",
"r. c #B3BB94",
"t. c #B9BC95",
"y. c #B3B39D",
"u. c #BAB59D",
"i. c #B5BB9B",
"p. c #BABC9C",
"a. c #999CA3",
"s. c #9CA1A1",
"d. c #A7A9A5",
"f. c #ADADA2",
"g. c #B2AEA3",
"h. c #B4ADA9",
"j. c #ADB1A3",
"k. c #AAB5A9",
"l. c #B4B4A3",
"z. c #BBB5A2",
"x. c #B6B9A4",
"c. c #BBBBA5",
"v. c #B5B5AA",
"b. c #BAB6AB",
"n. c #B6B9AB",
"m. c #BBBBAC",
"M. c #AEACB2",
"N. c #B8B7B4",
"B. c #BCBCB2",
"V. c #C0BD9E",
"C. c #C1BBA5",
"Z. c #C1BDAB",
"A. c #C2BDB3",
"S. c #C4BCB9",
"D. c #ACC283",
"F. c #ADC588",
"G. c #B3C484",
"H. c #B4CB84",
"J. c #B8C987",
"K. c #B5C38C",
"L. c #BAC58D",
"P. c #BCCB8C",
"I. c #BBD384",
"U. c #BBD38B",
"Y. c #ACC193",
"T. c #B5C294",
"R. c #BBC494",
"E. c #BCCB93",
"W. c #BCC39B",
"Q. c #BAC899",
"!. c #BCD198",
"~. c #BDC3A3",
"^. c #BBC9A3",
"/. c #BEC1AB",
"(. c #BEC1B1",
"). c #BBC2B8",
"_. c #C2CC8D",
"`. c #C5D789",
"'. c #C2CB94",
"]. c #C2C59A",
"[. c #C3CB9B",
"{. c #C3D294",
"}. c #C5D39C",
"|. c #C9D698",
" X c #CBD99B",
".X c #D1DD99",
"XX c #CFE394",
"oX c #D8E898",
"OX c #C2C4A4",
"+X c #C9C7A6",
"@X c #C4CBA3",
"#X c #C3C3AD",
"$X c #C5CBAB",
"%X c #CACCAB",
"&X c #CBD4A4",
"*X c #C9D6A6",
"=X c #CBD3AB",
"-X c #D2DCA5",
";X c #D2D7A9",
":X c #D4DCAA",
">X c #C3C4B3",
",X c #CAC5B4",
"<X c #C6C9B4",
"1X c #CACAB4",
"2X c #C5C4BB",
"3X c #CAC5BC",
"4X c #C6C9BA",
"5X c #CCCBBB",
"6X c #D2CBB5",
"7X c #D2CDBB",
"8X c #CDD4B4",
"9X c #CED1BD",
"0X c #D7D9B6",
"qX c #D3D2BD",
"wX c #CDE2A7",
"eX c #D8E5A7",
"rX c #DBE3B7",
"tX c #E5E9B9",
"yX c #EBF2B3",
"uX c #EBF2B6",
"iX c #C0C1C1",
"pX c #CBC5C4",
"aX c #CCCBC2",
"sX c #D2CDC3",
"dX c #D4CAC7",
"fX c #D4D3C3",
"gX c #DAD5C4",
"hX c #D9D6C7",
"jX c #D6D5CB",
"kX c #DCD5CB",
"lX c #DDDACB",
"zX c #E3DCC6",
"xX c #E3DDCB",
"cX c #E4DDD3",
"vX c #E7DCD7",
"bX c #DEE2C7",
"nX c #E5E2CC",
"mX c #E9E8C8",
"MX c #F1EDCE",
"NX c #EDF2C3",
"BX c #F5F7C7",
"VX c #EBE5D3",
"CX c #EBE6D7",
"ZX c #F3EAD7",
"AX c #F3EBDC",
"SX c #F9F4D7",
"DX c #FEFBDD",
"FX c #EBDCE0",
"GX c #F9ECE5",
"HX c #FDF5E3",
"JX c #FBF3E7",
"KX c #FFFCE4",
"LX c #FFFDEB",
"PX c #F7F7F5",
"IX c #FFFFF3",
"UX c #FFFFFD",
/* pixels */
"c.J.J..X].] 8.l.g t I.&XK.W !...z F `.W F.W.c @XW.b.m.c.b.u.p.].z.x.p.c.c.8Xh h } 7XZ...J N J M t e H m c f.pX2.r 8.cXm.l.w.0.>.] M ,XB.b.c.m.N.m.m././.OX[.8Xt ",
"F D ! H / ( 9 6 V z J XXI.Y i a S W W X.c.$Xv K.#Xv.c.c.p.L.R.[.c.W.r.3.[ d 7 cX_ 3 n f f C m , s y ......4.} [ t z.cXc.v.4.;.0.} M p.c.l.x.i.m.#Xc.p.T.R.x.GX3.",
"r i L P ].CXl.6.KX8XU S S T k = ! I.F ! gX5Xz i #.R.W.2.D S T.1. .N f i b ; % l.>X<.1XnXZXDXCX=X*XtXrX[ X h.ZXIX&.p.gXy.>.%.e.*.n u.0.y.l.y.p.z.[.W.7.y.N.m.9.a.",
"r Z |.eX.XlXZ.5XLXrX.XL X.K.W W ! J.E P.0X^.i t B ! I p f m 1 < ; C 8XmXtXeXtXVXKXnXnXnXlXjX3Xc.i.b.3X#Xq.LXzXCX:.o.pX,.~ _.].K.m 8.h.f.e.g.i.R.J.,._.x.k.J = , ",
" XF.NX{.Z.1Xy.} v.'. XT.8XZXL F @Xt.p.c.<Xb -.KXVXMXtX&X;XrX8Xe ] UXIXAXcXsX1X<XaXj.w.4X).>Xm.m.N.N.3Xh.;.rXv.s.f q.gX&.A =.U.! t ` W.W.i.w.8.G.! R G f t 6 o.r.",
"mXH.:X/.1X1X9X4.} 5.OXJ.Q.FX&.S  XD.'.b.x.j ^.AXm.(.4XdX#X|.DX..#XCX<X4X>X,X<X<X1Xm.v.fX9X5X4Xm.n.n.3X4.A +Xd._ w Z ..K G f , e e % t b H ] ..L S r s ..6.3XAXv.",
"l.K 0X2XsX5XhX] ` 4X/.R.p.kXK.L H.D.E.y.A.j.B.B.w.2.3.j.N.v.,Xi.^.aX(.1X1X4X4X5X5Xm.[ $X<X4X4XB.n.m.3Xs.l U D A T T F A D.J M >XxX7XB.v./.9.L B 1 Z.xXsX3Xx.u.<.",
"` d VX4X5X9XfX' } >Xn.x.y.sX Xu R `._.'.m.} >Xx.w.6.w.c.A.m.4X#.q.kX4X9X9X,XB.>X3X,X, i qX9X4Xm.m.m.aX9.V T `.BXSXNXyXeX:XmXBXDXSXHXxX4XgXlX=XI ^.N.8.Z.z.z.l.6.",
"m m AX>X4X1XfX4.<.,Xv.#Xz.3XP.D ~ `.U.`.@.9 >X8.y.w.i.x.l.l.aX@.q.gX>X1X1X4Xm.x.z.x.h [ m.,X>Xc.A.4Xa.t Y H.:X0X=X7X8X:X|.,XS.n.n.N.n.n.l.A.kX[.NXVX_ s.d.n.c.Z.",
"d X.dX5X).<XfXf._ %X[.OXh.( < ! J V U '.Q ..A.8.l.l.l.l.l.6.A.W.~.pXc.Z.>Xc.[.y.w.@.5.5X5.b.5X7Xv.8 @ 1 F F.&XW.W.E.c.c.b.v.n.n.m.n.m.n.x.3.kXv.6 { & X 4 2 3 8 ",
"r J g &.W.0X).m...[.L.2.) h y F k J.-.D.T e.>X6.l.y.y.l.j.l.aXb m kXx.m.Z.~.G.;.P.R.1.u.O.f.O.9 4 _ N.G.D.;X1X>X4X1X#Xv.m.m.m.m.m.n.x.c.l.6.nX} . { >XZ.l.4.[ ( ",
"#.G.D.D.U v t j h U ! k k l.G x ! F Z u z 6.2Xl.l.l.l.l.y.l.pXK 6 N.z.3.;.R.+.L XX&.5.{ & 3 4 _ B.KXIXJ.U.7XN.<X4XaX4X>X>X(.m.m.c.c.l.l.l.6.gXn 6 UXKXHXMXVXVXbX",
"VXhXhXfX>X4.&.u B S S e G X.W k &.*X|.B V c.b.l.l.v.i.e.r.y.B.+X< <.i.b J #.K m P K / #   { aXhX1XA.vXP.E.2X2X>X>X<X,Xm.m.m.m.x.l.l.l.l.l.6.hX` } VXw.l.v.l.n.n.",
"j.v.m.m.S.kXnXI F ~ S ^.mXXX`.Y H.tXtXF.V OXg.1.w.i.,.$.&.q.dXd.y z i H 9 8 K b r z M s.} >XzXZ.W.k.2.D $X,X&X#X2X>X(.>X>X(.(.c.y.l.l.m.Z.e.fX_ 4.nXl.m.x.x.l.m.",
"N.>XA.A.>XB.@XH.R oX[.&X].p.I.E.,.E.*XK.z X.A.u.v.i.&.,.*.Y.(. .t D J.uXMXSXHXSXE r Y.CXn $ ' J G k ; o >X-X X$X(.4X(.m.>X>XB.c.u.l.m.(.4Xl.5X<.~.hXv.l.3.3.#.6.",
"m.B.$X#X>X@XgXgXi ;X3X*.e.l.[.W.p._.OXnXJ - 3 5 s d t z k g s o ; VXCX=X0XlXxXCXhXt e :Xm.d.4.0.E W Z > K  X<X8XpX4X5X,X4X/.v.c.l.c.#X>X1Xm.k.x.!.B.l.y.w.$.t.+.",
"<X5X&X X=X X7X#X7 @XOX;.p.z.l.u.].'.z.cX7 K S.n i G K u G S d X > VXZ.p.p.6.d.A.CX9 D KXLXKXUXLXuX:X*XAXI L }.XX0X5X=XjXhXaX1Xm.u.z.v.n.2X<X) f U.$Xc.8.8.e.t.] ",
"}.-XE.R.}.$X .' @.W.].t.8.l.z.c.C.C.>XN.> tXUXBXtXzXrX9.^.rXeX:...n.|.@Xm.m.z.~.cX[.0XMX`.#XgX0XbX0X0XPXU V K j U U.E.c.M.!.G.K.L f d B b K f q Z b ..w.z.:Xm ` ",
"; < t Z ! J.J k mXdX-.,.t.$.` } d.v.5X5 & AXqXu.C.h.y.t.c.Z.x.eXq.m *XZ.m.b.].].n.K.0X}.m.c.p.x.~.~.n.N.pXK L a.7 S i e b F B v 7 h j M ' m F L q d *.R v B & _ ",
"} j w B F ! tX-.9.o.e e 1 s s h m h 4 . n AXC.7.u.z.z.C.c.z.b.nX&.m ;Xc.B.#X_..XW.L H.9.q.W.v.N.c.n.n.n.dXi.H /.OX`.! G e I GXCXAXHXHXLXIXBXtXQ.F.rX;X=Xt.r j @ ",
"DXeX!.eXC V H.W A G q.] m &.{.tX0Xp.( . ` tXu.u.z.z.z.c.b.c.c.VXr.H ;XZ.b.b.].`.XXP U F.r.x.W.l.i.l.m.m.m.fXh r SXuXL.sXX.=.VX1X4X,X,X<X%X,XOXr.(.n.B.3XsXbX' > ",
"~.}.0X0XY p Q.NXSXJXIXIXIXLXKXvXZXHXHXm.f &X+Xp.z.C.z.z.c.b.l.zX$XZ Z.u.b.z.l.P.oXF P 0X0.K.E.y.y.p.m.m.n.3Xj.D yXeXOXzXS.*.-Xh.2.4.4.1.e.r.5.v.j.w.l.l.B.KX` #X",
"n.c.~.N.N 2.GXCXlX7X,X,X3X5X>Xg.8.y.,X5X-.tXV.u.z.z.z.z.Z.b.b.2X1XJ c.u.p.l.q.W T F '.q.J W.[.c.{.'.v.b.m.c.{ s T }.'.T.<.A 9.B.z.y.W.~.].i.C.c.c.x.b.1Xd.8 9 VX",
"m.N.m.:XJ 2.0Xc.f.w.j.y.l.v.c.b.b.l.Z.h.M -Xf.z.z.z.z.z.x.Z.z.g.qXj H '.0.R.I.F p F I.=.&.P.T.:.W ,.8.e.c.} ) 1 z J C B f + 1 ) v.T.9...] 2.-.} } [ o.( : k.[ 4X",
"m.B.v.:XI t *X%Xc.c.x.c.m.m.m.b.x.y.>X5.y ;Xl.l.p.z.z.z.g.b.c.u.xX_ z `.M Y W W J i V D E H.J C L #.L.Q.' j S T Z y y i A U J * > C % = G J L #.h h h 3 5 v._ A.",
"m.m.m.<XU H =X@Xm.c.l.x.x.x.x.x.z.u.,X4.t }.c.n.z.z.z.u.e.u.z.x.3XS.D z L D W Q J z z S W U U D Z j t 3 d E |.tXeX`.:XtXtXnXHXBXp.e ; }.BXSXBXBXMXVXZXZXCX_ 6 qX",
"B.m.n.aXD.L '.&Xm.m.m.m.c.i.y.x.C.C.Z.| d K.t.p.z.C.z.8.$.1.e.z.S.h.l Q wX:XeXyXNXtXwXH.R U.|.'.Q.U.n.> z 8XJXGXqX*X@X;X3XA.zXSXtXu ^.GXfXhXlX1X,X3X3XqX0X$X9 1X",
"n.b.>XvX..F  X$X>X#X/.#X+XOXp.z.C.C.+X| } Q.Q t.z.b.z.3.1.3.3.7.C.5.B oX3X:X=X,XpX2XB.$X~.[.eXtXbX;XMX0Xv sX7Xm.>X<Xb.C.u.e.t.:XH.i 3X3Xj.j.j.8.u.y.8.x.=.q.] ,X",
"y.l.Z.CX0.F $XA.&X$X#X|.#Xv.}.Y.+.+.j.f.d Y.-.<.l.u.c.#Xy.3.7.y.#Xi.i P.:X'.W.c.v.n.B.N.N.B.[.[.i.v.A.@Xv kX4Xm.,X#X#Xb.Z.Z.u.].`.i b.9Xi.v.m.z.z.z.z.h.R.].n A.",
"1.$.4.zXW.j s.B.^.F.E.k.g N S j g 2 2 > ; y 8 8 6 9 8 n ] [ ` } ' : i Q I.[.[.#Xc.m.B.m.c.x.c.N.m.m.2Xr.] vX4X(.4X<X>XZ.A.3Xz.,X0XB =.|.i.z.b.z.z.z.C.u.Z.L.A C.",
"$.e.] 6X^.# 3 h _ b D f ..-.:.wXeXP z P rX,X,XxX5X<Xn.4.d.g.o.7 > 8 l.I I.|.0.i.m.v.B.m.w.;.6.B.m.b.>XW...CX1X,X<X4X4X<X1X1XZ.$XkXQ.T I.e.f.u.u.b.C.z.C.N.OXV g.",
"P._.@XfX9 @ qXmXGX} e  XHXAXAXAXGXtXoXeXqXhXfXgXxXxXxXnXxXxXAX>XS.KXNX*.F U.3.6.6.0.v.y.3.3.6.m.m.B.>Xr.j iXfXfX5X7X1X<X,X,XsX@XJ U S U L.].g.g.b.S.Z.+X>XO.C %X",
"F.!.).{ 2 3XUXZXVXS.; eX7Xi.y.f.f.b.m.].p.v.d.f.l.f.f.l.f.3.8.8.A.sXgX;Xx E.R.=.1.0.3.3.3.6.l.l.l.l.>X*X+ # 8 { B.4X1XfX7X>Xs.L V ; r k J f j L H j _ n h a u ' ",
"X.X.4 , q SXJXZ.l.dXf T.~.i.i.i.p.l.c.c.c.b.5.v.m.x.x.c.6.+.u.M 7 [ 9 d.[.! =.=.7.;.e.e.6.3.y.v.l.w.b.@Xy ` d.h h _ w.1Xv.{ w u I L R U.D.L !.&XW.q.0.} 2.!.W e ",
"W X.x.q.D !.xXb.b.kX] P &Xp.W.i.i.v.y.x.l.c.6.l.x.l.x.l.w.2.e.n 9 ] M A.kXV L ,.3.>.r.6.3.1.6.x.m.m.N...$XcXnXgXb.o.* * * v D Y eXuXeXtXnXtXBXVXJXKXSXGXAXAXSXtX",
"E.W tXJXmX,.S.A.,XM.6 i D.J.#X~.g.y.v.l.l./.+.] y.3.3.3.3.y.] ] ].R.u.1.pX] i ;.$.P.e.1.3.3.3.y.l.x.b.L.=Xv.6.y.B.nX_ } x.H /.XX@Xt._.[.N.S.@X^.S.m.b.v.l.m.pXfX",
"~.G.l.fXmXe.m.sX_ # d n 6 i j T.C.8.0.l.u.z.] M c.0.e.8.7.u.M 4.L.:.$.t.7X_ - i.R.,.1.7.e.e.w.y.3.l.(.H.9.t.%.<.6.qXaXnXIXk.&.oXQ 1.8.p.c.N.9.i.n.n.m.>XB.(./.(.",
"z.m.c.r.MX<.d o.9 j.HXKXVX<XG 1 C =.b U $X| ] 9 [ } { } 1.h ] 8.6.{.F.9.) # % X.q.v.5.O.4.j./.l.z.,Xk.u m i.3.3.3.gX>X6.pX^.E .XJ.e.g.l.c.6.M 3.v.m.m.<X,X<X>X<X",
"z.b.W.H.nXdX1 @XZXKXxX7XlXLXIXxXK.~ C t G K n 5 $ * 5 * & @ @ n n 7 f & . o o & d ] 2.] ' h 8 ` ' ) : o k { j.9.<.n.O.$Xi.t R .Xe.1.6.e.3.6...#.x.c.c.m.>X<X>X>X",
"C.x.A.W.P.c.d eXqXN.h.l.j.v.sXMXDXDX|.e s mXVXVX#X6 } m.B.h.O #Xo.. v.1X8XtXE.K.1X0XmXtXrX%Xd } d.# X u - G h 3 4 # $ <XF.q L -X3.e.8.3.1.6.e.~.#XT.m.>X4X<X>Xm.",
"C.Z.1.| >. XK OX#Xg.z.b.c.x.l.v.4XhXmXC i.CX>X7XcXh } 5X,X7X7X+.7 lXUXHXZXcXfX X*X1X3X4X>XSXSXE.d ` &XmXkX X:.} { * - Z V r U ].r.r.+.1.$.1.y.@X~.W.p.z.n././.m.",
"b.1.| 1.b.=XU T.%Xu.z.C.C.b.m.m.f.v.0X,.8X,X<.b.5.4.5Xm.b.4XGXd ..LXx.5.8.g.v.].c.v.v.v.v.c.7XtXy 0XDXLXIXSXDXUXIXBXyX*X2.H ~ ,.#.e.e.+.1.+.w.[.W.E.r.6.;.y.B.>X",
"+.6.>Xx.w.l...N [.C.z.C.u.<.6.m.>Xb.9X:X0X3Xl.>X[ ` n.m.m.n.jX;.+XdX3.z.z.z.z.h.b.m.B.B.~.=.0.:X&.,X0XfX5X1X1XfXgXmXJXUXLX~.T L -.;.0.r.%.3.u.y.K.E.R.t.e.e./.m.",
"8.z.z.u.w.x.j.s _.V.8.7.6.3Xv.3.>Xm.kX%XT.m.m.4.| [ l.>Xm.v.dX*.p.6X7.C.z.z.u.z.C.b.B.b._.%X^.E C 7X1X3.<.8.w.j.x.b.N.0XeXH.f D X.G ' -.0.o.4.l.#.E E K K.&.f m ",
"C.l.l.e.e.Z.` d {.y.6.n vXUXUX5.l.(.gX$X= 9 _ $ 9 h ` aXA.N.tXl ] gX8.z.z.z.z.C.z.z.b.b.].Q.r.L y 3XsXl.y.w.l.n.m.N.n.L.Q.}.A u q V *.6 > 5 3 * c S f D.K.U R T ",
"z.u.g.y.c.' ' #.[.l.3.n jXUXPX3.c.<XgX0.> xXgXl.} h ( _ o.v.U . ] zXu.u.z.u.z.z.z.z.z.b.c.t.;.X.= z.xXm.l.l.y.n.c.m.B.~.#X9XF f q.'.eXeX>X3XZ.d.K V ^.LXDXSXrXeX",
"z.z.l.m.( 8 hX-.;.t.y.} ] ).j.8.9X4XfX4.3.HXDXLXIXIXHX3XOXf 1 { C.,X7.z.z.8.z.8.8.u.z.b.g.3.3.&.b h _ w.q.y.y.x.l.l.m.N.c.$XD *.tX0X:XuXIXLXLXUXOXG.AXlXgXkX$X*X",
"h ' ' O.5 _ [ C E.y.3.w.3.+.6.<X9X4XqXl.,XjXv.Z.>X7XgXHXIX`.b v.OXC.7.C.C.u.8.8.$.8.8.u.e.6.+.=Xy...( f :.6.6.l.y.y.x.m.N.jXq.N |.K.W.'.+X=X2XpXE.W cXk.f.f.i.R.",
"dX5X5XgXlX0XM.y E.g.+.;.m.#X$X4XfX4X0XW.~.A.y.x.e.6.6.j.pXNXZ d @XC.7.C.z.u.u.u.3.8.u.8.6.3.1.,X6.;.<.m %.+.7.z.l.l.l.m.v.5X>Xb `.'._.J.J.#Xk.{ B *.VXn.m.m./.~.",
"lXqX1XZ./.,XGX;.E l.%.>.t.+Xc.c.m.W.:XM f.6Xt.g.i.'.W./.p.2X8Xe A %Xe.h.z.g.t.e.8.7.8.7.3.1.3.1.5.d n @X>.$.+.8.u.u.e.3.w.1X8Xb K.`.I Y #.m : 3 v 2.kXj.B.m./.x.",
"3.w.3.l./.k.aXj z @Xr.r.,.r.p.2.<.3.:.i O.A.].c.i.@X{.W.~.N.fXU < b =.u.8.t.t.%.7.7.3.+.+.$.>.3.d.1 #.Q.>.$.1.+.2.1.1.1.>.%XzX*.D T S R B f P *Xl 6.hX] 6.l.B.m.",
"m.O.h _ ( /   . ; s n  .G d > 1 7 g 1 q e g s M K.r.!.<XN.5X*.@X4.r k K &.t.r.3.3.1.1.1.7.3.t.t.) * T.J.%.| 7.$.+.1.$.3.W.=.K.G.D H. XoXI.*X}.MX..~.zX1.3.5.3.w.",
"} h 9 } [ _ n A Z q t X - J <.#X2.J Q.qXx.@X0.o.H.i ,  .2.; ; dX3Xd X + w u C H n ' m ] #.6.[.M 9 ] M _.>.1.+.1.+.+.1.e.E.:.$X! D F.U.8X@XD.&.1X} W.7X6.z.c.w.<.",
"xXAXKXDXLXUXDXuX!.W Y % < BXKXIXNXU.mXJXBXBXDXDX!.e c X.t.` d.gX,XzXB.4.2.K E.&X:X;X~. .u V I.t d <Xm ,._.G.+.3.1.+.$.%.r.W.mXG.Z K.I.j.i.Q.m.3X3.[.S.e.l.y.z.z.",
"7X4X5X5XqXgX=X0X*X!..Xy t tXB.v.W.T.T.i.~.~.qXmX=Xl eXMXNXKXAXnXVXVXKXgXnXHXZXAXAXZXSXVXVX<.V yXAX} X L =.L.>.>.$.+.>.J.$.#XN.K C ! |.l.y.c.v.B.E.@Xm.l.y.y.l.l.",
"v.v.v.l.5.<.f.c.Q.=XMXB K cXk.n./.#X~./.N.n.d.kXnXL uXAXt.y.v.v.l.v.b.4.f.A.v.B.>X(.>X1XGXh.i NXGXLXh ; ~ .X_.P _.,.E ..>.:X/ ; e ~ `.e.l.l.l.@XD.x.c.l.l.z.y.y.",
"m.B./.y.+.#.f.#X@Xc.;XI.}.kXW.OXm.z./.B.x.m.l.4XZX[.tX7X<.y.B.B.B.n.m.<X>X4XB.>X<X,X>Xx.5XN.i Q.h.ZX>X; I k D ~ E f v ..-.z r B p T W e.z.l.l.~.U ~.b.0.u.l.u.y.",
"x.m.x.l.6.3.3.3.6.l..XI K :XL.i.6.6.l.m.x.l.v.l.qX|.rXZ.| 1.6.e.i.2.8.>XW./.>X4X<X1X<Xm.3Xm.k >Xv.cXw.i :.f S ! W F `.yX:.L S 8XeXF W t.l.y.z.d.f J.e.3.l.y.u.y.",
"y.6.3.6.6.3.3.1.e.{.OX=.I {.y.3.0.l.l.l.x.l.l.l.3Xr.-X0X$.>.R.'.>.;.b.pXi.y.%XqXsXqXqXA.5X&.M VXj.B...*XnX0XH.! E J.DXcXXXuX*XmXDXK A R.y.1.u.a.a U u.3.8.e.} ( ",
"$.<.3.6.3.7.3.1.;.R.N.x.^ |.w.t.i.l.l.x.x.l.x.w.sXi.H ' d d J I E H L &XX.*.L.q.0.+.<.4._ - 3 B.{  .R.NX=X>X[.XXU r.vX#XXXwXeX=XN. .F *.....' / - m N.5.4._ g n ",
"3.i.,.3.u.e.8.3.1.q.9X~.T R.$.L.y.y.i.v.c.n.l.e.pXrX; % M _ _ > f *.O i V t 6 < 1 5 8 > % > * 4 3 b  X!.L.l.m.%XW.b -.A D f d 3 t f 0 > h j ) 4 , 6 ' 5 $ , ,.BX",
"c.! 7.d.} s.5.w.z.x.k.G ~ H.I R.z.W.c.x.n.l.g.V.#X;.x |.zXHXHXb.` uX@Xe q 5XcXlXCXAXAXnXVXKXZXgXn.b D.%Xv.l.l.B./.t z H.;X>XN.~.}.X.j X.qXnXCXMXVXlXxXkXM b jXcX",
"t s h j m j m 8 8 ) , t oXQ ~ `.].~.n.v.v.l.t.].'.F ^ ;X7XgXnXnXF.0XJX' < MXsX7X5X,X,XfXgX7XfXgXIXD.Z kXv.l.v.x.N.U wXBXcXCXSXZXnXCXcXlXjXlXnXbXfXfXfXAXrX:.pXd.",
"] } X.*.U 2.M m m P.D.D T `.{.`.R.v.v.b.b.i.'.|.L.~ I.OXc.v.B.<XE.J.O.9 1 rXN.b.l.n.j.v.l.l.j.f.kX'.&.fXl.l.u.v.#XI.-X0Xy.v.>X5X/.(.aX1X<X<X<X4X4X4X4XfXnXP. .9 ",
"CXCXAXvX%XzXqXuXyXNXrXL S ! P.J.H.].C.c.r.r._.{.K.~ T L W.s.iX/.r D Y.d 9.jXc.x.v.l.l.l.x.m.m.m.A.@X[.>Xl.l.l.m.1X~ P.=X>X5X5XqX/.<XfX9X9X9X9X9XfX9X4XfXAX9.b cX",
"~.W.^.pX] E :.U.qXpX^.j u H.L F U &.&.=.! F.E H.`.`.T k ' / O.L z Z z rXCXW.3.l.u.l.x.l.x.n.m.v.S.eX&XN.W.l.l.N.8XE U @X2X5X9XqX>X/.aXaX9X9XaX4XaXaXqX9XcXd.C ZX",
"v.L T.@XL L u i K m d t r Z F ! U j t f F C N S F W X.h j 9.!.J &X[.s R.=.2.6.8.l.z.x.x.z.l.l.B.iX=X'.[.T.l.l.n.8XF W ,Xv.>X5X9X9Xn./.*X=X,X<X<X%X1X4Xy.fX3Xv E.",
"G J V V D C D G G N L U S N  XR z T F W :.Z T H.D Z ).GXMXMXMXCXcXVXkX:Xz ` z.l.l.l.u.z.Z.B.A.v.9.v &.eXc.x.y.B.c.R eXA.6.u.4X9X9X4X@XT.w.i.F.J.`.E.6.4.s.h Q |.",
"0XfXX.r Q eXSXDXmXXXtXeX!.*XrX{.D.&X|.I.U.W ! F.H.`.K.3X5XA.N.Z.>XA.S.sXL ..b.6.7.y.g.g.6.c.e.d = % L rX5Xl.e.m.>XY ;XA.w.y.Z.qXhXaX+XXXw.t.[._.U.L K ..6 - A C ",
"HXJX<Xx -XVXsX1X%X}.[.`.%X>X~.|..X*X0XI k u H.E.{..XU.t.v.l.m.n.b.z.W.@XL m Z.7.8.l.{ s f v l v c i ! :X1Xx.g.m.aXH !.6Xg.C.Z.m.j.@.1 ; N v R e O j :.T.@X,Xy.T.",
"zXkXH.R @XOXl.x.W.OXR.E.[.Q.c.[.{.$X7X*Xp L &XW.V.c.@X].z.z.m.z.z.c.,.{.F.: d.| h : > b U 5.l.mXuXXXD.1X8Xc.g.y.4X6 : :.c.} 5 , t f 9 h p.f o ' >XmXHXLXLXLXIXLX",
"h.S.:XW @X].v.m.~.m.R.^.(.OXm.m.OX4X2XA.W &X7Xf.j.v.z.u.u.z.z.z.u.u.t.u.wXu X 1 h @.p.gXgX5Xb.v.6XR :.0X`.T.8.y.<X0.M s + % f K.0XVXKXUXUXb.> LXIXZXgX6X5XqX6X3X",
"x.>XA.D.&XT.c.m.m.N.@X{.<X4X<X4X4X1X5Xz.=.oX+X6.l.l.z.z.u.u.z.z.z.z.p.g.lXb ; nXfXlXOX} v.6.w.h.%XL K.{.=.J.7.v.7X#Xj.o.B eXKXKXHXZXmXmXNX0.m CX7XC.8.8.8.g.4.1.",
"W.@X[.K.=Xy.R.z.>X4X>X[.$XaXfXqXfXfX7X].I eX,Xe.y.l.u.C.z.z.z.u.z.z.z.6.aX+.$XGXe.y.@X;.<.c.j.z.R.D D.:.>._.8.z.lXv.. c.DXVXlX4XZ.x.y.w.[.{.T.xXA.7.u.u.u.u.C.7.",
"|.q.=. X7Xe.e.g.5XfX>X#X*XqXfXfXhXlXsX,.L 1X-Xe.T.c.h.u.C.u.u.8.j.u.g.z.Z.#X#.>Xc.c.~.[.@.f.t.e.rXL G q.`.t.4.8.ZXv.X tXcXh.j.v.n.N.n.n.5XD.D f.8.C.u.u.z.C.+X8.",
"} j u Z ..W.[.z.C.c.c.$X>XB.).).M.O.) 4 u  .|.t.,.R.V.u.g.C.u.u.l.8.z.z.u.0X+.q.8X[.W.Q...;.-Xb.*XG j J.|.y.e.b.2X9 7 :X<Xv.B.m.n.n.B.Q.=X*X+ s d.6XZ.A.C.b.g.9 ",
"6 j u e d 9 9 2.c.z.r...1 6 6 6 m &.G y r t f E L U |.p.1.u.t.t.l.l.z.C.].T.L.E f t m f Z I h 4 s q - f 1 * > &   8 mXE.$Xj.l.x.x.c.m.Z.:...< ..{ ` n n  .m ' o.",
"eX^.D.nXmX*.h 9 3 h m l i.Q.R ! yXuXyXrX*X:XQ F z v ,.;.>.>.e.p.b.(.#Xd.2.f t F l D I ! {.~.n j X.K.OXX.' o.} h 7 d.<XW.#X6.e.y.x.l.Z.OXj.t m %X* 3 8 6 f ; n 4X",
"aX}.@XsX3XzXMXxXv.5 $ qXUXSXtX:X%XB.gXd.r.mX1X&.I.Z i b Z K &.=.m d t j L x ; !.KXLXuXSXMXMXKXHXAXKXDXtXBXDXDXDXKXsX% #.7X1.3.l.l.u.m.v.~.Y.z ^.dXZXKXKXAXgXM @ ",
"N.^.[.T.W.v.i.>XJXZ.* AX-Xl.v.z.e.w.6.] i.b.j.q.9X/.r.W.> r A m }.=Xw.y x :Xq.hXgXaX,X,X(.c.m.m.m.N.m.#X%X#X#X#Xm.AX5 v 6X+.3.z.y.l.l.x.N.=XH.HXIXDXVXVXxXKXHXh "
};
